<?xml version="1.0" encoding="UTF-8" standalone="no"?>
<!DOCTYPE svg  PUBLIC '-//W3C//DTD SVG 1.1//EN'  'http://www.w3.org/Graphics/SVG/1.1/DTD/svg11.dtd'>
<svg version="1.1" xmlns="http://www.w3.org/2000/svg">
<defs>
<font id="PFCentroSansPro-Thin" horiz-adv-x="517">
<font-face bbox="-42 -245 885 886" unicode-range="U+0020-04D9" ascent="750" font-weight="250" cap-height="683" underline-thickness="30" descent="-250" panose-1="2 0 5 0 0 0 0 2 0 4" underline-position="-130" units-per-em="1000" font-family="o" x-height="486"/>
<missing-glyph/>
<glyph unicode=" " glyph-name="space" horiz-adv-x="260"/>
<glyph d="M81 692h42l-1 -313l-6 -217h-26l-7 217zM103 65q15 0 26 -10.5t11 -25.5q0 -16 -11 -27.5t-25 -11.5q-16 0 -27.5 11.5t-11.5 27.5q0 15 11.5 25.5t26.5 10.5z" unicode="!" glyph-name="exclam" horiz-adv-x="197"/>
<glyph d="M160 499h-24l-9 184h43zM74 499h-22l-12 184h44z" unicode='&quot;' glyph-name="quotedbl" horiz-adv-x="206"/>
<glyph d="M477 424h-78l-41 -192h82l-6 -28h-82l-43 -204h-31l43 204h-170l-44 -204h-31l44 204h-73l6 28h73l41 192h-76l6 27h76l37 173h30l-37 -173h171l37 173h31l-37 -173h79zM197 424l-40 -192h170l41 192h-171z" unicode="#" glyph-name="numbersign"/>
<glyph d="M422 179q0 44 -26.5 74.5t-65.5 45t-85.5 31.5t-85.5 33t-65.5 51t-26.5 85q0 77 50.5 119t116.5 48v97h35v-96q92 -3 148 -37l-13 -32q-66 33 -147 33q-60 0 -105.5 -31.5t-45.5 -100.5q0 -42 26.5 -70.5t65.5 -42.5t85.5 -30.5t85.5 -34t65.5 -54t26.5 -88.5 q0 -83 -55 -126.5t-137 -49.5v-95h-35v94q-98 3 -175 49l16 33q86 -46 171 -46q79 0 127.5 34t48.5 107z" unicode="$" glyph-name="dollar"/>
<glyph d="M335 462q0 -37 -7 -70t-23 -63.5t-47 -48t-73 -17.5q-48 0 -80 16.5t-47.5 47.5t-21 62t-5.5 72q0 37 6 69t21.5 65t48 52.5t80.5 19.5q148 0 148 -205zM299 461q0 175 -112 175q-119 0 -119 -177q0 -38 4.5 -65t17 -51.5t36.5 -37t61 -12.5q32 0 55.5 15t35 40.5 t16.5 53t5 59.5zM545 698l-281 -721h-34l283 721h32zM748 195q0 -37 -7 -70t-23 -63t-47 -48t-73 -18q-48 0 -80 16.5t-47.5 47.5t-21 62t-5.5 72q0 207 156 207q148 0 148 -206zM712 194q0 176 -112 176q-119 0 -119 -177q0 -38 4.5 -65.5t17 -52t36.5 -37t61 -12.5 q43 0 69 27.5t34.5 62.5t8.5 78z" unicode="%" glyph-name="percent" horiz-adv-x="780"/>
<glyph d="M273 673q61 0 94.5 -34.5t33.5 -87.5q0 -92 -147 -170q98 -147 209 -263q116 109 129 280h35q-10 -183 -138 -304q74 -73 155 -108l-18 -31q-88 41 -167 117q-104 -81 -226 -81q-90 0 -148 47.5t-58 138.5q0 66 44 118.5t130 100.5q-58 76 -58 141q0 59 36 97.5t94 38.5z M66 179q0 -76 46.5 -116t116.5 -40q107 0 206 72q-30 31 -96 110q-72 88 -119 160q-74 -40 -114 -84t-40 -102zM269 638q-44 0 -64.5 -30.5t-20.5 -65.5q0 -55 53 -131q55 26 90.5 63t35.5 76q0 40 -25 64t-69 24z" unicode="&amp;" glyph-name="ampersand" horiz-adv-x="695"/>
<glyph d="M87 499h-23l-11 184h44z" unicode="&apos;" glyph-name="quotesingle" horiz-adv-x="150"/>
<glyph d="M59 287q0 236 139 426l17 -12q-22 -34 -43 -77t-45.5 -139t-24.5 -198q0 -252 113 -447l-17 -12q-139 204 -139 459z" unicode="(" glyph-name="parenleft" horiz-adv-x="263"/>
<glyph d="M201 287q0 -257 -138 -459l-18 12q113 195 113 447q0 236 -112 414l17 12q138 -194 138 -426z" unicode=")" glyph-name="parenright" horiz-adv-x="263"/>
<glyph d="M183 564q89 40 109 49q15 -19 15 -48q-20 -3 -60 -10t-60 -10l82 -87q-16 -23 -40 -30l-57 106l-54 -106q-25 7 -42 29l81 89l-118 20q2 30 16 49l109 -51l-16 119q14 3 27 3q17 0 25 -3z" unicode="*" glyph-name="asterisk" horiz-adv-x="341"/>
<glyph d="M443 279h-165v-169h-36v169h-166v35h166v163h36v-163h165v-35z" unicode="+" glyph-name="plus"/>
<glyph d="M35 29q0 15 10 26t25 11q18 0 28.5 -12.5t10.5 -33.5q0 -30 -18 -68t-46 -57l-12 13q30 37 32 89q-13 1 -21.5 10t-8.5 22z" unicode="," glyph-name="comma" horiz-adv-x="145"/>
<glyph d="M283 235h-232v39h232v-39z" unicode="-" glyph-name="hyphen" horiz-adv-x="334"/>
<glyph d="M114 32q0 -14 -10.5 -25t-24.5 -11t-24.5 11t-10.5 25t10.5 24.5t24.5 10.5t24.5 -10.5t10.5 -24.5z" unicode="." glyph-name="period" horiz-adv-x="160"/>
<glyph d="M301 698l-257 -724h-35l259 724h33z" unicode="/" glyph-name="slash" horiz-adv-x="315"/>
<glyph d="M489 337q0 -66 -11 -123.5t-35.5 -109t-71 -81.5t-109.5 -30q-59 0 -102 20.5t-68 51.5t-40 78t-19.5 91.5t-4.5 99.5q0 50 5 94.5t20 95t39.5 86t68.5 59.5t102 24q226 0 226 -356zM447 334q0 35 -1.5 63t-7 69t-18 71.5t-32 59.5t-51.5 44.5t-74 15.5q-193 0 -193 -325 q0 -54 4.5 -96t17 -82.5t33.5 -67t56 -42.5t82 -16q53 0 91 27t57.5 74t27.5 97t8 108z" unicode="0" glyph-name="zero"/>
<glyph d="M259 636l-155 -19v30l154 35h42v-682h-41v636z" unicode="1" glyph-name="one"/>
<glyph d="M448 0h-418v33l49 49q64 63 93.5 93.5t77.5 85t70.5 89.5t40.5 79.5t18 83.5q0 69 -41 105t-107 36q-90 0 -172 -58l-18 30q90 66 195 66q82 0 134.5 -44.5t52.5 -132.5q0 -43 -19.5 -92t-44.5 -88.5t-73 -95t-78 -86.5t-87 -87l-31 -31v-1h358v-34z" unicode="2" glyph-name="two"/>
<glyph d="M62 682h366l7 -30l-235 -247l1 -2q12 1 35 1q96 0 158 -48.5t62 -144.5q0 -104 -66 -161.5t-166 -57.5q-110 0 -188 34l12 32q88 -30 175 -30q85 0 137 46t52 137q0 74 -53 115t-146 41q-39 0 -65 -5l-12 29l238 252l-1 3h-311v36z" unicode="3" glyph-name="three"/>
<glyph d="M351 682h44v-449h99v-35h-99v-198h-41v198h-332v37zM64 233h291v394h-1z" unicode="4" glyph-name="four"/>
<glyph d="M258 417q52 0 97 -19t77.5 -67t32.5 -119q0 -108 -64 -164.5t-162 -56.5q-111 0 -193 36l13 32q89 -31 162 -31q95 0 147.5 45.5t52.5 138.5q0 81 -50.5 125t-128.5 44q-65 0 -123 -30l-29 19l16 312h330v-36h-294l-14 -256q59 27 130 27z" unicode="5" glyph-name="five"/>
<glyph d="M300 692q78 0 140 -30l-13 -32q-64 26 -128 26q-47 0 -84 -22.5t-58 -55t-35.5 -75t-20 -75t-6.5 -62.5l3 -3q83 54 186 54q84 0 139 -50t55 -157q0 -100 -57.5 -158.5t-152.5 -58.5q-51 0 -89.5 17t-62 45t-38.5 70t-20.5 87t-5.5 101q0 172 64.5 275.5t183.5 103.5z M437 205q0 176 -159 176q-50 0 -95.5 -15.5t-63 -27t-24.5 -18.5v-28q0 -264 175 -264q77 0 122 49t45 128z" unicode="6" glyph-name="six"/>
<glyph d="M445 647l-280 -647h-42l281 646h-343v36h384v-35z" unicode="7" glyph-name="seven"/>
<glyph d="M453 535q0 -103 -109 -181q123 -64 123 -176q0 -76 -56.5 -130.5t-157.5 -54.5q-106 0 -161 49t-55 120q0 65 34 125t102 101q-100 56 -100 141q0 67 52.5 115t136.5 48q76 0 133.5 -39.5t57.5 -117.5zM256 27q82 0 126 45t44 104q0 17 -3 32.5t-7.5 27.5t-14.5 24 t-17.5 20.5t-22.5 18.5t-25 15.5t-29.5 14.5t-30.5 14t-34.5 14.5t-35.5 14.5q-64 -41 -95.5 -95t-31.5 -110q0 -58 43 -99t134 -41zM259 657q-38 0 -68 -13.5t-45.5 -34.5t-23 -42t-7.5 -39q0 -21 7 -39t24 -33.5t30.5 -26t42.5 -23.5t42 -18t46 -18q105 75 105 157 q0 51 -37 90.5t-116 39.5z" unicode="8" glyph-name="eight"/>
<glyph d="M213 -6q-90 0 -150 29l13 32q64 -26 138 -26q54 0 94.5 28.5t62.5 75t33.5 93t13.5 93.5l-1 1l-2 2q-80 -55 -185 -55q-85 0 -139.5 50.5t-54.5 157.5q0 99 57 158t153 59q50 0 88.5 -17t62 -45t38.5 -70t20.5 -87t5.5 -101q0 -172 -64.5 -275t-183.5 -103zM77 479 q0 -175 158 -175q108 0 183 60v29q0 263 -174 263q-78 0 -122.5 -49t-44.5 -128z" unicode="9" glyph-name="nine"/>
<glyph d="M115 33q0 -14 -10 -25t-24 -11q-15 0 -25.5 11t-10.5 25t10.5 24.5t24.5 10.5t24.5 -10.5t10.5 -24.5zM115 342q0 -15 -10 -25.5t-24 -10.5q-15 0 -25.5 11t-10.5 25t10.5 24.5t24.5 10.5t24.5 -10.5t10.5 -24.5z" unicode=":" glyph-name="colon" horiz-adv-x="159"/>
<glyph d="M115 342q0 -15 -10 -25.5t-24 -10.5q-15 0 -25.5 11t-10.5 25t10.5 24.5t24.5 10.5t24.5 -10.5t10.5 -24.5zM44 29q0 15 10 26t25 11q18 0 28.5 -12.5t10.5 -33.5q0 -30 -18.5 -67.5t-46.5 -57.5l-12 14q30 37 32 88q-13 2 -21 10.5t-8 21.5z" unicode=";" glyph-name="semicolon" horiz-adv-x="159"/>
<glyph d="M444 128v-41l-368 191v36l368 190v-40l-332 -167z" unicode="&lt;" glyph-name="less"/>
<glyph d="M444 353h-372v35h372v-35zM444 213h-372v34h372v-34z" unicode="=" glyph-name="equal"/>
<glyph d="M76 87v41l332 169l-332 167v40l368 -190v-36z" unicode="&gt;" glyph-name="greater"/>
<glyph d="M388 573q0 -73 -92 -148q-73 -59 -103.5 -97.5t-30.5 -81.5q0 -32 9 -74q-21 -3 -36 -7q-11 54 -11 87q0 47 30.5 90.5t99.5 97.5q46 37 67.5 66.5t21.5 64.5q0 94 -130 94q-73 0 -159 -27q-7 19 -11 34q81 29 168 29t132 -33.5t45 -94.5zM209 29q0 -16 -11 -26t-25 -10 q-15 0 -26.5 10.5t-11.5 25.5q0 14 11 24.5t26 10.5t26 -10.5t11 -24.5z" unicode="?" glyph-name="question" horiz-adv-x="414"/>
<glyph d="M450 683q158 0 249 -86t91 -232q0 -97 -48.5 -150t-108.5 -53q-82 0 -106 56q-60 -56 -139 -56q-56 0 -79 32t-23 73q0 96 125 107l109 8v36q0 53 -19 73.5t-67 20.5q-55 0 -115 -22q-6 13 -9 26q61 29 134 29q109 0 109 -112v-167q0 -35 21 -54.5t59 -19.5q49 0 87 43 t38 129q0 139 -83.5 215t-224.5 76q-142 0 -243.5 -93t-101.5 -228q0 -139 90.5 -230.5t225.5 -91.5q59 0 116 18l9 -27q-61 -21 -121 -21q-153 0 -252 99t-99 251q0 151 110.5 251t265.5 100zM520 355l-113 -9q-38 -2 -62 -22.5t-24 -54.5q0 -36 19 -57t58 -21q63 0 122 52 v112z" unicode="@" glyph-name="at" horiz-adv-x="856"/>
<glyph d="M471 0q-12 35 -33 100t-29 91h-287q-12 -37 -33 -104t-27 -87h-45l221 682h57l221 -682h-45zM264 642q-20 -69 -42 -135l-88 -280h264l-89 280l-42 135h-3z" unicode="A" glyph-name="A" horiz-adv-x="534"/>
<glyph d="M392 359v-5q64 -20 92 -69t28 -104q0 -81 -52 -131t-128 -50h-252v682h217q94 0 143.5 -46.5t49.5 -122.5q0 -109 -98 -154zM315 336h-191v-300h193q76 0 113.5 43t37.5 108q0 60 -43.5 104.5t-109.5 44.5zM290 646h-166v-273h175q66 0 106.5 37t40.5 98 q0 63 -38.5 100.5t-117.5 37.5z" unicode="B" glyph-name="B" horiz-adv-x="570"/>
<glyph d="M337 693q100 0 169 -26l-11 -35q-77 24 -154 24q-120 0 -178 -85t-58 -236q0 -51 5 -91.5t20 -82t40 -69t68.5 -45t101.5 -17.5q90 0 168 23l10 -32q-74 -28 -185 -28q-144 0 -208.5 89t-64.5 255q0 48 7 93.5t26 94.5t48.5 85t80 59.5t115.5 23.5z" unicode="C" glyph-name="C" horiz-adv-x="555"/>
<glyph d="M272 0h-192v683h203q267 0 267 -340q0 -343 -278 -343zM273 647h-149v-610h141q19 0 32 0.5t40.5 6.5t47 16.5t44 32.5t40 52.5t26 79.5t10.5 110q0 63 -9.5 113t-24 82t-37 55.5t-41.5 35t-45 18t-40.5 7.5t-34.5 1z" unicode="D" glyph-name="D" horiz-adv-x="610"/>
<glyph d="M476 0h-396v683h379v-36h-335v-267h290v-36h-290v-308h352v-36z" unicode="E" glyph-name="E" horiz-adv-x="512"/>
<glyph d="M124 0h-44v683h378v-37h-334v-267h288v-37h-288v-342z" unicode="F" glyph-name="F" horiz-adv-x="484"/>
<glyph d="M351 693q103 0 172 -26l-9 -34q-83 23 -160 23q-123 0 -186 -85.5t-63 -236.5q0 -51 5 -91.5t20.5 -81.5t41 -68.5t69 -44.5t102.5 -17q84 0 141 20v291h43v-321q-88 -28 -192 -28q-275 0 -275 344q0 48 8 94t28.5 94.5t52 85t84 59.5t118.5 23z" unicode="G" glyph-name="G" horiz-adv-x="597"/>
<glyph d="M530 0h-45v342h-360v-342h-45v683h45v-303h360v303h45v-683z" unicode="H" glyph-name="H" horiz-adv-x="610"/>
<glyph d="M133 0h-43v683h43v-683z" unicode="I" glyph-name="I" horiz-adv-x="223"/>
<glyph d="M125 109v574h43v-572q0 -113 -47.5 -178.5t-146.5 -111.5l-15 33q92 54 129 107.5t37 147.5z" unicode="J" glyph-name="J" horiz-adv-x="268"/>
<glyph d="M124 289v-289h-44v683h44v-340l333 340h55l-271 -274l275 -409h-50l-254 377z" unicode="K" glyph-name="K" horiz-adv-x="533"/>
<glyph d="M510 0h-412v683h44l1 -647h367v-36z" unicode="L" glyph-name="L" horiz-adv-x="527"/>
<glyph d="M129 682q38 -84 110 -245t106 -235l42 -97h4l44 98l107 238q61 136 109 241h46v-682h-42q0 98 -0.5 295t-0.5 296h-3l-38 -85l-202 -446h-45l-201 442l-40 92h-3v-594h-42v682h49z" unicode="M" glyph-name="M" horiz-adv-x="778"/>
<glyph d="M516 77h4v606h44l-1 -683h-43l-319 493l-74 119q-1 0 -2 -0.5t-2 -0.5v-611h-43v683h46l323 -501z" unicode="N" glyph-name="N" horiz-adv-x="644"/>
<glyph d="M603 338q0 -153 -68.5 -248.5t-196.5 -96.5q-147 0 -212.5 87.5t-65.5 254.5q0 74 14.5 135t45 113t86.5 81t132 29q265 0 265 -355zM557 335q0 323 -219 323q-233 0 -233 -325q0 -152 55 -228.5t173 -76.5q110 0 167 86.5t57 220.5z" unicode="O" glyph-name="O" horiz-adv-x="663"/>
<glyph d="M483 492q0 -26 -5 -51.5t-18 -53t-34 -48t-55.5 -33.5t-78.5 -13h-168l1 -293h-45v683h204q87 0 143 -49t56 -142zM286 647h-162v-318h165q63 0 106 37.5t43 122.5q0 77 -42.5 117.5t-109.5 40.5z" unicode="P" glyph-name="P" horiz-adv-x="508"/>
<glyph d="M603 338q0 -124 -45.5 -211.5t-131.5 -118.5l170 -43l-17 -45q-11 4 -109.5 35.5t-109.5 35.5q-4 1 -11.5 1h-10.5q-148 3 -213 89.5t-65 253.5q0 74 14.5 135t45 113t86.5 81t132 29q265 0 265 -355zM557 335q0 322 -219 322q-233 0 -233 -324q0 -152 55 -228.5 t173 -76.5q110 0 167 86.5t57 220.5z" unicode="Q" glyph-name="Q" horiz-adv-x="663"/>
<glyph d="M484 503q0 -63 -31 -114t-93 -66q39 -12 60.5 -40.5t34.5 -74.5l60 -208h-45l-58 200q-20 63 -55.5 87.5t-89.5 24.5h-143v-312h-44v683h204q101 0 150.5 -50t49.5 -130zM124 348h162q71 0 112 38t41 114q0 72 -43 109t-113 37h-159v-298z" unicode="R" glyph-name="R" horiz-adv-x="549"/>
<glyph d="M270 694q100 0 173 -31l-14 -36q-86 29 -164 29q-73 0 -117.5 -37t-44.5 -109q0 -25 10.5 -45.5t24.5 -33t41 -24.5t45.5 -18t53.5 -15q31 -8 43.5 -12t40.5 -14t41.5 -18t33 -23.5t28.5 -32t16.5 -40.5t7.5 -53q0 -96 -65 -142t-171 -46q-127 0 -210 49l16 34 q92 -46 191 -46q96 0 145 36t49 116q0 66 -41.5 96.5t-128.5 53.5q-42 11 -68 19t-57.5 23t-49 32t-30 43.5t-12.5 60.5q0 87 58.5 135.5t154.5 48.5z" unicode="S" glyph-name="S" horiz-adv-x="532"/>
<glyph d="M281 0h-42v646h-220v37h481v-37h-218z" unicode="T" glyph-name="T" horiz-adv-x="520"/>
<glyph d="M570 683v-442q0 -114 -63 -181t-185 -67q-244 0 -244 248v442h42l1 -440q0 -214 202 -214q99 0 151 54.5t52 159.5v440h44z" unicode="U" glyph-name="U" horiz-adv-x="647"/>
<glyph d="M255 45h4l39 134l154 504h44l-212 -683h-55l-212 683h46l154 -507z" unicode="V" glyph-name="V" horiz-adv-x="513"/>
<glyph d="M387 614h-5l-45 -194q-47 -194 -98 -420h-57l-165 682h43q105 -437 149 -632h4l47 202l102 430h45l117 -429q23 -73 54 -203h4l48 208q17 70 50 211.5t50 212.5h42q-134 -554 -165 -682h-55q-20 77 -58.5 217.5t-54.5 202.5q-29 112 -52 194z" unicode="W" glyph-name="W" horiz-adv-x="789"/>
<glyph d="M445 0l-191 319l-191 -319h-47l213 353l-199 329h48l177 -296l178 296h47q-33 -55 -100 -165t-100 -165q115 -191 214 -352h-49z" unicode="X" glyph-name="X" horiz-adv-x="511"/>
<glyph d="M214 0v309l-201 374h48l114 -216l59 -117h4l59 111l121 222h47l-206 -371v-312h-45z" unicode="Y" glyph-name="Y" horiz-adv-x="479"/>
<glyph d="M41 646v37h409v-38l-381 -607h398v-38h-450v38l382 608h-358z" unicode="Z" glyph-name="Z" horiz-adv-x="484"/>
<glyph d="M198 -160h-138v856h138v-36h-96v-784h96v-36z" unicode="[" glyph-name="bracketleft" horiz-adv-x="235"/>
<glyph d="M267 -26l-258 724h33l259 -724h-34z" unicode="\" glyph-name="backslash" horiz-adv-x="315"/>
<glyph d="M176 -160h-137v36h96v784h-96v36h137v-856z" unicode="]" glyph-name="bracketright" horiz-adv-x="235"/>
<glyph d="M394 397h-39l-144 250l-143 -250h-41q117 195 168 285h36q136 -240 163 -285z" unicode="^" glyph-name="asciicircum" horiz-adv-x="423"/>
<glyph d="M500 -119h-500v29h500v-29z" unicode="_" glyph-name="underscore" horiz-adv-x="500"/>
<glyph d="M255 548l-122 134l37 32l107 -148z" unicode="`" glyph-name="grave" horiz-adv-x="472"/>
<glyph d="M245 492q74 0 111 -37t37 -120v-300h66q1 -4 1.5 -8t1 -9t0.5 -8q-32 -14 -67 -14q-28 0 -36 13.5t-8 46.5q-1 1 -2 1q-84 -63 -174 -63q-73 0 -104 40t-31 93q0 66 45.5 101.5t122.5 39.5q105 7 144 7v45q0 76 -24.5 106.5t-91.5 30.5q-68 0 -152 -31l-11 30 q88 36 172 36zM352 244l-146 -8q-59 -3 -91 -30.5t-32 -73.5q0 -105 110 -105q70 0 159 72v145z" unicode="a" glyph-name="a" horiz-adv-x="492"/>
<glyph d="M99 449l2 -2q93 47 158 47q96 0 135.5 -67.5t39.5 -187.5q0 -111 -46 -178t-148 -67q-95 0 -181 38v677h41v-168q0 -10 -0.5 -45.5t-0.5 -46.5zM256 459q-66 0 -156 -50v-353q67 -28 137 -28q155 0 155 209q0 122 -35 172t-101 50z" unicode="b" glyph-name="b" horiz-adv-x="483"/>
<glyph d="M92 236q0 -208 157 -208q65 0 148 34l11 -30q-72 -39 -159 -39q-200 0 -200 242q0 33 4.5 65t18.5 68.5t36 63t60 44.5t88 18q79 0 135 -24l-12 -33q-60 22 -120 22q-83 0 -125 -60t-42 -163z" unicode="c" glyph-name="c" horiz-adv-x="439"/>
<glyph d="M383 52q-1 0 -1 0.5t-1 0.5q-74 -59 -158 -59q-174 0 -174 238q0 119 45.5 190t142.5 71q78 0 146 -40v255h40v-708h-40v52zM383 92v323q-68 42 -143 42q-67 0 -107.5 -53.5t-40.5 -172.5q0 -110 36.5 -156.5t105.5 -46.5q35 0 78.5 19t70.5 45z" unicode="d" glyph-name="d" horiz-adv-x="484"/>
<glyph d="M248 461q-137 0 -155 -192h295q0 192 -140 192zM248 493q38 0 68.5 -11.5t49 -26t32 -40.5t19.5 -43t9 -46t3 -37.5v-28.5v-23h-337q-2 -209 156 -209q77 0 155 37l12 -29q-80 -43 -166 -43q-58 0 -98.5 19t-62 55t-30.5 77.5t-9 95.5q0 28 3.5 56.5t16 65.5t33 64.5 t58.5 47t88 19.5z" unicode="e" glyph-name="e" horiz-adv-x="475"/>
<glyph d="M106 0v453h-69v24l69 13v90q0 138 141 138q45 0 80 -9l-6 -31q-42 6 -67 6q-56 0 -82 -23.5t-26 -78.5v-95h146v-34h-146l-1 -453h-39z" unicode="f" glyph-name="f" horiz-adv-x="320"/>
<glyph d="M137 190l1 2q-32 15 -53 50.5t-21 84.5q0 84 53 125.5t124 41.5q52 0 86 -11h146v-32h-90l-1 -3q50 -37 50 -118q0 -76 -52.5 -120t-139.5 -44h-60q-45 0 -69 -9t-24 -36q0 -42 64 -42h137q171 0 171 -139q0 -73 -61 -115.5t-157 -42.5q-196 0 -196 142q0 41 19 75.5 t45 51.5q-61 7 -61 64q0 70 89 75zM282 46h-124q-32 -13 -52 -46t-20 -67q0 -53 35 -85t126 -32q76 0 123.5 33t47.5 90q0 107 -136 107zM391 330q0 51 -34.5 91t-109.5 40q-67 0 -104.5 -35.5t-37.5 -97.5q0 -57 36 -93t93 -36q72 0 114.5 33.5t42.5 97.5z" unicode="g" glyph-name="g" horiz-adv-x="506"/>
<glyph d="M98 440l4 -3q108 57 183 57q37 0 63 -10t39 -23.5t20 -36t8.5 -38.5t1.5 -40v-346h-42v331q0 66 -19 96.5t-80 30.5q-74 0 -176 -57v-401h-41v709h41v-143q0 -64 -2 -126z" unicode="h" glyph-name="h" horiz-adv-x="476"/>
<glyph d="M124 0h-41l1 487h40v-487zM137 610q0 -13 -10 -22.5t-24 -9.5q-13 0 -22.5 9.5t-9.5 22.5q0 14 9.5 24t22.5 10q14 0 24 -10t10 -24z" unicode="i" glyph-name="i" horiz-adv-x="208"/>
<glyph d="M91 -12l-1 499h41v-492q-2 -84 -31.5 -129t-112.5 -81q-1 3 -6.5 15t-6.5 14q70 38 93.5 74.5t23.5 99.5zM78 610q0 14 9.5 24t22.5 10q14 0 24 -10t10 -24q0 -13 -10 -22.5t-24 -9.5q-13 0 -22.5 9.5t-9.5 22.5z" unicode="j" glyph-name="j" horiz-adv-x="216"/>
<glyph d="M98 252h2l2 -1l72 71l167 164h50l-193 -189l30 -40q11 -17 87 -129t87 -128h-47q-62 90 -184 272q-11 -12 -35.5 -35.5t-35.5 -35.5v-201h-41v708h41v-328z" unicode="k" glyph-name="k" horiz-adv-x="415"/>
<glyph d="M116 709v-709h-42v709h42z" unicode="l" glyph-name="l" horiz-adv-x="191"/>
<glyph d="M715 0h-41v330q0 68 -18 98t-82 30q-71 0 -170 -57q4 -23 4 -50v-351h-42v335q0 64 -18.5 93t-77.5 29q-71 0 -169 -56v-401h-41v487h39q0 -6 0.5 -24t0.5 -23l2 -1l2 -1q96 56 174 56q91 0 118 -63q107 63 185 63q44 0 73 -12t41 -35t16 -43t4 -49v-355z" unicode="m" glyph-name="m" horiz-adv-x="775"/>
<glyph d="M417 0h-42v330q0 35 -2.5 53.5t-11.5 38.5t-29.5 28t-54.5 8q-73 0 -176 -57v-401h-41v487h40q0 -6 0.5 -23.5t0.5 -23.5q2 -1 3 -2q96 56 181 56q44 0 72 -12t40.5 -34.5t16 -42t3.5 -48.5v-357z" unicode="n" glyph-name="n" horiz-adv-x="476"/>
<glyph d="M443 240q0 -38 -5.5 -71.5t-19 -66.5t-35.5 -56.5t-57 -38t-81 -14.5q-73 0 -118.5 36t-61.5 88t-16 121q0 106 49.5 180.5t152.5 74.5q55 0 94 -21.5t59.5 -59.5t29.5 -80t9 -92zM401 238q0 221 -150 221q-45 0 -78 -19.5t-49.5 -53t-24 -70t-7.5 -79.5q0 -45 6 -79 t22.5 -65.5t49 -48t81.5 -16.5q150 0 150 210z" unicode="o" glyph-name="o" horiz-adv-x="492"/>
<glyph d="M98 436l3 -3q77 60 158 60q174 0 174 -240q0 -118 -45.5 -188.5t-142.5 -70.5q-79 0 -146 39v-244h-40v698h38q0 -7 0.5 -26t0.5 -25zM99 393v-322q66 -43 143 -43q67 0 107.5 54t40.5 173q0 109 -36.5 155.5t-105.5 46.5q-35 0 -78.5 -19t-70.5 -45z" unicode="p" glyph-name="p" horiz-adv-x="483"/>
<glyph d="M384 35l-4 3q-89 -46 -154 -46q-96 0 -136 65.5t-40 183.5q0 115 46 184t149 69q94 0 179 -39v-666h-40l-1 130q0 20 0.5 58t0.5 58zM228 26q62 0 155 50v356q-63 27 -135 27q-156 0 -157 -211q0 -121 35 -171.5t102 -50.5z" unicode="q" glyph-name="q" horiz-adv-x="484"/>
<glyph d="M110 423l4 -1q31 27 78.5 51t75.5 24q16 0 16 -16q0 -24 -14 -43q-8 -1 -78.5 -18.5t-78.5 -18.5v-401h-43v487h42q0 -7 -1 -32t-1 -32z" unicode="r" glyph-name="r" horiz-adv-x="293"/>
<glyph d="M43 29l15 30q65 -33 140 -33q61 0 99 25t38 74q0 41 -32 64t-90 42q-37 12 -60 21.5t-48 25.5t-37 38t-12 51q0 64 44.5 95t113.5 31q77 0 130 -27q-12 -31 -13 -32q-61 25 -118 25q-53 0 -85 -23t-32 -70q0 -60 116 -96q35 -11 49.5 -16t41.5 -18.5t39 -26t22.5 -34.5 t10.5 -49q0 -66 -49.5 -99.5t-125.5 -33.5q-98 0 -157 36z" unicode="s" glyph-name="s" horiz-adv-x="418"/>
<glyph d="M113 583l27 4v-100h142v-34h-142v-340q0 -40 16 -61t59 -21q36 0 93 17l8 -28q-55 -24 -108 -24q-109 0 -109 104v353h-69v23l70 15z" unicode="t" glyph-name="t" horiz-adv-x="320"/>
<glyph d="M192 -10q-38 0 -64.5 10t-39.5 23t-19.5 36.5t-7.5 37.5t-1 40v350h41v-335q0 -68 18 -97.5t80 -29.5q36 0 82.5 19.5t86.5 54.5l-1 388h41v-487h-40v61l-3 2q-85 -73 -173 -73z" unicode="u" glyph-name="u" horiz-adv-x="468"/>
<glyph d="M172 0q-153 468 -159 486h43q9 -29 46 -144.5t57 -180.5q28 -92 38 -124h4q34 111 40 128q9 29 47.5 146t55.5 175h43q-123 -368 -164 -486h-51z" unicode="v" glyph-name="v" horiz-adv-x="400"/>
<glyph d="M488 40h4l35 134l84 313h42l-137 -487h-50l-97 303l-40 133h-3l-34 -122l-92 -314h-51l-136 487h42l81 -298l38 -149h4l44 158l84 289h42l101 -318z" unicode="w" glyph-name="w" horiz-adv-x="666"/>
<glyph d="M335 0l-141 229l-141 -229h-45q19 30 75 119.5t87 137.5q-21 34 -70 111t-74 118h46l122 -199l122 199h45l-144 -227l165 -259h-47z" unicode="x" glyph-name="x" horiz-adv-x="391"/>
<glyph d="M210 28q2 6 8.5 27t19 60t21.5 69l96 303h42q-177 -551 -193 -597q-17 -54 -42.5 -81t-70.5 -27q-55 3 -99 14l7 33q56 -11 81 -11q22 0 33.5 3t26 20t25.5 51l35 109h-22q-9 28 -84 250.5t-79 235.5h41q5 -17 51 -155.5t49 -149.5l50 -154h4z" unicode="y" glyph-name="y" horiz-adv-x="419"/>
<glyph d="M67 37l2 -4l307 1v-34h-361v32l301 417l-2 3h-274v35h326v-36z" unicode="z" glyph-name="z" horiz-adv-x="396"/>
<glyph d="M210 -163h-41q-70 0 -70 90v243q0 101 -68 114v28q68 13 68 115v166q0 106 72 106h39v-36h-22q-47 0 -47 -63v-175q0 -105 -56 -126q36 -19 46 -48.5t10 -86.5v-230q0 -31 8 -46.5t34 -15.5h27v-35z" unicode="{" glyph-name="braceleft" horiz-adv-x="236"/>
<glyph d="M121 -136h-35v833h35v-833z" unicode="|" glyph-name="bar" horiz-adv-x="210"/>
<glyph d="M70 -163h-40v35h27q25 0 33 16t8 46v230q0 56 10.5 86t46.5 49q-57 21 -57 126v175q0 63 -46 63h-22v36h38q72 0 72 -106v-166q0 -102 68 -115v-28q-68 -13 -68 -114v-243q0 -90 -70 -90z" unicode="}" glyph-name="braceright" horiz-adv-x="236"/>
<glyph d="M380 248q-37 0 -124.5 19.5t-114.5 19.5l-52 -42l-20 14q31 64 77 64q31 0 123 -19.5t116 -19.5l50 40l18 -13q-28 -63 -73 -63z" unicode="~" glyph-name="asciitilde"/>
<glyph unicode=" " glyph-name="uni00A0" horiz-adv-x="260"/>
<glyph d="M90 322h26l6 -246q0 -4 0.5 -142.5t0.5 -141.5h-42q1 13 1 150.5t1 150.5zM140 455q0 -15 -11 -25.5t-26 -10.5t-26.5 10.5t-11.5 25.5q0 16 11.5 27.5t27.5 11.5q14 0 25 -11.5t11 -27.5z" unicode="¡" glyph-name="exclamdown" horiz-adv-x="197"/>
<glyph d="M287 458q-78 0 -121 -58.5t-43 -163.5q0 -209 156 -209q69 0 148 34l12 -29q-60 -34 -145 -38v-90h-34v91q-180 10 -180 239q0 44 8.5 84.5t27.5 79t56 64t88 30.5v91h34v-90q74 -2 128 -24l-12 -32q-59 21 -123 21z" unicode="¢" glyph-name="cent"/>
<glyph d="M465 0h-418v35q73 31 82 195l5 104h-70v32h72l5 118q2 44 10.5 78.5t27.5 65t54.5 47.5t86.5 17q94 0 152 -28l-13 -33q-65 25 -136 25q-79 0 -109 -44.5t-33 -128.5l-5 -117h201v-32h-203l-4 -104q-6 -146 -64 -195h359v-35z" unicode="£" glyph-name="sterling"/>
<glyph d="M116 423l-64 64l24 24l64 -63q51 42 118 42q60 0 117 -42l64 63l24 -25l-66 -62q43 -52 43 -117q0 -63 -43 -118l67 -60l-25 -27l-65 63q-50 -42 -116 -42t-117 42l-65 -64l-25 26l65 62q-43 51 -43 116q0 71 43 118zM106 306q0 -62 44.5 -106t106.5 -44q61 0 105 44 t44 106q0 61 -44 105t-105 44q-62 0 -106.5 -44t-44.5 -105z" unicode="¤" glyph-name="currency" horiz-adv-x="515"/>
<glyph d="M67 243h169v51h-169v28h158l-180 360h45l106 -215l60 -126h3l62 127l109 214h44l-187 -360h161v-28h-171v-51h171v-29h-171v-214h-41v214h-169v29z" unicode="¥" glyph-name="yen"/>
<glyph d="M121 352h-35v345h35v-345zM86 252h35v-388h-35v388z" unicode="¦" glyph-name="brokenbar" horiz-adv-x="210"/>
<glyph d="M242 701q65 0 134 -21l-11 -33q-66 21 -123 21q-53 0 -91.5 -26.5t-38.5 -81.5q0 -10 2.5 -19t8.5 -17.5t11 -15t16.5 -15t17.5 -13t21.5 -12.5t21.5 -11t24 -11.5t22 -10.5q73 -36 102 -69t29 -77q0 -64 -70 -128q78 -50 78 -121q0 -74 -53.5 -112t-131.5 -38 q-66 0 -142 24l10 31q77 -23 134 -23q62 0 103 30t41 83q0 43 -30.5 71.5t-84.5 52.5q-9 4 -35.5 15.5t-38 17t-32.5 17t-31.5 21t-22.5 23t-17 29.5t-5 35q0 79 80 136q-67 45 -67 107q0 67 46.5 104t122.5 37zM98 325q0 -23 10.5 -41.5t32.5 -33t42.5 -24.5t53 -24.5 t51.5 -24.5q62 56 62 110q0 44 -41 75t-140 77q-30 -24 -50.5 -56.5t-20.5 -57.5z" unicode="§" glyph-name="section" horiz-adv-x="446"/>
<glyph d="M325 606q0 -13 -9 -21.5t-23 -8.5q-13 0 -21.5 8.5t-8.5 21.5t9 22t21 9q14 0 23 -9t9 -22zM176 606q0 -13 -9 -21.5t-23 -8.5q-13 0 -21.5 8.5t-8.5 21.5t9 22t21 9q14 0 23 -9t9 -22z" unicode="¨" glyph-name="dieresis" horiz-adv-x="467"/>
<glyph d="M778 334q0 -147 -106.5 -252t-255.5 -105t-254.5 104.5t-105.5 252.5q0 147 105.5 251.5t254.5 104.5t255.5 -104.5t106.5 -251.5zM748 334q0 137 -96.5 232.5t-235.5 95.5q-137 0 -234.5 -96t-97.5 -232t97.5 -232t234.5 -96q138 0 235 96t97 232zM254 325 q0 -47 7.5 -83.5t25.5 -68.5t53.5 -49.5t87.5 -17.5q64 0 118 17l8 -27q-50 -21 -131 -21q-205 0 -205 251q0 43 9.5 84t31 82.5t64.5 67t103 25.5q70 0 121 -19l-9 -30q-51 19 -110 19q-85 0 -129.5 -62t-44.5 -168z" unicode="©" glyph-name="copyright" horiz-adv-x="824"/>
<glyph d="M266 485v-186h47l2 -25q-24 -10 -52 -10q-18 0 -25 9t-9 29q-58 -40 -113 -40q-53 0 -75 27t-22 64q0 85 113 94q62 4 98 5v25q0 46 -16 65t-59 19q-45 0 -106 -22l-10 27q64 25 123 25q53 0 78.5 -24.5t25.5 -81.5zM230 424q-31 -1 -91 -5q-83 -5 -83 -63q0 -64 70 -64 q44 0 104 42v90z" unicode="ª" glyph-name="ordfeminine" horiz-adv-x="322"/>
<glyph d="M66 165v33l138 146l19 -16l-111 -147l112 -146l-19 -16zM180 165v33l138 146l19 -16l-112 -147l113 -146l-19 -16z" unicode="«" glyph-name="guillemotleft" horiz-adv-x="385"/>
<glyph d="M443 314v-204h-36v169h-331v35h367z" unicode="¬" glyph-name="logicalnot"/>
<glyph d="M283 235h-232v39h232v-39z" unicode="­" glyph-name="sfthyphen" horiz-adv-x="334"/>
<glyph d="M279 706q96 0 165 -68.5t69 -164.5q0 -97 -68.5 -163.5t-165.5 -66.5q-98 0 -166 66t-68 164q0 96 68.5 164.5t165.5 68.5zM279 683q-86 0 -147.5 -62t-61.5 -148q0 -88 60 -147t149 -59q88 0 148.5 59t60.5 147q0 87 -61 148.5t-148 61.5zM330 470v-2q23 -9 35 -47 l27 -91h-29l-25 84q-9 28 -21.5 37.5t-37.5 9.5h-50v-131h-29v290h91q44 0 65.5 -21t21.5 -55q0 -58 -48 -74zM229 597v-114h60q60 0 60 58q0 56 -61 56h-59z" unicode="®" glyph-name="registered" horiz-adv-x="568"/>
<glyph d="M85 598v37h299v-37h-299z" unicode="¯" glyph-name="macron" horiz-adv-x="477"/>
<glyph d="M287 545q0 -50 -34.5 -84.5t-84.5 -34.5q-56 0 -89 33.5t-33 85.5q0 49 36 85.5t86 36.5q49 0 84 -36.5t35 -85.5zM256 544q0 37 -27.5 64.5t-62.5 27.5q-37 0 -63.5 -27.5t-26.5 -64.5q0 -36 26.5 -62.5t63.5 -26.5q36 0 63 26.5t27 62.5z" unicode="°" glyph-name="degree" horiz-adv-x="334"/>
<glyph d="M443 278h-165v-167h-36v167h-166v36h166v162h36v-162h165v-36zM72 48h374v-34h-374v34z" unicode="±" glyph-name="plusminus"/>
<glyph d="M294 356h-277v27q123 105 159 144q64 70 64 121q0 38 -25 56.5t-65 18.5q-53 0 -113 -35l-15 27q61 40 131 40q56 0 91 -26t35 -77q0 -26 -14.5 -56.5t-30 -52t-50 -56t-47 -45.5t-49.5 -42q-10 -9 -15 -13h221v-31z" unicode="²" glyph-name="twosuperior" horiz-adv-x="337"/>
<glyph d="M36 751h245l7 -23l-146 -135h11q64 0 105 -28t41 -85q0 -61 -43 -95t-107 -34q-74 0 -131 22q9 23 11 29q60 -19 116 -19q52 0 84.5 25t32.5 73q0 39 -33 60.5t-89 21.5q-24 0 -45 -3l-12 22q28 26 78.5 74t66.5 63l-192 1v31z" unicode="³" glyph-name="threesuperior" horiz-adv-x="337"/>
<glyph d="M295 682l-122 -134l-21 17l107 148z" unicode="´" glyph-name="acute" horiz-adv-x="473"/>
<glyph d="M235 368h-18q-69 0 -115 46.5t-46 113.5q0 68 46.5 117t114.5 49h166v-867h-35v833h-77v-833h-36v541z" unicode="¶" glyph-name="paragraph" horiz-adv-x="471"/>
<glyph d="M124 281q0 -15 -12 -27t-26 -12q-15 0 -27 11.5t-12 27.5q0 15 11.5 26.5t27.5 11.5q14 0 26 -11.5t12 -26.5z" unicode="·" glyph-name="periodcentered" horiz-adv-x="165"/>
<glyph d="M318 6q-5 -6 -27.5 -34t-34.5 -43q118 0 118 -71q0 -42 -42.5 -70t-125.5 -28q0 4 -0.5 11.5t-0.5 11.5q128 10 128 72q0 22 -23 34.5t-58 12.5h-26q-7 8 -10 15q7 9 36.5 46t46.5 56z" unicode="¸" glyph-name="cedilla" horiz-adv-x="507"/>
<glyph d="M163 356v357l-106 -15l-4 26l113 28h34v-396h-37z" unicode="¹" glyph-name="onesuperior" horiz-adv-x="337"/>
<glyph d="M305 425q0 -44 -10.5 -78t-43 -59.5t-84.5 -25.5q-137 0 -137 162q0 71 33.5 119.5t106.5 48.5q135 0 135 -167zM268 424q0 139 -98 139q-56 0 -79.5 -40.5t-23.5 -98.5q0 -60 21.5 -95t81.5 -35q98 0 98 130z" unicode="º" glyph-name="ordmasculine" horiz-adv-x="335"/>
<glyph d="M329 198v-33l-138 -146l-19 16l112 146l-112 147l20 16zM216 198v-33l-139 -146l-19 16l112 146l-111 147l19 16z" unicode="»" glyph-name="guillemotright" horiz-adv-x="385"/>
<glyph d="M704 113h-63v-113h-38l1 113h-212v28q27 34 109.5 132t103.5 123h36v-253h63v-30zM527 698l-281 -721h-34l283 721h32zM189 266v357l-106 -15l-4 26l113 28h34v-396h-37zM604 346h-1q-26 -31 -96.5 -116t-72.5 -87h170v203z" unicode="¼" glyph-name="onequarter" horiz-adv-x="780"/>
<glyph d="M707 0h-277v27q119 102 155 140q67 73 68 125q0 38 -25 56.5t-65 18.5q-53 0 -113 -35l-15 27q63 40 131 40q56 0 91 -26t35 -78q0 -16 -4 -32t-14.5 -34t-19 -32t-26 -33t-27 -29.5t-31.5 -30.5t-29.5 -26.5t-30 -25.5t-24.5 -21h221v-31zM494 698l-281 -721h-34 l283 721h32zM182 266v357l-106 -15l-4 26l113 28h34v-396h-37z" unicode="½" glyph-name="onehalf" horiz-adv-x="780"/>
<glyph d="M743 113h-63v-113h-38l1 113h-212v28q27 34 109.5 132t103.5 123h36v-253h63v-30zM64 661h245l7 -23l-146 -135h11q64 0 105 -28t41 -85q0 -61 -43 -95t-107 -34q-74 0 -131 22q9 23 11 29q60 -19 116 -19q52 0 84.5 25t32.5 73q0 39 -33 60.5t-89 21.5q-24 0 -45 -3 l-12 22q28 26 78.5 74t66.5 63l-192 1v31zM570 698l-281 -721h-34l283 721h32zM643 346h-1q-26 -31 -96.5 -116t-72.5 -87h170v203z" unicode="¾" glyph-name="threequarters" horiz-adv-x="780"/>
<glyph d="M167 43q-46 -35 -67.5 -63.5t-21.5 -64.5q0 -94 130 -94q72 0 161 27l9 -33q-87 -31 -168 -31q-86 0 -131 33.5t-46 93.5q0 75 91 147q74 58 104.5 98t30.5 84q0 32 -9 73l36 7q11 -52 11 -86q0 -47 -31 -91.5t-99 -99.5zM212 457q0 15 11 26.5t25 11.5q15 0 26.5 -11 t11.5 -27q0 -15 -11 -25.5t-26 -10.5t-26 10.5t-11 25.5z" unicode="¿" glyph-name="questiondown" horiz-adv-x="414"/>
<glyph d="M471 0q-12 35 -33 100t-29 91h-287q-12 -37 -33 -104t-27 -87h-45l221 682h57l221 -682h-45zM264 642q-20 -69 -42 -135l-88 -280h264l-89 280l-42 135h-3zM268 718l-121 133l36 32l107 -148z" unicode="À" glyph-name="Agrave" horiz-adv-x="534"/>
<glyph d="M471 0q-12 35 -33 100t-29 91h-287q-12 -37 -33 -104t-27 -87h-45l221 682h57l221 -682h-45zM264 642q-20 -69 -42 -135l-88 -280h264l-89 280l-42 135h-3zM387 851l-121 -133l-22 16l107 149z" unicode="Á" glyph-name="Aacute" horiz-adv-x="534"/>
<glyph d="M471 0q-12 35 -33 100t-29 91h-287q-12 -37 -33 -104t-27 -87h-45l221 682h57l221 -682h-45zM264 642q-20 -69 -42 -135l-88 -280h264l-89 280l-42 135h-3zM420 727l-15 -17l-139 98l-138 -99l-15 17l135 127h36z" unicode="Â" glyph-name="Acircumflex" horiz-adv-x="534"/>
<glyph d="M471 0q-12 35 -33 100t-29 91h-287q-12 -37 -33 -104t-27 -87h-45l221 682h57l221 -682h-45zM264 642q-20 -69 -42 -135l-88 -280h264l-89 280l-42 135h-3zM339 748q-22 0 -75.5 19.5t-70.5 19.5l-51 -41l-18 12q10 28 29.5 45t43.5 17q23 0 75 -18.5t70 -18.5l49 40 l17 -12q-24 -63 -69 -63z" unicode="Ã" glyph-name="Atilde" horiz-adv-x="534"/>
<glyph d="M471 0q-12 35 -33 100t-29 91h-287q-12 -37 -33 -104t-27 -87h-45l221 682h57l221 -682h-45zM264 642q-20 -69 -42 -135l-88 -280h264l-89 280l-42 135h-3zM372 760q0 -13 -9 -22t-23 -9q-13 0 -21.5 9t-8.5 22t9 22t21 9q13 0 22.5 -9t9.5 -22zM223 760q0 -13 -9 -22 t-23 -9q-13 0 -21.5 9t-8.5 22t9 22t21 9q13 0 22.5 -9t9.5 -22z" unicode="Ä" glyph-name="Adieresis" horiz-adv-x="534"/>
<glyph d="M471 0q-12 35 -33 100t-29 91h-287q-12 -37 -33 -104t-27 -87h-45l221 682h57l221 -682h-45zM264 642q-20 -69 -42 -135l-88 -280h264l-89 280l-42 135h-3zM266 706q-41 0 -66.5 25.5t-25.5 62.5t26.5 63t65.5 26t64 -26t25 -63t-25 -62.5t-64 -25.5zM266 854 q-28 0 -44.5 -17t-16.5 -45q0 -27 16 -43.5t45 -16.5q27 0 43 16.5t16 43.5t-16 44.5t-43 17.5z" unicode="Å" glyph-name="Aring" horiz-adv-x="534"/>
<glyph d="M468 0l1 199h-284l-126 -199h-49l435 683h382v-36h-314l-1 -267h271v-36h-271v-308h332v-36h-376zM465 643l-258 -407h262v407h-4z" unicode="Æ" glyph-name="AE" horiz-adv-x="882"/>
<glyph d="M337 693q100 0 169 -26l-11 -35q-77 24 -154 24q-120 0 -178 -85t-58 -236q0 -51 5 -91.5t20 -82t40 -69t68.5 -45t101.5 -17.5q90 0 168 23l10 -32q-70 -26 -177 -28q-32 -37 -56 -69q118 0 118 -71q0 -42 -42.5 -70t-125.5 -28q0 4 -0.5 11.5t-0.5 11.5q128 10 128 72 q0 22 -23 34.5t-58 12.5h-26q-7 8 -10 15l65 82q-250 12 -250 343q0 48 7 93.5t26 94.5t48.5 85t80 59.5t115.5 23.5z" unicode="Ç" glyph-name="Ccedilla" horiz-adv-x="555"/>
<glyph d="M476 0h-396v683h379v-36h-335v-267h290v-36h-290v-308h352v-36zM295 718l-121 133l36 32l107 -148z" unicode="È" glyph-name="Egrave" horiz-adv-x="512"/>
<glyph d="M476 0h-396v683h379v-36h-335v-267h290v-36h-290v-308h352v-36zM377 851l-121 -133l-22 16l107 149z" unicode="É" glyph-name="Eacute" horiz-adv-x="512"/>
<glyph d="M476 0h-396v683h379v-36h-335v-267h290v-36h-290v-308h352v-36zM419 738l-15 -17l-139 98l-138 -99l-15 17l135 127h36z" unicode="Ê" glyph-name="Ecircumflex" horiz-adv-x="512"/>
<glyph d="M476 0h-396v683h379v-36h-335v-267h290v-36h-290v-308h352v-36zM378 765q0 -13 -9 -22t-23 -9q-13 0 -21.5 9t-8.5 22t9 22t21 9q13 0 22.5 -9t9.5 -22zM229 765q0 -13 -9 -22t-23 -9q-13 0 -21.5 9t-8.5 22t9 22t21 9q13 0 22.5 -9t9.5 -22z" unicode="Ë" glyph-name="Edieresis" horiz-adv-x="512"/>
<glyph d="M133 0h-43v683h43v-683zM110 718l-121 133l36 32l107 -148z" unicode="Ì" glyph-name="Igrave" horiz-adv-x="223"/>
<glyph d="M133 0h-43v683h43v-683zM228 851l-121 -133l-22 16l107 149z" unicode="Í" glyph-name="Iacute" horiz-adv-x="223"/>
<glyph d="M133 0h-43v683h43v-683zM265 729l-15 -17l-139 98l-138 -99l-15 17l135 127h36z" unicode="Î" glyph-name="Icircumflex" horiz-adv-x="223"/>
<glyph d="M133 0h-43v683h43v-683zM219 767q0 -13 -9 -22t-23 -9q-13 0 -21.5 9t-8.5 22t9 22t21 9q13 0 22.5 -9t9.5 -22zM70 767q0 -13 -9 -22t-23 -9q-13 0 -21.5 9t-8.5 22t9 22t21 9q13 0 22.5 -9t9.5 -22z" unicode="Ï" glyph-name="Idieresis" horiz-adv-x="223"/>
<glyph d="M272 0h-192v342h-65v33h65v308h203q267 0 267 -340q0 -343 -278 -343zM273 647h-149v-272h195v-33h-195v-305h141q19 0 32 0.5t40.5 6.5t47 16.5t44 32.5t40 52.5t26 79.5t10.5 110q0 63 -9.5 113t-24 82t-37 55.5t-41.5 35t-45 18t-40.5 7.5t-34.5 1z" unicode="Ð" glyph-name="Eth" horiz-adv-x="610"/>
<glyph d="M516 77h4v606h44l-1 -683h-43l-319 493l-74 119q-1 0 -2 -0.5t-2 -0.5v-611h-43v683h46l323 -501zM400 745q-22 0 -75.5 19.5t-70.5 19.5l-51 -41l-18 12q10 28 29.5 45t43.5 17q23 0 75 -18.5t70 -18.5l49 40l17 -12q-24 -63 -69 -63z" unicode="Ñ" glyph-name="Ntilde" horiz-adv-x="644"/>
<glyph d="M603 338q0 -153 -68.5 -248.5t-196.5 -96.5q-147 0 -212.5 87.5t-65.5 254.5q0 74 14.5 135t45 113t86.5 81t132 29q265 0 265 -355zM557 335q0 323 -219 323q-233 0 -233 -325q0 -152 55 -228.5t173 -76.5q110 0 167 86.5t57 220.5zM342 718l-121 133l36 32l107 -148z " unicode="Ò" glyph-name="Ograve" horiz-adv-x="663"/>
<glyph d="M603 338q0 -153 -68.5 -248.5t-196.5 -96.5q-147 0 -212.5 87.5t-65.5 254.5q0 74 14.5 135t45 113t86.5 81t132 29q265 0 265 -355zM557 335q0 323 -219 323q-233 0 -233 -325q0 -152 55 -228.5t173 -76.5q110 0 167 86.5t57 220.5zM456 851l-121 -133l-22 16l107 149z " unicode="Ó" glyph-name="Oacute" horiz-adv-x="663"/>
<glyph d="M603 338q0 -153 -68.5 -248.5t-196.5 -96.5q-147 0 -212.5 87.5t-65.5 254.5q0 74 14.5 135t45 113t86.5 81t132 29q265 0 265 -355zM557 335q0 323 -219 323q-233 0 -233 -325q0 -152 55 -228.5t173 -76.5q110 0 167 86.5t57 220.5zM494 738l-15 -17l-139 98l-138 -99 l-15 17l135 127h36z" unicode="Ô" glyph-name="Ocircumflex" horiz-adv-x="663"/>
<glyph d="M603 338q0 -153 -68.5 -248.5t-196.5 -96.5q-147 0 -212.5 87.5t-65.5 254.5q0 74 14.5 135t45 113t86.5 81t132 29q265 0 265 -355zM557 335q0 323 -219 323q-233 0 -233 -325q0 -152 55 -228.5t173 -76.5q110 0 167 86.5t57 220.5zM411 765q-22 0 -75.5 19.5 t-70.5 19.5l-51 -41l-18 12q10 28 29.5 45t43.5 17q23 0 75 -18.5t70 -18.5l49 40l17 -12q-24 -63 -69 -63z" unicode="Õ" glyph-name="Otilde" horiz-adv-x="663"/>
<glyph d="M603 338q0 -153 -68.5 -248.5t-196.5 -96.5q-147 0 -212.5 87.5t-65.5 254.5q0 74 14.5 135t45 113t86.5 81t132 29q265 0 265 -355zM557 335q0 323 -219 323q-233 0 -233 -325q0 -152 55 -228.5t173 -76.5q110 0 167 86.5t57 220.5zM445 777q0 -13 -9 -22t-23 -9 q-13 0 -21.5 9t-8.5 22t9 22t21 9q13 0 22.5 -9t9.5 -22zM296 777q0 -13 -9 -22t-23 -9q-13 0 -21.5 9t-8.5 22t9 22t21 9q13 0 22.5 -9t9.5 -22z" unicode="Ö" glyph-name="Odieresis" horiz-adv-x="663"/>
<glyph d="M385 134l-124 126l-125 -127l-26 26l124 126l-126 126l25 25l126 -126l119 125l26 -26l-119 -125l126 -125z" unicode="×" glyph-name="multiply"/>
<glyph d="M593 338q0 -153 -68.5 -248.5t-196.5 -96.5q-130 0 -196 68l-48 -66h-34l64 87q-64 82 -64 253q0 74 14.5 135t45 113t86.5 81t132 29q116 0 181 -70l52 71h36l-68 -93q64 -89 64 -263zM547 335q0 148 -48 228l-341 -468q55 -67 165 -67t167 86.5t57 220.5zM95 333 q0 -141 47 -214l341 469q-55 70 -155 70q-233 0 -233 -325z" unicode="Ø" glyph-name="Oslash" horiz-adv-x="643"/>
<glyph d="M570 683v-442q0 -114 -63 -181t-185 -67q-244 0 -244 248v442h42l1 -440q0 -214 202 -214q99 0 151 54.5t52 159.5v440h44zM337 718l-121 133l36 32l107 -148z" unicode="Ù" glyph-name="Ugrave" horiz-adv-x="647"/>
<glyph d="M570 683v-442q0 -114 -63 -181t-185 -67q-244 0 -244 248v442h42l1 -440q0 -214 202 -214q99 0 151 54.5t52 159.5v440h44zM429 851l-121 -133l-22 16l107 149z" unicode="Ú" glyph-name="Uacute" horiz-adv-x="647"/>
<glyph d="M570 683v-442q0 -114 -63 -181t-185 -67q-244 0 -244 248v442h42l1 -440q0 -214 202 -214q99 0 151 54.5t52 159.5v440h44zM480 738l-15 -17l-145 96l-143 -97l-16 17l141 124h37z" unicode="Û" glyph-name="Ucircumflex" horiz-adv-x="647"/>
<glyph d="M570 683v-442q0 -114 -63 -181t-185 -67q-244 0 -244 248v442h42l1 -440q0 -214 202 -214q99 0 151 54.5t52 159.5v440h44zM430 765q0 -13 -9 -22t-23 -9q-13 0 -21.5 9t-8.5 22t9 22t21 9q13 0 22.5 -9t9.5 -22zM281 765q0 -13 -9 -22t-23 -9q-13 0 -21.5 9t-8.5 22 t9 22t21 9q13 0 22.5 -9t9.5 -22z" unicode="Ü" glyph-name="Udieresis" horiz-adv-x="647"/>
<glyph d="M214 0v309l-201 374h48l114 -216l59 -117h4l59 111l121 222h47l-206 -371v-312h-45zM348 845l-121 -133l-22 16l107 149z" unicode="Ý" glyph-name="Yacute" horiz-adv-x="479"/>
<glyph d="M483 364q0 -26 -5 -51.5t-18 -53t-34 -48t-55.5 -33.5t-78.5 -13h-168v-165h-44v683h44v-128h160q87 0 143 -49t56 -142zM286 518h-162v-317h165q63 0 106 37t43 123q0 77 -42.5 117t-109.5 40z" unicode="Þ" glyph-name="Thorn" horiz-adv-x="508"/>
<glyph d="M472 108v2q0 12 -2.5 23t-4.5 19t-9.5 19t-10 15.5t-14 16t-13 13.5t-15.5 14l-14 13q-4 4 -20 17.5t-21.5 18.5t-19 17.5t-19.5 19.5t-15.5 19t-13.5 21t-7.5 20t-3.5 21q0 24 17.5 51t39 47t39 46t17.5 49q0 12 -2 22t-11.5 28.5t-35.5 29t-66 10.5q-59 0 -91 -37.5 t-32 -93.5v-549h-40v393h-74v33h74v119q0 26 7 52t24 54.5t52.5 46t84.5 17.5q80 0 116.5 -37t36.5 -81q0 -32 -17.5 -62t-39 -48.5t-39 -42.5t-17.5 -45q0 -48 94 -120q37 -30 54 -46t35.5 -50t18.5 -73q-1 -49 -37 -86t-112 -37t-134 23l11 34q68 -24 125 -24 q49 0 77 25.5t28 62.5z" unicode="ß" glyph-name="germandbls" horiz-adv-x="548"/>
<glyph d="M245 492q74 0 111 -37t37 -120v-300h66q1 -4 1.5 -8t1 -9t0.5 -8q-32 -14 -67 -14q-28 0 -36 13.5t-8 46.5q-1 1 -2 1q-84 -63 -174 -63q-73 0 -104 40t-31 93q0 66 45.5 101.5t122.5 39.5q105 7 144 7v45q0 76 -24.5 106.5t-91.5 30.5q-68 0 -152 -31l-11 30 q88 36 172 36zM352 244l-146 -8q-59 -3 -91 -30.5t-32 -73.5q0 -105 110 -105q70 0 159 72v145zM252 548l-122 134l37 32l107 -148z" unicode="à" glyph-name="agrave" horiz-adv-x="492"/>
<glyph d="M245 492q74 0 111 -37t37 -120v-300h66q1 -4 1.5 -8t1 -9t0.5 -8q-32 -14 -67 -14q-28 0 -36 13.5t-8 46.5q-1 1 -2 1q-84 -63 -174 -63q-73 0 -104 40t-31 93q0 66 45.5 101.5t122.5 39.5q105 7 144 7v45q0 76 -24.5 106.5t-91.5 30.5q-68 0 -152 -31l-11 30 q88 36 172 36zM352 244l-146 -8q-59 -3 -91 -30.5t-32 -73.5q0 -105 110 -105q70 0 159 72v145zM342 682l-122 -134l-21 17l107 148z" unicode="á" glyph-name="aacute" horiz-adv-x="492"/>
<glyph d="M245 492q74 0 111 -37t37 -120v-300h66q1 -4 1.5 -8t1 -9t0.5 -8q-32 -14 -67 -14q-28 0 -36 13.5t-8 46.5q-1 1 -2 1q-84 -63 -174 -63q-73 0 -104 40t-31 93q0 66 45.5 101.5t122.5 39.5q105 7 144 7v45q0 76 -24.5 106.5t-91.5 30.5q-68 0 -152 -31l-11 30 q88 36 172 36zM352 244l-146 -8q-59 -3 -91 -30.5t-32 -73.5q0 -105 110 -105q70 0 159 72v145zM397 562l-14 -17l-139 100l-139 -101l-14 17l135 129h36z" unicode="â" glyph-name="acircumflex" horiz-adv-x="492"/>
<glyph d="M245 492q74 0 111 -37t37 -120v-300h66q1 -4 1.5 -8t1 -9t0.5 -8q-32 -14 -67 -14q-28 0 -36 13.5t-8 46.5q-1 1 -2 1q-84 -63 -174 -63q-73 0 -104 40t-31 93q0 66 45.5 101.5t122.5 39.5q105 7 144 7v45q0 76 -24.5 106.5t-91.5 30.5q-68 0 -152 -31l-11 30 q88 36 172 36zM352 244l-146 -8q-59 -3 -91 -30.5t-32 -73.5q0 -105 110 -105q70 0 159 72v145zM312 580q-22 0 -75.5 19.5t-70.5 19.5l-51 -41l-18 12q10 28 29.5 45t43.5 17q23 0 75 -18.5t70 -18.5l49 40l17 -12q-24 -63 -69 -63z" unicode="ã" glyph-name="atilde" horiz-adv-x="492"/>
<glyph d="M245 492q74 0 111 -37t37 -120v-300h66q1 -4 1.5 -8t1 -9t0.5 -8q-32 -14 -67 -14q-28 0 -36 13.5t-8 46.5q-1 1 -2 1q-84 -63 -174 -63q-73 0 -104 40t-31 93q0 66 45.5 101.5t122.5 39.5q105 7 144 7v45q0 76 -24.5 106.5t-91.5 30.5q-68 0 -152 -31l-11 30 q88 36 172 36zM352 244l-146 -8q-59 -3 -91 -30.5t-32 -73.5q0 -105 110 -105q70 0 159 72v145zM352 606q0 -13 -9 -21.5t-23 -8.5q-13 0 -21.5 8.5t-8.5 21.5t9 22t21 9q14 0 23 -9t9 -22zM203 606q0 -13 -9 -21.5t-23 -8.5q-13 0 -21.5 8.5t-8.5 21.5t9 22t21 9 q14 0 23 -9t9 -22z" unicode="ä" glyph-name="adieresis" horiz-adv-x="492"/>
<glyph d="M245 492q74 0 111 -37t37 -120v-300h66q1 -4 1.5 -8t1 -9t0.5 -8q-32 -14 -67 -14q-28 0 -36 13.5t-8 46.5q-1 1 -2 1q-84 -63 -174 -63q-73 0 -104 40t-31 93q0 66 45.5 101.5t122.5 39.5q105 7 144 7v45q0 76 -24.5 106.5t-91.5 30.5q-68 0 -152 -31l-11 30 q88 36 172 36zM352 244l-146 -8q-59 -3 -91 -30.5t-32 -73.5q0 -105 110 -105q70 0 159 72v145zM252 547q-41 0 -66.5 25.5t-25.5 62.5t26.5 63t65.5 26t64 -26t25 -63t-25 -62.5t-64 -25.5zM252 695q-28 0 -44.5 -17t-16.5 -45q0 -27 16 -43.5t45 -16.5q27 0 43 16.5 t16 43.5t-16 44.5t-43 17.5z" unicode="å" glyph-name="aring" horiz-adv-x="492"/>
<glyph d="M550 493q180 0 180 -233v-23h-336q-2 -209 156 -209q76 0 154 37l12 -29q-80 -43 -165 -43q-113 0 -162 76q-100 -76 -216 -76q-73 0 -104.5 40.5t-31.5 94.5q0 66 45 103t117 37h153v53q0 75 -26 106t-93 31q-64 0 -152 -31l-11 30q88 36 172 36q121 0 141 -108 q48 108 167 108zM190 26q41 0 93 17.5t93 51.5q-24 52 -24 142h-147q-59 0 -92 -28.5t-33 -75.5q0 -107 110 -107zM550 460q-137 0 -155 -192h294q0 192 -139 192z" unicode="æ" glyph-name="ae" horiz-adv-x="768"/>
<glyph d="M92 236q0 -208 157 -208q65 0 148 34l11 -30q-63 -35 -144 -38q-47 -57 -52 -65q118 0 118 -71q0 -42 -42.5 -70t-125.5 -28q0 4 -0.5 11.5t-0.5 11.5q128 10 128 72q0 22 -23 34.5t-58 12.5h-26q-7 8 -10 15q8 10 28.5 36.5t32.5 40.5q-184 8 -184 241q0 33 4.5 65 t18.5 68.5t36 63t60 44.5t88 18q79 0 135 -24l-12 -33q-60 22 -120 22q-83 0 -125 -60t-42 -163z" unicode="ç" glyph-name="ccedilla" horiz-adv-x="439"/>
<glyph d="M248 461q-137 0 -155 -192h295q0 192 -140 192zM248 493q38 0 68.5 -11.5t49 -26t32 -40.5t19.5 -43t9 -46t3 -37.5v-28.5v-23h-337q-2 -209 156 -209q77 0 155 37l12 -29q-80 -43 -166 -43q-58 0 -98.5 19t-62 55t-30.5 77.5t-9 95.5q0 28 3.5 56.5t16 65.5t33 64.5 t58.5 47t88 19.5zM255 548l-122 134l37 32l107 -148z" unicode="è" glyph-name="egrave" horiz-adv-x="475"/>
<glyph d="M248 461q-137 0 -155 -192h295q0 192 -140 192zM248 493q38 0 68.5 -11.5t49 -26t32 -40.5t19.5 -43t9 -46t3 -37.5v-28.5v-23h-337q-2 -209 156 -209q77 0 155 37l12 -29q-80 -43 -166 -43q-58 0 -98.5 19t-62 55t-30.5 77.5t-9 95.5q0 28 3.5 56.5t16 65.5t33 64.5 t58.5 47t88 19.5zM353 682l-122 -134l-21 17l107 148z" unicode="é" glyph-name="eacute" horiz-adv-x="475"/>
<glyph d="M248 461q-137 0 -155 -192h295q0 192 -140 192zM248 493q38 0 68.5 -11.5t49 -26t32 -40.5t19.5 -43t9 -46t3 -37.5v-28.5v-23h-337q-2 -209 156 -209q77 0 155 37l12 -29q-80 -43 -166 -43q-58 0 -98.5 19t-62 55t-30.5 77.5t-9 95.5q0 28 3.5 56.5t16 65.5t33 64.5 t58.5 47t88 19.5zM406 550l-14 -17l-139 100l-139 -101l-14 17l135 129h36z" unicode="ê" glyph-name="ecircumflex" horiz-adv-x="475"/>
<glyph d="M248 461q-137 0 -155 -192h295q0 192 -140 192zM248 493q38 0 68.5 -11.5t49 -26t32 -40.5t19.5 -43t9 -46t3 -37.5v-28.5v-23h-337q-2 -209 156 -209q77 0 155 37l12 -29q-80 -43 -166 -43q-58 0 -98.5 19t-62 55t-30.5 77.5t-9 95.5q0 28 3.5 56.5t16 65.5t33 64.5 t58.5 47t88 19.5zM360 606q0 -13 -9 -21.5t-23 -8.5q-13 0 -21.5 8.5t-8.5 21.5t9 22t21 9q14 0 23 -9t9 -22zM211 606q0 -13 -9 -21.5t-23 -8.5q-13 0 -21.5 8.5t-8.5 21.5t9 22t21 9q14 0 23 -9t9 -22z" unicode="ë" glyph-name="edieresis" horiz-adv-x="475"/>
<glyph d="M124 0h-40v487h40v-487zM110 548l-122 134l37 32l107 -148z" unicode="ì" glyph-name="igrave" horiz-adv-x="208"/>
<glyph d="M124 0h-40v487h40v-487zM223 682l-122 -134l-21 17l107 148z" unicode="í" glyph-name="iacute" horiz-adv-x="208"/>
<glyph d="M148 0h-40v487h40v-487zM281 561l-14 -17l-139 100l-139 -101l-14 17l135 129h36z" unicode="î" glyph-name="icircumflex" horiz-adv-x="256"/>
<glyph d="M124 0h-40v487h40v-487zM209 606q0 -13 -9 -21.5t-23 -8.5q-13 0 -21.5 8.5t-8.5 21.5t9 22t21 9q14 0 23 -9t9 -22zM60 606q0 -13 -9 -21.5t-23 -8.5q-13 0 -21.5 8.5t-8.5 21.5t9 22t21 9q14 0 23 -9t9 -22z" unicode="ï" glyph-name="idieresis" horiz-adv-x="208"/>
<glyph d="M304 602l80 54l16 -23l-77 -51q113 -131 112 -319q0 -32 -4 -62.5t-16.5 -70t-33.5 -68.5t-59 -49t-89 -20q-54 0 -93.5 20.5t-60 55t-29.5 70.5t-9 75q0 40 10.5 79t32.5 75t62 58.5t92 22.5q82 0 141 -51q-25 93 -86 163l-91 -62l-16 22l89 60q-57 59 -132 99l15 27 q89 -45 146 -105zM240 416q-43 0 -75.5 -19t-49.5 -50t-25 -64t-8 -67q0 -35 7 -66t23.5 -60t49 -46t77.5 -17q40 0 69.5 18t45.5 43t25.5 60t12 62t2.5 56q0 38 -8 84q-58 66 -146 66z" unicode="ð" glyph-name="eth" horiz-adv-x="471"/>
<glyph d="M417 0h-42v330q0 35 -2.5 53.5t-11.5 38.5t-29.5 28t-54.5 8q-73 0 -176 -57v-401h-41v487h40q0 -6 0.5 -23.5t0.5 -23.5q2 -1 3 -2q96 56 181 56q44 0 72 -12t40.5 -34.5t16 -42t3.5 -48.5v-357zM299 593q-22 0 -75.5 19.5t-70.5 19.5l-51 -41l-18 12q10 28 29.5 45 t43.5 17q23 0 75 -18.5t70 -18.5l49 40l17 -12q-24 -63 -69 -63z" unicode="ñ" glyph-name="ntilde" horiz-adv-x="476"/>
<glyph d="M443 240q0 -38 -5.5 -71.5t-19 -66.5t-35.5 -56.5t-57 -38t-81 -14.5q-73 0 -118.5 36t-61.5 88t-16 121q0 106 49.5 180.5t152.5 74.5q55 0 94 -21.5t59.5 -59.5t29.5 -80t9 -92zM401 238q0 221 -150 221q-45 0 -78 -19.5t-49.5 -53t-24 -70t-7.5 -79.5q0 -45 6 -79 t22.5 -65.5t49 -48t81.5 -16.5q150 0 150 210zM259 548l-122 134l37 32l107 -148z" unicode="ò" glyph-name="ograve" horiz-adv-x="492"/>
<glyph d="M443 240q0 -38 -5.5 -71.5t-19 -66.5t-35.5 -56.5t-57 -38t-81 -14.5q-73 0 -118.5 36t-61.5 88t-16 121q0 106 49.5 180.5t152.5 74.5q55 0 94 -21.5t59.5 -59.5t29.5 -80t9 -92zM401 238q0 221 -150 221q-45 0 -78 -19.5t-49.5 -53t-24 -70t-7.5 -79.5q0 -45 6 -79 t22.5 -65.5t49 -48t81.5 -16.5q150 0 150 210zM360 682l-122 -134l-21 17l107 148z" unicode="ó" glyph-name="oacute" horiz-adv-x="492"/>
<glyph d="M443 240q0 -38 -5.5 -71.5t-19 -66.5t-35.5 -56.5t-57 -38t-81 -14.5q-73 0 -118.5 36t-61.5 88t-16 121q0 106 49.5 180.5t152.5 74.5q55 0 94 -21.5t59.5 -59.5t29.5 -80t9 -92zM401 238q0 221 -150 221q-45 0 -78 -19.5t-49.5 -53t-24 -70t-7.5 -79.5q0 -45 6 -79 t22.5 -65.5t49 -48t81.5 -16.5q150 0 150 210zM406 562l-14 -17l-139 100l-139 -101l-14 17l135 129h36z" unicode="ô" glyph-name="ocircumflex" horiz-adv-x="492"/>
<glyph d="M443 240q0 -38 -5.5 -71.5t-19 -66.5t-35.5 -56.5t-57 -38t-81 -14.5q-73 0 -118.5 36t-61.5 88t-16 121q0 106 49.5 180.5t152.5 74.5q55 0 94 -21.5t59.5 -59.5t29.5 -80t9 -92zM401 238q0 221 -150 221q-45 0 -78 -19.5t-49.5 -53t-24 -70t-7.5 -79.5q0 -45 6 -79 t22.5 -65.5t49 -48t81.5 -16.5q150 0 150 210zM326 580q-22 0 -75.5 19.5t-70.5 19.5l-51 -41l-18 12q10 28 29.5 45t43.5 17q23 0 75 -18.5t70 -18.5l49 40l17 -12q-24 -63 -69 -63z" unicode="õ" glyph-name="otilde" horiz-adv-x="492"/>
<glyph d="M443 240q0 -38 -5.5 -71.5t-19 -66.5t-35.5 -56.5t-57 -38t-81 -14.5q-73 0 -118.5 36t-61.5 88t-16 121q0 106 49.5 180.5t152.5 74.5q55 0 94 -21.5t59.5 -59.5t29.5 -80t9 -92zM401 238q0 221 -150 221q-45 0 -78 -19.5t-49.5 -53t-24 -70t-7.5 -79.5q0 -45 6 -79 t22.5 -65.5t49 -48t81.5 -16.5q150 0 150 210zM360 606q0 -13 -9 -21.5t-23 -8.5q-13 0 -21.5 8.5t-8.5 21.5t9 22t21 9q14 0 23 -9t9 -22zM211 606q0 -13 -9 -21.5t-23 -8.5q-13 0 -21.5 8.5t-8.5 21.5t9 22t21 9q14 0 23 -9t9 -22z" unicode="ö" glyph-name="odieresis" horiz-adv-x="492"/>
<glyph d="M296 437q0 -16 -10.5 -26.5t-24.5 -10.5q-15 0 -26 11t-11 26q0 14 11 24.5t26 10.5q14 0 24.5 -10.5t10.5 -24.5zM443 279h-368v35h368v-35zM296 156q0 -15 -10.5 -26t-24.5 -11q-15 0 -26 11t-11 26q0 14 11 24.5t26 10.5q14 0 24.5 -10.5t10.5 -24.5z" unicode="÷" glyph-name="divide"/>
<glyph d="M241 493q82 0 129 -50q28 35 37 50h29q-41 -58 -50 -68q47 -66 47 -185q0 -38 -5 -71.5t-19 -66.5t-35.5 -56.5t-57 -38t-80.5 -14.5q-85 0 -134 47l-33 -45q-3 0 -15 -0.5t-14 -0.5q3 4 23.5 32t23.5 32q-47 62 -47 180q0 106 49 180.5t152 74.5zM391 238q0 97 -32 153 l-233 -320q38 -43 115 -43q150 0 150 210zM241 459q-45 0 -77.5 -19t-49 -52.5t-24 -70t-7.5 -79.5q0 -98 30 -147q11 14 117.5 161.5t115.5 159.5q-39 47 -105 47z" unicode="ø" glyph-name="oslash" horiz-adv-x="473"/>
<glyph d="M192 -10q-38 0 -64.5 10t-39.5 23t-19.5 36.5t-7.5 37.5t-1 40v350h41v-335q0 -68 18 -97.5t80 -29.5q36 0 82.5 19.5t86.5 54.5l-1 388h41v-487h-40v61l-3 2q-85 -73 -173 -73zM249 548l-122 134l37 32l107 -148z" unicode="ù" glyph-name="ugrave" horiz-adv-x="468"/>
<glyph d="M192 -10q-38 0 -64.5 10t-39.5 23t-19.5 36.5t-7.5 37.5t-1 40v350h41v-335q0 -68 18 -97.5t80 -29.5q36 0 82.5 19.5t86.5 54.5l-1 388h41v-487h-40v61l-3 2q-85 -73 -173 -73zM342 682l-122 -134l-21 17l107 148z" unicode="ú" glyph-name="uacute" horiz-adv-x="468"/>
<glyph d="M192 -10q-38 0 -64.5 10t-39.5 23t-19.5 36.5t-7.5 37.5t-1 40v350h41v-335q0 -68 18 -97.5t80 -29.5q36 0 82.5 19.5t86.5 54.5l-1 388h41v-487h-40v61l-3 2q-85 -73 -173 -73zM385 562l-14 -17l-139 100l-139 -101l-14 17l135 129h36z" unicode="û" glyph-name="ucircumflex" horiz-adv-x="468"/>
<glyph d="M192 -10q-38 0 -64.5 10t-39.5 23t-19.5 36.5t-7.5 37.5t-1 40v350h41v-335q0 -68 18 -97.5t80 -29.5q36 0 82.5 19.5t86.5 54.5l-1 388h41v-487h-40v61l-3 2q-85 -73 -173 -73zM189 606q0 -13 -9 -21.5t-23 -8.5q-13 0 -21.5 8.5t-8.5 21.5t9 22t21 9q14 0 23 -9t9 -22z M338 606q0 -13 -9 -21.5t-23 -8.5q-13 0 -21.5 8.5t-8.5 21.5t9 22t21 9q14 0 23 -9t9 -22z" unicode="ü" glyph-name="udieresis" horiz-adv-x="468"/>
<glyph d="M210 28q2 6 8.5 27t19 60t21.5 69l96 303h42q-177 -551 -193 -597q-17 -54 -42.5 -81t-70.5 -27q-55 3 -99 14l7 33q56 -11 81 -11q22 0 33.5 3t26 20t25.5 51l35 109h-22q-9 28 -84 250.5t-79 235.5h41q5 -17 51 -155.5t49 -149.5l50 -154h4zM313 682l-122 -134l-21 17 l107 148z" unicode="ý" glyph-name="yacute" horiz-adv-x="419"/>
<glyph d="M99 394v-323q66 -43 143 -43q67 0 107.5 54t40.5 173q0 109 -36.5 156t-105.5 47q-35 0 -79 -19t-70 -45zM99 701v-270q76 61 159 61q175 0 175 -239q0 -119 -45.5 -189t-143.5 -70q-78 0 -145 39v-244h-40v912h40z" unicode="þ" glyph-name="thorn" horiz-adv-x="483"/>
<glyph d="M374 753q0 -13 -9 -22t-23 -9q-13 0 -21.5 9t-8.5 22t9 22t21 9q13 0 22.5 -9t9.5 -22zM225 753q0 -13 -9 -22t-23 -9q-13 0 -21.5 9t-8.5 22t9 22t21 9q13 0 22.5 -9t9.5 -22zM476 0h-396v683h379v-36h-335v-267h290v-36h-290v-308h352v-36z" unicode="Ё" glyph-name="afii10023" horiz-adv-x="512"/>
<glyph d="M672 222q0 -104 -50.5 -182.5t-123.5 -127.5l-19 26q66 46 108 118t42 157q0 81 -42 125t-122 44q-87 0 -184 -42v-340h-43v646h-218v37h527v-37h-266v-271q100 43 194 43q98 0 147.5 -56.5t49.5 -139.5z" unicode="Ђ" glyph-name="afii10051" horiz-adv-x="714"/>
<glyph d="M371 852l-121 -133l-22 16l107 149zM123 0h-43v683h378v-37h-334z" unicode="Ѓ" glyph-name="afii10052" horiz-adv-x="472"/>
<glyph d="M507 52l10 -32q-74 -27 -184 -27q-145 0 -209 88.5t-64 254.5q0 48 7 94t26 95t48.5 85t79.5 59.5t115 23.5q95 0 169 -26l-11 -35q-76 24 -154 24q-111 0 -169 -74t-65 -206q41 0 87 1t102 2.5t88 2.5v-42q-31 0 -88 1t-103 1.5t-87 0.5q0 -22 1 -33q2 -47 8 -84.5 t21.5 -75.5t40.5 -63.5t66.5 -41.5t96.5 -16q90 0 168 23z" unicode="Є" glyph-name="afii10053" horiz-adv-x="555"/>
<glyph d="M270 694q100 0 173 -31l-14 -36q-86 29 -164 29q-73 0 -117.5 -37t-44.5 -109q0 -25 10.5 -45.5t24.5 -33t41 -24.5t45.5 -18t53.5 -15q31 -8 43.5 -12t40.5 -14t41.5 -18t33 -23.5t28.5 -32t16.5 -40.5t7.5 -53q0 -96 -65 -142t-171 -46q-127 0 -210 49l16 34 q92 -46 191 -46q96 0 145 36t49 116q0 66 -41.5 96.5t-128.5 53.5q-42 11 -68 19t-57.5 23t-49 32t-30 43.5t-12.5 60.5q0 87 58.5 135.5t154.5 48.5z" unicode="Ѕ" glyph-name="afii10054" horiz-adv-x="532"/>
<glyph d="M133 0h-43v683h43v-683z" unicode="І" glyph-name="afii10055" horiz-adv-x="223"/>
<glyph d="M217 753q0 -13 -9 -22t-23 -9q-13 0 -21.5 9t-8.5 22t9 22t21 9q13 0 22.5 -9t9.5 -22zM68 753q0 -13 -9 -22t-23 -9q-13 0 -21.5 9t-8.5 22t9 22t21 9q13 0 22.5 -9t9.5 -22zM133 0h-43v683h43v-683z" unicode="Ї" glyph-name="afii10056" horiz-adv-x="223"/>
<glyph d="M125 109v574h43v-572q0 -113 -47.5 -178.5t-146.5 -111.5l-15 33q92 54 129 107.5t37 147.5z" unicode="Ј" glyph-name="afii10057" horiz-adv-x="268"/>
<glyph d="M225 647l-7 -135q-12 -233 -22 -297q-23 -142 -95 -197q-33 -26 -81 -39l-10 32q32 12 55.5 29.5t40.5 37.5t28.5 53t18.5 62.5t12 80t7.5 93t5.5 111.5q1 29 2 44l8 161h299v-294h196q71 0 118.5 -30.5t65.5 -72t18 -89.5q0 -94 -55 -145.5t-139 -51.5h-248v647h-218z M681 354h-194v-319h203q66 0 108 41.5t42 118.5q0 84 -47 121.5t-112 37.5z" unicode="Љ" glyph-name="afii10058" horiz-adv-x="925"/>
<glyph d="M475 683v-294h197q54 0 94.5 -17t62.5 -46t32.5 -61.5t10.5 -67.5q0 -95 -54 -146t-138 -51h-249v353h-306v-353h-45v683h45v-294h305v294h45zM670 353h-195v-318h204q66 0 107.5 41.5t41.5 118.5q0 84 -46 121t-112 37z" unicode="Њ" glyph-name="afii10059" horiz-adv-x="912"/>
<glyph d="M659 274v-274h-43v259q0 127 -144 127q-40 0 -100 -16t-100 -36v-334h-43v646h-209v37h519v-37h-266v-274q115 51 208 51t135.5 -43t42.5 -106z" unicode="Ћ" glyph-name="afii10060" horiz-adv-x="733"/>
<glyph d="M124 0h-44v683h44v-301h143q97 0 133 109l62 191h41l-57 -184q-18 -55 -42 -88t-60 -44q47 -10 72 -42.5t41 -89.5l69 -234h-44l-69 230q-20 65 -53 89.5t-81 24.5h-155v-344zM373 854l-121 -133l-22 16l107 149z" unicode="Ќ" glyph-name="afii10061" horiz-adv-x="546"/>
<glyph d="M71 682q70 -172 116 -284q3 -8 33 -86t46 -118h4l64 167l123 321h44l-230 -593q-37 -95 -110 -95q-44 0 -96 13l11 37q54 -12 76 -12q30 0 48.5 16.5t33.5 57.5l22 59h-17l-213 517h45zM270 718q-82 0 -145 96l31 20q54 -80 117 -80q60 0 136 75l17 -13q-72 -98 -156 -98 z" unicode="Ў" glyph-name="afii10062" horiz-adv-x="525"/>
<glyph d="M485 682h44v-682h-202v-163h-40v163h-207v682h44v-647h361v647z" unicode="Џ" glyph-name="afii10145" horiz-adv-x="610"/>
<glyph d="M471 0q-12 35 -33 100t-29 91h-287q-12 -37 -33 -104t-27 -87h-45l221 682h57l221 -682h-45zM264 642q-20 -69 -42 -135l-88 -280h264l-89 280l-42 135h-3z" unicode="А" glyph-name="afii10017" horiz-adv-x="534"/>
<glyph d="M444 683v-36h-326v-258h197q105 0 152.5 -56t47.5 -133q0 -95 -54.5 -147.5t-138.5 -52.5h-249v683h371zM313 354h-195v-319h205q65 0 106.5 42.5t41.5 119.5q0 84 -45.5 120.5t-112.5 36.5z" unicode="Б" glyph-name="afii10018" horiz-adv-x="555"/>
<glyph d="M392 359v-5q64 -20 92 -69t28 -104q0 -81 -52 -131t-128 -50h-252v682h217q94 0 143.5 -46.5t49.5 -122.5q0 -109 -98 -154zM315 336h-191v-300h193q76 0 113.5 43t37.5 108q0 60 -43.5 104.5t-109.5 44.5zM290 646h-166v-273h175q66 0 106.5 37t40.5 98 q0 63 -38.5 100.5t-117.5 37.5z" unicode="В" glyph-name="afii10019" horiz-adv-x="570"/>
<glyph d="M123 0h-43v683h378v-37h-334z" unicode="Г" glyph-name="afii10020" horiz-adv-x="472"/>
<glyph d="M566 0h-516v-158h-37v193h47q20 14 37 33.5t29.5 49.5t21.5 53.5t16.5 68t11.5 69t8.5 80.5t6 79t5.5 86l8 129h342v-648h56v-193h-36v158zM242 647l-6 -98q-18 -242 -34 -323q-27 -137 -87 -191h387v612h-260z" unicode="Д" glyph-name="afii10021" horiz-adv-x="648"/>
<glyph d="M476 0h-396v683h379v-36h-335v-267h290v-36h-290v-308h352v-36z" unicode="Е" glyph-name="afii10022" horiz-adv-x="512"/>
<glyph d="M456 0h-43v345h-136q-48 0 -81.5 -25t-53.5 -90l-68 -230h-44l69 234q16 57 41 89.5t72 42.5q-65 19 -101 132l-58 184h41l62 -191q35 -109 132 -109h125v301h43v-301h125q97 0 132 109l62 191h40l-57 -184q-36 -113 -102 -132q47 -10 72 -42.5t42 -89.5l68 -234h-42 l-69 230q-20 65 -53.5 90t-81.5 25h-136v-345z" unicode="Ж" glyph-name="afii10024" horiz-adv-x="869"/>
<glyph d="M346 383l-1 -5q63 -14 101.5 -58t38.5 -114q0 -98 -71.5 -155t-180.5 -57q-123 0 -209 37l12 32q95 -32 184 -32q103 0 161.5 46t58.5 129q0 72 -52 113t-146 41h-80v35h80q84 0 131.5 38.5t47.5 102.5q0 57 -47.5 89t-129.5 32q-97 0 -183 -42l-14 32q85 46 204 46 q102 0 159 -42t57 -114q0 -54 -34 -96.5t-87 -57.5z" unicode="З" glyph-name="afii10025" horiz-adv-x="535"/>
<glyph d="M502 683l43 -1v-682h-43v609h-3l-375 -609h-44v682h43v-606h4z" unicode="И" glyph-name="afii10026" horiz-adv-x="625"/>
<glyph d="M502 683l43 -1v-682h-43v609h-3l-375 -609h-44v682h43v-606h4zM300 737q-81 0 -145 97l31 20q54 -79 117 -79q61 0 136 74l17 -14q-72 -98 -156 -98z" unicode="Й" glyph-name="afii10027" horiz-adv-x="625"/>
<glyph d="M124 0h-44v683h44v-301h143q97 0 133 109l62 191h41l-57 -184q-18 -55 -42 -88t-60 -44q47 -10 72 -42.5t41 -89.5l69 -234h-44l-69 230q-20 65 -53 89.5t-81 24.5h-155v-344z" unicode="К" glyph-name="afii10028" horiz-adv-x="546"/>
<glyph d="M519 0h-46v647h-248l-7 -135q-12 -233 -22 -297q-23 -142 -95 -197q-33 -26 -81 -39l-10 32q102 42 128.5 131t37.5 324q2 37 3 56l8 161h332v-683z" unicode="Л" glyph-name="afii10029" horiz-adv-x="599"/>
<glyph d="M129 682q38 -84 110 -245t106 -235l42 -97h4l44 98l107 238q61 136 109 241h46v-682h-42q0 98 -0.5 295t-0.5 296h-3l-38 -85l-202 -446h-45l-201 442l-40 92h-3v-594h-42v682h49z" unicode="М" glyph-name="afii10030" horiz-adv-x="778"/>
<glyph d="M530 0h-45v342h-360v-342h-45v683h45v-303h360v303h45v-683z" unicode="Н" glyph-name="afii10031" horiz-adv-x="610"/>
<glyph d="M603 338q0 -153 -68.5 -248.5t-196.5 -96.5q-147 0 -212.5 87.5t-65.5 254.5q0 74 14.5 135t45 113t86.5 81t132 29q265 0 265 -355zM557 335q0 323 -219 323q-233 0 -233 -325q0 -152 55 -228.5t173 -76.5q110 0 167 86.5t57 220.5z" unicode="О" glyph-name="afii10032" horiz-adv-x="663"/>
<glyph d="M530 0h-45v644h-360v-644h-45v683h450v-683z" unicode="П" glyph-name="afii10033" horiz-adv-x="610"/>
<glyph d="M483 492q0 -26 -5 -51.5t-18 -53t-34 -48t-55.5 -33.5t-78.5 -13h-168l1 -293h-45v683h204q87 0 143 -49t56 -142zM286 647h-162v-318h165q63 0 106 37.5t43 122.5q0 77 -42.5 117.5t-109.5 40.5z" unicode="Р" glyph-name="afii10034" horiz-adv-x="508"/>
<glyph d="M337 693q100 0 169 -26l-11 -35q-77 24 -154 24q-120 0 -178 -85t-58 -236q0 -51 5 -91.5t20 -82t40 -69t68.5 -45t101.5 -17.5q90 0 168 23l10 -32q-74 -28 -185 -28q-144 0 -208.5 89t-64.5 255q0 48 7 93.5t26 94.5t48.5 85t80 59.5t115.5 23.5z" unicode="С" glyph-name="afii10035" horiz-adv-x="555"/>
<glyph d="M281 0h-42v646h-220v37h481v-37h-218z" unicode="Т" glyph-name="afii10036" horiz-adv-x="520"/>
<glyph d="M71 682q70 -172 116 -284q3 -8 33 -86t46 -118h4l64 167l123 321h44l-230 -593q-37 -95 -110 -95q-44 0 -96 13l11 37q54 -12 76 -12q30 0 48.5 16.5t33.5 57.5l22 59h-17l-213 517h45z" unicode="У" glyph-name="afii10037" horiz-adv-x="525"/>
<glyph d="M727 350q0 -110 -85 -184.5t-229 -78.5v-87h-42v87q-166 7 -245 75t-79 185q0 105 81.5 181.5t242.5 84.5v69h42v-69q83 -3 145.5 -26.5t98 -61t53 -81.5t17.5 -94zM90 345q0 -105 72.5 -161t208.5 -62v456q-142 -7 -211.5 -72t-69.5 -161zM684 347q0 41 -13.5 78.5 t-43 71.5t-84.5 56t-130 25v-456q124 4 197.5 67.5t73.5 157.5z" unicode="Ф" glyph-name="afii10038" horiz-adv-x="774"/>
<glyph d="M445 0l-191 319l-191 -319h-47l213 353l-199 329h48l177 -296l178 296h47q-33 -55 -100 -165t-100 -165q115 -191 214 -352h-49z" unicode="Х" glyph-name="afii10039" horiz-adv-x="511"/>
<glyph d="M529 682l1 -647h66v-193h-39v158h-477v682h44v-647h361v647h44z" unicode="Ц" glyph-name="afii10040" horiz-adv-x="633"/>
<glyph d="M497 682v-682h-44v315q-101 -39 -212 -39q-95 0 -139.5 43t-44.5 106v257h44v-241q0 -63 34.5 -95t111.5 -32q119 0 206 39v329h44z" unicode="Ч" glyph-name="afii10041" horiz-adv-x="577"/>
<glyph d="M411 35v648h43v-648h281l1 648h43l1 -683h-700v683h44v-648h287z" unicode="Ш" glyph-name="afii10042" horiz-adv-x="860"/>
<glyph d="M80 0v683h44v-648h287v648h43v-648h281l1 648h44v-648h66v-193h-39v158h-727z" unicode="Щ" glyph-name="afii10043" horiz-adv-x="883"/>
<glyph d="M280 683v-294h201q103 0 151.5 -57.5t48.5 -134.5q0 -94 -54.5 -145.5t-138.5 -51.5h-252v646h-224v37h268zM479 354h-199v-319h208q66 0 107 41.5t41 118.5q0 84 -46 121.5t-111 37.5z" unicode="Ъ" glyph-name="afii10044" horiz-adv-x="721"/>
<glyph d="M321 354h-197v-319h206q67 0 109 41.5t42 118.5q0 84 -47.5 121.5t-112.5 37.5zM124 683v-294h199q54 0 95 -17.5t63 -46.5t33 -61.5t11 -67.5q0 -94 -54.5 -145t-139.5 -51h-251v683h44zM661 0h-44v683h44v-683z" unicode="Ы" glyph-name="afii10045" horiz-adv-x="741"/>
<glyph d="M321 354h-197v-319h206q67 0 109 41.5t42 118.5q0 84 -47.5 121.5t-112.5 37.5zM124 683v-294h199q54 0 95 -17.5t63 -46.5t33 -61.5t11 -67.5q0 -94 -54.5 -145t-139.5 -51h-251v683h44z" unicode="Ь" glyph-name="afii10046" horiz-adv-x="565"/>
<glyph d="M210 -7q-109 0 -183 27l10 34q79 -24 166 -24q240 0 240 321q-156 -6 -285 -6v43q13 0 142.5 -2.5t142.5 -2.5q-3 131 -56 202t-168 71q-79 0 -159 -24l-9 34q69 27 168 27q270 0 270 -333q0 -79 -15.5 -144t-48 -115.5t-87.5 -79t-128 -28.5z" unicode="Э" glyph-name="afii10047" horiz-adv-x="549"/>
<glyph d="M123 0h-43v682h43v-304h154q17 314 267 314q62 0 108 -20t74 -52t44.5 -80t22.5 -96t6 -107q0 -154 -64 -248t-191 -96q-145 0 -206.5 88.5t-61.5 260.5h-153v-342zM754 334q0 49 -3.5 88.5t-16.5 85.5t-34.5 77t-61.5 51.5t-94 20.5q-67 0 -113.5 -27t-69 -76 t-31.5 -101.5t-9 -120.5q0 -153 50.5 -228.5t167.5 -75.5q109 0 162 85t53 221z" unicode="Ю" glyph-name="afii10048" horiz-adv-x="859"/>
<glyph d="M74 496q0 81 49.5 134t150.5 53h204v-683h-44v312h-138q-56 0 -95 -24.5t-58 -87.5l-59 -200h-44l59 208q28 93 98 115q-63 15 -93 62t-30 111zM272 348h162v298h-159q-70 0 -113 -39.5t-43 -111.5q0 -147 153 -147z" unicode="Я" glyph-name="afii10049" horiz-adv-x="558"/>
<glyph d="M245 492q74 0 111 -37t37 -120v-300h66q1 -4 1.5 -8t1 -9t0.5 -8q-32 -14 -67 -14q-28 0 -36 13.5t-8 46.5q-1 1 -2 1q-84 -63 -174 -63q-73 0 -104 40t-31 93q0 66 45.5 101.5t122.5 39.5q105 7 144 7v45q0 76 -24.5 106.5t-91.5 30.5q-68 0 -152 -31l-11 30 q88 36 172 36zM352 244l-146 -8q-59 -3 -91 -30.5t-32 -73.5q0 -105 110 -105q70 0 159 72v145z" unicode="а" glyph-name="afii10065" horiz-adv-x="492"/>
<glyph d="M220 660q117 45 167 72l16 -31q-39 -20 -161 -71q-83 -31 -119 -94t-43 -160h2q23 49 66.5 77.5t99.5 28.5q53 0 90.5 -21.5t57.5 -58t28.5 -76.5t8.5 -85q0 -38 -5.5 -71t-19.5 -66.5t-36 -57t-58 -38.5t-83 -15q-55 0 -94.5 21t-59.5 58t-28.5 76.5t-8.5 86.5 q0 158 12 218q29 151 168 207zM243 449q-58 0 -96 -36t-51 -81.5t-13 -97.5q0 -32 3 -58.5t12.5 -55.5t25.5 -48.5t44.5 -32.5t67.5 -13q155 0 155 211q0 35 -6 67.5t-20.5 67.5t-45.5 56t-76 21z" unicode="б" glyph-name="afii10066" horiz-adv-x="473"/>
<glyph d="M249 487q75 0 114.5 -33.5t39.5 -88.5q0 -77 -75 -108q48 -14 69.5 -49t21.5 -74q0 -58 -41.5 -96t-101.5 -38h-217v487h190zM262 236h-162v-201h163q58 0 87 30t29 74q0 40 -32 68.5t-85 28.5zM242 452h-142v-182h152q48 0 78.5 25t30.5 65q0 42 -29.5 67t-89.5 25z" unicode="в" glyph-name="afii10067" horiz-adv-x="455"/>
<glyph d="M99 0h-40v487h303v-35h-263v-452z" unicode="г" glyph-name="afii10068" horiz-adv-x="370"/>
<glyph d="M432 487v-453h41v-165h-34v131h-394v-131h-35v165h42q23 16 40 46t26 59.5t15.5 81t9 81.5t5.5 90l5 95h279zM391 452h-204l-4 -67q-4 -77 -7 -110.5t-11.5 -91t-24 -92t-40.5 -57.5h291v418z" unicode="д" glyph-name="afii10069" horiz-adv-x="512"/>
<glyph d="M248 461q-137 0 -155 -192h295q0 192 -140 192zM248 493q38 0 68.5 -11.5t49 -26t32 -40.5t19.5 -43t9 -46t3 -37.5v-28.5v-23h-337q-2 -209 156 -209q77 0 155 37l12 -29q-80 -43 -166 -43q-58 0 -98.5 19t-62 55t-30.5 77.5t-9 95.5q0 28 3.5 56.5t16 65.5t33 64.5 t58.5 47t88 19.5z" unicode="е" glyph-name="afii10070" horiz-adv-x="475"/>
<glyph d="M367 0h-40v241h-76q-37 0 -56 -3t-40 -21t-33 -55l-55 -162h-40l56 165q14 41 30 63t48 31q-25 8 -39.5 30t-29.5 63l-49 137h39l51 -142q10 -26 22 -42t30 -22.5t31 -8t38 -1.5h73v216h40v-216h72q25 0 38.5 1.5t31 8t29.5 22.5t22 42l52 142h39l-49 -137 q-14 -40 -29 -62.5t-41 -30.5q32 -9 48.5 -31t30.5 -63l56 -165h-41l-55 161q-9 29 -21 46t-30.5 24t-33.5 8.5t-43 1.5h-76v-241z" unicode="ж" glyph-name="afii10072" horiz-adv-x="695"/>
<glyph d="M186 -7q-92 0 -162 28l11 30q71 -26 147 -26q71 0 113 30t42 90q0 50 -41.5 77t-102.5 27h-68v31h60q62 0 98.5 25.5t36.5 70.5q0 41 -33 62.5t-92 21.5q-64 0 -144 -33l-11 30q77 37 161 37q75 0 117.5 -30t42.5 -86q0 -40 -25.5 -69.5t-66.5 -41.5v-1q47 -10 78 -42 t31 -80q0 -71 -52.5 -111t-139.5 -40z" unicode="з" glyph-name="afii10073" horiz-adv-x="421"/>
<glyph d="M385 426h-3q-11 -16 -36.5 -55t-38.5 -59q-208 -311 -209 -312h-39v486h40v-423h3q9 14 34.5 52.5t39.5 58.5l210 312h39v-486h-40v426z" unicode="и" glyph-name="afii10074" horiz-adv-x="485"/>
<glyph d="M385 426h-3q-11 -16 -36.5 -55t-38.5 -59q-208 -311 -209 -312h-39v486h40v-423h3q9 14 34.5 52.5t39.5 58.5l210 312h39v-486h-40v426zM237 559q-81 0 -145 97l31 20q54 -79 117 -79q61 0 136 74l17 -14q-72 -98 -156 -98z" unicode="й" glyph-name="afii10075" horiz-adv-x="485"/>
<glyph d="M99 0h-40v489h40v-216h118q69 0 95 74q9 24 26 71t26 71h39l-49 -137q-14 -40 -29 -62.5t-41 -30.5q32 -9 48.5 -31t30.5 -63q3 -7 28.5 -83.5t27.5 -81.5h-40q-28 81 -55 162v-1q-16 46 -40 63t-61 17h-124v-241z" unicode="к" glyph-name="afii10076" horiz-adv-x="440"/>
<glyph d="M414 0h-41v452h-197l-6 -85q-11 -176 -25 -233q-27 -109 -108 -141q-10 -4 -20 -7l-10 30q20 7 35.5 17.5t27.5 26.5t20.5 30t15 41t10.5 46t7.5 56.5t5 62.5t4.5 74l7 117h274v-487z" unicode="л" glyph-name="afii10077" horiz-adv-x="473"/>
<glyph d="M551 0h-40v412h-1q-25 -52 -30 -62l-154 -308h-34q-21 40 -80.5 156t-86.5 165l-26 52h-2v-415h-38q0 81 0.5 243t0.5 243h43q24 -43 83 -162.5t88 -172.5l35 -67h1l65 133l134 269h42v-486z" unicode="м" glyph-name="afii10078" horiz-adv-x="611"/>
<glyph d="M416 0h-41v240h-275v-240h-41v487h41v-211h275v211h41v-487z" unicode="н" glyph-name="afii10079" horiz-adv-x="476"/>
<glyph d="M443 240q0 -38 -5.5 -71.5t-19 -66.5t-35.5 -56.5t-57 -38t-81 -14.5q-73 0 -118.5 36t-61.5 88t-16 121q0 106 49.5 180.5t152.5 74.5q55 0 94 -21.5t59.5 -59.5t29.5 -80t9 -92zM401 238q0 221 -150 221q-45 0 -78 -19.5t-49.5 -53t-24 -70t-7.5 -79.5q0 -45 6 -79 t22.5 -65.5t49 -48t81.5 -16.5q150 0 150 210z" unicode="о" glyph-name="afii10080" horiz-adv-x="492"/>
<glyph d="M417 0h-42v452h-274v-452h-42v486h357q0 -24 0.5 -242.5t0.5 -243.5z" unicode="п" glyph-name="afii10081" horiz-adv-x="477"/>
<glyph d="M98 436l3 -3q77 60 158 60q174 0 174 -240q0 -118 -45.5 -188.5t-142.5 -70.5q-79 0 -146 39v-244h-40v698h38q0 -7 0.5 -26t0.5 -25zM99 393v-322q66 -43 143 -43q67 0 107.5 54t40.5 173q0 109 -36.5 155.5t-105.5 46.5q-35 0 -78.5 -19t-70.5 -45z" unicode="р" glyph-name="afii10082" horiz-adv-x="483"/>
<glyph d="M92 236q0 -208 157 -208q65 0 148 34l11 -30q-72 -39 -159 -39q-200 0 -200 242q0 33 4.5 65t18.5 68.5t36 63t60 44.5t88 18q79 0 135 -24l-12 -33q-60 22 -120 22q-83 0 -125 -60t-42 -163z" unicode="с" glyph-name="afii10083" horiz-adv-x="439"/>
<glyph d="M188 0v452h-171v35h381v-35h-170v-452h-40z" unicode="т" glyph-name="afii10084" horiz-adv-x="416"/>
<glyph d="M210 29q0 1 49 155l96 303h42q-177 -551 -193 -597q-17 -54 -42.5 -81t-70.5 -27q-55 3 -99 14l7 33q56 -11 81 -11q22 0 33.5 3t26 20t25.5 51l35 109h-22q-9 28 -84 250.5t-79 235.5h41q5 -17 51 -155.5t49 -149.5l50 -153h4z" unicode="у" glyph-name="afii10085" horiz-adv-x="419"/>
<glyph d="M293 -206v199q-138 6 -195.5 70t-57.5 174q0 112 61.5 180.5t191.5 74.5v216h40v-216q131 -3 191.5 -67.5t60.5 -176.5q0 -111 -60 -180t-192 -75l-1 -199h-39zM333 458v-432q212 10 212 217q0 97 -46.5 154t-165.5 61zM293 458q-213 -12 -213 -218q0 -100 47 -154.5 t166 -59.5v432z" unicode="ф" glyph-name="afii10086" horiz-adv-x="625"/>
<glyph d="M335 0l-141 229l-141 -229h-45q19 30 75 119.5t87 137.5q-21 34 -70 111t-74 118h46l122 -199l122 199h45l-144 -227l165 -259h-47z" unicode="х" glyph-name="afii10087" horiz-adv-x="391"/>
<glyph d="M376 35v452h40v-452h53v-167h-35v132h-375v487h40v-452h277z" unicode="ц" glyph-name="afii10088" horiz-adv-x="501"/>
<glyph d="M389 0h-41v248q-79 -55 -174 -55q-38 0 -64.5 10t-39.5 23t-20 36t-8 37.5t-1 40.5v147h40v-132q0 -67 18.5 -97t79.5 -30q101 0 169 56v203h41v-487z" unicode="ч" glyph-name="afii10089" horiz-adv-x="449"/>
<glyph d="M573 35v452h40v-487h-553v487h40v-452h217v452h41v-452h215z" unicode="ш" glyph-name="afii10090" horiz-adv-x="672"/>
<glyph d="M573 35v452h40v-452h52v-167h-35v132h-570v487h40v-452h217v452h41v-452h215z" unicode="щ" glyph-name="afii10091" horiz-adv-x="692"/>
<glyph d="M225 487v-199h172q81 0 118 -43.5t37 -100.5q0 -67 -42.5 -105.5t-107.5 -38.5h-217v452h-173v35h213zM391 254h-166v-220h174q50 0 81 29t31 81q0 57 -34.5 83.5t-85.5 26.5z" unicode="ъ" glyph-name="afii10092" horiz-adv-x="582"/>
<glyph d="M535 0h-41v487h41v-487zM266 254h-166v-219h174q50 0 81 28.5t31 80.5q0 57 -34.5 83.5t-85.5 26.5zM59 487h41v-199h172q81 0 118 -43.5t37 -100.5q0 -68 -43 -106t-108 -38h-217v487z" unicode="ы" glyph-name="afii10093" horiz-adv-x="594"/>
<glyph d="M266 254h-166v-219h174q50 0 81 28.5t31 80.5q0 57 -34.5 83.5t-85.5 26.5zM59 487h41v-199h172q81 0 118 -43.5t37 -100.5q0 -68 -43 -106t-108 -38h-217v487z" unicode="ь" glyph-name="afii10094" horiz-adv-x="457"/>
<glyph d="M180 494q49 0 86.5 -16t59 -39.5t34.5 -57.5t17.5 -64.5t4.5 -65.5q0 -110 -51.5 -184t-154.5 -74q-84 0 -153 38l13 28q74 -32 141 -32q79 0 120.5 61.5t41.5 154.5l-207 -2v35l208 -4q-3 87 -43.5 137.5t-118.5 50.5q-66 0 -124 -22l-11 30q58 26 137 26z" unicode="э" glyph-name="afii10095" horiz-adv-x="431"/>
<glyph d="M390 493q54 0 92.5 -22t58.5 -60.5t28.5 -80t8.5 -90.5q0 -37 -5 -70t-18.5 -66.5t-34.5 -57t-56 -38.5t-80 -15q-54 0 -93.5 21.5t-59.5 59t-29 78.5t-9 90h-95v-242h-39v486h39v-213h96q8 95 55.5 157.5t140.5 62.5zM536 237q0 222 -146 222q-59 0 -95.5 -36t-48 -82.5 t-11.5 -104.5q0 -44 5.5 -77t21 -65t48 -49.5t80.5 -17.5q35 0 62 13.5t42.5 34t25.5 49.5t13 56t3 57z" unicode="ю" glyph-name="afii10096" horiz-adv-x="628"/>
<glyph d="M363 0v217h-124q-92 0 -118 -76l-48 -141h-42l51 149q20 62 71 81q-93 25 -93 121q0 56 38 95.5t120 39.5h186v-486h-41zM363 452h-141q-120 0 -120 -101q0 -100 122 -100h139v201z" unicode="я" glyph-name="afii10097" horiz-adv-x="464"/>
<glyph d="M248 461q-137 0 -155 -192h295q0 192 -140 192zM248 493q38 0 68.5 -11.5t49 -26t32 -40.5t19.5 -43t9 -46t3 -37.5v-28.5v-23h-337q-2 -209 156 -209q77 0 155 37l12 -29q-80 -43 -166 -43q-58 0 -98.5 19t-62 55t-30.5 77.5t-9 95.5q0 28 3.5 56.5t16 65.5t33 64.5 t58.5 47t88 19.5zM352 613q0 -13 -9 -21.5t-23 -8.5q-13 0 -21.5 8.5t-8.5 21.5t9 22t21 9q14 0 23 -9t9 -22zM203 613q0 -13 -9 -21.5t-23 -8.5q-13 0 -21.5 8.5t-8.5 21.5t9 22t21 9q14 0 23 -9t9 -22z" unicode="ё" glyph-name="afii10071" horiz-adv-x="475"/>
<glyph d="M107 430q98 42 169 42q164 0 164 -251q0 -242 -199 -242v31q81 3 119.5 51.5t38.5 161.5q0 117 -34 166t-100 49q-62 0 -158 -43v-395h-40q0 94 -0.5 284.5t-0.5 285.5h-58v29h58v109h41v-109h213v-29h-213v-140z" unicode="ђ" glyph-name="afii10099" horiz-adv-x="488"/>
<glyph d="M99 0h-40v487h303v-35h-263v-452zM301 706l-122 -134l-21 17l107 148z" unicode="ѓ" glyph-name="afii10100" horiz-adv-x="370"/>
<glyph d="M255 494q77 0 136 -25l-12 -32q-58 21 -120 21q-78 0 -119.5 -52t-46.5 -143q68 2 208 4v-34q-35 0 -104.5 0.5t-104.5 0.5q2 -207 156 -207q66 0 148 34l12 -29q-69 -38 -159 -38q-200 0 -200 240q0 33 4.5 65t18.5 68.5t35.5 63.5t59.5 45t88 18z" unicode="є" glyph-name="afii10101" horiz-adv-x="441"/>
<glyph d="M43 29l15 30q65 -33 140 -33q61 0 99 25t38 74q0 41 -32 64t-90 42q-37 12 -60 21.5t-48 25.5t-37 38t-12 51q0 64 44.5 95t113.5 31q77 0 130 -27q-12 -31 -13 -32q-61 25 -118 25q-53 0 -85 -23t-32 -70q0 -60 116 -96q35 -11 49.5 -16t41.5 -18.5t39 -26t22.5 -34.5 t10.5 -49q0 -66 -49.5 -99.5t-125.5 -33.5q-98 0 -157 36z" unicode="ѕ" glyph-name="afii10102" horiz-adv-x="418"/>
<glyph d="M124 0h-41l1 487h40v-487zM137 610q0 -13 -10 -22.5t-24 -9.5q-13 0 -22.5 9.5t-9.5 22.5q0 14 9.5 24t22.5 10q14 0 24 -10t10 -24z" unicode="і" glyph-name="afii10103" horiz-adv-x="208"/>
<glyph d="M124 0h-40v487h40v-487zM211 606q0 -13 -9 -21.5t-23 -8.5q-13 0 -21.5 8.5t-8.5 21.5t9 22t21 9q14 0 23 -9t9 -22zM62 606q0 -13 -9 -21.5t-23 -8.5q-13 0 -21.5 8.5t-8.5 21.5t9 22t21 9q14 0 23 -9t9 -22z" unicode="ї" glyph-name="afii10104" horiz-adv-x="208"/>
<glyph d="M91 -12l-1 499h41v-492q-2 -84 -31.5 -129t-112.5 -81q-1 3 -6.5 15t-6.5 14q70 38 93.5 74.5t23.5 99.5zM78 610q0 14 9.5 24t22.5 10q14 0 24 -10t10 -24q0 -13 -10 -22.5t-24 -9.5q-13 0 -22.5 9.5t-9.5 22.5z" unicode="ј" glyph-name="afii10105" horiz-adv-x="216"/>
<glyph d="M377 487v-199h172q82 0 118.5 -43.5t36.5 -100.5q0 -68 -42.5 -106t-107.5 -38h-217v452h-162l-4 -85q-3 -50 -4.5 -73t-5 -65t-8 -62t-12.5 -51t-18.5 -47t-25.5 -35t-35 -30t-45 -18l-10 30q75 28 96.5 99.5t30.5 254.5l6 117h237zM544 254h-167v-219h174 q50 0 81.5 28.5t31.5 80.5q0 57 -34.5 83.5t-85.5 26.5z" unicode="љ" glyph-name="afii10106" horiz-adv-x="734"/>
<glyph d="M367 487v-202h169q82 0 120 -42t38 -100q0 -68 -42 -105.5t-108 -37.5h-217v250h-228v-250h-39l-1 487h40v-202h228v202h40zM534 251h-167v-216h174q51 0 82 28t31 80q0 57 -34.5 82.5t-85.5 25.5z" unicode="њ" glyph-name="afii10107" horiz-adv-x="724"/>
<glyph d="M422 0h-41v322q0 66 -19 96.5t-81 30.5q-73 0 -175 -57v-392h-41v569h-65v29h65v111h41v-111h203v-29h-203v-142q111 58 185 58q37 0 63 -10t39 -23.5t20 -36t8 -38t1 -40.5v-337z" unicode="ћ" glyph-name="afii10108" horiz-adv-x="482"/>
<glyph d="M99 0h-40v489h40v-216h118q69 0 95 74q9 24 26 71t26 71h39l-49 -137q-14 -40 -29 -62.5t-41 -30.5q32 -9 48.5 -31t30.5 -63q3 -7 28.5 -83.5t27.5 -81.5h-40q-28 81 -55 162v-1q-16 46 -40 63t-61 17h-124v-241zM323 682l-122 -134l-21 17l107 148z" unicode="ќ" glyph-name="afii10109" horiz-adv-x="440"/>
<glyph d="M210 28q2 6 8.5 27t19 60t21.5 69l96 303h42q-177 -551 -193 -597q-17 -54 -42.5 -81t-70.5 -27q-55 3 -99 14l7 33q56 -11 81 -11q22 0 33.5 3t26 20t25.5 51l35 109h-22q-9 28 -84 250.5t-79 235.5h41q5 -17 51 -155.5t49 -149.5l50 -154h4zM204 552q-81 0 -145 97 l31 20q54 -79 117 -79q61 0 136 74l17 -14q-72 -98 -156 -98z" unicode="ў" glyph-name="afii10110" horiz-adv-x="419"/>
<glyph d="M220 -137v137h-161v487h41v-452h277v452h40v-487h-161v-137h-36z" unicode="џ" glyph-name="afii10193" horiz-adv-x="476"/>
<glyph d="M80 682h44v-118h203v-34h-203v-141h199q54 0 95 -17.5t63 -46.5t33 -61.5t11 -67.5q0 -94 -55 -145t-140 -51h-250v530h-59v34h59v118zM321 354h-197v-319h206q66 0 108.5 41.5t42.5 118.5q0 84 -47.5 121.5t-112.5 37.5z" unicode="Ѣ" glyph-name="afii10146" horiz-adv-x="565"/>
<glyph d="M4 484v33h55v192h40v-192h210v-33h-210v-196h172q82 0 118.5 -43.5t36.5 -100.5q0 -68 -42.5 -106t-107.5 -38h-217v484h-55zM266 254h-167v-219h174q50 0 81.5 28.5t31.5 80.5q0 57 -34.5 83.5t-85.5 26.5z" unicode="ѣ" glyph-name="afii10194" horiz-adv-x="456"/>
<glyph d="M168 338v38l306 1v-39h-306zM593 338q0 -153 -68.5 -248.5t-196.5 -96.5q-147 0 -212.5 87.5t-65.5 254.5q0 74 14.5 135t45 113t86.5 81t132 29q265 0 265 -355zM547 335q0 323 -219 323q-233 0 -233 -325q0 -152 55 -228.5t173 -76.5q110 0 167 86.5t57 220.5z" unicode="Ѳ" glyph-name="afii10147" horiz-adv-x="643"/>
<glyph d="M443 240q0 -38 -5.5 -71.5t-19 -66.5t-35.5 -56.5t-57 -38t-81 -14.5q-73 0 -118.5 36t-61.5 88t-16 121q0 106 49.5 180.5t152.5 74.5q55 0 94 -21.5t59.5 -59.5t29.5 -80t9 -92zM251 28q148 0 150 208h-309q0 -45 6 -79t22.5 -65t49 -47.5t81.5 -16.5zM251 459 q-79 0 -116 -53.5t-42 -135.5h307q-13 189 -149 189z" unicode="ѳ" glyph-name="afii10195" horiz-adv-x="492"/>
<glyph d="M80 682h44v-118h203v-34h-203v-141h199q54 0 95 -17.5t63 -46.5t33 -61.5t11 -67.5q0 -94 -55 -145t-140 -51h-250v530h-59v34h59v118zM321 354h-197v-319h206q66 0 108.5 41.5t42.5 118.5q0 84 -47.5 121.5t-112.5 37.5z" unicode="Ҍ" glyph-name="uni048C" horiz-adv-x="565"/>
<glyph d="M4 484v33h55v192h40v-192h210v-33h-210v-196h172q82 0 118.5 -43.5t36.5 -100.5q0 -68 -42.5 -106t-107.5 -38h-217v484h-55zM266 254h-167v-219h174q50 0 81.5 28.5t31.5 80.5q0 57 -34.5 83.5t-85.5 26.5z" unicode="ҍ" glyph-name="uni048D" horiz-adv-x="456"/>
<glyph d="M124 0h-44v683h343v125h37v-161h-336v-647z" unicode="Ґ" glyph-name="afii10050" horiz-adv-x="472"/>
<glyph d="M327 487v97h32v-132h-260v-452h-40v487h268z" unicode="ґ" glyph-name="afii10098" horiz-adv-x="370"/>
<glyph d="M123 342v-342h-43v342h-73v36h73v304h377v-36h-334v-268h288v-36h-288z" unicode="Ғ" glyph-name="uni0492" horiz-adv-x="484"/>
<glyph d="M98 451v-192h187v-35h-187v-224h-39v224h-55v35h55v227h302v-35h-263z" unicode="ғ" glyph-name="uni0493" horiz-adv-x="370"/>
<glyph d="M456 0h-43v345h-136q-48 0 -81.5 -25t-53.5 -90l-68 -230h-44l69 234q16 57 41 89.5t72 42.5q-65 19 -101 132l-58 184h41l62 -191q35 -109 132 -109h125v301h43v-301h125q97 0 132 109l62 191h40l-57 -184q-36 -113 -102 -132q47 -10 72 -42.5t42 -89.5l58 -199h26v-192 h-39v157h-19l-69 230q-20 65 -53.5 90t-81.5 25h-136v-345z" unicode="Җ" glyph-name="uni0496" horiz-adv-x="869"/>
<glyph d="M367 0h-40v241h-76q-37 0 -56 -3t-40 -21t-33 -55l-55 -162h-40l56 165q14 41 30 63t48 31q-25 8 -39.5 30t-29.5 63l-49 137h39l51 -142q10 -26 22 -42t30 -22.5t31 -8t38 -1.5h73v216h40v-216h72q25 0 38.5 1.5t31 8t29.5 22.5t22 42l52 142h39l-49 -137 q-14 -40 -29 -62.5t-41 -30.5q32 -9 48.5 -31t30.5 -63l44 -131h23v-165h-35v131h-17l-55 161q-9 29 -21 46t-30.5 24t-33.5 8.5t-43 1.5h-76v-241z" unicode="җ" glyph-name="uni0497" horiz-adv-x="695"/>
<glyph d="M124 0h-44v683h44v-301h143q97 0 133 109l62 191h41l-57 -184q-18 -55 -42 -88t-60 -44q47 -10 72 -42.5t41 -89.5l58 -199h25v-192h-39v157h-19l-69 230q-20 65 -53 89.5t-81 24.5h-155v-344z" unicode="Қ" glyph-name="uni049A" horiz-adv-x="546"/>
<glyph d="M99 0h-40v489h40v-216h118q69 0 95 74q9 24 26 71t26 71h39l-49 -137q-14 -40 -29 -62.5t-41 -30.5q32 -9 48.5 -31t30.5 -63l44 -131h23v-165h-35v131h-16q-28 81 -55 162v-1q-16 46 -40 63t-61 17h-124v-241z" unicode="қ" glyph-name="uni049B" horiz-adv-x="440"/>
<glyph d="M124 0h-44v683h44v-301h99v125h36v-125h8q97 0 133 109l62 191h41l-57 -184q-18 -55 -42 -88t-60 -44q47 -10 72 -42.5t41 -89.5l69 -234h-44l-69 230q-20 65 -53 89.5t-81 24.5h-20v-134h-36v134h-99v-344z" unicode="Ҝ" glyph-name="uni049C" horiz-adv-x="546"/>
<glyph d="M99 0h-40v489h40v-216h80v118h36v-118h2q69 0 95 74q9 24 26 71t26 71h39l-49 -137q-14 -40 -29 -62.5t-41 -30.5q32 -9 48.5 -31t30.5 -63q3 -7 28.5 -83.5t27.5 -81.5h-40q-28 81 -55 162v-1q-16 46 -40 63t-61 17h-8v-121h-36v121h-80v-241z" unicode="ҝ" glyph-name="uni049D" horiz-adv-x="440"/>
<glyph d="M0 645v37h166v-300h143q97 0 133 109l62 191h41l-60 -192q-34 -107 -100 -124q47 -11 72 -42.5t42 -89.5l69 -234h-44l-69 230q-20 64 -53 89t-81 25h-155v-344h-44v645h-122z" unicode="Ҡ" glyph-name="uni04A0" horiz-adv-x="588"/>
<glyph d="M2 452v35h142v-213h119q68 0 95 74l50 138h39l-48 -133q-14 -40 -29 -63t-40 -31q32 -8 48 -30t30 -64l56 -165h-40l-55 162q-16 46 -39.5 62.5t-61.5 16.5h-124v-241h-40v452h-102z" unicode="ҡ" glyph-name="uni04A1" horiz-adv-x="485"/>
<glyph d="M554 -157h-39v157h-30v342h-360v-342h-45v683h45v-303h360v303h45v-648h24v-192z" unicode="Ң" glyph-name="uni04A2" horiz-adv-x="610"/>
<glyph d="M435 -131h-35v131h-25v240h-275v-240h-41v487h41v-211h275v211h41v-453h19v-165z" unicode="ң" glyph-name="uni04A3" horiz-adv-x="475"/>
<glyph d="M65 283v37h143l-195 363h48l114 -216l59 -117h4l59 111l121 222h47l-202 -363h145v-37h-149v-283h-45v283h-149z" unicode="Ұ" glyph-name="uni04B0" horiz-adv-x="479"/>
<glyph d="M55 486l90 -283q33 -102 52 -166h3q19 66 49 161l95 288h42l-163 -486h133v-34h-139v-177h-40v177h-138v34h132l-158 486h42z" unicode="ұ" glyph-name="uni04B1" horiz-adv-x="400"/>
<glyph d="M445 0l-191 319l-191 -319h-47l213 353l-199 329h48l177 -296l178 296h47q-33 -55 -100 -165t-100 -165q168 -277 192 -317h27v-192h-39v157h-15z" unicode="Ҳ" glyph-name="uni04B2" horiz-adv-x="511"/>
<glyph d="M335 0l-141 229l-141 -229h-45q19 30 75 119.5t87 137.5q-21 34 -70 111t-74 118h46l122 -199l122 199h45l-144 -227l143 -225h25v-165h-35v131h-15z" unicode="ҳ" glyph-name="uni04B3" horiz-adv-x="391"/>
<glyph d="M497 682v-647h24v-192h-39v157h-29v315q-101 -39 -212 -39q-95 0 -139.5 43t-44.5 106v257h44v-241q0 -63 34.5 -95t111.5 -32q119 0 206 39v329h44z" unicode="Ҷ" glyph-name="uni04B6" horiz-adv-x="577"/>
<glyph d="M408 -131h-35v131h-25v248q-79 -55 -174 -55q-38 0 -64.5 10t-39.5 23t-20 36t-8 37.5t-1 40.5v147h40v-132q0 -67 18.5 -97t79.5 -30q101 0 169 56v203h41v-453h19v-165z" unicode="ҷ" glyph-name="uni04B7" horiz-adv-x="449"/>
<glyph d="M497 682v-682h-44v315q-69 -27 -165 -37v-132h-37v130h-10q-95 0 -139.5 43t-44.5 106v257h44v-241q0 -63 34.5 -95t111.5 -32h4v139h37v-138q100 8 165 38v329h44z" unicode="Ҹ" glyph-name="uni04B8" horiz-adv-x="577"/>
<glyph d="M389 0h-41v248q-52 -37 -121 -50v-114h-36v109h-17q-38 0 -64.5 10t-39.5 23t-20 36t-8 37.5t-1 40.5v147h40v-132q0 -67 18.5 -97t79.5 -30h12v133h36v-129q71 11 121 52v203h41v-487z" unicode="ҹ" glyph-name="uni04B9" horiz-adv-x="449"/>
<glyph d="M312 -7q-252 0 -252 326v28h483q-3 310 -228 310q-104 0 -220 -54l-13 30q113 59 236 59q128 0 199.5 -83t71.5 -262q0 -49 -6.5 -94t-25.5 -94t-49 -84.5t-80.5 -58.5t-115.5 -23zM313 28q60 0 104.5 23.5t70 65t38.5 89t17 105.5h-439q0 -283 209 -283z" unicode="Ә" glyph-name="uni04D8" horiz-adv-x="649"/>
<glyph d="M223 27q138 0 154 191h-294q0 -191 140 -191zM222 -7q-180 0 -180 233v23h336q2 209 -155 209q-75 0 -154 -36l-12 29q77 42 165 42q58 0 98.5 -19t61.5 -54.5t30 -77t9 -95.5q0 -28 -3.5 -56.5t-16 -66t-33 -65t-58.5 -47t-88 -19.5z" unicode="ә" glyph-name="schwacyrillic" horiz-adv-x="455"/>
</font>
</defs>
</svg>
