<?xml version="1.0" encoding="UTF-8" standalone="no"?>
<!DOCTYPE svg  PUBLIC '-//W3C//DTD SVG 1.1//EN'  'http://www.w3.org/Graphics/SVG/1.1/DTD/svg11.dtd'>
<svg version="1.1" xmlns="http://www.w3.org/2000/svg">
<defs>
<font id="FordAntenna-Black" horiz-adv-x="321">
<font-face unicode-range="U+0020-0491" underline-thickness="50" font-weight="900" panose-1="2 0 5 5 0 0 0 2 0 4" underline-position="-150" font-family="Ford Antenna Black" bbox="-99 -262 1291 1017" ascent="800" units-per-em="1000" cap-height="741" descent="-200" x-height="573"/>
<missing-glyph/>
<glyph horiz-adv-x="205" glyph-name="space" unicode=" "/>
<glyph d="M99 0v211h224v-211h-224zM122 249l-19 492h217l-20 -492h-178z" horiz-adv-x="424" glyph-name="exclam" unicode="!"/>
<glyph d="M90 367l-11 374h206l-11 -374h-184zM355 367l-12 374h207l-12 -374h-183z" horiz-adv-x="629" glyph-name="quotedbl" unicode='&quot;'/>
<glyph d="M125 0l29 154h-103v172h136l9 52h-145v172h178l37 191h189l-37 -191h67l36 191h189l-36 -191h111v-172h-144l-9 -52h153v-172h-186l-30 -154h-189l30 154h-67l-29 -154h-189zM358 315h98l14 74h-98z" horiz-adv-x="836" glyph-name="numbersign" unicode="#"/>
<glyph d="M259 -94v98q-155 17 -243 79l83 137q108 -64 236 -64q80 0 107.5 16t27.5 49q0 36 -28.5 48.5t-116.5 22.5q-42 5 -67 9.5t-61.5 14t-58.5 24t-44 37t-32 56.5t-10 78q0 103 51.5 156.5t155.5 68.5v79h182v-78q102 -11 185 -56l-84 -146q-31 19 -86 31.5t-105 12.5 q-66 0 -87.5 -14t-21.5 -42q0 -40 41 -54q26 -8 119 -20q33 -4 55 -8t51.5 -11.5t49 -17.5t40 -26t32.5 -36t20 -49t8 -65q0 -197 -217 -229v-101h-182z" horiz-adv-x="698" glyph-name="dollar" unicode="$"/>
<glyph d="M283 251q-122 0 -189.5 64.5t-67.5 187.5q0 120 67.5 185t189.5 65q119 0 186.5 -64.5t67.5 -185.5q0 -122 -67.5 -187t-186.5 -65zM283 398q42 0 60 26t18 79q0 99 -78 99q-81 0 -81 -99q0 -105 81 -105zM1036 -9q-121 0 -188.5 65t-67.5 188q0 120 68 185t188 65 q119 0 187 -65t68 -185q0 -123 -67.5 -188t-187.5 -65zM1036 138q79 0 79 106q0 98 -79 98q-80 0 -80 -98q0 -106 80 -106zM359 0l415 742h183l-415 -742h-183z" horiz-adv-x="1317" glyph-name="percent" unicode="%"/>
<glyph d="M338 -9q-156 0 -232 49t-76 174q0 139 150 202q-32 64 -32 124q0 105 62.5 159t172.5 54q220 0 220 -213q0 -71 -40.5 -115.5t-109.5 -73.5l33 -31q32 -30 62 -53q32 59 73 194l166 -39q-43 -155 -91 -239q44 -14 105 -14h6v-169h-14q-135 0 -227 44q-88 -53 -228 -53z M338 146q41 0 70 7q-38 33 -74 69q-35 34 -62 63q-48 -28 -48 -69q0 -16 2.5 -26t12.5 -21.5t35 -17t64 -5.5zM335 540q0 -30 23 -71q74 28 74 71q0 26 -10.5 38.5t-38.5 12.5t-38 -12t-10 -39z" horiz-adv-x="878" glyph-name="ampersand" unicode="&amp;"/>
<glyph d="M90 368l-11 374h206l-11 -374h-184z" horiz-adv-x="365" glyph-name="quotesingle" unicode="&apos;"/>
<glyph d="M298 -196q-83 70 -144 200t-61 300q0 154 63.5 295t141.5 207l144 -90q-67 -80 -106.5 -173t-39.5 -237q0 -248 146 -412z" horiz-adv-x="544" glyph-name="parenleft" unicode="("/>
<glyph d="M245 -196l-142 90q66 80 105 173t39 237t-43.5 246.5t-100.5 165.5l142 90q83 -70 144.5 -200t61.5 -300q0 -154 -64 -294.5t-142 -207.5z" horiz-adv-x="544" glyph-name="parenright" unicode=")"/>
<glyph d="M236 219l18 150l-126 -90l-78 141l143 60l-143 62l77 140l127 -91l-18 151h153l-18 -153l128 93l78 -139l-145 -63l145 -61l-77 -138l-129 90l17 -152h-152z" horiz-adv-x="627" glyph-name="asterisk" unicode="*"/>
<glyph d="M270 80v184h-184v177h184v182h197v-182h183v-177h-183v-184h-197z" horiz-adv-x="736" glyph-name="plus" unicode="+"/>
<glyph d="M104 -176l-46 95q64 30 79 42t15 39h-104v216h224v-151q0 -108 -29.5 -152t-138.5 -89z" glyph-name="comma" unicode=","/>
<glyph d="M32 251v176h347v-176h-347z" horiz-adv-x="411" glyph-name="hyphen" unicode="-"/>
<glyph d="M32 251v176h347v-176h-347z" horiz-adv-x="411" glyph-name="hyphen" unicode="­"/>
<glyph d="M48 0v216h224v-216h-224z" glyph-name="period" unicode="."/>
<glyph d="M0 0l414 741h201l-414 -741h-201z" horiz-adv-x="615" glyph-name="slash" unicode="/"/>
<glyph d="M398 -11q-180 0 -262.5 92t-82.5 290t82.5 290t262.5 92q177 0 260 -92t83 -290q0 -197 -83 -289.5t-260 -92.5zM398 161q77 0 107.5 49t30.5 161q0 111 -30 156.5t-108 45.5t-109 -46t-31 -156q0 -111 31.5 -160.5t108.5 -49.5z" horiz-adv-x="794" glyph-name="zero" unicode="0"/>
<glyph d="M146 0v563h-118v178h313v-741h-195z" horiz-adv-x="437" glyph-name="one" unicode="1"/>
<glyph d="M31 0v154l238 188q91 72 119.5 103t28.5 66q0 38 -21.5 53.5t-89.5 15.5q-50 0 -109 -14t-92 -33l-90 152q71 37 136 52.5t176 15.5q146 0 216.5 -52t70.5 -171q0 -79 -45.5 -140t-143.5 -135l-120 -91h315v-164h-589z" horiz-adv-x="673" glyph-name="two" unicode="2"/>
<glyph d="M327 -12q-112 0 -187 20.5t-144 65.5l92 149q122 -71 229 -71q68 0 94.5 17t26.5 66q0 46 -27 62t-101 16h-143v155h141q62 0 85.5 12t23.5 47q0 34 -20.5 45.5t-84.5 11.5q-53 0 -109 -14.5t-89 -35.5l-101 145q120 74 319 74q141 0 210.5 -41.5t69.5 -139.5 q0 -76 -20.5 -113.5t-64.5 -55.5q52 -15 78.5 -56t26.5 -130q0 -67 -23 -113.5t-66.5 -71t-95 -34.5t-120.5 -10z" horiz-adv-x="673" glyph-name="three" unicode="3"/>
<glyph d="M24 134v146l322 461h211l-316 -450h168l41 194h138v-194h107v-157h-107v-134h-182v134h-382z" horiz-adv-x="717" glyph-name="four" unicode="4"/>
<glyph d="M344 -11q-191 0 -320 86l92 149q125 -71 222 -71q25 0 40.5 1t34.5 6t29 14.5t17 27t7 43.5q0 32 -9 51.5t-29 28.5t-38.5 11.5t-49.5 2.5q-70 0 -118 -21l-165 49l20 374h528v-169h-361l-5 -97q54 26 152 26q49 0 83.5 -4t73 -18.5t62.5 -40.5t39.5 -73t15.5 -113 q0 -67 -16 -115t-42.5 -76.5t-69.5 -45t-87 -21.5t-106 -5z" horiz-adv-x="690" glyph-name="five" unicode="5"/>
<glyph d="M393 -11q-184 0 -264 86t-80 256q0 118 19.5 191.5t72.5 125t144.5 72.5t237.5 21h89v-169h-95q-77 0 -130 -8t-80 -20t-41.5 -31t-17.5 -35t-4 -38v-9q46 70 218 70q139 0 195 -60t56 -185q0 -132 -75 -199.5t-245 -67.5zM394 150q77 0 101.5 24t24.5 75q0 50 -27 74.5 t-97 24.5q-74 0 -107 -24t-33 -75t33 -75t105 -24z" horiz-adv-x="749" glyph-name="six" unicode="6"/>
<glyph d="M124 0l246 572h-365v169h583v-143l-255 -598h-209z" horiz-adv-x="617" glyph-name="seven" unicode="7"/>
<glyph d="M380 -18q-95 0 -163.5 19t-105.5 52.5t-53.5 72t-16.5 84.5q0 153 115 195q-55 25 -72.5 62t-17.5 92q0 194 314 194q315 0 315 -194q0 -27 -3 -46t-11.5 -40.5t-27.5 -38.5t-49 -29q70 -25 93.5 -74t23.5 -121q0 -46 -16.5 -84.5t-53.5 -72t-106 -52.5t-165 -19z M380 131q140 0 140 95q0 46 -31.5 71t-108.5 25q-76 0 -107 -25t-31 -71q0 -95 138 -95zM380 457q69 0 95.5 19.5t26.5 55.5q0 35 -26.5 53t-95.5 18t-95 -18t-26 -53q0 -37 26 -56t95 -19z" horiz-adv-x="762" glyph-name="eight" unicode="8"/>
<glyph d="M149 0v164h96q95 0 153.5 10t82.5 33.5t29 38.5t7 49q1 3 1 5.5v5.5q-46 -70 -218 -70q-137 0 -194 63t-57 183q0 133 75 202t245 69q184 0 264 -86t80 -256q0 -94 -12 -158t-42.5 -115t-85 -80t-135.5 -43.5t-199 -14.5h-90zM366 385q74 0 107 24t33 75t-33 75t-105 24 q-77 0 -101.5 -24t-24.5 -75q0 -49 27 -74t97 -25z" horiz-adv-x="749" glyph-name="nine" unicode="9"/>
<glyph d="M58 0v209h224v-209h-224zM58 365v208h224v-208h-224z" horiz-adv-x="341" glyph-name="colon" unicode=":"/>
<glyph d="M114 -176l-46 95q64 30 79 42t15 39h-104v209h224v-144q0 -49 -5.5 -79.5t-22.5 -61t-51 -54t-89 -46.5zM58 365v208h224v-208h-224z" horiz-adv-x="341" glyph-name="semicolon" unicode=";"/>
<glyph d="M583 48l-468 232v133l468 231v-179l-260 -118l260 -118v-181z" horiz-adv-x="736" glyph-name="less" unicode="&lt;"/>
<glyph d="M92 136v176h552v-176h-552zM92 393v175h552v-175h-552z" horiz-adv-x="736" glyph-name="equal" unicode="="/>
<glyph d="M153 48v180l261 117l-261 119v180l469 -232v-134z" horiz-adv-x="736" glyph-name="greater" unicode="&gt;"/>
<glyph d="M244 224q-17 102 10 146t118 78q60 23 76 36.5t16 41.5q0 27 -21 39t-86 12q-109 -1 -209 -48l-83 164q127 60 308 60q148 0 221.5 -47.5t73.5 -160.5q0 -82 -33 -124t-104 -69q-72 -27 -85.5 -46.5t-8.5 -81.5h-193zM228 0v186h224v-186h-224z" horiz-adv-x="721" glyph-name="question" unicode="?"/>
<glyph d="M547 -165q-119 0 -205.5 22t-152.5 73t-98.5 140.5t-32.5 219.5q0 464 466 464q105 0 186 -22.5t147 -73.5t101.5 -143.5t35.5 -223.5q0 -155 -43.5 -209.5t-165.5 -54.5q-132 0 -157 63q-21 -26 -59.5 -40t-112.5 -14q-63 0 -107 20.5t-66.5 59t-32 82t-9.5 99.5 q0 259 225 259q70 0 104.5 -10.5t54.5 -33.5l34 34l115 -11v-349q1 -34 12 -49t43 -15q15 0 25.5 3t17 13t10.5 19.5t5.5 33t2 42.5t0.5 58q0 106 -26 178.5t-76.5 112t-114 56t-149.5 16.5q-64 0 -115.5 -9.5t-98.5 -35t-79 -65.5t-50.5 -104.5t-18.5 -149.5 q0 -102 27 -172.5t79.5 -109.5t119.5 -56t158 -17q65 0 136 15t120 39l43 -90q-130 -64 -298 -64zM502 183q54 0 76 29t22 85q0 55 -20 79t-78 24q-49 0 -67 -26.5t-18 -76.5q0 -114 85 -114z" horiz-adv-x="1052" glyph-name="at" unicode="@"/>
<glyph d="M7 0l297 746h211l299 -746h-215l-37 96h-316l-37 -96h-202zM312 266h184l-92 236z" horiz-adv-x="821" glyph-name="A" unicode="A"/>
<glyph d="M68 0v741h355q162 0 233 -44.5t71 -152.5q0 -125 -93 -160q64 -15 88.5 -57t24.5 -124q0 -118 -76.5 -160.5t-247.5 -42.5h-355zM271 159h178q48 0 68 16t20 50t-20 50t-68 16h-178v-132zM271 449h159q50 0 68.5 15.5t18.5 47.5t-18.5 47.5t-68.5 15.5h-159v-126z" horiz-adv-x="781" glyph-name="B" unicode="B"/>
<glyph d="M418 -11q-211 0 -300 96t-89 286q0 382 402 382q109 0 180 -28t127 -87l-143 -143q-34 34 -71 51t-94 17q-103 0 -147.5 -48.5t-44.5 -146.5q0 -97 41.5 -145.5t151.5 -48.5q61 0 98 17.5t78 55.5l136 -133q-56 -59 -129 -92t-196 -33z" horiz-adv-x="778" glyph-name="C" unicode="C"/>
<glyph d="M68 0v741h278q118 0 194.5 -16t131.5 -57t79 -113t24 -184q0 -110 -24 -182t-79 -114t-132 -58.5t-194 -16.5h-278zM275 180h83q70 0 111 9.5t62.5 35t28 57.5t6.5 89t-6 87.5t-28 55t-65.5 33t-118.5 8.5h-73v-375z" horiz-adv-x="803" glyph-name="D" unicode="D"/>
<glyph d="M68 0v741h590v-187h-383v-90h373v-181h-373v-104h387v-179h-594z" horiz-adv-x="712" glyph-name="E" unicode="E"/>
<glyph d="M68 0v741h570v-187h-363v-110h353v-184h-353v-260h-207z" horiz-adv-x="678" glyph-name="F" unicode="F"/>
<glyph d="M415 -11q-93 0 -160.5 17t-110.5 47.5t-69 79t-36 105.5t-10 133q0 197 102 289.5t299 92.5q210 0 316 -112l-143 -143q-30 31 -68 48t-106 17q-106 0 -149.5 -48t-43.5 -146q0 -56 7 -91t27 -63t58 -40t98 -12q87 0 123.5 23t36.5 77v12h-188v167h388v-138 q0 -165 -85 -240t-286 -75z" horiz-adv-x="810" glyph-name="G" unicode="G"/>
<glyph d="M68 0v741h207v-266h284v266h208v-741h-208v281h-284v-281h-207z" horiz-adv-x="835" glyph-name="H" unicode="H"/>
<glyph d="M80 0v741h207v-741h-207z" horiz-adv-x="367" glyph-name="I" unicode="I"/>
<glyph d="M18 0v179h100q55 0 75 17t20 59v486h207v-494q0 -75 -20.5 -125.5t-60.5 -77t-86 -37t-109 -10.5q-71 0 -126 3z" horiz-adv-x="483" glyph-name="J" unicode="J"/>
<glyph d="M534 0l-178 284l-84 -102v-182h-204v741h204v-292l233 292h228l-244 -295l280 -446h-235z" horiz-adv-x="788" glyph-name="K" unicode="K"/>
<glyph d="M68 0v741h207v-562h349v-179h-556z" horiz-adv-x="632" glyph-name="L" unicode="L"/>
<glyph d="M68 0v741h271l166 -441l167 441h270v-741h-202v430l-166 -430h-155l-164 427v-427h-187z" horiz-adv-x="1011" glyph-name="M" unicode="M"/>
<glyph d="M68 0v741h222l289 -392v392h198v-741h-191l-320 433v-433h-198z" horiz-adv-x="845" glyph-name="N" unicode="N"/>
<glyph d="M431 -12q-402 0 -402 383q0 382 402 382q403 0 403 -382q0 -383 -403 -383zM431 170q108 0 150.5 51t42.5 146t-42.5 145.5t-150.5 50.5t-150.5 -50.5t-42.5 -145.5t42.5 -146t150.5 -51z" horiz-adv-x="863" glyph-name="O" unicode="O"/>
<glyph d="M68 0v741h372q93 0 157.5 -19t98.5 -55.5t48.5 -81.5t14.5 -106q0 -49 -8 -87.5t-30 -75t-58 -61t-95.5 -39t-139.5 -14.5h-158v-202h-202zM270 373h167q63 0 88.5 21.5t25.5 73.5q0 55 -25 76t-90 21h-166v-192z" horiz-adv-x="787" glyph-name="P" unicode="P"/>
<glyph d="M553 -207q-84 0 -135.5 11.5t-78 40t-34 66t-4.5 98.5q-272 51 -272 362q0 382 402 382q403 0 403 -382q0 -188 -92 -274.5t-260 -96.5q0 -26 13 -32.5t57 -6.5h104v-165q-44 -3 -103 -3zM431 170q108 0 150.5 51t42.5 146t-42.5 145.5t-150.5 50.5t-150.5 -50.5 t-42.5 -145.5t42.5 -146t150.5 -51z" horiz-adv-x="863" glyph-name="Q" unicode="Q"/>
<glyph d="M524 0l-120 222h-134v-222h-202v741h376q77 0 133.5 -13.5t90 -35.5t53.5 -56.5t26.5 -69t6.5 -80.5q0 -181 -143 -237l135 -249h-222zM270 394h167q62 0 85 17t23 67q0 52 -22.5 69.5t-86.5 17.5h-166v-171z" horiz-adv-x="799" glyph-name="R" unicode="R"/>
<glyph d="M384 -11q-244 0 -377 103l104 149q118 -81 267 -81q68 0 100.5 7.5t39.5 18.5t7 35q0 26 -33 37t-121 22q-87 11 -142 25t-97 40t-60 67.5t-18 103.5q0 130 78 183.5t251 53.5q204 0 322 -76l-112 -161q-34 23 -95 40t-117 17q-76 0 -98.5 -11.5t-22.5 -40.5 q0 -30 44 -43q28 -7 120 -19q63 -8 104 -16.5t83 -25t65.5 -39.5t38.5 -60t15 -87q0 -121 -76.5 -181.5t-269.5 -60.5z" horiz-adv-x="761" glyph-name="S" unicode="S"/>
<glyph d="M254 0v554h-246v187h700v-187h-246v-554h-208z" horiz-adv-x="715" glyph-name="T" unicode="T"/>
<glyph d="M418 -15q-62 0 -112.5 7t-86 21.5t-62.5 31.5t-44 41.5t-27.5 46.5t-15.5 52t-6.5 52.5t-1.5 53.5v450h208v-422q0 -82 29 -116.5t122 -34.5q92 0 121.5 33t29.5 118v422h201v-450q0 -36 -2 -61.5t-9.5 -59.5t-21.5 -58t-40.5 -50t-63 -41.5t-92.5 -25.5t-126 -10z" horiz-adv-x="835" glyph-name="U" unicode="U"/>
<glyph d="M299 -5l-292 746h218l183 -489l182 489h214l-294 -746h-211z" horiz-adv-x="811" glyph-name="V" unicode="V"/>
<glyph d="M230 -5l-219 746h216l109 -406l117 406h188l118 -406l109 406h203l-219 -746h-184l-127 435l-127 -435h-184z" horiz-adv-x="1082" glyph-name="W" unicode="W"/>
<glyph d="M563 0l-163 235l-151 -235h-230l273 390l-243 351h234l133 -192l124 192h230l-246 -347l274 -394h-235z" horiz-adv-x="818" glyph-name="X" unicode="X"/>
<glyph d="M291 0v246l-293 495h222l179 -310l179 310h214l-294 -497v-244h-207z" horiz-adv-x="791" glyph-name="Y" unicode="Y"/>
<glyph d="M25 0v153l378 401h-361v187h625v-169l-371 -393h382v-179h-653z" horiz-adv-x="706" glyph-name="Z" unicode="Z"/>
<glyph d="M102 -165v941h362v-170h-161v-606h164v-165h-365z" horiz-adv-x="544" glyph-name="bracketleft" unicode="["/>
<glyph d="M414 0l-414 741h201l414 -741h-201z" horiz-adv-x="615" glyph-name="backslash" unicode="\"/>
<glyph d="M76 -165v165h164v606h-160v170h361v-941h-365z" horiz-adv-x="544" glyph-name="bracketright" unicode="]"/>
<glyph d="M38 525l156 198h202l156 -198h-183l-76 75l-76 -75h-179z" horiz-adv-x="590" glyph-name="asciicircum" unicode="^"/>
<glyph d="M-37 -176v146h527v-146h-527z" horiz-adv-x="453" glyph-name="underscore" unicode="_"/>
<glyph d="M238 625l-200 198h237l136 -198h-173z" horiz-adv-x="590" glyph-name="grave" unicode="`"/>
<glyph d="M238 -9q-67 0 -112.5 13.5t-69 39.5t-32.5 56.5t-9 71.5q0 48 14.5 82t41.5 56t73 34t100 16.5t132 4.5h18q-1 26 -17.5 37t-75.5 11q-91 0 -163 -46l-99 145q40 27 117.5 50.5t166.5 23.5q106 0 163 -24t77.5 -70.5t20.5 -131.5v-153q0 -29 7 -36.5t38 -7.5v-161 q-23 -5 -84 -5q-47 0 -73 10.5t-44 41.5q-46 -58 -190 -58zM279 150q60 0 87.5 18t27.5 59v19h-5q-87 0 -128 -7t-49.5 -17t-8.5 -33q0 -22 16.5 -30.5t59.5 -8.5z" horiz-adv-x="658" glyph-name="a" unicode="a"/>
<glyph d="M412 -9q-135 0 -187 52l-39 -50l-131 14v769h197v-234q49 44 172 44q58 0 102 -16.5t71.5 -43t44 -66t23 -81t6.5 -91.5q0 -297 -259 -297zM372 158q58 0 78 32t20 90q0 60 -19.5 93t-78.5 33q-66 0 -92.5 -31.5t-26.5 -94.5q0 -64 24.5 -93t94.5 -29z" horiz-adv-x="699" glyph-name="b" unicode="b"/>
<glyph d="M331 -9q-90 0 -151.5 23t-93.5 66t-45 92.5t-13 115.5q0 65 12.5 114t44.5 93t96.5 67.5t159.5 23.5q161 0 245 -99l-139 -131q-21 23 -44 36t-63 13q-66 0 -89 -31t-23 -92t23 -92.5t91 -31.5q36 0 61.5 11.5t55.5 40.5l126 -120q-58 -54 -111 -76.5t-143 -22.5z" horiz-adv-x="599" glyph-name="c" unicode="c"/>
<glyph d="M278 -11q-250 0 -250 301q0 296 257 296q112 0 160 -44v234h199v-769l-152 -14l-20 52q-58 -56 -194 -56zM327 159q65 0 91.5 33t26.5 98q0 63 -23.5 90.5t-94.5 27.5q-59 0 -78.5 -30t-19.5 -88q0 -61 20 -96t78 -35z" horiz-adv-x="699" glyph-name="d" unicode="d"/>
<glyph d="M338 -11q-92 0 -155.5 23t-96 67t-45.5 93.5t-13 115.5q0 64 13 113.5t45.5 93.5t96 67.5t155.5 23.5q62 0 108.5 -13t75 -37t47 -57.5t25.5 -74t9.5 -87.5t-0.5 -98h-383q8 -37 34.5 -54t83.5 -17q110 0 177 50l99 -127q-59 -46 -122.5 -64t-153.5 -18zM332 422 q-57 0 -82.5 -21t-31.5 -65h205q-1 22 -4 34t-11.5 26t-27 20t-48.5 6z" horiz-adv-x="632" glyph-name="e" unicode="e"/>
<glyph d="M22 405v168h108v11q0 113 52.5 164.5t187.5 51.5q46 0 82 -3v-161h-55q-41 0 -55 -11t-14 -40v-12h124v-168h-124v-405h-198v405h-108z" horiz-adv-x="474" glyph-name="f" unicode="f"/>
<glyph d="M325 211q-42 0 -61 2q-1 -4 -1 -11q0 -16 14.5 -20.5t66.5 -4.5q127 0 192.5 -15.5t90 -49t24.5 -97.5q0 -107 -80 -150.5t-247 -43.5q-183 0 -248.5 26.5t-65.5 111.5q0 48 30.5 80t85.5 45q-39 33 -39 86q0 46 29 80q-74 44 -74 141q0 195 283 195h19l284 65v-149h-76 q58 -32 58 -111q0 -94 -67.5 -137t-217.5 -43zM332 -54q67 0 91.5 13t24.5 40q0 24 -23.5 33t-92.5 9q-78 0 -100 -9t-22 -37q0 -26 23 -37.5t99 -11.5zM325 322q53 0 71.5 13.5t18.5 44.5t-18 44.5t-72 13.5q-52 0 -70.5 -13.5t-18.5 -44.5q0 -30 19 -44t70 -14z" horiz-adv-x="680" glyph-name="g" unicode="g"/>
<glyph d="M55 0v776h197v-234q53 44 178 44q117 0 161 -60.5t44 -179.5v-346h-198v305q0 48 -15 71.5t-66 23.5q-63 0 -83 -23.5t-20 -74.5v-302h-198z" horiz-adv-x="687" glyph-name="h" unicode="h"/>
<glyph d="M61 0v573h198v-573h-198zM60 615v161h200v-161h-200z" glyph-name="i" unicode="i"/>
<glyph d="M4 -170v149h15q29 0 35.5 11.5t6.5 54.5v528h198v-527q0 -130 -44.5 -173t-173.5 -43h-37zM60 615v161h200v-161h-200z" glyph-name="j" unicode="j"/>
<glyph d="M55 0v776h196v-397l155 194h216l-187 -232l202 -341h-220l-115 191l-51 -61v-130h-196z" horiz-adv-x="637" glyph-name="k" unicode="k"/>
<glyph d="M237 -2q-89 0 -132.5 41.5t-43.5 151.5v585h198v-560q0 -31 10 -41t41 -10h17v-163q-30 -4 -90 -4z" horiz-adv-x="366" glyph-name="l" unicode="l"/>
<glyph d="M55 0v562l154 12l16 -49q45 61 199 61q57 0 92 -9.5t47 -20t25 -31.5q51 61 206 61q117 0 158 -60t41 -180v-346h-199v305q0 26 -1.5 38.5t-7.5 28t-22 22t-43 6.5q-62 0 -79.5 -23t-17.5 -75v-302h-198v305q0 26 -1.5 38.5t-8 28t-22.5 22t-43 6.5q-62 0 -79.5 -23 t-17.5 -75v-302h-198z" horiz-adv-x="1045" glyph-name="m" unicode="m"/>
<glyph d="M55 0v562l154 12l16 -51q59 63 205 63q117 0 161 -60.5t44 -179.5v-346h-198v305q0 48 -15 71.5t-66 23.5q-63 0 -83 -23.5t-20 -74.5v-302h-198z" horiz-adv-x="687" glyph-name="n" unicode="n"/>
<glyph d="M339 -11q-163 0 -237 76t-74 223t74 222.5t237 75.5t236.5 -75.5t73.5 -222.5q0 -148 -73.5 -223.5t-236.5 -75.5zM339 158q65 0 88 32t23 92q0 61 -23 92.5t-88 31.5t-88 -31.5t-23 -92.5q0 -60 23 -92t88 -32z" horiz-adv-x="677" glyph-name="o" unicode="o"/>
<glyph d="M55 -165v727l154 12l15 -46q62 58 201 58q58 0 102 -16.5t71 -43t44 -66t23 -81t6 -91.5q0 -297 -258 -297q-112 0 -160 44v-200h-198zM372 158q58 0 78 32t20 90q0 60 -19.5 93t-78.5 33q-66 0 -92.5 -31.5t-26.5 -94.5q0 -64 24.5 -93t94.5 -29z" horiz-adv-x="699" glyph-name="p" unicode="p"/>
<glyph d="M445 -165v195q-48 -41 -167 -41q-250 0 -250 300q0 297 257 297q133 0 188 -51l39 39l132 -12v-727h-199zM327 159q65 0 91.5 33t26.5 97t-23.5 91.5t-94.5 27.5q-59 0 -78.5 -30.5t-19.5 -88.5q0 -60 20 -95t78 -35z" horiz-adv-x="699" glyph-name="q" unicode="q"/>
<glyph d="M55 0v562l154 12l20 -60q19 26 67.5 45t108.5 21v-191q-93 -1 -122.5 -27.5t-29.5 -90.5v-271h-198z" horiz-adv-x="427" glyph-name="r" unicode="r"/>
<glyph d="M291 -9q-178 0 -291 77l97 136q41 -27 98.5 -44t107.5 -17t65 5.5t15 21.5q0 13 -15.5 19.5t-61.5 10.5q-43 4 -71 8t-62.5 12t-55.5 21.5t-40.5 33.5t-28.5 50.5t-9 70.5q0 97 63 143.5t204 46.5q163 0 258 -54l-89 -146q-72 36 -162 36q-48 0 -62 -6t-14 -21 q0 -13 13.5 -19t56.5 -10q56 -6 86.5 -10.5t71 -16.5t61 -29.5t35.5 -49.5t15 -76q0 -102 -63.5 -147.5t-221.5 -45.5z" horiz-adv-x="599" glyph-name="s" unicode="s"/>
<glyph d="M22 405v168h102l32 123l153 33v-156h125v-168h-125v-181q0 -33 12.5 -46t55.5 -13h57v-165q-45 -3 -100 -3q-124 0 -173 44t-49 153v211h-90z" horiz-adv-x="477" glyph-name="t" unicode="t"/>
<glyph d="M339 -11q-162 0 -224.5 65t-62.5 230v289h198v-293q0 -32 2 -49.5t10.5 -35t27.5 -25t51 -7.5q59 0 74.5 27t15.5 90v293h195v-289q0 -165 -62.5 -230t-224.5 -65z" horiz-adv-x="678" glyph-name="u" unicode="u"/>
<glyph d="M220 -6l-227 579h214l123 -342l124 342h201l-228 -579h-207z" horiz-adv-x="648" glyph-name="v" unicode="v"/>
<glyph d="M183 -6l-177 579h209l76 -293l87 293h196l87 -292l76 292h200l-177 -579h-190l-99 317l-98 -317h-190z" horiz-adv-x="943" glyph-name="w" unicode="w"/>
<glyph d="M409 0l-106 153l-97 -153h-209l206 300l-186 273h222l86 -126l79 126h209l-187 -274l205 -299h-222z" horiz-adv-x="629" glyph-name="x" unicode="x"/>
<glyph d="M138 -171q-19 0 -61 2v148h42q51 0 67 6t22 27l1 4l-216 557h214l107 -306l104 306h201l-221 -582q-34 -92 -87.5 -127t-172.5 -35z" horiz-adv-x="612" glyph-name="y" unicode="y"/>
<glyph d="M13 0v131l257 274h-241v168h509v-132l-258 -283h269v-158h-536z" horiz-adv-x="560" glyph-name="z" unicode="z"/>
<glyph d="M352 -165q-211 0 -211 147q0 33 24 108t24 93q0 28 -24 35t-104 7v161q80 0 104 7t24 35q0 18 -24 93t-24 108q0 147 211 147h152v-170h-103q-31 0 -43 -7t-12 -27q0 -8 21 -77t21 -103q0 -66 -73 -86q73 -21 73 -87q0 -35 -21 -106.5t-21 -78.5q0 -20 12 -27t43 -7h103 v-165h-152z" horiz-adv-x="581" glyph-name="braceleft" unicode="{"/>
<glyph d="M102 -165v941h201v-941h-201z" horiz-adv-x="406" glyph-name="bar" unicode="|"/>
<glyph d="M77 -165v165h103q31 0 43 7t12 27q0 7 -21 78.5t-21 106.5q0 66 73 87q-73 20 -73 86q0 34 21 103t21 77q0 20 -12 27t-43 7h-103v170h152q211 0 211 -147q0 -33 -24 -108t-24 -93q0 -28 24 -35t104 -7v-161q-80 0 -104 -7t-24 -35q0 -18 24 -93t24 -108 q0 -147 -211 -147h-152z" horiz-adv-x="581" glyph-name="braceright" unicode="}"/>
<glyph d="M138 337l-108 89q102 125 192 125q39 0 79 -28t59 -28q36 0 87 61l108 -89q-101 -125 -192 -125q-38 0 -77.5 28.5t-59.5 28.5q-38 0 -88 -62z" horiz-adv-x="590" glyph-name="asciitilde" unicode="~"/>
<glyph horiz-adv-x="236" glyph-name="uni00A0" unicode=" "/>
<glyph d="M103 0l20 492h178l19 -492h-217zM100 530v211h224v-211h-224z" horiz-adv-x="424" glyph-name="exclamdown" unicode="¡"/>
<glyph d="M235 -94v97q-114 22 -158.5 95.5t-44.5 189.5q0 54 8.5 96.5t29.5 82t62.5 66.5t102.5 39v74h188v-72q97 -18 157 -86q-22 -21 -66 -63.5t-66 -62.5q-47 47 -108 47q-65 0 -90.5 -33t-25.5 -94t25.5 -94.5t92.5 -33.5q66 0 117 50l120 -114q-75 -71 -156 -87v-97h-188z " horiz-adv-x="606" glyph-name="cent" unicode="¢"/>
<glyph d="M437 -6q-97 0 -191 51q-78 -45 -226 -45v159q51 0 80 3.5t42 15t15.5 22t2.5 34.5t-13 66h-128v150h84q-12 51 -12 87q0 104 63.5 160.5t218.5 56.5q134 0 241 -41l-75 -165q-68 30 -171 30q-50 0 -65.5 -16.5t-15.5 -52.5q0 -18 9 -59h162v-150h-127q7 -38 7 -61 q0 -38 -5 -62q49 -18 98 -18q48 0 62.5 17t14.5 65v31h171v-39q0 -133 -57 -186t-185 -53z" horiz-adv-x="703" glyph-name="sterling" unicode="£"/>
<glyph d="M78 224v111h178l-250 406h211l139 -244l140 244h210l-251 -406h176v-111h-178v-39h178v-111h-178v-74h-196v74h-179v111h179v39h-179z" horiz-adv-x="712" glyph-name="yen" unicode="¥"/>
<glyph d="M102 -165v392h201v-392h-201zM102 384v392h201v-392h-201z" horiz-adv-x="406" glyph-name="brokenbar" unicode="¦"/>
<glyph d="M174 -3q-44 0 -82 3v152h56q42 0 55 10t14 36q-151 28 -151 166q0 140 151 170q0 49 9.5 84t34.5 65t74 45t122 15q44 0 82 -3v-161h-55q-42 0 -55.5 -9.5t-14.5 -34.5q157 -29 157 -171q0 -139 -156 -167q-1 -47 -11.5 -80.5t-36 -62t-73.5 -43t-120 -14.5zM318 304 q54 0 75 13.5t21 41.5q0 29 -20.5 41.5t-75.5 12.5t-75 -12.5t-20 -41.5t20.5 -42t74.5 -13z" horiz-adv-x="637" glyph-name="section" unicode="§"/>
<glyph d="M89 625v155h178v-155h-178zM324 625v155h178v-155h-178z" horiz-adv-x="590" glyph-name="dieresis" unicode="¨"/>
<glyph d="M407 141q-125 0 -182.5 60t-57.5 176q0 120 66 177.5t182 57.5q123 0 189 -71l-88 -88q-40 42 -102 42q-118 0 -118 -120q0 -59 27 -89.5t92 -30.5q37 0 60 11t48 34l84 -82q-73 -77 -200 -77zM399 -12q-120 0 -205.5 52.5t-126 137.5t-40.5 193t40.5 193t126 137.5 t205.5 52.5q178 0 274.5 -108.5t96.5 -274.5t-96.5 -274.5t-274.5 -108.5zM399 56q80 0 139 25t93.5 69.5t50.5 99.5t16 121t-16 121t-50.5 99.5t-93.5 69.5t-139 25t-139.5 -25t-94 -69.5t-50.5 -99.5t-16 -121t16 -121t50.5 -99.5t94 -69.5t139.5 -25z" horiz-adv-x="797" glyph-name="copyright" unicode="©"/>
<glyph d="M221 271q-94 0 -130.5 39.5t-36.5 106.5q0 93 67 124.5t226 31.5h14q-1 14 -4.5 21t-20.5 12.5t-50 5.5q-73 0 -132 -37l-80 118q33 22 95.5 40.5t134.5 18.5q125 0 168 -40.5t43 -142.5v-122q0 -23 6 -29.5t31 -6.5v-132q-24 -4 -68 -4q-84 0 -103 54q-19 -31 -51 -44.5 t-109 -13.5zM99 98v139h414v-139h-414zM266 399q95 0 95 63v15h-4q-70 0 -103.5 -5.5t-40 -14t-6.5 -26.5t12 -25t47 -7z" horiz-adv-x="631" glyph-name="ordfeminine" unicode="ª"/>
<glyph d="M254 0l-151 286l151 287h172l-135 -287l135 -286h-172zM507 0l-151 286l151 287h173l-135 -287l135 -286h-173z" horiz-adv-x="812" glyph-name="guillemotleft" unicode="«"/>
<glyph d="M86 441h564v-361h-197v184h-367v177z" horiz-adv-x="736" glyph-name="logicalnot" unicode="¬"/>
<glyph d="M399 -12q-120 0 -205.5 52.5t-126 137.5t-40.5 193t40.5 193t126 137.5t205.5 52.5q178 0 274.5 -108.5t96.5 -274.5t-96.5 -274.5t-274.5 -108.5zM399 56q80 0 139 25t93.5 69.5t50.5 99.5t16 121t-16 121t-50.5 99.5t-93.5 69.5t-139 25t-139.5 -25t-94 -69.5 t-50.5 -99.5t-16 -121t16 -121t50.5 -99.5t94 -69.5t139.5 -25zM480 153l-70 131h-82v-131h-117v435h219q59 0 97 -11.5t55 -34t23 -46t6 -58.5q0 -51 -16.5 -86t-65.5 -53l78 -146h-127zM328 384h98q39 0 51.5 10t12.5 40q0 31 -12.5 40.5t-52.5 9.5h-97v-100z" horiz-adv-x="797" glyph-name="registered" unicode="®"/>
<glyph d="M284 261q-124 0 -188 70.5t-64 175.5t64 175.5t188 70.5t188.5 -70.5t64.5 -175.5t-64.5 -175.5t-188.5 -70.5zM284 403q96 0 96 99q0 98 -96 98q-95 0 -95 -98q0 -99 95 -99z" horiz-adv-x="569" glyph-name="degree" unicode="°"/>
<glyph d="M86 0v177h184v87h-184v177h184v182h197v-182h183v-177h-183v-87h183v-177h-564z" horiz-adv-x="736" glyph-name="plusminus" unicode="±"/>
<glyph d="M61 236v104l161 128q66 53 83 71.5t17 41.5q0 21 -15.5 31.5t-59.5 10.5q-73 0 -129 -32l-68 113q48 25 95.5 35.5t122.5 10.5q100 0 151 -35.5t51 -115.5q0 -55 -28.5 -94.5t-99.5 -95.5l-66 -52h198v-121h-413z" horiz-adv-x="550" glyph-name="two.superior" unicode="²"/>
<glyph d="M272 230q-80 0 -133 15t-102 46l76 107q69 -42 142 -42q48 0 65.5 10t17.5 39q0 27 -18.5 37t-68.5 10h-98v105h96q44 0 59.5 6t15.5 27q0 20 -15 26t-57 6q-76 0 -138 -34l-69 112q81 51 231 51q107 0 153.5 -31t46.5 -92q0 -83 -68 -112q82 -26 82 -130 q0 -156 -218 -156z" horiz-adv-x="558" glyph-name="threesuperior" unicode="³"/>
<glyph d="M179 625l136 198h237l-200 -198h-173z" horiz-adv-x="590" glyph-name="acute" unicode="´"/>
<glyph d="M264 -11q-5 0 -14.5 0.5t-13.5 0.5v-155h-181v738h198v-315q0 -49 16.5 -72t64.5 -23q62 0 80.5 23t18.5 75v312h199v-566l-151 -14l-19 53q-51 -57 -198 -57z" horiz-adv-x="688" glyph-name="mu" unicode="µ"/>
<glyph d="M208 0v229q-52 14 -86.5 38t-52 58.5t-24 70t-6.5 83.5q0 62 12.5 106t45.5 81.5t98 56t163 18.5h282v-741h-186v212h-60v-212h-186zM353 368h101v202h-100q-68 0 -91.5 -21.5t-23.5 -80.5q0 -56 24 -78t90 -22z" horiz-adv-x="709" glyph-name="paragraph" unicode="¶"/>
<glyph d="M291 -262q-79 0 -143 36l47 89q50 -25 88 -25q30 0 42.5 7t12.5 28q0 16 -13 24t-32 7.5t-40 -1.5l-34 20l19 84h107l-9 -48q29 1 48 -1.5t40 -11.5t31.5 -30.5t10.5 -56.5q0 -70 -46.5 -95.5t-128.5 -25.5z" horiz-adv-x="590" glyph-name="cedilla" unicode="¸"/>
<glyph d="M140 236v374h-81v131h235v-505h-154z" horiz-adv-x="399" glyph-name="one.superior" unicode="¹"/>
<glyph d="M311 269q-132 0 -192 61.5t-60 181.5q0 119 59.5 180t192.5 61q132 0 191.5 -61t59.5 -180q0 -120 -59.5 -181.5t-191.5 -61.5zM311 406q50 0 70 26.5t20 74.5t-19.5 74t-70.5 26t-70.5 -26t-19.5 -74t20 -74.5t70 -26.5zM89 96v139h443v-139h-443z" horiz-adv-x="621" glyph-name="ordmasculine" unicode="º"/>
<glyph d="M133 0l135 287l-135 286h172l151 -286l-151 -287h-172zM386 0l135 287l-135 286h173l151 -286l-151 -287h-173z" horiz-adv-x="812" glyph-name="guillemotright" unicode="»"/>
<glyph d="M888 0v82h-257v107l225 314h166l-217 -302h86l29 91h113v-91h73v-119h-73v-82h-145zM110 237v373h-81v131h240v-504h-159zM229 0l415 741h172l-414 -741h-173z" horiz-adv-x="1130" glyph-name="onequarter" unicode="¼"/>
<glyph d="M709 0v104l161 128q70 55 85 70.5t15 38.5q0 21 -15.5 31.5t-59.5 10.5q-73 0 -129 -32l-68 113q48 25 95.5 35.5t122.5 10.5q100 0 151 -35.5t51 -115.5q0 -54 -27.5 -91.5t-100.5 -94.5l-66 -52h198v-121h-413zM110 237v373h-81v131h240v-504h-159zM229 0l415 741h172 l-414 -741h-173z" horiz-adv-x="1172" glyph-name="onehalf" unicode="½"/>
<glyph d="M270 232q-80 0 -133 15t-102 46l76 107q69 -42 142 -42q48 0 65.5 10t17.5 39q0 27 -18.5 37t-68.5 10h-98v105h96q44 0 59.5 6t15.5 27q0 20 -15 26t-57 6q-76 0 -138 -34l-69 112q81 51 231 51q107 0 153.5 -31t46.5 -92q0 -83 -68 -112q82 -26 82 -130 q0 -156 -218 -156zM1042 0v82h-257v107l226 314h166l-217 -302h86l29 91h113v-91h73v-119h-73v-82h-146zM385 0l415 741h172l-415 -741h-172z" horiz-adv-x="1285" glyph-name="threequarters" unicode="¾"/>
<glyph d="M348 -12q-148 0 -221.5 47.5t-73.5 160.5q0 82 33 124t104 69q72 27 85.5 46.5t8.5 81.5h193q9 -41 6.5 -72.5t-8.5 -53.5t-25 -40t-42 -30.5t-59 -26.5q-60 -23 -76 -37t-16 -42q0 -27 21 -39t86 -12q109 1 209 48l83 -164q-127 -60 -308 -60zM269 555v186h224v-186 h-224z" horiz-adv-x="721" glyph-name="questiondown" unicode="¿"/>
<glyph d="M7 0l297 746h211l299 -746h-215l-37 96h-316l-37 -96h-202zM312 266h184l-92 236zM353 779l-200 198h237l136 -198h-173z" horiz-adv-x="821" glyph-name="Agrave" unicode="À"/>
<glyph d="M7 0l297 746h211l299 -746h-215l-37 96h-316l-37 -96h-202zM312 266h184l-92 236zM294 779l136 198h237l-200 -198h-173z" horiz-adv-x="821" glyph-name="Aacute" unicode="Á"/>
<glyph d="M7 0l297 746h211l299 -746h-215l-37 96h-316l-37 -96h-202zM312 266h184l-92 236zM153 779l156 198h202l156 -198h-183l-76 75l-76 -75h-179z" horiz-adv-x="821" glyph-name="Acircumflex" unicode="Â"/>
<glyph d="M7 0l297 746h211l299 -746h-215l-37 96h-316l-37 -96h-202zM312 266h184l-92 236zM253 771l-108 89q102 125 192 125q39 0 79 -28t59 -28q36 0 87 61l108 -89q-101 -125 -192 -125q-38 0 -77.5 28.5t-59.5 28.5q-38 0 -88 -62z" horiz-adv-x="821" glyph-name="Atilde" unicode="Ã"/>
<glyph d="M7 0l297 746h211l299 -746h-215l-37 96h-316l-37 -96h-202zM312 266h184l-92 236zM204 779v155h178v-155h-178zM439 779v155h178v-155h-178z" horiz-adv-x="821" glyph-name="Adieresis" unicode="Ä"/>
<glyph d="M7 0l277 697q-29 41 -29 104q0 72 38 115.5t117 43.5q75 0 114.5 -44.5t39.5 -114.5q0 -61 -30 -102l280 -699h-215l-37 96h-316l-37 -96h-202zM312 266h184l-92 236zM410 738q59 0 59 63q0 64 -59 64t-59 -64q0 -63 59 -63z" horiz-adv-x="821" glyph-name="Aring" unicode="Å"/>
<glyph d="M-5 0l464 741h675v-187h-383v-90h373v-181h-373v-104h387v-179h-585v106h-285l-73 -106h-200zM365 273h188v289z" horiz-adv-x="1188" glyph-name="AE" unicode="Æ"/>
<glyph d="M385 -262q-79 0 -143 36l47 89q50 -25 88 -25q30 0 42.5 7t12.5 28q0 16 -13 24t-32 7.5t-40 -1.5l-34 20l16 71q-161 20 -230.5 114t-69.5 263q0 382 402 382q109 0 180 -28t127 -87l-143 -143q-34 34 -71 51t-94 17q-103 0 -147.5 -48.5t-44.5 -146.5 q0 -97 41.5 -145.5t151.5 -48.5q61 0 98 17.5t78 55.5l136 -133q-54 -57 -123.5 -89.5t-184.5 -35.5l-5 -30q29 1 48 -1.5t40 -11.5t31.5 -30.5t10.5 -56.5q0 -70 -46.5 -95.5t-128.5 -25.5z" horiz-adv-x="778" glyph-name="Ccedilla" unicode="Ç"/>
<glyph d="M68 0v741h590v-187h-383v-90h373v-181h-373v-104h387v-179h-594zM299 779l-200 198h237l136 -198h-173z" horiz-adv-x="712" glyph-name="Egrave" unicode="È"/>
<glyph d="M68 0v741h590v-187h-383v-90h373v-181h-373v-104h387v-179h-594zM240 779l136 198h237l-200 -198h-173z" horiz-adv-x="712" glyph-name="Eacute" unicode="É"/>
<glyph d="M68 0v741h590v-187h-383v-90h373v-181h-373v-104h387v-179h-594zM99 779l156 198h202l156 -198h-183l-76 75l-76 -75h-179z" horiz-adv-x="712" glyph-name="Ecircumflex" unicode="Ê"/>
<glyph d="M68 0v741h590v-187h-383v-90h373v-181h-373v-104h387v-179h-594zM150 779v155h178v-155h-178zM385 779v155h178v-155h-178z" horiz-adv-x="712" glyph-name="Edieresis" unicode="Ë"/>
<glyph d="M104 779l-203 198h247l139 -198h-183zM80 0v741h207v-741h-207z" horiz-adv-x="367" glyph-name="Igrave" unicode="Ì"/>
<glyph d="M80 779l138 198h247l-202 -198h-183zM80 0v741h207v-741h-207z" horiz-adv-x="367" glyph-name="Iacute" unicode="Í"/>
<glyph d="M-64 779l146 198h202l146 -198h-183l-66 75l-66 -75h-179zM80 0v741h207v-741h-207z" horiz-adv-x="367" glyph-name="Icircumflex" unicode="Î"/>
<glyph d="M80 0v741h207v-741h-207zM-23 779v155h178v-155h-178zM212 779v155h178v-155h-178z" horiz-adv-x="367" glyph-name="Idieresis" unicode="Ï"/>
<glyph d="M0 288v163h68v290h278q118 0 194.5 -16t131.5 -57t79 -113t24 -184q0 -109 -26 -182t-82.5 -114t-132.5 -58t-188 -17h-278v288h-68zM275 180h83q70 0 111 9.5t62.5 35t28 57.5t6.5 89t-6 87.5t-28 55t-65.5 33t-118.5 8.5h-73v-104h122v-163h-122v-108z" horiz-adv-x="803" glyph-name="Eth" unicode="Ð"/>
<glyph d="M68 0v741h222l289 -392v392h198v-741h-191l-320 433v-433h-198zM265 771l-108 89q102 125 192 125q39 0 79 -28t59 -28q36 0 87 61l108 -89q-101 -125 -192 -125q-38 0 -77.5 28.5t-59.5 28.5q-38 0 -88 -62z" horiz-adv-x="845" glyph-name="Ntilde" unicode="Ñ"/>
<glyph d="M431 -12q-402 0 -402 383q0 382 402 382q403 0 403 -382q0 -383 -403 -383zM431 170q108 0 150.5 51t42.5 146t-42.5 145.5t-150.5 50.5t-150.5 -50.5t-42.5 -145.5t42.5 -146t150.5 -51zM374 779l-200 198h237l136 -198h-173z" horiz-adv-x="863" glyph-name="Ograve" unicode="Ò"/>
<glyph d="M431 -12q-402 0 -402 383q0 382 402 382q403 0 403 -382q0 -383 -403 -383zM431 170q108 0 150.5 51t42.5 146t-42.5 145.5t-150.5 50.5t-150.5 -50.5t-42.5 -145.5t42.5 -146t150.5 -51zM315 779l136 198h237l-200 -198h-173z" horiz-adv-x="863" glyph-name="Oacute" unicode="Ó"/>
<glyph d="M431 -12q-402 0 -402 383q0 382 402 382q403 0 403 -382q0 -383 -403 -383zM431 170q108 0 150.5 51t42.5 146t-42.5 145.5t-150.5 50.5t-150.5 -50.5t-42.5 -145.5t42.5 -146t150.5 -51zM174 779l156 198h202l156 -198h-183l-76 75l-76 -75h-179z" horiz-adv-x="863" glyph-name="Ocircumflex" unicode="Ô"/>
<glyph d="M431 -12q-402 0 -402 383q0 382 402 382q403 0 403 -382q0 -383 -403 -383zM431 170q108 0 150.5 51t42.5 146t-42.5 145.5t-150.5 50.5t-150.5 -50.5t-42.5 -145.5t42.5 -146t150.5 -51zM274 771l-108 89q102 125 192 125q39 0 79 -28t59 -28q36 0 87 61l108 -89 q-101 -125 -192 -125q-38 0 -77.5 28.5t-59.5 28.5q-38 0 -88 -62z" horiz-adv-x="863" glyph-name="Otilde" unicode="Õ"/>
<glyph d="M431 -12q-402 0 -402 383q0 382 402 382q403 0 403 -382q0 -383 -403 -383zM431 170q108 0 150.5 51t42.5 146t-42.5 145.5t-150.5 50.5t-150.5 -50.5t-42.5 -145.5t42.5 -146t150.5 -51zM225 779v155h178v-155h-178zM460 779v155h178v-155h-178z" horiz-adv-x="863" glyph-name="Odieresis" unicode="Ö"/>
<glyph d="M223 83l-120 125l144 144l-144 143l122 125l144 -144l143 144l121 -125l-144 -143l144 -143l-121 -125l-143 144z" horiz-adv-x="736" glyph-name="multiply" unicode="×"/>
<glyph d="M431 -12q-74 0 -139 14l-26 -43h-166l60 99q-131 94 -131 313q0 382 402 382q75 0 140 -15l27 45h165l-61 -100q132 -94 132 -312q0 -383 -403 -383zM431 162q113 0 157 53t44 152q0 98 -40 146l-211 -348q23 -3 50 -3zM230 367q0 -98 38 -145l209 346q-21 3 -46 3 q-113 0 -157 -52.5t-44 -151.5z" horiz-adv-x="863" glyph-name="Oslash" unicode="Ø"/>
<glyph d="M418 -15q-62 0 -112.5 7t-86 21.5t-62.5 31.5t-44 41.5t-27.5 46.5t-15.5 52t-6.5 52.5t-1.5 53.5v450h208v-422q0 -82 29 -116.5t122 -34.5q92 0 121.5 33t29.5 118v422h201v-450q0 -36 -2 -61.5t-9.5 -59.5t-21.5 -58t-40.5 -50t-63 -41.5t-92.5 -25.5t-126 -10z M360 779l-200 198h237l136 -198h-173z" horiz-adv-x="835" glyph-name="Ugrave" unicode="Ù"/>
<glyph d="M418 -15q-62 0 -112.5 7t-86 21.5t-62.5 31.5t-44 41.5t-27.5 46.5t-15.5 52t-6.5 52.5t-1.5 53.5v450h208v-422q0 -82 29 -116.5t122 -34.5q92 0 121.5 33t29.5 118v422h201v-450q0 -36 -2 -61.5t-9.5 -59.5t-21.5 -58t-40.5 -50t-63 -41.5t-92.5 -25.5t-126 -10z M301 779l136 198h237l-200 -198h-173z" horiz-adv-x="835" glyph-name="Uacute" unicode="Ú"/>
<glyph d="M418 -15q-62 0 -112.5 7t-86 21.5t-62.5 31.5t-44 41.5t-27.5 46.5t-15.5 52t-6.5 52.5t-1.5 53.5v450h208v-422q0 -82 29 -116.5t122 -34.5q92 0 121.5 33t29.5 118v422h201v-450q0 -36 -2 -61.5t-9.5 -59.5t-21.5 -58t-40.5 -50t-63 -41.5t-92.5 -25.5t-126 -10z M160 779l156 198h202l156 -198h-183l-76 75l-76 -75h-179z" horiz-adv-x="835" glyph-name="Ucircumflex" unicode="Û"/>
<glyph d="M418 -15q-62 0 -112.5 7t-86 21.5t-62.5 31.5t-44 41.5t-27.5 46.5t-15.5 52t-6.5 52.5t-1.5 53.5v450h208v-422q0 -82 29 -116.5t122 -34.5q92 0 121.5 33t29.5 118v422h201v-450q0 -36 -2 -61.5t-9.5 -59.5t-21.5 -58t-40.5 -50t-63 -41.5t-92.5 -25.5t-126 -10z M211 779v155h178v-155h-178zM446 779v155h178v-155h-178z" horiz-adv-x="835" glyph-name="Udieresis" unicode="Ü"/>
<glyph d="M291 0v246l-293 495h222l179 -310l179 310h214l-294 -497v-244h-207zM279 779l136 198h237l-200 -198h-173z" horiz-adv-x="791" glyph-name="Yacute" unicode="Ý"/>
<glyph d="M68 0v741h202v-87h170q98 0 163 -18.5t98 -56t45.5 -81.5t12.5 -106q0 -50 -6.5 -87.5t-27.5 -75t-56.5 -61t-96 -38.5t-144.5 -15h-158v-115h-202zM270 286h167q66 0 90 21t24 74q0 56 -23.5 76.5t-91.5 20.5h-166v-192z" horiz-adv-x="787" glyph-name="Thorn" unicode="Þ"/>
<glyph d="M55 0v506q0 46 6 82.5t25 75t50.5 64.5t87.5 42.5t132 16.5q135 0 201.5 -54t66.5 -154q0 -52 -11.5 -87.5t-29.5 -53.5t-47 -33q82 -21 117.5 -57.5t35.5 -125.5q0 -65 -13 -104.5t-49.5 -67.5t-100 -39t-166.5 -11h-57v168h50q85 0 113 17.5t28 55.5q0 42 -34.5 56 t-148.5 14v134q77 0 99.5 17.5t22.5 61.5q0 35 -17.5 52.5t-63.5 17.5q-56 0 -78.5 -21.5t-22.5 -73.5v-499h-196z" horiz-adv-x="719" glyph-name="germandbls" unicode="ß"/>
<glyph d="M238 -9q-67 0 -112.5 13.5t-69 39.5t-32.5 56.5t-9 71.5q0 48 14.5 82t41.5 56t73 34t100 16.5t132 4.5h18q-1 26 -17.5 37t-75.5 11q-91 0 -163 -46l-99 145q40 27 117.5 50.5t166.5 23.5q106 0 163 -24t77.5 -70.5t20.5 -131.5v-153q0 -29 7 -36.5t38 -7.5v-161 q-23 -5 -84 -5q-47 0 -73 10.5t-44 41.5q-46 -58 -190 -58zM279 150q60 0 87.5 18t27.5 59v19h-5q-87 0 -128 -7t-49.5 -17t-8.5 -33q0 -22 16.5 -30.5t59.5 -8.5zM272 625l-200 198h237l136 -198h-173z" horiz-adv-x="658" glyph-name="agrave" unicode="à"/>
<glyph d="M238 -9q-67 0 -112.5 13.5t-69 39.5t-32.5 56.5t-9 71.5q0 48 14.5 82t41.5 56t73 34t100 16.5t132 4.5h18q-1 26 -17.5 37t-75.5 11q-91 0 -163 -46l-99 145q40 27 117.5 50.5t166.5 23.5q106 0 163 -24t77.5 -70.5t20.5 -131.5v-153q0 -29 7 -36.5t38 -7.5v-161 q-23 -5 -84 -5q-47 0 -73 10.5t-44 41.5q-46 -58 -190 -58zM279 150q60 0 87.5 18t27.5 59v19h-5q-87 0 -128 -7t-49.5 -17t-8.5 -33q0 -22 16.5 -30.5t59.5 -8.5zM213 625l136 198h237l-200 -198h-173z" horiz-adv-x="658" glyph-name="aacute" unicode="á"/>
<glyph d="M238 -9q-67 0 -112.5 13.5t-69 39.5t-32.5 56.5t-9 71.5q0 48 14.5 82t41.5 56t73 34t100 16.5t132 4.5h18q-1 26 -17.5 37t-75.5 11q-91 0 -163 -46l-99 145q40 27 117.5 50.5t166.5 23.5q106 0 163 -24t77.5 -70.5t20.5 -131.5v-153q0 -29 7 -36.5t38 -7.5v-161 q-23 -5 -84 -5q-47 0 -73 10.5t-44 41.5q-46 -58 -190 -58zM279 150q60 0 87.5 18t27.5 59v19h-5q-87 0 -128 -7t-49.5 -17t-8.5 -33q0 -22 16.5 -30.5t59.5 -8.5zM72 625l156 198h202l156 -198h-183l-76 75l-76 -75h-179z" horiz-adv-x="658" glyph-name="acircumflex" unicode="â"/>
<glyph d="M238 -9q-67 0 -112.5 13.5t-69 39.5t-32.5 56.5t-9 71.5q0 48 14.5 82t41.5 56t73 34t100 16.5t132 4.5h18q-1 26 -17.5 37t-75.5 11q-91 0 -163 -46l-99 145q40 27 117.5 50.5t166.5 23.5q106 0 163 -24t77.5 -70.5t20.5 -131.5v-153q0 -29 7 -36.5t38 -7.5v-161 q-23 -5 -84 -5q-47 0 -73 10.5t-44 41.5q-46 -58 -190 -58zM279 150q60 0 87.5 18t27.5 59v19h-5q-87 0 -128 -7t-49.5 -17t-8.5 -33q0 -22 16.5 -30.5t59.5 -8.5zM172 617l-108 89q102 125 192 125q39 0 79 -28t59 -28q36 0 87 61l108 -89q-101 -125 -192 -125 q-38 0 -77.5 28.5t-59.5 28.5q-38 0 -88 -62z" horiz-adv-x="658" glyph-name="atilde" unicode="ã"/>
<glyph d="M238 -9q-67 0 -112.5 13.5t-69 39.5t-32.5 56.5t-9 71.5q0 48 14.5 82t41.5 56t73 34t100 16.5t132 4.5h18q-1 26 -17.5 37t-75.5 11q-91 0 -163 -46l-99 145q40 27 117.5 50.5t166.5 23.5q106 0 163 -24t77.5 -70.5t20.5 -131.5v-153q0 -29 7 -36.5t38 -7.5v-161 q-23 -5 -84 -5q-47 0 -73 10.5t-44 41.5q-46 -58 -190 -58zM279 150q60 0 87.5 18t27.5 59v19h-5q-87 0 -128 -7t-49.5 -17t-8.5 -33q0 -22 16.5 -30.5t59.5 -8.5zM123 625v155h178v-155h-178zM358 625v155h178v-155h-178z" horiz-adv-x="658" glyph-name="adieresis" unicode="ä"/>
<glyph d="M238 -9q-67 0 -112.5 13.5t-69 39.5t-32.5 56.5t-9 71.5q0 48 14.5 82t41.5 56t73 34t100 16.5t132 4.5h18q-1 26 -17.5 37t-75.5 11q-91 0 -163 -46l-99 145q40 27 117.5 50.5t166.5 23.5q106 0 163 -24t77.5 -70.5t20.5 -131.5v-153q0 -29 7 -36.5t38 -7.5v-161 q-23 -5 -84 -5q-47 0 -73 10.5t-44 41.5q-46 -58 -190 -58zM279 150q60 0 87.5 18t27.5 59v19h-5q-87 0 -128 -7t-49.5 -17t-8.5 -33q0 -22 16.5 -30.5t59.5 -8.5zM329 614q-79 0 -117 43t-38 114q0 72 38 115.5t117 43.5q75 0 114.5 -44.5t39.5 -114.5t-39 -113.5 t-115 -43.5zM329 708q59 0 59 63q0 64 -59 64t-59 -64q0 -63 59 -63z" horiz-adv-x="658" glyph-name="aring" unicode="å"/>
<glyph d="M697 -11q-164 0 -231 73q-38 -45 -89 -58t-139 -13q-68 0 -114 14t-69 41t-31.5 56.5t-8.5 69.5q0 48 14.5 82t41.5 56t73 34t100 16.5t132 4.5h18q-1 26 -17.5 37t-75.5 11q-91 0 -163 -46l-99 145q40 27 117.5 50.5t166.5 23.5q123 0 178 -45q69 45 196 45 q62 0 108.5 -13t75 -37t47 -57.5t25.5 -74t9.5 -87.5t-0.5 -98h-383q8 -37 34.5 -54t83.5 -17q110 0 177 50l99 -127q-60 -46 -121.5 -64t-154.5 -18zM277 150q62 0 89.5 18t27.5 59v19h-5q-87 0 -128 -7t-49.5 -17t-8.5 -33q0 -22 16.5 -30.5t57.5 -8.5zM691 422 q-57 0 -82.5 -21t-31.5 -65h205q-1 22 -4 34t-11.5 26t-27 20t-48.5 6z" horiz-adv-x="991" glyph-name="ae" unicode="æ"/>
<glyph d="M295 -262q-79 0 -143 36l47 89q50 -25 88 -25q30 0 42.5 7t12.5 28q0 16 -13 24t-32 7.5t-40 -1.5l-34 20l17 75q-119 21 -165.5 96.5t-46.5 193.5q0 65 12.5 114t44.5 93t96.5 67.5t159.5 23.5q161 0 245 -99l-139 -131q-21 23 -44 36t-63 13q-66 0 -89 -31t-23 -92 t23 -92.5t91 -31.5q36 0 61.5 11.5t55.5 40.5l126 -120q-55 -52 -106 -74.5t-133 -24.5l-6 -32q29 1 48 -1.5t40 -11.5t31.5 -30.5t10.5 -56.5q0 -70 -46.5 -95.5t-128.5 -25.5z" horiz-adv-x="599" glyph-name="ccedilla" unicode="ç"/>
<glyph d="M338 -11q-92 0 -155.5 23t-96 67t-45.5 93.5t-13 115.5q0 64 13 113.5t45.5 93.5t96 67.5t155.5 23.5q62 0 108.5 -13t75 -37t47 -57.5t25.5 -74t9.5 -87.5t-0.5 -98h-383q8 -37 34.5 -54t83.5 -17q110 0 177 50l99 -127q-59 -46 -122.5 -64t-153.5 -18zM332 422 q-57 0 -82.5 -21t-31.5 -65h205q-1 22 -4 34t-11.5 26t-27 20t-48.5 6zM259 625l-200 198h237l136 -198h-173z" horiz-adv-x="632" glyph-name="egrave" unicode="è"/>
<glyph d="M338 -11q-92 0 -155.5 23t-96 67t-45.5 93.5t-13 115.5q0 64 13 113.5t45.5 93.5t96 67.5t155.5 23.5q62 0 108.5 -13t75 -37t47 -57.5t25.5 -74t9.5 -87.5t-0.5 -98h-383q8 -37 34.5 -54t83.5 -17q110 0 177 50l99 -127q-59 -46 -122.5 -64t-153.5 -18zM332 422 q-57 0 -82.5 -21t-31.5 -65h205q-1 22 -4 34t-11.5 26t-27 20t-48.5 6zM200 625l136 198h237l-200 -198h-173z" horiz-adv-x="632" glyph-name="eacute" unicode="é"/>
<glyph d="M338 -11q-92 0 -155.5 23t-96 67t-45.5 93.5t-13 115.5q0 64 13 113.5t45.5 93.5t96 67.5t155.5 23.5q62 0 108.5 -13t75 -37t47 -57.5t25.5 -74t9.5 -87.5t-0.5 -98h-383q8 -37 34.5 -54t83.5 -17q110 0 177 50l99 -127q-59 -46 -122.5 -64t-153.5 -18zM332 422 q-57 0 -82.5 -21t-31.5 -65h205q-1 22 -4 34t-11.5 26t-27 20t-48.5 6zM59 625l156 198h202l156 -198h-183l-76 75l-76 -75h-179z" horiz-adv-x="632" glyph-name="ecircumflex" unicode="ê"/>
<glyph d="M338 -11q-92 0 -155.5 23t-96 67t-45.5 93.5t-13 115.5q0 64 13 113.5t45.5 93.5t96 67.5t155.5 23.5q62 0 108.5 -13t75 -37t47 -57.5t25.5 -74t9.5 -87.5t-0.5 -98h-383q8 -37 34.5 -54t83.5 -17q110 0 177 50l99 -127q-59 -46 -122.5 -64t-153.5 -18zM332 422 q-57 0 -82.5 -21t-31.5 -65h205q-1 22 -4 34t-11.5 26t-27 20t-48.5 6zM110 625v155h178v-155h-178zM345 625v155h178v-155h-178z" horiz-adv-x="632" glyph-name="edieresis" unicode="ë"/>
<glyph d="M79 625l-146 198h242l82 -198h-178zM61 0v573h198v-573h-198z" glyph-name="igrave" unicode="ì"/>
<glyph d="M63 625l82 198h242l-146 -198h-178zM61 0v573h198v-573h-198z" glyph-name="iacute" unicode="í"/>
<glyph d="M-72 625l136 198h192l136 -198h-178l-56 75l-56 -75h-174zM61 0v573h198v-573h-198z" glyph-name="icircumflex" unicode="î"/>
<glyph d="M-21 625v155h158v-155h-158zM184 625v155h158v-155h-158zM61 0v573h198v-573h-198z" glyph-name="idieresis" unicode="ï"/>
<glyph d="M266 535v126l68 12q-25 40 -49 72l195 59q37 -40 67 -94l109 19v-126l-57 -10q51 -147 51 -276q0 -176 -77 -252t-235 -76q-161 0 -235.5 73.5t-74.5 198.5q0 252 248 252q108 0 149 -54q-5 40 -30 98zM338 158q61 0 86.5 28.5t25.5 80.5q0 51 -25 77.5t-87 26.5 q-60 0 -85 -26.5t-25 -77.5q0 -109 110 -109z" horiz-adv-x="679" glyph-name="eth" unicode="ð"/>
<glyph d="M55 0v562l154 12l16 -51q59 63 205 63q117 0 161 -60.5t44 -179.5v-346h-198v305q0 48 -15 71.5t-66 23.5q-63 0 -83 -23.5t-20 -74.5v-302h-198zM186 617l-108 89q102 125 192 125q39 0 79 -28t59 -28q36 0 87 61l108 -89q-101 -125 -192 -125q-38 0 -77.5 28.5 t-59.5 28.5q-38 0 -88 -62z" horiz-adv-x="687" glyph-name="ntilde" unicode="ñ"/>
<glyph d="M339 -11q-163 0 -237 76t-74 223t74 222.5t237 75.5t236.5 -75.5t73.5 -222.5q0 -148 -73.5 -223.5t-236.5 -75.5zM339 158q65 0 88 32t23 92q0 61 -23 92.5t-88 31.5t-88 -31.5t-23 -92.5q0 -60 23 -92t88 -32zM281 625l-200 198h237l136 -198h-173z" horiz-adv-x="677" glyph-name="ograve" unicode="ò"/>
<glyph d="M339 -11q-163 0 -237 76t-74 223t74 222.5t237 75.5t236.5 -75.5t73.5 -222.5q0 -148 -73.5 -223.5t-236.5 -75.5zM339 158q65 0 88 32t23 92q0 61 -23 92.5t-88 31.5t-88 -31.5t-23 -92.5q0 -60 23 -92t88 -32zM222 625l136 198h237l-200 -198h-173z" horiz-adv-x="677" glyph-name="oacute" unicode="ó"/>
<glyph d="M339 -11q-163 0 -237 76t-74 223t74 222.5t237 75.5t236.5 -75.5t73.5 -222.5q0 -148 -73.5 -223.5t-236.5 -75.5zM339 158q65 0 88 32t23 92q0 61 -23 92.5t-88 31.5t-88 -31.5t-23 -92.5q0 -60 23 -92t88 -32zM81 625l156 198h202l156 -198h-183l-76 75l-76 -75h-179z " horiz-adv-x="677" glyph-name="ocircumflex" unicode="ô"/>
<glyph d="M339 -11q-163 0 -237 76t-74 223t74 222.5t237 75.5t236.5 -75.5t73.5 -222.5q0 -148 -73.5 -223.5t-236.5 -75.5zM339 158q65 0 88 32t23 92q0 61 -23 92.5t-88 31.5t-88 -31.5t-23 -92.5q0 -60 23 -92t88 -32zM181 617l-108 89q102 125 192 125q39 0 79 -28t59 -28 q36 0 87 61l108 -89q-101 -125 -192 -125q-38 0 -77.5 28.5t-59.5 28.5q-38 0 -88 -62z" horiz-adv-x="677" glyph-name="otilde" unicode="õ"/>
<glyph d="M339 -11q-163 0 -237 76t-74 223t74 222.5t237 75.5t236.5 -75.5t73.5 -222.5q0 -148 -73.5 -223.5t-236.5 -75.5zM339 158q65 0 88 32t23 92q0 61 -23 92.5t-88 31.5t-88 -31.5t-23 -92.5q0 -60 23 -92t88 -32zM132 625v155h178v-155h-178zM367 625v155h178v-155h-178z " horiz-adv-x="677" glyph-name="odieresis" unicode="ö"/>
<glyph d="M271 64v157h193v-157h-193zM86 264v177h564v-177h-564zM271 484v157h193v-157h-193z" horiz-adv-x="736" glyph-name="divide" unicode="÷"/>
<glyph d="M339 -11q-61 0 -121 12l-29 -45h-136l61 94q-86 69 -86 238q0 150 70.5 224t240.5 74q67 0 118 -12l30 45h138l-62 -94q86 -69 86 -237q0 -150 -70.5 -224.5t-239.5 -74.5zM339 153q68 0 91.5 33t23.5 96q0 47 -12 75l-132 -202q9 -2 29 -2zM224 282q0 -42 8 -67l127 195 q-3 0 -9.5 0.5t-10.5 0.5q-68 0 -91.5 -33t-23.5 -96z" horiz-adv-x="677" glyph-name="oslash" unicode="ø"/>
<glyph d="M339 -11q-162 0 -224.5 65t-62.5 230v289h198v-293q0 -32 2 -49.5t10.5 -35t27.5 -25t51 -7.5q59 0 74.5 27t15.5 90v293h195v-289q0 -165 -62.5 -230t-224.5 -65zM282 625l-200 198h237l136 -198h-173z" horiz-adv-x="678" glyph-name="ugrave" unicode="ù"/>
<glyph d="M339 -11q-162 0 -224.5 65t-62.5 230v289h198v-293q0 -32 2 -49.5t10.5 -35t27.5 -25t51 -7.5q59 0 74.5 27t15.5 90v293h195v-289q0 -165 -62.5 -230t-224.5 -65zM223 625l136 198h237l-200 -198h-173z" horiz-adv-x="678" glyph-name="uacute" unicode="ú"/>
<glyph d="M339 -11q-162 0 -224.5 65t-62.5 230v289h198v-293q0 -32 2 -49.5t10.5 -35t27.5 -25t51 -7.5q59 0 74.5 27t15.5 90v293h195v-289q0 -165 -62.5 -230t-224.5 -65zM82 625l156 198h202l156 -198h-183l-76 75l-76 -75h-179z" horiz-adv-x="678" glyph-name="ucircumflex" unicode="û"/>
<glyph d="M339 -11q-162 0 -224.5 65t-62.5 230v289h198v-293q0 -32 2 -49.5t10.5 -35t27.5 -25t51 -7.5q59 0 74.5 27t15.5 90v293h195v-289q0 -165 -62.5 -230t-224.5 -65zM133 625v155h178v-155h-178zM368 625v155h178v-155h-178z" horiz-adv-x="678" glyph-name="udieresis" unicode="ü"/>
<glyph d="M138 -171q-19 0 -61 2v148h42q51 0 67 6t22 27l1 4l-216 557h214l107 -306l104 306h201l-221 -582q-34 -92 -87.5 -127t-172.5 -35zM190 625l136 198h237l-200 -198h-173z" horiz-adv-x="612" glyph-name="yacute" unicode="ý"/>
<glyph d="M55 -165v941h197v-235q48 45 173 45q58 0 102 -16.5t71 -43t44 -66t23 -81t6 -91.5q0 -297 -258 -297q-112 0 -160 44v-200h-198zM372 158q58 0 78 32t20 90q0 60 -19.5 93t-78.5 33q-66 0 -92.5 -31.5t-26.5 -94.5q0 -64 24.5 -93t94.5 -29z" horiz-adv-x="699" glyph-name="thorn" unicode="þ"/>
<glyph d="M68 0v741h590v-187h-383v-90h373v-181h-373v-104h387v-179h-594zM150 779v155h178v-155h-178zM385 779v155h178v-155h-178z" horiz-adv-x="712" glyph-name="afii10023" unicode="Ё"/>
<glyph d="M578 -170v149h15q29 0 35.5 11.5t6.5 54.5v160q0 25 -1.5 38.5t-8.5 28.5t-23 21.5t-43 6.5q-62 0 -79.5 -23t-17.5 -75v-202h-208v554h-246v187h700v-187h-246v-111q52 43 171 43q118 0 164.5 -61t46.5 -179v-200q0 -128 -49 -172t-180 -44h-37z" horiz-adv-x="896" glyph-name="afii10051" unicode="Ђ"/>
<glyph d="M68 0v741h557v-187h-350v-554h-207zM200 779l136 198h237l-200 -198h-173z" horiz-adv-x="633" glyph-name="afii10052" unicode="Ѓ"/>
<glyph d="M416 -11q-210 0 -298.5 95.5t-88.5 286.5q0 382 387 382q113 0 188.5 -28t131.5 -87l-143 -143q-34 34 -71 51t-94 17q-146 0 -183 -102h312v-175h-317q30 -112 176 -112q70 0 109 17.5t80 55.5l136 -133q-56 -59 -129 -92t-196 -33z" horiz-adv-x="776" glyph-name="afii10053" unicode="Є"/>
<glyph d="M384 -11q-244 0 -377 103l104 149q118 -81 267 -81q68 0 100.5 7.5t39.5 18.5t7 35q0 26 -33 37t-121 22q-87 11 -142 25t-97 40t-60 67.5t-18 103.5q0 130 78 183.5t251 53.5q204 0 322 -76l-112 -161q-34 23 -95 40t-117 17q-76 0 -98.5 -11.5t-22.5 -40.5 q0 -30 44 -43q28 -7 120 -19q63 -8 104 -16.5t83 -25t65.5 -39.5t38.5 -60t15 -87q0 -121 -76.5 -181.5t-269.5 -60.5z" horiz-adv-x="761" glyph-name="afii10054" unicode="Ѕ"/>
<glyph d="M80 0v741h207v-741h-207z" horiz-adv-x="367" glyph-name="afii10055" unicode="І"/>
<glyph d="M80 0v741h207v-741h-207zM-23 779v155h178v-155h-178zM212 779v155h178v-155h-178z" horiz-adv-x="367" glyph-name="afii10056" unicode="Ї"/>
<glyph d="M18 0v179h100q55 0 75 17t20 59v486h207v-494q0 -75 -20.5 -125.5t-60.5 -77t-86 -37t-109 -10.5q-71 0 -126 3z" horiz-adv-x="483" glyph-name="afii10057" unicode="Ј"/>
<glyph d="M39 2v177h17q31 0 41 10t10 41v511h672v-202h170q93 0 157.5 -19t98.5 -55.5t48.5 -81.5t14.5 -106q0 -49 -8 -87.5t-30 -75t-58 -61t-95.5 -39t-139.5 -14.5h-359v557h-264v-366q0 -109 -47.5 -151t-137.5 -42q-60 0 -90 4zM779 171h167q63 0 88.5 21.5t25.5 73.5 q0 55 -25 76t-90 21h-166v-192z" horiz-adv-x="1296" glyph-name="afii10058" unicode="Љ"/>
<glyph d="M68 0v741h207v-266h284v266h202v-202h170q93 0 157.5 -19t98.5 -55.5t48.5 -81.5t14.5 -106q0 -49 -8 -87.5t-30 -75t-58 -61t-95.5 -39t-139.5 -14.5h-360v281h-284v-281h-207zM761 171h167q63 0 88.5 21.5t25.5 73.5q0 55 -25 76t-90 21h-166v-192z" horiz-adv-x="1278" glyph-name="afii10059" unicode="Њ"/>
<glyph d="M254 0v554h-246v187h700v-187h-246v-111q52 43 171 43q118 0 164.5 -61t46.5 -179v-246h-209v205q0 25 -1.5 38.5t-8.5 28.5t-23 21.5t-43 6.5q-62 0 -79.5 -23t-17.5 -75v-202h-208z" horiz-adv-x="896" glyph-name="afii10060" unicode="Ћ"/>
<glyph d="M534 0l-219 310h-43v-310h-204v741h204v-269h34l199 269h237l-260 -331l296 -410h-244zM278 779l136 198h237l-200 -198h-173z" horiz-adv-x="788" glyph-name="afii10061" unicode="Ќ"/>
<glyph d="M226 -2q-57 0 -99 2v173h62q71 0 82 17l-268 551h224l161 -340l140 340h211l-261 -581q-44 -98 -91 -130t-161 -32zM366 769q-110 0 -159 54t-70 168l141 26q12 -58 29.5 -77.5t58.5 -19.5t58.5 19.5t29.5 77.5l143 -25q-24 -115 -73 -169t-158 -54z" horiz-adv-x="732" glyph-name="afii10062" unicode="Ў"/>
<glyph d="M312 -166v166h-244v741h207v-566h284v566h205v-741h-244v-166h-208z" horiz-adv-x="832" glyph-name="afii10145" unicode="Џ"/>
<glyph d="M7 0l297 746h211l299 -746h-215l-37 96h-316l-37 -96h-202zM312 266h184l-92 236z" horiz-adv-x="821" glyph-name="afii10017" unicode="А"/>
<glyph d="M68 0v741h597v-187h-400v-61h175q95 0 157.5 -14t98 -45t49.5 -71.5t14 -100.5q0 -61 -14 -105.5t-49 -81.5t-102 -56t-166 -19h-360zM265 170h172q66 0 90 15.5t24 65.5q0 53 -23 67.5t-92 14.5h-171v-163z" horiz-adv-x="787" glyph-name="afii10018" unicode="Б"/>
<glyph d="M68 0v741h355q162 0 233 -44.5t71 -152.5q0 -125 -93 -160q64 -15 88.5 -57t24.5 -124q0 -118 -76.5 -160.5t-247.5 -42.5h-355zM271 159h178q48 0 68 16t20 50t-20 50t-68 16h-178v-132zM271 449h159q50 0 68.5 15.5t18.5 47.5t-18.5 47.5t-68.5 15.5h-159v-126z" horiz-adv-x="781" glyph-name="afii10019" unicode="В"/>
<glyph d="M68 0v741h557v-187h-350v-554h-207z" horiz-adv-x="633" glyph-name="afii10020" unicode="Г"/>
<glyph d="M39 -166v345h20q32 0 43 10.5t11 40.5v511h693v-562h69v-345h-208v166h-420v-166h-208zM303 174h295v383h-281v-335q0 -38 -14 -48z" horiz-adv-x="914" glyph-name="afii10021" unicode="Д"/>
<glyph d="M68 0v741h590v-187h-383v-90h373v-181h-373v-104h387v-179h-594z" horiz-adv-x="712" glyph-name="afii10022" unicode="Е"/>
<glyph d="M985 0l-219 310h-43v-310h-198v310h-44l-218 -310h-244l296 410l-260 331h237l199 -269h34v269h198v-269h34l199 269h237l-260 -331l296 -410h-244z" horiz-adv-x="1248" glyph-name="afii10024" unicode="Ж"/>
<glyph d="M362 -12q-223 0 -356 86l96 154q122 -71 250 -71q85 0 115.5 13t30.5 60q0 37 -31 48t-122 11h-188v175h186q47 0 72.5 3t43.5 16.5t18 38.5q0 34 -30 46t-100 12q-54 0 -121 -15t-99 -36l-104 150q55 34 151 54t193 20q318 0 318 -181q0 -76 -20.5 -113.5t-64.5 -55.5 q52 -15 78.5 -56t26.5 -130q0 -229 -343 -229z" horiz-adv-x="739" glyph-name="afii10025" unicode="З"/>
<glyph d="M68 0v741h198v-392l289 392h222v-741h-198v433l-320 -433h-191z" horiz-adv-x="845" glyph-name="afii10026" unicode="И"/>
<glyph d="M68 0v741h198v-392l289 392h222v-741h-198v433l-320 -433h-191zM422 769q-110 0 -159 54t-70 168l141 26q12 -58 29.5 -77.5t58.5 -19.5t58.5 19.5t29.5 77.5l143 -25q-24 -115 -73 -169t-158 -54z" horiz-adv-x="845" glyph-name="afii10027" unicode="Й"/>
<glyph d="M534 0l-219 310h-43v-310h-204v741h204v-269h34l199 269h237l-260 -331l296 -410h-244z" horiz-adv-x="797" glyph-name="afii10028" unicode="К"/>
<glyph d="M39 2v177h17q31 0 41 10t10 41v511h679v-741h-208v557h-264v-366q0 -109 -47.5 -151t-137.5 -42q-60 0 -90 4z" horiz-adv-x="854" glyph-name="afii10029" unicode="Л"/>
<glyph d="M68 0v741h271l166 -441l167 441h270v-741h-202v430l-166 -430h-155l-164 427v-427h-187z" horiz-adv-x="1011" glyph-name="afii10030" unicode="М"/>
<glyph d="M68 0v741h207v-266h284v266h208v-741h-208v281h-284v-281h-207z" horiz-adv-x="835" glyph-name="afii10031" unicode="Н"/>
<glyph d="M431 -12q-402 0 -402 383q0 382 402 382q403 0 403 -382q0 -383 -403 -383zM431 170q108 0 150.5 51t42.5 146t-42.5 145.5t-150.5 50.5t-150.5 -50.5t-42.5 -145.5t42.5 -146t150.5 -51z" horiz-adv-x="863" glyph-name="afii10032" unicode="О"/>
<glyph d="M68 0v741h696v-741h-208v557h-284v-557h-204z" horiz-adv-x="832" glyph-name="afii10033" unicode="П"/>
<glyph d="M68 0v741h372q93 0 157.5 -19t98.5 -55.5t48.5 -81.5t14.5 -106q0 -49 -8 -87.5t-30 -75t-58 -61t-95.5 -39t-139.5 -14.5h-158v-202h-202zM270 373h167q63 0 88.5 21.5t25.5 73.5q0 55 -25 76t-90 21h-166v-192z" horiz-adv-x="787" glyph-name="afii10034" unicode="Р"/>
<glyph d="M418 -11q-211 0 -300 96t-89 286q0 382 402 382q109 0 180 -28t127 -87l-143 -143q-34 34 -71 51t-94 17q-103 0 -147.5 -48.5t-44.5 -146.5q0 -97 41.5 -145.5t151.5 -48.5q61 0 98 17.5t78 55.5l136 -133q-56 -59 -129 -92t-196 -33z" horiz-adv-x="778" glyph-name="afii10035" unicode="С"/>
<glyph d="M254 0v554h-246v187h700v-187h-246v-554h-208z" horiz-adv-x="715" glyph-name="afii10036" unicode="Т"/>
<glyph d="M226 -2q-57 0 -99 2v173h62q71 0 82 17l-268 551h224l161 -340l140 340h211l-261 -581q-44 -98 -91 -130t-161 -32z" horiz-adv-x="732" glyph-name="afii10037" unicode="У"/>
<glyph d="M378 0v43q-349 35 -349 328q0 292 349 327v43h207v-43q349 -35 349 -327q0 -293 -349 -328v-43h-207zM238 367q0 -56 31 -91.5t109 -48.5v278q-78 -13 -109 -48t-31 -90zM724 367q0 55 -31.5 90t-107.5 48v-277q139 24 139 139z" horiz-adv-x="963" glyph-name="afii10038" unicode="Ф"/>
<glyph d="M563 0l-163 235l-151 -235h-230l273 390l-243 351h234l133 -192l124 192h230l-246 -347l274 -394h-235z" horiz-adv-x="818" glyph-name="afii10039" unicode="Х"/>
<glyph d="M625 -166v166h-557v741h207v-566h284v566h205v-562h69v-345h-208z" horiz-adv-x="872" glyph-name="afii10040" unicode="Ц"/>
<glyph d="M533 0v224q-53 -44 -224 -44q-143 0 -201 65.5t-58 184.5v311h207v-266q0 -55 25 -80t101 -25q90 0 119.5 27.5t29.5 80.5v263h207v-741h-206z" horiz-adv-x="807" glyph-name="afii10041" unicode="Ч"/>
<glyph d="M68 0v741h207v-566h236v566h209v-566h236v566h205v-741h-1093z" horiz-adv-x="1229" glyph-name="afii10042" unicode="Ш"/>
<glyph d="M1022 -166v166h-954v741h207v-566h236v566h209v-566h236v566h205v-562h69v-345h-208z" horiz-adv-x="1269" glyph-name="afii10043" unicode="Щ"/>
<glyph d="M107 0v554h-68v187h270v-202h170q93 0 157.5 -19t98.5 -55.5t48.5 -81.5t14.5 -106q0 -49 -8 -87.5t-30 -75t-58 -61t-95.5 -39t-139.5 -14.5h-360zM309 171h167q63 0 88.5 21.5t25.5 73.5q0 55 -25 76t-90 21h-166v-192z" horiz-adv-x="826" glyph-name="afii10044" unicode="Ъ"/>
<glyph d="M68 0v741h202v-202h170q93 0 157.5 -19t98.5 -55.5t48.5 -81.5t14.5 -106q0 -49 -8 -87.5t-30 -75t-58 -61t-95.5 -39t-139.5 -14.5h-360zM270 171h167q63 0 88.5 21.5t25.5 73.5q0 55 -25 76t-90 21h-166v-192zM812 0v741h207v-741h-207z" horiz-adv-x="1087" glyph-name="afii10045" unicode="Ы"/>
<glyph d="M68 0v741h202v-202h170q93 0 157.5 -19t98.5 -55.5t48.5 -81.5t14.5 -106q0 -49 -8 -87.5t-30 -75t-58 -61t-95.5 -39t-139.5 -14.5h-360zM270 171h167q63 0 88.5 21.5t25.5 73.5q0 55 -25 76t-90 21h-166v-192z" horiz-adv-x="787" glyph-name="afii10046" unicode="Ь"/>
<glyph d="M360 -11q-123 0 -196 33t-129 92l136 133q41 -38 80 -55.5t109 -17.5q145 0 175 112h-316v175h312q-38 102 -183 102q-57 0 -94 -17t-71 -51l-143 143q56 59 131.5 87t188.5 28q387 0 387 -382q0 -191 -88.5 -286.5t-298.5 -95.5z" horiz-adv-x="776" glyph-name="afii10047" unicode="Э"/>
<glyph d="M68 0v741h207v-271h122q24 150 123 216.5t262 66.5q403 0 403 -382q0 -383 -403 -383q-167 0 -266.5 70t-120.5 228h-120v-286h-207zM782 170q108 0 150.5 51t42.5 146t-42.5 145.5t-150.5 50.5t-150.5 -50.5t-42.5 -145.5t42.5 -146t150.5 -51z" horiz-adv-x="1214" glyph-name="afii10048" unicode="Ю"/>
<glyph d="M395 222l-120 -222h-222l135 249q-143 56 -143 237q0 46 6.5 80.5t26.5 69t53.5 56.5t90 35.5t133.5 13.5h376v-741h-202v222h-134zM362 394h167v171h-166q-64 0 -86.5 -17.5t-22.5 -69.5q0 -50 23 -67t85 -17z" horiz-adv-x="799" glyph-name="afii10049" unicode="Я"/>
<glyph d="M238 -9q-67 0 -112.5 13.5t-69 39.5t-32.5 56.5t-9 71.5q0 48 14.5 82t41.5 56t73 34t100 16.5t132 4.5h18q-1 26 -17.5 37t-75.5 11q-91 0 -163 -46l-99 145q40 27 117.5 50.5t166.5 23.5q106 0 163 -24t77.5 -70.5t20.5 -131.5v-153q0 -29 7 -36.5t38 -7.5v-161 q-23 -5 -84 -5q-47 0 -73 10.5t-44 41.5q-46 -58 -190 -58zM279 150q60 0 87.5 18t27.5 59v19h-5q-87 0 -128 -7t-49.5 -17t-8.5 -33q0 -22 16.5 -30.5t59.5 -8.5z" horiz-adv-x="658" glyph-name="afii10065" unicode="а"/>
<glyph d="M350 -11q-158 0 -235 76t-77 252v68q0 109 15 179.5t54 120t105 70.5t169 21h115v-175h-105q-87 0 -120 -27.5t-33 -90.5q38 60 174 60q65 0 111.5 -16.5t72.5 -41.5t41 -64.5t19 -75.5t4 -84q0 -125 -74.5 -198.5t-235.5 -73.5zM350 158q110 0 110 109q0 51 -25 77.5 t-85 26.5q-62 0 -87 -26.5t-25 -77.5q0 -52 25.5 -80.5t86.5 -28.5z" horiz-adv-x="688" glyph-name="afii10066" unicode="б"/>
<glyph d="M55 0v573h298q140 0 202.5 -30.5t62.5 -111.5q0 -108 -72 -134q49 -12 68 -44.5t19 -95.5q0 -92 -65.5 -124.5t-214.5 -32.5h-298zM241 139h132q39 0 53.5 9t14.5 37q0 27 -15 36.5t-53 9.5h-132v-92zM241 341h117q40 0 54 9.5t14 34.5t-13.5 34t-54.5 9h-117v-87z" horiz-adv-x="673" glyph-name="afii10067" unicode="в"/>
<glyph d="M55 0v573h485v-168h-287v-405h-198z" horiz-adv-x="562" glyph-name="afii10068" unicode="г"/>
<glyph d="M39 -166v331h17q31 0 41 10t10 41v357h582v-408h68v-331h-185v166h-348v-166h-185zM291 154h203v255h-189v-207q0 -34 -14 -48z" horiz-adv-x="796" glyph-name="afii10069" unicode="д"/>
<glyph d="M338 -11q-92 0 -155.5 23t-96 67t-45.5 93.5t-13 115.5q0 64 13 113.5t45.5 93.5t96 67.5t155.5 23.5q62 0 108.5 -13t75 -37t47 -57.5t25.5 -74t9.5 -87.5t-0.5 -98h-383q8 -37 34.5 -54t83.5 -17q110 0 177 50l99 -127q-59 -46 -122.5 -64t-153.5 -18zM332 422 q-57 0 -82.5 -21t-31.5 -65h205q-1 22 -4 34t-11.5 26t-27 20t-48.5 6z" horiz-adv-x="632" glyph-name="afii10070" unicode="е"/>
<glyph d="M747 0l-138 227h-28v-227h-185v227h-28l-138 -227h-230l208 315l-193 258h226l127 -188h28v188h185v-188h28l127 188h226l-194 -258l209 -315h-230z" horiz-adv-x="977" glyph-name="afii10072" unicode="ж"/>
<glyph d="M304 -12q-193 0 -298 67l81 135q95 -51 189 -51q71 0 93 8t22 38q0 26 -22.5 32.5t-97.5 6.5h-131v135h129q65 0 85 6t20 32q0 22 -21 28.5t-80 6.5q-43 0 -91 -10t-72 -25l-91 131q43 26 127 42t162 16q132 0 200.5 -32.5t68.5 -108.5q0 -59 -16 -88.5t-51 -44.5 q41 -11 61.5 -43t20.5 -102q0 -53 -21 -89t-62 -55t-90 -27t-115 -8z" horiz-adv-x="632" glyph-name="afii10073" unicode="з"/>
<glyph d="M55 0v573h193v-259l184 259h212v-573h-193v304l-218 -304h-178z" horiz-adv-x="699" glyph-name="afii10074" unicode="и"/>
<glyph d="M55 0v573h193v-259l184 259h212v-573h-193v304l-218 -304h-178zM349 615q-110 0 -159 54t-70 168l141 26q12 -58 29.5 -77.5t58.5 -19.5t58.5 19.5t29.5 77.5l143 -25q-24 -115 -73 -169t-158 -54z" horiz-adv-x="699" glyph-name="afii10075" unicode="й"/>
<glyph d="M251 573v-188h28l127 188h226l-194 -258l209 -315h-230l-138 227h-28v-227h-196v573h196z" horiz-adv-x="647" glyph-name="afii10076" unicode="к"/>
<glyph d="M39 2v163h17q32 0 43 10.5t11 40.5v357h582v-573h-198v409h-189v-218q0 -110 -43.5 -151.5t-132.5 -41.5q-60 0 -90 4z" horiz-adv-x="747" glyph-name="afii10077" unicode="л"/>
<glyph d="M55 0v573h250l129 -324l129 324h249v-573h-197v288l-108 -288h-160l-107 290v-290h-185z" horiz-adv-x="867" glyph-name="afii10078" unicode="м"/>
<glyph d="M55 0v573h198v-189h189v189h198v-573h-198v206h-189v-206h-198z" horiz-adv-x="695" glyph-name="afii10079" unicode="н"/>
<glyph d="M339 -11q-163 0 -237 76t-74 223t74 222.5t237 75.5t236.5 -75.5t73.5 -222.5q0 -148 -73.5 -223.5t-236.5 -75.5zM339 158q65 0 88 32t23 92q0 61 -23 92.5t-88 31.5t-88 -31.5t-23 -92.5q0 -60 23 -92t88 -32z" horiz-adv-x="677" glyph-name="afii10080" unicode="о"/>
<glyph d="M55 0v573h582v-573h-198v409h-189v-409h-195z" horiz-adv-x="692" glyph-name="afii10081" unicode="п"/>
<glyph d="M55 -165v727l154 12l15 -46q62 58 201 58q58 0 102 -16.5t71 -43t44 -66t23 -81t6 -91.5q0 -297 -258 -297q-112 0 -160 44v-200h-198zM372 158q58 0 78 32t20 90q0 60 -19.5 93t-78.5 33q-66 0 -92.5 -31.5t-26.5 -94.5q0 -64 24.5 -93t94.5 -29z" horiz-adv-x="699" glyph-name="afii10082" unicode="р"/>
<glyph d="M331 -9q-90 0 -151.5 23t-93.5 66t-45 92.5t-13 115.5q0 65 12.5 114t44.5 93t96.5 67.5t159.5 23.5q161 0 245 -99l-139 -131q-21 23 -44 36t-63 13q-66 0 -89 -31t-23 -92t23 -92.5t91 -31.5q36 0 61.5 11.5t55.5 40.5l126 -120q-58 -54 -111 -76.5t-143 -22.5z" horiz-adv-x="599" glyph-name="afii10083" unicode="с"/>
<glyph d="M212 0v405h-190v168h578v-168h-190v-405h-198z" horiz-adv-x="622" glyph-name="afii10084" unicode="т"/>
<glyph d="M138 -171q-19 0 -61 2v148h42q51 0 67 6t22 27l1 4l-216 557h214l107 -306l104 306h201l-221 -582q-34 -92 -87.5 -127t-172.5 -35z" horiz-adv-x="612" glyph-name="afii10085" unicode="у"/>
<glyph d="M445 -165v201q-57 -47 -167 -47q-250 0 -250 301q0 296 257 296q112 0 160 -44v234h187v-235q48 45 173 45q58 0 102 -16.5t71 -43t44 -66t23 -81t6 -91.5q0 -297 -258 -297q-112 0 -160 44v-200h-188zM327 159q65 0 91.5 33t26.5 98q0 63 -23.5 90.5t-94.5 27.5 q-59 0 -78.5 -30t-19.5 -88q0 -61 20 -96t78 -35zM752 158q58 0 78 32t20 90q0 60 -19.5 93t-78.5 33q-66 0 -92.5 -31.5t-26.5 -94.5q0 -64 24.5 -93t94.5 -29z" horiz-adv-x="1079" glyph-name="afii10086" unicode="ф"/>
<glyph d="M409 0l-106 153l-97 -153h-209l206 300l-186 273h222l86 -126l79 126h209l-187 -274l205 -299h-222z" horiz-adv-x="629" glyph-name="afii10087" unicode="х"/>
<glyph d="M520 -166v166h-465v573h198v-414h189v414h195v-408h68v-331h-185z" horiz-adv-x="744" glyph-name="afii10088" unicode="ц"/>
<glyph d="M423 0v164q-53 -44 -178 -44q-117 0 -161 60.5t-44 179.5v213h198v-172q0 -48 15 -71.5t66 -23.5q63 0 83 23.5t20 74.5v169h198v-573h-197z" horiz-adv-x="675" glyph-name="afii10089" unicode="ч"/>
<glyph d="M55 0v573h198v-414h172v414h198v-414h171v414h195v-573h-934z" horiz-adv-x="1044" glyph-name="afii10090" unicode="ш"/>
<glyph d="M872 -166v166h-817v573h198v-414h172v414h198v-414h171v414h195v-408h68v-331h-185z" horiz-adv-x="1096" glyph-name="afii10091" unicode="щ"/>
<glyph d="M107 0v405h-68v168h264v-119h132q137 0 191.5 -59.5t54.5 -160.5q0 -234 -256 -234h-318zM303 152h89q49 0 68.5 16.5t19.5 57.5q0 43 -19 59t-69 16h-89v-149z" horiz-adv-x="716" glyph-name="afii10092" unicode="ъ"/>
<glyph d="M55 0v573h196v-119h132q137 0 191.5 -59.5t54.5 -160.5q0 -234 -256 -234h-318zM251 152h89q49 0 68.5 16.5t19.5 57.5q0 43 -19 59t-69 16h-89v-149zM713 0v573h198v-573h-198z" horiz-adv-x="966" glyph-name="afii10093" unicode="ы"/>
<glyph d="M55 0v573h196v-119h132q137 0 191.5 -59.5t54.5 -160.5q0 -234 -256 -234h-318zM251 152h89q49 0 68.5 16.5t19.5 57.5q0 43 -19 59t-69 16h-89v-149z" horiz-adv-x="664" glyph-name="afii10094" unicode="ь"/>
<glyph d="M268 -9q-90 0 -145 22.5t-112 76.5l122 117q50 -49 127 -49q52 0 77 14.5t33 48.5h-204v125h204q-9 36 -34.5 52.5t-76.5 16.5q-59 0 -111 -57l-134 129q84 99 249 99q93 0 156.5 -23.5t95 -67.5t44 -93t12.5 -114q0 -66 -13 -115.5t-45 -92.5t-93.5 -66t-151.5 -23z" horiz-adv-x="599" glyph-name="afii10095" unicode="э"/>
<glyph d="M55 0v573h198v-194h61q19 103 88.5 155t205.5 52q163 0 236.5 -75.5t73.5 -222.5q0 -148 -73.5 -223.5t-236.5 -75.5q-140 0 -210 56t-86 166h-59v-211h-198zM608 158q65 0 88 32t23 92q0 61 -23 92.5t-88 31.5t-88 -31.5t-23 -92.5q0 -60 23 -92t88 -32z" horiz-adv-x="946" glyph-name="afii10096" unicode="ю"/>
<glyph d="M51 0l95 174q-101 48 -101 185q0 107 61.5 160.5t198.5 53.5h330v-573h-196v145h-98l-78 -145h-212zM315 298h124v112h-123q-38 0 -53.5 -12t-15.5 -45t15 -44t53 -11z" horiz-adv-x="690" glyph-name="afii10097" unicode="я"/>
<glyph d="M338 -11q-92 0 -155.5 23t-96 67t-45.5 93.5t-13 115.5q0 64 13 113.5t45.5 93.5t96 67.5t155.5 23.5q62 0 108.5 -13t75 -37t47 -57.5t25.5 -74t9.5 -87.5t-0.5 -98h-383q8 -37 34.5 -54t83.5 -17q110 0 177 50l99 -127q-59 -46 -122.5 -64t-153.5 -18zM332 422 q-57 0 -82.5 -21t-31.5 -65h205q-1 22 -4 34t-11.5 26t-27 20t-48.5 6zM110 625v155h178v-155h-178zM345 625v155h178v-155h-178z" horiz-adv-x="632" glyph-name="afii10071" unicode="ё"/>
<glyph d="M0 582v153h55v41h197v-41h105v-153h-105v-70q53 44 178 44q117 0 161 -60.5t44 -179.5v-316q0 -99 -49 -134.5t-169 -35.5h-37v149h15q26 0 33.5 9t8.5 38v249q0 48 -15 71.5t-66 23.5q-63 0 -83 -23.5t-20 -74.5v-272h-198v582h-55z" horiz-adv-x="687" glyph-name="afii10099" unicode="ђ"/>
<glyph d="M55 0v573h485v-168h-287v-405h-198zM165 625l136 198h237l-200 -198h-173z" horiz-adv-x="562" glyph-name="afii10100" unicode="ѓ"/>
<glyph d="M331 -9q-90 0 -151.5 23t-93.5 66t-45 92.5t-13 115.5q0 65 12.5 114t44.5 93t96.5 67.5t159.5 23.5q161 0 245 -99l-134 -129q-52 57 -112 57q-51 0 -77 -16.5t-34 -52.5h204v-125h-205q8 -34 34 -48.5t80 -14.5q71 0 121 49l122 -117q-58 -54 -111 -76.5t-143 -22.5z " horiz-adv-x="599" glyph-name="afii10101" unicode="є"/>
<glyph d="M291 -9q-178 0 -291 77l97 136q41 -27 98.5 -44t107.5 -17t65 5.5t15 21.5q0 13 -15.5 19.5t-61.5 10.5q-43 4 -71 8t-62.5 12t-55.5 21.5t-40.5 33.5t-28.5 50.5t-9 70.5q0 97 63 143.5t204 46.5q163 0 258 -54l-89 -146q-72 36 -162 36q-48 0 -62 -6t-14 -21 q0 -13 13.5 -19t56.5 -10q56 -6 86.5 -10.5t71 -16.5t61 -29.5t35.5 -49.5t15 -76q0 -102 -63.5 -147.5t-221.5 -45.5z" horiz-adv-x="599" glyph-name="afii10102" unicode="ѕ"/>
<glyph d="M61 0v573h198v-573h-198zM60 615v161h200v-161h-200z" glyph-name="afii10103" unicode="і"/>
<glyph d="M-21 625v155h158v-155h-158zM184 625v155h158v-155h-158zM61 0v573h198v-573h-198z" glyph-name="afii10104" unicode="ї"/>
<glyph d="M4 -170v149h15q29 0 35.5 11.5t6.5 54.5v528h198v-527q0 -130 -44.5 -173t-173.5 -43h-37zM60 615v161h200v-161h-200z" glyph-name="afii10105" unicode="ј"/>
<glyph d="M39 2v163h17q32 0 43 10.5t11 40.5v357h576v-119h132q137 0 191.5 -59.5t54.5 -160.5q0 -234 -256 -234h-314v409h-189v-218q0 -110 -43.5 -151.5t-132.5 -41.5q-60 0 -90 4zM686 152h89q49 0 68.5 16.5t19.5 57.5q0 43 -19 59t-69 16h-89v-149z" horiz-adv-x="1099" glyph-name="afii10106" unicode="љ"/>
<glyph d="M55 0v573h198v-189h189v189h192v-119h132q137 0 191.5 -59.5t54.5 -160.5q0 -234 -256 -234h-314v206h-189v-206h-198zM634 152h89q49 0 68.5 16.5t19.5 57.5q0 43 -19 59t-69 16h-89v-149z" horiz-adv-x="1047" glyph-name="afii10107" unicode="њ"/>
<glyph d="M0 582v153h55v41h197v-41h105v-153h-105v-70q53 44 178 44q117 0 161 -60.5t44 -179.5v-316h-198v275q0 48 -15 71.5t-66 23.5q-63 0 -83 -23.5t-20 -74.5v-272h-198v582h-55z" horiz-adv-x="687" glyph-name="afii10108" unicode="ћ"/>
<glyph d="M251 573v-188h28l127 188h226l-194 -258l209 -315h-230l-138 227h-28v-227h-196v573h196zM202 625l136 198h237l-200 -198h-173z" horiz-adv-x="637" glyph-name="afii10109" unicode="ќ"/>
<glyph d="M138 -171q-19 0 -61 2v148h42q51 0 67 6t22 27l1 4l-216 557h214l107 -306l104 306h201l-221 -582q-34 -92 -87.5 -127t-172.5 -35zM306 615q-110 0 -159 54t-70 168l141 26q12 -58 29.5 -77.5t58.5 -19.5t58.5 19.5t29.5 77.5l143 -25q-24 -115 -73 -169t-158 -54z" horiz-adv-x="612" glyph-name="afii10110" unicode="ў"/>
<glyph d="M253 -166v166h-198v573h198v-414h189v414h195v-573h-199v-166h-185z" horiz-adv-x="692" glyph-name="afii10193" unicode="џ"/>
<glyph d="M68 0v741h349v166h208v-353h-350v-554h-207z" horiz-adv-x="633" glyph-name="afii10050" unicode="Ґ"/>
<glyph d="M55 0v573h300v168h185v-336h-287v-405h-198z" horiz-adv-x="562" glyph-name="afii10098" unicode="ґ"/>
</font>
</defs>
</svg>
