<?xml version="1.0" encoding="UTF-8" standalone="no"?><!DOCTYPE svg PUBLIC "-//W3C//DTD SVG 1.1//EN" "http://www.w3.org/Graphics/SVG/1.1/DTD/svg11.dtd"><svg width="100%" height="100%" viewBox="0 0 175 52" version="1.1" xmlns="http://www.w3.org/2000/svg" xmlns:xlink="http://www.w3.org/1999/xlink" xml:space="preserve" xmlns:serif="http://www.serif.com/" style="fill-rule:evenodd;clip-rule:evenodd;stroke-miterlimit:22.9256;"><g><path d="M99.453,48.414c-0.084,0.493 -0.279,0.856 -0.583,1.085c-0.305,0.231 -0.649,0.346 -1.035,0.346c-0.562,0 -0.995,-0.185 -1.302,-0.554c-0.308,-0.369 -0.461,-0.857 -0.461,-1.466c0,-0.503 0.088,-0.907 0.265,-1.21c0.176,-0.303 0.398,-0.516 0.663,-0.639c0.265,-0.122 0.544,-0.185 0.835,-0.185c0.401,0 0.742,0.104 1.025,0.311c0.284,0.206 0.459,0.511 0.525,0.913l-0.636,0.099c-0.066,-0.261 -0.172,-0.457 -0.319,-0.589c-0.148,-0.13 -0.337,-0.197 -0.565,-0.197c-0.367,0 -0.647,0.13 -0.836,0.391c-0.189,0.26 -0.285,0.624 -0.285,1.091c0,0.478 0.093,0.847 0.28,1.106c0.186,0.259 0.454,0.389 0.805,0.389c0.282,0 0.504,-0.081 0.666,-0.243c0.162,-0.162 0.264,-0.405 0.305,-0.729l0.653,0.081Zm5.718,-1.987l-1.241,0l0,3.327l-0.659,0l0,-3.327l-1.248,0l0,-0.547l3.148,0l0,0.547Zm3.631,-0.047c0.247,-0.392 0.616,-0.589 1.107,-0.589c0.509,0 0.911,0.185 1.205,0.554c0.295,0.369 0.442,0.848 0.442,1.441c0,0.63 -0.162,1.131 -0.489,1.501c-0.327,0.372 -0.727,0.558 -1.202,0.558c-0.416,0 -0.75,-0.166 -1,-0.496l-0.018,0l0,1.894l-0.658,0l0,-5.363l0.6,0l0,0.5l0.013,0Zm1.02,2.925c0.306,0 0.561,-0.127 0.761,-0.383c0.201,-0.254 0.301,-0.633 0.301,-1.136c0,-0.475 -0.096,-0.841 -0.291,-1.096c-0.193,-0.256 -0.441,-0.384 -0.742,-0.384c-0.312,0 -0.568,0.143 -0.768,0.428c-0.202,0.285 -0.302,0.654 -0.302,1.106c0,0.48 0.096,0.844 0.288,1.092c0.193,0.248 0.444,0.373 0.753,0.373l0,0Zm6.465,-3.514c0.524,0 0.958,0.171 1.302,0.511c0.345,0.342 0.517,0.827 0.517,1.454c0,0.762 -0.186,1.301 -0.558,1.616c-0.373,0.316 -0.793,0.473 -1.261,0.473c-0.489,0 -0.913,-0.162 -1.273,-0.485c-0.362,-0.324 -0.541,-0.838 -0.541,-1.542c0,-0.682 0.174,-1.189 0.522,-1.524c0.348,-0.334 0.779,-0.503 1.292,-0.503l0,0Zm0,3.514c0.376,0 0.66,-0.14 0.855,-0.416c0.195,-0.278 0.292,-0.644 0.292,-1.096c0,-0.485 -0.11,-0.85 -0.33,-1.096c-0.221,-0.245 -0.493,-0.369 -0.817,-0.369c-0.334,0 -0.607,0.125 -0.821,0.374c-0.214,0.25 -0.322,0.622 -0.322,1.116c0,0.492 0.109,0.862 0.327,1.112c0.218,0.25 0.49,0.375 0.816,0.375l0,0Zm8.139,0.449l-0.661,0l0,-2.939l-1.822,2.939l-0.712,0l0,-3.874l0.657,0l0,2.954l1.826,-2.954l0.712,0l0,3.874Zm6.144,-3.327l-1.242,0l0,3.327l-0.658,0l0,-3.327l-1.249,0l0,-0.547l3.149,0l0,0.547Zm6.378,1.555l-2.904,0c0.027,0.429 0.149,0.757 0.368,0.983c0.218,0.226 0.489,0.34 0.816,0.34c0.251,0 0.461,-0.067 0.632,-0.2c0.169,-0.132 0.3,-0.332 0.39,-0.6l0.676,0.083c-0.11,0.405 -0.311,0.716 -0.602,0.931c-0.293,0.217 -0.659,0.326 -1.096,0.326c-0.582,0 -1.037,-0.179 -1.365,-0.535c-0.326,-0.357 -0.491,-0.844 -0.491,-1.462c0,-0.612 0.16,-1.107 0.477,-1.487c0.318,-0.379 0.765,-0.57 1.342,-0.57c0.282,0 0.554,0.063 0.816,0.187c0.262,0.124 0.484,0.336 0.667,0.633c0.182,0.298 0.274,0.756 0.274,1.371l0,0Zm-0.676,-0.539c-0.027,-0.395 -0.149,-0.68 -0.367,-0.854c-0.218,-0.173 -0.456,-0.261 -0.714,-0.261c-0.31,0 -0.564,0.104 -0.763,0.311c-0.2,0.207 -0.316,0.475 -0.347,0.804l2.191,0Zm7.112,2.311l-0.657,0l0,-3.327l-1.654,0l0,2.257c0,0.433 -0.07,0.723 -0.211,0.87c-0.139,0.147 -0.355,0.222 -0.648,0.222c-0.182,0 -0.356,-0.007 -0.522,-0.022l0,-0.577c0.147,0.012 0.258,0.018 0.336,0.018c0.182,0 0.293,-0.04 0.331,-0.118c0.037,-0.08 0.056,-0.268 0.056,-0.565l0,-2.632l2.969,0l0,3.874Zm4.012,-2.364l0.913,0c0.505,0 0.9,0.11 1.186,0.328c0.288,0.217 0.432,0.504 0.432,0.86c0,0.341 -0.129,0.622 -0.386,0.843c-0.256,0.222 -0.613,0.333 -1.068,0.333l-1.734,0l0,-3.874l0.657,0l0,1.51Zm0,1.815l0.786,0c0.713,0 1.069,-0.208 1.069,-0.627c0,-0.429 -0.33,-0.643 -0.993,-0.643l-0.862,0l0,1.27Zm8.803,-0.791c-0.085,0.493 -0.279,0.856 -0.583,1.085c-0.306,0.231 -0.65,0.346 -1.035,0.346c-0.562,0 -0.996,-0.185 -1.302,-0.554c-0.308,-0.369 -0.462,-0.857 -0.462,-1.466c0,-0.503 0.089,-0.907 0.266,-1.21c0.176,-0.303 0.397,-0.516 0.663,-0.639c0.264,-0.122 0.543,-0.185 0.835,-0.185c0.4,0 0.742,0.104 1.025,0.311c0.284,0.206 0.458,0.511 0.524,0.913l-0.635,0.099c-0.066,-0.261 -0.172,-0.457 -0.319,-0.589c-0.149,-0.13 -0.337,-0.197 -0.565,-0.197c-0.368,0 -0.647,0.13 -0.836,0.391c-0.19,0.26 -0.286,0.624 -0.286,1.091c0,0.478 0.094,0.847 0.281,1.106c0.185,0.259 0.453,0.389 0.805,0.389c0.282,0 0.503,-0.081 0.665,-0.243c0.162,-0.162 0.265,-0.405 0.306,-0.729l0.653,0.081Zm5.718,-1.987l-1.242,0l0,3.327l-0.658,0l0,-3.327l-1.249,0l0,-0.547l3.149,0l0,0.547Zm5.555,1.307c0.202,0.078 0.359,0.2 0.47,0.363c0.111,0.165 0.166,0.355 0.166,0.572c0,0.332 -0.12,0.595 -0.358,0.79c-0.238,0.196 -0.568,0.295 -0.989,0.295l-1.84,0l0,-3.874l1.599,0c0.537,0 0.909,0.104 1.112,0.314c0.203,0.209 0.304,0.446 0.304,0.712c0,0.357 -0.154,0.634 -0.464,0.828l0,0Zm-1.894,-0.23l0.785,0c0.598,0 0.897,-0.18 0.897,-0.54c0,-0.207 -0.073,-0.349 -0.221,-0.424c-0.149,-0.076 -0.366,-0.113 -0.651,-0.113l-0.81,0l0,1.077Zm0,1.701l0.95,0c0.603,0 0.905,-0.191 0.905,-0.572c0,-0.125 -0.04,-0.238 -0.119,-0.34c-0.08,-0.102 -0.183,-0.168 -0.314,-0.2c-0.13,-0.03 -0.308,-0.045 -0.531,-0.045l-0.891,0l0,1.157Zm7.266,-3.414c0.523,0 0.957,0.171 1.301,0.511c0.345,0.342 0.517,0.827 0.517,1.454c0,0.762 -0.186,1.301 -0.558,1.616c-0.373,0.316 -0.793,0.473 -1.26,0.473c-0.49,0 -0.914,-0.162 -1.274,-0.485c-0.362,-0.324 -0.541,-0.838 -0.541,-1.542c0,-0.682 0.174,-1.189 0.522,-1.524c0.348,-0.334 0.779,-0.503 1.293,-0.503l0,0Zm0,3.514c0.375,0 0.659,-0.14 0.855,-0.416c0.194,-0.278 0.291,-0.644 0.291,-1.096c0,-0.485 -0.109,-0.85 -0.33,-1.096c-0.221,-0.245 -0.492,-0.369 -0.816,-0.369c-0.334,0 -0.607,0.125 -0.822,0.374c-0.214,0.25 -0.321,0.622 -0.321,1.116c0,0.492 0.108,0.862 0.326,1.112c0.218,0.25 0.49,0.375 0.817,0.375l0,0Z" style="fill:#494d53;fill-rule:nonzero;"/><path d="M5.087,49.754l-0.657,0l0,-3.327l-1.745,0l0,3.327l-0.658,0l0,-3.874l3.06,0l0,3.874Zm4.003,-3.374c0.247,-0.392 0.616,-0.589 1.107,-0.589c0.509,0 0.911,0.185 1.205,0.554c0.295,0.369 0.442,0.848 0.442,1.441c0,0.63 -0.162,1.131 -0.489,1.501c-0.327,0.372 -0.727,0.558 -1.202,0.558c-0.416,0 -0.75,-0.166 -1,-0.496l-0.018,0l0,1.894l-0.658,0l0,-5.363l0.6,0l0,0.5l0.013,0Zm1.02,2.925c0.307,0 0.561,-0.127 0.761,-0.383c0.201,-0.254 0.301,-0.633 0.301,-1.136c0,-0.475 -0.096,-0.841 -0.291,-1.096c-0.193,-0.256 -0.441,-0.384 -0.742,-0.384c-0.312,0 -0.568,0.143 -0.768,0.428c-0.202,0.285 -0.302,0.654 -0.302,1.106c0,0.48 0.096,0.844 0.288,1.092c0.193,0.248 0.444,0.373 0.753,0.373Zm6.486,-3.514c0.524,0 0.957,0.171 1.301,0.511c0.346,0.342 0.518,0.827 0.518,1.454c0,0.762 -0.186,1.301 -0.559,1.616c-0.372,0.316 -0.792,0.473 -1.26,0.473c-0.49,0 -0.913,-0.162 -1.274,-0.485c-0.361,-0.324 -0.541,-0.838 -0.541,-1.542c0,-0.682 0.175,-1.189 0.523,-1.524c0.347,-0.334 0.779,-0.503 1.292,-0.503l0,0Zm0,3.514c0.375,0 0.66,-0.14 0.855,-0.416c0.195,-0.278 0.292,-0.644 0.292,-1.096c0,-0.485 -0.11,-0.85 -0.33,-1.096c-0.221,-0.245 -0.493,-0.369 -0.817,-0.369c-0.334,0 -0.607,0.125 -0.821,0.374c-0.215,0.25 -0.322,0.622 -0.322,1.116c0,0.492 0.109,0.862 0.327,1.112c0.218,0.25 0.49,0.375 0.816,0.375l0,0Zm8.339,-1.323l-2.904,0c0.027,0.429 0.149,0.757 0.367,0.983c0.218,0.226 0.49,0.34 0.817,0.34c0.25,0 0.461,-0.067 0.632,-0.2c0.169,-0.132 0.3,-0.332 0.39,-0.6l0.675,0.083c-0.109,0.405 -0.31,0.716 -0.602,0.931c-0.293,0.217 -0.658,0.326 -1.095,0.326c-0.582,0 -1.037,-0.179 -1.365,-0.535c-0.327,-0.357 -0.491,-0.844 -0.491,-1.462c0,-0.612 0.159,-1.107 0.477,-1.487c0.318,-0.379 0.764,-0.57 1.341,-0.57c0.283,0 0.555,0.063 0.817,0.187c0.261,0.124 0.483,0.336 0.666,0.633c0.182,0.298 0.275,0.756 0.275,1.371Zm-0.676,-0.539c-0.027,-0.395 -0.149,-0.68 -0.367,-0.854c-0.219,-0.173 -0.457,-0.261 -0.715,-0.261c-0.309,0 -0.563,0.104 -0.763,0.311c-0.199,0.207 -0.315,0.475 -0.346,0.804l2.191,0Zm6.691,2.311l-0.716,0c-0.497,-0.841 -0.774,-1.307 -0.828,-1.401c-0.057,-0.094 -0.135,-0.184 -0.236,-0.268c-0.101,-0.085 -0.218,-0.127 -0.349,-0.127l-0.055,0l0,1.796l-0.657,0l0,-3.874l0.657,0l0,1.675l0.062,0c0.185,0 0.321,-0.051 0.406,-0.153c0.084,-0.103 0.179,-0.281 0.284,-0.536c0.198,-0.485 0.359,-0.771 0.485,-0.857c0.124,-0.087 0.311,-0.129 0.559,-0.129l0.238,0l0,0.547l-0.179,0c-0.139,0 -0.238,0.015 -0.299,0.046c-0.061,0.03 -0.116,0.109 -0.165,0.236c-0.131,0.355 -0.239,0.597 -0.325,0.724c-0.085,0.128 -0.231,0.238 -0.438,0.33c0.154,0.046 0.293,0.125 0.42,0.236c0.126,0.111 0.267,0.294 0.42,0.549l0.716,1.206Zm5.606,-3.327l-1.241,0l0,3.327l-0.658,0l0,-3.327l-1.249,0l0,-0.547l3.148,0l0,0.547Zm6.22,3.327l-0.661,0l0,-2.939l-1.822,2.939l-0.712,0l0,-3.874l0.657,0l0,2.954l1.826,-2.954l0.712,0l0,3.874Zm4.002,-3.374c0.247,-0.392 0.616,-0.589 1.107,-0.589c0.509,0 0.911,0.185 1.205,0.554c0.294,0.369 0.441,0.848 0.441,1.441c0,0.63 -0.162,1.131 -0.488,1.501c-0.327,0.372 -0.727,0.558 -1.202,0.558c-0.416,0 -0.75,-0.166 -1.001,-0.496l-0.017,0l0,1.894l-0.658,0l0,-5.363l0.599,0l0,0.5l0.014,0Zm1.02,2.925c0.306,0 0.561,-0.127 0.761,-0.383c0.201,-0.254 0.301,-0.633 0.301,-1.136c0,-0.475 -0.096,-0.841 -0.291,-1.096c-0.193,-0.256 -0.441,-0.384 -0.743,-0.384c-0.311,0 -0.567,0.143 -0.767,0.428c-0.202,0.285 -0.302,0.654 -0.302,1.106c0,0.48 0.096,0.844 0.288,1.092c0.193,0.248 0.444,0.373 0.753,0.373Zm6.486,-3.514c0.524,0 0.957,0.171 1.301,0.511c0.346,0.342 0.518,0.827 0.518,1.454c0,0.762 -0.186,1.301 -0.559,1.616c-0.373,0.316 -0.793,0.473 -1.26,0.473c-0.49,0 -0.914,-0.162 -1.274,-0.485c-0.361,-0.324 -0.541,-0.838 -0.541,-1.542c0,-0.682 0.175,-1.189 0.522,-1.524c0.348,-0.334 0.779,-0.503 1.293,-0.503l0,0Zm0,3.514c0.375,0 0.659,-0.14 0.855,-0.416c0.195,-0.278 0.292,-0.644 0.292,-1.096c0,-0.485 -0.11,-0.85 -0.331,-1.096c-0.22,-0.245 -0.492,-0.369 -0.816,-0.369c-0.334,0 -0.607,0.125 -0.821,0.374c-0.215,0.25 -0.322,0.622 -0.322,1.116c0,0.492 0.108,0.862 0.327,1.112c0.218,0.25 0.489,0.375 0.816,0.375l0,0Zm7.516,-1.571c0.202,0.078 0.359,0.2 0.47,0.363c0.111,0.165 0.166,0.355 0.166,0.572c0,0.332 -0.12,0.595 -0.358,0.79c-0.238,0.196 -0.569,0.295 -0.99,0.295l-1.84,0l0,-3.874l1.6,0c0.537,0 0.908,0.104 1.111,0.314c0.204,0.209 0.304,0.446 0.304,0.712c0,0.357 -0.154,0.634 -0.463,0.828l0,0Zm-1.895,-0.23l0.786,0c0.598,0 0.897,-0.18 0.897,-0.54c0,-0.207 -0.074,-0.349 -0.222,-0.424c-0.148,-0.076 -0.365,-0.113 -0.65,-0.113l-0.811,0l0,1.077Zm0,1.701l0.95,0c0.603,0 0.905,-0.191 0.905,-0.572c0,-0.125 -0.04,-0.238 -0.118,-0.34c-0.08,-0.102 -0.184,-0.168 -0.315,-0.2c-0.129,-0.03 -0.307,-0.045 -0.53,-0.045l-0.892,0l0,1.157Zm9.069,0.549l-0.69,0c-0.064,-0.123 -0.109,-0.282 -0.135,-0.479c-0.441,0.38 -0.917,0.57 -1.428,0.57c-0.409,0 -0.732,-0.103 -0.967,-0.307c-0.237,-0.204 -0.354,-0.475 -0.354,-0.81c0,-0.322 0.113,-0.586 0.34,-0.794c0.228,-0.208 0.623,-0.347 1.185,-0.415l0.613,-0.091c0.23,-0.038 0.418,-0.082 0.566,-0.136c0,-0.197 -0.005,-0.337 -0.017,-0.418c-0.013,-0.082 -0.049,-0.165 -0.109,-0.254c-0.059,-0.087 -0.154,-0.158 -0.286,-0.212c-0.131,-0.053 -0.308,-0.08 -0.529,-0.08c-0.283,0 -0.506,0.053 -0.67,0.158c-0.165,0.104 -0.277,0.299 -0.338,0.584l-0.643,-0.085c0.071,-0.396 0.253,-0.694 0.544,-0.893c0.292,-0.201 0.695,-0.301 1.206,-0.301c0.465,0 0.806,0.069 1.023,0.207c0.218,0.137 0.353,0.303 0.403,0.499c0.049,0.194 0.074,0.445 0.074,0.751l0,0.884c0,0.539 0.01,0.899 0.032,1.083c0.019,0.183 0.081,0.363 0.18,0.539l0,0Zm-0.87,-1.706l0,-0.238c-0.342,0.115 -0.763,0.206 -1.259,0.273c-0.497,0.066 -0.745,0.277 -0.745,0.63c0,0.178 0.067,0.324 0.201,0.44c0.134,0.116 0.326,0.173 0.577,0.173c0.324,0 0.609,-0.096 0.856,-0.29c0.247,-0.194 0.37,-0.523 0.37,-0.988Zm7.192,1.706l-0.657,0l0,-1.72l-1.826,0l0,1.72l-0.657,0l0,-3.874l0.657,0l0,1.606l1.826,0l0,-1.606l0.657,0l0,3.874Zm6.571,0l-0.66,0l0,-2.939l-1.823,2.939l-0.711,0l0,-3.874l0.656,0l0,2.954l1.827,-2.954l0.711,0l0,3.874Zm6.75,-1.772l-2.905,0c0.028,0.429 0.15,0.757 0.368,0.983c0.218,0.226 0.49,0.34 0.816,0.34c0.251,0 0.462,-0.067 0.632,-0.2c0.17,-0.132 0.301,-0.332 0.391,-0.6l0.675,0.083c-0.11,0.405 -0.31,0.716 -0.602,0.931c-0.293,0.217 -0.658,0.326 -1.096,0.326c-0.582,0 -1.037,-0.179 -1.364,-0.535c-0.327,-0.357 -0.491,-0.844 -0.491,-1.462c0,-0.612 0.159,-1.107 0.477,-1.487c0.318,-0.379 0.764,-0.57 1.341,-0.57c0.283,0 0.555,0.063 0.817,0.187c0.261,0.124 0.483,0.336 0.666,0.633c0.182,0.298 0.275,0.756 0.275,1.371l0,0Zm-0.676,-0.539c-0.027,-0.395 -0.15,-0.68 -0.368,-0.854c-0.218,-0.173 -0.456,-0.261 -0.714,-0.261c-0.309,0 -0.563,0.104 -0.763,0.311c-0.199,0.207 -0.315,0.475 -0.346,0.804l2.191,0Z" style="fill:#494d53;fill-rule:nonzero;"/><rect x="2.027" y="2.027" width="40.353" height="40.426" style="fill:#494d53;stroke:#2b2a29;stroke-width:0.18px;"/><g id="_1179792880"><path d="M3.77,32.444l8.289,-1.491c0.698,2.356 2.479,3.534 5.365,3.534c2.24,0 3.36,-0.596 3.36,-1.789c0,-0.625 -0.262,-1.112 -0.778,-1.454c-0.517,-0.349 -1.44,-0.662 -2.778,-0.923c-5.089,-0.975 -8.361,-2.254 -9.808,-3.825c-1.447,-1.578 -2.167,-3.432 -2.167,-5.562c0,-2.741 1.04,-5.024 3.119,-6.842c2.08,-1.817 5.068,-2.726 8.972,-2.726c5.919,0 9.823,2.377 11.728,7.14l-7.372,2.239c-0.771,-1.949 -2.327,-2.923 -4.668,-2.923c-1.949,0 -2.923,0.604 -2.923,1.811c0,0.538 0.218,0.959 0.662,1.257c0.436,0.298 1.286,0.575 2.552,0.844c3.482,0.72 5.954,1.359 7.416,1.919c1.461,0.553 2.683,1.52 3.657,2.901c0.974,1.375 1.462,2.996 1.462,4.864c0,2.945 -1.193,5.337 -3.578,7.17c-2.385,1.832 -5.518,2.748 -9.394,2.748c-7.081,0 -11.458,-2.967 -13.116,-8.892l0,0Z" style="fill:#1c2028;fill-rule:nonzero;"/><rect x="32.671" y="33.134" width="8.114" height="7.765" style="fill:#1c2028;fill-rule:nonzero;"/></g><path d="M47.795,26.064l11.442,0l0,16.109l-1.615,0l0,-14.583l-8.211,0l0,14.583l-1.616,0l0,-16.109l0,0Zm24.294,0l3.212,0c1.839,0 3.085,0.079 3.728,0.239c0.92,0.228 1.671,0.692 2.255,1.399c0.587,0.703 0.878,1.589 0.878,2.655c0,1.073 -0.284,1.955 -0.856,2.655c-0.568,0.695 -1.354,1.163 -2.352,1.406c-0.733,0.175 -2.098,0.261 -4.098,0.261l-1.152,0l0,7.494l-1.615,0l0,-16.109Zm1.615,1.571l0,5.474l2.73,0.033c1.103,0 1.911,-0.1 2.423,-0.302c0.512,-0.202 0.916,-0.524 1.208,-0.973c0.291,-0.448 0.437,-0.953 0.437,-1.507c0,-0.538 -0.146,-1.035 -0.437,-1.484c-0.292,-0.449 -0.681,-0.767 -1.16,-0.957c-0.478,-0.191 -1.26,-0.284 -2.352,-0.284l-2.849,0Zm28.287,-1.975c2.438,0 4.48,0.815 6.121,2.442c1.642,1.627 2.464,3.631 2.464,6.009c0,2.359 -0.818,4.36 -2.456,6.001c-1.642,1.642 -3.638,2.465 -5.998,2.465c-2.386,0 -4.401,-0.819 -6.043,-2.453c-1.641,-1.634 -2.464,-3.612 -2.464,-5.935c0,-1.548 0.374,-2.98 1.122,-4.303c0.748,-1.32 1.769,-2.356 3.062,-3.104c1.29,-0.748 2.689,-1.122 4.192,-1.122Zm0.071,1.571c-1.189,0 -2.318,0.31 -3.388,0.931c-1.065,0.62 -1.899,1.454 -2.501,2.505c-0.598,1.055 -0.898,2.225 -0.898,3.519c0,1.91 0.662,3.526 1.99,4.842c1.327,1.32 2.928,1.978 4.797,1.978c1.253,0 2.408,-0.303 3.47,-0.908c1.066,-0.606 1.896,-1.436 2.491,-2.487c0.594,-1.051 0.893,-2.217 0.893,-3.504c0,-1.279 -0.299,-2.434 -0.893,-3.466c-0.595,-1.032 -1.436,-1.859 -2.517,-2.479c-1.081,-0.621 -2.229,-0.931 -3.444,-0.931l0,0Zm20.715,-1.167l9.221,0l0,1.571l-7.605,0l0,5.048l7.538,0l0,1.57l-7.538,0l0,6.349l7.538,0l0,1.571l-9.154,0l0,-16.109l0,0Zm20.951,0l1.637,0l0,6.043l6.458,-6.043l2.169,0l-7.763,7.224l8.369,8.885l-2.15,0l-7.083,-7.524l0,7.524l-1.637,0l0,-16.109l0,0Zm20.606,1.571l0,-1.571l8.817,0l0,1.571l-3.589,0l0,14.538l-1.638,0l0,-14.538l-3.59,0Z" style="fill:#494d53;fill-rule:nonzero;"/></g></svg>