<?xml version="1.0" encoding="UTF-8" standalone="no"?><!DOCTYPE svg PUBLIC "-//W3C//DTD SVG 1.1//EN" "http://www.w3.org/Graphics/SVG/1.1/DTD/svg11.dtd"><svg width="100%" height="100%" viewBox="0 0 37 37" version="1.1" xmlns="http://www.w3.org/2000/svg" xmlns:xlink="http://www.w3.org/1999/xlink" xml:space="preserve" xmlns:serif="http://www.serif.com/" style="fill-rule:evenodd;clip-rule:evenodd;stroke-linejoin:round;stroke-miterlimit:1.41421;"><clipPath id="_clip1"><rect id="doc--1-" serif:id="doc (1)" x="0" y="0" width="36.054" height="36.054"/></clipPath><g clip-path="url(#_clip1)"><path d="M34.82,9.757l-9.185,-9.544c-0.131,-0.136 -0.311,-0.213 -0.5,-0.213l-13.69,0c-1.532,0 -2.778,1.246 -2.778,2.777l0,9.703l-5.548,0c-1.146,0 -2.079,0.933 -2.079,2.079l0,10.403c0,1.146 0.933,2.079 2.079,2.079l5.548,0l0,6.241c0,1.528 1.246,2.772 2.778,2.772l20.791,0c1.532,0 2.778,-1.243 2.778,-2.771l0,-23.045c0,-0.18 -0.069,-0.352 -0.194,-0.481Zm-9.513,-7.885l7.541,7.835l-7.541,0l0,-7.835Zm-22.188,23.782c-0.382,0 -0.692,-0.31 -0.692,-0.692l0,-10.403c0,-0.382 0.31,-0.692 0.692,-0.692l18.723,0c0.381,0 0.692,0.31 0.692,0.692l0,10.403c0,0.382 -0.311,0.692 -0.692,0.692l-18.723,0Zm30.508,7.629c0,0.763 -0.624,1.384 -1.392,1.384l-20.79,0c-0.767,0 -1.391,-0.621 -1.391,-1.385l0,-6.241l11.788,0c1.146,0 2.078,-0.933 2.078,-2.079l0,-10.403c0,-1.146 -0.932,-2.079 -2.078,-2.079l-11.788,0l0,-9.703c0,-0.766 0.624,-1.39 1.391,-1.39l12.475,0l0,9.013c0,0.383 0.311,0.694 0.694,0.694l9.013,0l0,22.189Z" style="fill:#fff;fill-rule:nonzero;"/><path d="M9.213,18.552c-0.13,-0.381 -0.32,-0.702 -0.569,-0.965c-0.249,-0.263 -0.549,-0.446 -0.898,-0.548c-0.26,-0.076 -0.638,-0.114 -1.133,-0.114l-2.198,0l0,5.955l2.263,0c0.444,0 0.799,-0.041 1.064,-0.126c0.355,-0.113 0.636,-0.272 0.845,-0.475c0.276,-0.268 0.489,-0.619 0.638,-1.052c0.122,-0.355 0.183,-0.777 0.183,-1.268c0,-0.557 -0.065,-1.027 -0.195,-1.407Zm-1.171,2.446c-0.081,0.266 -0.186,0.458 -0.314,0.574c-0.129,0.117 -0.291,0.199 -0.486,0.248c-0.149,0.038 -0.391,0.057 -0.727,0.057l-0.898,0l0,-3.945l0.54,0c0.491,0 0.82,0.019 0.988,0.057c0.225,0.049 0.41,0.142 0.556,0.28c0.146,0.138 0.26,0.331 0.341,0.577c0.082,0.247 0.122,0.6 0.122,1.061c0.001,0.46 -0.04,0.824 -0.122,1.091Z" style="fill:#00acff;fill-rule:nonzero;"/><path d="M20.71,20.691c-0.101,0.436 -0.266,0.755 -0.496,0.958c-0.23,0.204 -0.505,0.305 -0.825,0.305c-0.433,0 -0.785,-0.16 -1.056,-0.479c-0.271,-0.32 -0.406,-0.856 -0.406,-1.609c0,-0.709 0.137,-1.223 0.412,-1.54c0.275,-0.317 0.633,-0.475 1.075,-0.475c0.319,0 0.591,0.089 0.814,0.268c0.224,0.179 0.371,0.423 0.441,0.731l1.19,-0.284c-0.135,-0.477 -0.338,-0.842 -0.609,-1.097c-0.455,-0.43 -1.047,-0.646 -1.775,-0.646c-0.834,0 -1.508,0.274 -2.019,0.823c-0.512,0.548 -0.768,1.318 -0.768,2.309c0,0.937 0.254,1.676 0.764,2.217c0.509,0.54 1.159,0.81 1.95,0.81c0.639,0 1.166,-0.158 1.582,-0.473c0.416,-0.316 0.713,-0.799 0.892,-1.449l-1.166,-0.369Z" style="fill:#00acff;fill-rule:nonzero;"/><path d="M15.17,17.64c-0.526,-0.545 -1.228,-0.817 -2.106,-0.817c-0.485,0 -0.913,0.079 -1.284,0.236c-0.279,0.116 -0.535,0.295 -0.77,0.536c-0.234,0.241 -0.419,0.513 -0.554,0.817c-0.182,0.411 -0.272,0.92 -0.272,1.527c0,0.948 0.261,1.692 0.784,2.232c0.522,0.541 1.227,0.811 2.112,0.811c0.875,0 1.574,-0.271 2.097,-0.815c0.522,-0.543 0.784,-1.295 0.784,-2.256c0,-0.97 -0.264,-1.727 -0.791,-2.271Zm-0.914,3.796c-0.307,0.346 -0.701,0.518 -1.18,0.518c-0.479,0 -0.875,-0.174 -1.186,-0.522c-0.312,-0.348 -0.467,-0.859 -0.467,-1.533c0,-0.686 0.151,-1.198 0.455,-1.538c0.303,-0.34 0.702,-0.51 1.198,-0.51c0.496,0 0.893,0.168 1.192,0.504c0.3,0.336 0.449,0.845 0.449,1.527c0,0.691 -0.153,1.209 -0.461,1.554Z" style="fill:#00acff;fill-rule:nonzero;"/></g></svg>