<?xml version="1.0" encoding="UTF-8" standalone="no"?><!DOCTYPE svg PUBLIC "-//W3C//DTD SVG 1.1//EN" "http://www.w3.org/Graphics/SVG/1.1/DTD/svg11.dtd"><svg width="100%" height="100%" viewBox="0 0 35 35" version="1.1" xmlns="http://www.w3.org/2000/svg" xmlns:xlink="http://www.w3.org/1999/xlink" xml:space="preserve" xmlns:serif="http://www.serif.com/" style="fill-rule:evenodd;clip-rule:evenodd;stroke-linejoin:round;stroke-miterlimit:1.41421;"><g><path d="M29.977,7.17l-0.454,-0.453l-5.939,-5.94l-0.454,-0.453c-0.205,-0.206 -0.49,-0.324 -0.781,-0.324l-17.076,0c-0.697,0 -1.449,0.539 -1.449,1.722l0,31.226c0,0.492 0.496,0.972 1.082,1.124c0.029,0.007 0.057,0.018 0.088,0.024c0.092,0.019 0.185,0.029 0.279,0.029l23.578,0c0.094,0 0.188,-0.01 0.28,-0.029c0.03,-0.006 0.058,-0.017 0.088,-0.024c0.586,-0.152 1.081,-0.632 1.081,-1.124l0,-0.273l0,-9.729l0,-14.722c0,-0.451 -0.054,-0.784 -0.323,-1.054Zm-1.774,-0.11l-4.963,0l0,-4.963l4.963,4.963Zm-22.93,25.888c-0.041,0 -0.079,-0.015 -0.116,-0.029c-0.092,-0.043 -0.156,-0.135 -0.156,-0.244l0,-8.552l24.123,0l0,8.552c0,0.109 -0.065,0.2 -0.156,0.244c-0.037,0.014 -0.075,0.029 -0.117,0.029l-23.578,0Zm-0.272,-10.002l0,-21.224c0,-0.128 0.019,-0.545 0.272,-0.545l16.824,0c-0.019,0.074 -0.034,0.15 -0.034,0.23l0,6.83l6.831,0c0.079,0 0.155,-0.015 0.229,-0.034c0,0.009 0.001,0.012 0.001,0.021l0,14.722l-24.123,0Z" style="fill-rule:nonzero;"/><path d="M12.969,26.325c-0.196,-0.16 -0.418,-0.281 -0.664,-0.361c-0.247,-0.081 -0.496,-0.121 -0.748,-0.121l-1.705,0l0,5.928l0.965,0l0,-2.14l0.717,0c0.31,0 0.595,-0.045 0.852,-0.136c0.257,-0.091 0.477,-0.22 0.66,-0.386c0.182,-0.166 0.324,-0.371 0.426,-0.616c0.102,-0.244 0.153,-0.516 0.153,-0.816c0,-0.284 -0.06,-0.54 -0.181,-0.769c-0.121,-0.228 -0.28,-0.421 -0.475,-0.583Zm-0.366,1.959c-0.06,0.164 -0.137,0.291 -0.233,0.382c-0.097,0.091 -0.203,0.157 -0.318,0.197c-0.115,0.04 -0.233,0.061 -0.35,0.061l-0.885,0l0,-2.349l0.724,0c0.246,0 0.444,0.039 0.595,0.116c0.15,0.078 0.267,0.174 0.35,0.29c0.083,0.115 0.138,0.236 0.165,0.362c0.026,0.126 0.04,0.237 0.04,0.333c0,0.242 -0.03,0.444 -0.088,0.608Z" style="fill-rule:nonzero;"/><path d="M18.8,26.711c-0.249,-0.262 -0.563,-0.473 -0.941,-0.631c-0.378,-0.158 -0.817,-0.237 -1.315,-0.237l-1.786,0l0,5.928l2.244,0c0.075,0 0.19,-0.009 0.346,-0.028c0.156,-0.019 0.327,-0.061 0.515,-0.129c0.188,-0.067 0.382,-0.168 0.583,-0.302c0.201,-0.134 0.382,-0.317 0.543,-0.551c0.161,-0.234 0.294,-0.523 0.398,-0.869c0.105,-0.346 0.158,-0.763 0.158,-1.251c0,-0.354 -0.062,-0.699 -0.185,-1.034c-0.124,-0.334 -0.31,-0.633 -0.56,-0.896Zm-0.703,3.725c-0.29,0.418 -0.762,0.627 -1.416,0.627l-0.957,0l0,-4.489l0.563,0c0.461,0 0.836,0.061 1.126,0.181c0.289,0.121 0.519,0.279 0.688,0.475c0.169,0.196 0.282,0.414 0.342,0.656c0.058,0.241 0.088,0.485 0.088,0.732c0,0.793 -0.145,1.4 -0.434,1.818Z" style="fill-rule:nonzero;"/><path d="M20.944,31.771l0.982,0l0,-2.67l2.477,0l0,-0.66l-2.477,0l0,-1.866l2.726,0l0,-0.732l-3.708,0l0,5.928Z" style="fill-rule:nonzero;"/><path d="M22.609,13.509c-0.54,0 -1.204,0.071 -1.975,0.211c-1.077,-1.143 -2.201,-2.811 -2.994,-4.449c0.787,-3.312 0.393,-3.781 0.22,-4.002c-0.185,-0.236 -0.446,-0.617 -0.742,-0.617c-0.125,0 -0.463,0.056 -0.598,0.101c-0.339,0.113 -0.521,0.374 -0.667,0.715c-0.416,0.972 0.154,2.63 0.742,3.908c-0.502,1.996 -1.344,4.386 -2.229,6.325c-2.23,1.021 -3.414,2.024 -3.521,2.982c-0.039,0.348 0.043,0.859 0.656,1.319c0.167,0.125 0.364,0.192 0.569,0.192c0.514,0 1.034,-0.395 1.636,-1.24c0.439,-0.617 0.911,-1.458 1.402,-2.501c1.576,-0.689 3.525,-1.312 5.194,-1.661c0.93,0.893 1.762,1.345 2.478,1.345c0.527,0 0.979,-0.243 1.306,-0.701c0.341,-0.477 0.418,-0.904 0.23,-1.271c-0.227,-0.44 -0.785,-0.656 -1.707,-0.656Zm-10.527,5.691c-0.275,-0.211 -0.259,-0.353 -0.253,-0.407c0.036,-0.327 0.549,-0.908 1.806,-1.614c-0.953,1.76 -1.465,1.994 -1.553,2.021Zm4.825,-13.486c0.025,-0.008 0.615,0.648 0.056,1.892c-0.839,-0.858 -0.114,-1.872 -0.056,-1.892Zm-1.216,9.429c0.597,-1.423 1.152,-2.995 1.573,-4.45c0.661,1.187 1.455,2.339 2.249,3.262c-1.256,0.294 -2.593,0.71 -3.822,1.188Zm7.59,-0.282c-0.181,0.254 -0.574,0.26 -0.712,0.26c-0.313,0 -0.43,-0.187 -0.91,-0.556c0.395,-0.05 0.768,-0.063 1.066,-0.063c0.523,0 0.619,0.077 0.691,0.116c-0.013,0.041 -0.047,0.12 -0.135,0.243Z" style="fill:#df1b3d;fill-rule:nonzero;"/></g></svg>