<?xml version="1.0" encoding="UTF-8" standalone="no"?><!DOCTYPE svg PUBLIC "-//W3C//DTD SVG 1.1//EN" "http://www.w3.org/Graphics/SVG/1.1/DTD/svg11.dtd"><svg width="100%" height="100%" viewBox="0 0 30 30" version="1.1" xmlns="http://www.w3.org/2000/svg" xmlns:xlink="http://www.w3.org/1999/xlink" xml:space="preserve" xmlns:serif="http://www.serif.com/" style="fill-rule:evenodd;clip-rule:evenodd;stroke-linejoin:round;stroke-miterlimit:1.41421;"><path d="M15.611,18.298l-0.815,-1.81c0.777,-0.571 1.444,-1.28 1.966,-2.09l1.856,0.703c0.355,0.135 0.751,-0.044 0.886,-0.399l0.682,-1.801c0.065,-0.17 0.059,-0.359 -0.016,-0.525c-0.075,-0.166 -0.213,-0.296 -0.383,-0.361l-1.856,-0.703c0.146,-0.952 0.116,-1.926 -0.088,-2.868l1.81,-0.815c0.166,-0.075 0.296,-0.213 0.36,-0.384c0.065,-0.17 0.059,-0.359 -0.016,-0.525l-0.791,-1.756c-0.156,-0.346 -0.563,-0.5 -0.908,-0.344l-1.81,0.815c-0.571,-0.777 -1.28,-1.444 -2.09,-1.966l0.703,-1.856c0.134,-0.355 -0.044,-0.752 -0.399,-0.886l-1.801,-0.682c-0.17,-0.065 -0.359,-0.059 -0.525,0.016c-0.166,0.075 -0.296,0.212 -0.361,0.383l-0.703,1.856c-0.953,-0.147 -1.928,-0.117 -2.868,0.087l-0.815,-1.809c-0.075,-0.167 -0.213,-0.296 -0.383,-0.361c-0.171,-0.064 -0.36,-0.059 -0.526,0.016l-1.756,0.791c-0.346,0.156 -0.5,0.563 -0.344,0.909l0.815,1.81c-0.777,0.57 -1.444,1.28 -1.966,2.09l-1.856,-0.704c-0.17,-0.064 -0.359,-0.058 -0.526,0.016c-0.166,0.075 -0.295,0.213 -0.36,0.384l-0.682,1.8c-0.135,0.355 0.044,0.752 0.399,0.886l1.856,0.703c-0.146,0.953 -0.117,1.926 0.088,2.869l-1.81,0.815c-0.166,0.075 -0.296,0.212 -0.361,0.383c-0.064,0.17 -0.058,0.36 0.016,0.526l0.791,1.755c0.075,0.166 0.213,0.296 0.383,0.361c0.171,0.064 0.36,0.059 0.526,-0.016l1.81,-0.816c0.57,0.778 1.28,1.445 2.09,1.966l-0.704,1.857c-0.134,0.354 0.045,0.751 0.4,0.886l1.8,0.682c0.079,0.029 0.161,0.044 0.244,0.044c0.096,0 0.192,-0.02 0.282,-0.06c0.166,-0.075 0.296,-0.213 0.36,-0.383l0.703,-1.856c0.954,0.146 1.929,0.116 2.869,-0.088l0.815,1.81c0.075,0.166 0.212,0.295 0.383,0.36c0.17,0.065 0.36,0.059 0.526,-0.016l1.755,-0.791c0.346,-0.156 0.501,-0.562 0.345,-0.908Zm-1.139,-6.532c-0.682,1.8 -2.433,3.01 -4.358,3.01c-0.562,0 -1.118,-0.103 -1.649,-0.304c-1.164,-0.441 -2.086,-1.309 -2.598,-2.443c-0.511,-1.135 -0.549,-2.401 -0.108,-3.564c0.682,-1.801 2.433,-3.01 4.357,-3.01c0.563,0 1.118,0.102 1.65,0.304c1.164,0.44 2.086,1.308 2.597,2.443c0.511,1.134 0.55,2.4 0.109,3.564Zm15.277,9.383c-0.123,-0.135 -0.294,-0.214 -0.476,-0.222l-1.295,-0.056c-0.119,-0.611 -0.334,-1.2 -0.636,-1.745l0.954,-0.876c0.28,-0.256 0.298,-0.691 0.042,-0.97l-0.948,-1.033c-0.123,-0.134 -0.295,-0.214 -0.477,-0.222c-0.181,-0.007 -0.36,0.057 -0.494,0.18l-0.954,0.876c-0.517,-0.347 -1.086,-0.612 -1.684,-0.783l0.055,-1.294c0.017,-0.38 -0.278,-0.7 -0.657,-0.716l-1.4,-0.06c-0.377,-0.015 -0.7,0.278 -0.716,0.657l-0.055,1.294c-0.611,0.119 -1.201,0.334 -1.745,0.636l-0.876,-0.954c-0.123,-0.134 -0.295,-0.214 -0.477,-0.222c-0.182,-0.007 -0.36,0.057 -0.494,0.18l-1.033,0.948c-0.279,0.257 -0.298,0.691 -0.041,0.971l0.876,0.954c-0.348,0.517 -0.613,1.086 -0.784,1.684l-1.294,-0.055c-0.377,-0.016 -0.7,0.278 -0.716,0.657l-0.06,1.4c-0.008,0.182 0.057,0.36 0.18,0.494c0.123,0.134 0.295,0.214 0.477,0.222l1.294,0.055c0.119,0.611 0.335,1.201 0.637,1.745l-0.954,0.876c-0.135,0.123 -0.215,0.295 -0.222,0.477c-0.008,0.182 0.057,0.36 0.18,0.494l0.948,1.033c0.123,0.134 0.294,0.214 0.476,0.222c0.182,0.007 0.36,-0.058 0.495,-0.181l0.954,-0.876c0.516,0.348 1.085,0.613 1.684,0.784l-0.056,1.294c-0.016,0.379 0.278,0.7 0.657,0.716l1.401,0.06c0.009,0.001 0.019,0.001 0.029,0.001c0.172,0 0.338,-0.065 0.465,-0.181c0.134,-0.123 0.214,-0.295 0.222,-0.477l0.055,-1.294c0.611,-0.119 1.2,-0.334 1.745,-0.637l0.876,0.955c0.123,0.134 0.295,0.214 0.477,0.222c0.182,0.008 0.359,-0.057 0.494,-0.181l1.032,-0.947c0.28,-0.257 0.298,-0.692 0.042,-0.971l-0.876,-0.954c0.348,-0.517 0.613,-1.086 0.784,-1.684l1.294,0.055c0.378,0.015 0.699,-0.278 0.716,-0.657l0.06,-1.4c0.008,-0.182 -0.057,-0.36 -0.181,-0.494Zm-7.74,4.063c-1.765,-0.076 -3.139,-1.574 -3.063,-3.339c0.073,-1.72 1.478,-3.067 3.198,-3.067c0.046,0 0.093,0.001 0.14,0.003c1.765,0.076 3.14,1.574 3.064,3.339c-0.076,1.766 -1.559,3.138 -3.339,3.064Z" style="fill:#fff;fill-rule:nonzero;"/></svg>