<?xml version="1.0" encoding="UTF-8" standalone="no"?><!DOCTYPE svg PUBLIC "-//W3C//DTD SVG 1.1//EN" "http://www.w3.org/Graphics/SVG/1.1/DTD/svg11.dtd"><svg width="100%" height="100%" viewBox="0 0 132 37" version="1.1" xmlns="http://www.w3.org/2000/svg" xmlns:xlink="http://www.w3.org/1999/xlink" xml:space="preserve" xmlns:serif="http://www.serif.com/" style="fill-rule:evenodd;clip-rule:evenodd;stroke-linejoin:round;stroke-miterlimit:1.41421;"><g><path d="M2.065,29.292l-2.065,0l4.101,-7.413l2.118,0l1.512,7.413l-2.065,0l-0.245,-1.323l-2.648,0l-0.708,1.323Zm1.425,-2.7l1.694,0l-0.412,-2.489l-1.282,2.489Zm5.75,-4.713l4.236,0c0.692,0 1.173,0.157 1.443,0.471c0.269,0.315 0.349,0.793 0.236,1.435c-0.073,0.424 -0.226,0.768 -0.455,1.033c-0.23,0.265 -0.488,0.45 -0.775,0.556c0.545,0.155 0.866,0.536 0.965,1.144c0.032,0.219 0.024,0.473 -0.027,0.762c-0.121,0.692 -0.372,1.2 -0.754,1.525c-0.381,0.325 -0.918,0.487 -1.61,0.487l-4.553,0l1.294,-7.413Zm3.772,5.084c0.074,-0.424 -0.101,-0.636 -0.524,-0.636l-2.119,0l-0.258,1.483l2.118,0c0.423,0 0.672,-0.212 0.746,-0.636l0.037,-0.211Zm0.2,-2.966c0.074,-0.423 -0.101,-0.635 -0.524,-0.635l-1.801,0l-0.259,1.482l1.801,0c0.423,0 0.672,-0.211 0.746,-0.635l0.037,-0.212Zm5.326,5.295l-1.906,0l1.035,-5.93l-2.223,0l0.258,-1.483l6.355,0l-0.259,1.483l-2.224,0l-1.036,5.93Zm8.359,-5.401c0.074,-0.423 -0.101,-0.635 -0.524,-0.635l-1.801,0c-0.423,0 -0.672,0.212 -0.746,0.635l-0.592,3.389c-0.074,0.424 0.101,0.636 0.525,0.636l1.8,0c0.423,0 0.672,-0.212 0.746,-0.636l0.592,-3.389Zm1.315,3.389c-0.13,0.742 -0.391,1.28 -0.786,1.615c-0.393,0.336 -0.961,0.503 -1.702,0.503l-2.648,0c-0.741,0 -1.25,-0.167 -1.527,-0.503c-0.277,-0.335 -0.351,-0.873 -0.221,-1.615l0.591,-3.389c0.13,-0.741 0.391,-1.279 0.786,-1.615c0.394,-0.335 0.961,-0.503 1.702,-0.503l2.648,0c0.741,0 1.25,0.168 1.527,0.503c0.277,0.336 0.351,0.874 0.221,1.615l-0.591,3.389Zm7.468,-2.118l-1.946,2.648l-1.482,0l-1.02,-2.648l-0.721,4.13l-1.907,0l1.294,-7.413l2.013,0l1.434,3.919l2.802,-3.919l2.012,0l-1.294,7.413l-1.906,0l0.721,-4.13Zm7.849,-1.271c0.074,-0.423 -0.101,-0.635 -0.524,-0.635l-1.801,0c-0.423,0 -0.672,0.212 -0.746,0.635l-0.592,3.389c-0.074,0.424 0.101,0.636 0.525,0.636l1.8,0c0.423,0 0.673,-0.212 0.746,-0.636l0.592,-3.389Zm1.314,3.389c-0.129,0.742 -0.39,1.28 -0.785,1.615c-0.393,0.336 -0.961,0.503 -1.702,0.503l-2.648,0c-0.741,0 -1.25,-0.167 -1.527,-0.503c-0.277,-0.335 -0.351,-0.873 -0.221,-1.615l0.591,-3.389c0.13,-0.741 0.391,-1.279 0.785,-1.615c0.394,-0.335 0.962,-0.503 1.703,-0.503l2.648,0c0.741,0 1.25,0.168 1.527,0.503c0.277,0.336 0.351,0.874 0.221,1.615l-0.592,3.389Zm3.094,-2.541l2.542,0c0.741,0 1.251,0.167 1.528,0.503c0.276,0.335 0.35,0.873 0.221,1.615l-0.056,0.317c-0.129,0.742 -0.391,1.28 -0.785,1.615c-0.394,0.336 -0.961,0.503 -1.703,0.503l-4.448,0l1.294,-7.413l5.878,0l-0.259,1.483l-3.971,0l-0.241,1.377Zm2.384,2.118c0.074,-0.424 -0.101,-0.636 -0.524,-0.636l-2.118,0l-0.278,1.589l2.118,0c0.424,0 0.673,-0.212 0.747,-0.636l0.055,-0.317Zm8.579,2.435l-1.906,0l0.795,-4.553l-3.336,4.553l-2.013,0l1.294,-7.413l1.907,0l-0.795,4.554l3.337,-4.554l2.012,0l-1.295,7.413Zm3.448,-1.535c-0.124,0.508 -0.356,0.909 -0.697,1.202c-0.341,0.293 -0.723,0.439 -1.146,0.439c-0.424,0 -0.817,-0.035 -1.178,-0.106l0.249,-1.429l0.476,0c0.134,0 0.254,-0.046 0.358,-0.138c0.105,-0.092 0.172,-0.205 0.202,-0.339l1.28,-5.507l5.877,0l-1.294,7.413l-1.906,0l1.035,-5.93l-2.224,0l-1.032,4.395Zm7.839,-3.336l2.542,0c0.741,0 1.251,0.167 1.527,0.503c0.277,0.335 0.351,0.874 0.221,1.615l-0.11,0.635c-0.13,0.742 -0.392,1.28 -0.786,1.615c-0.393,0.336 -0.961,0.503 -1.702,0.503l-4.448,0l1.294,-7.413l1.906,0l-0.444,2.542Zm2.384,2.118c0.074,-0.424 -0.101,-0.635 -0.524,-0.635l-2.118,0l-0.333,1.906l2.118,0c0.424,0 0.672,-0.212 0.746,-0.636l0.111,-0.635Zm7.147,2.753l-1.906,0l1.294,-7.413l5.772,0l-0.259,1.483l-3.866,0l-1.035,5.93Zm10,-5.401c0.074,-0.423 -0.1,-0.635 -0.524,-0.635l-1.8,0c-0.424,0 -0.673,0.212 -0.747,0.635l-0.592,3.389c-0.074,0.424 0.101,0.636 0.525,0.636l1.8,0c0.424,0 0.673,-0.212 0.747,-0.636l0.591,-3.389Zm1.315,3.389c-0.13,0.742 -0.391,1.28 -0.785,1.615c-0.394,0.336 -0.962,0.503 -1.703,0.503l-2.647,0c-0.742,0 -1.251,-0.167 -1.528,-0.503c-0.277,-0.335 -0.35,-0.873 -0.221,-1.615l0.592,-3.389c0.129,-0.741 0.391,-1.279 0.785,-1.615c0.394,-0.335 0.961,-0.503 1.703,-0.503l2.647,0c0.742,0 1.251,0.168 1.527,0.503c0.277,0.336 0.351,0.874 0.221,1.615l-0.591,3.389Zm2.534,-5.401l5.56,0l-1.035,5.931l0.794,0l-0.499,2.859l-1.801,0l0.135,-1.377l-4.131,0l-0.346,1.377l-1.8,0l0.499,-2.859l0.688,0c0.246,-0.233 0.445,-0.496 0.599,-0.789c0.153,-0.293 0.258,-0.56 0.314,-0.8l1.023,-4.342Zm2.618,5.931l0.777,-4.448l-1.959,0l-0.621,2.647c-0.097,0.431 -0.278,0.865 -0.546,1.303c-0.109,0.184 -0.226,0.35 -0.351,0.498l2.7,0Zm4.298,1.482l-2.065,0l4.101,-7.413l2.008,-0.034l0.259,0.768l1.363,6.679l-2.065,0l-0.246,-1.323l-2.647,0l-0.708,1.323Zm1.424,-2.7l1.695,0l-0.413,-2.489l-1.282,2.489Z" style="fill:#1c2023;fill-rule:nonzero;"/><path d="M104.966,15.804c-5.434,-0.02 -11.879,-0.699 -16.83,-2.089c-5.424,-1.522 -9.848,-3.286 -15.914,-3.633c-5.718,-0.324 -11.444,-0.542 -17.82,0.684c-6.828,1.312 -12.827,4.415 -21.163,6.477c-8.28,2.049 -20.662,0.138 -28.773,3.976l0.086,-0.155c8.239,-4.619 19.956,-2.613 28.558,-4.892c8.668,-2.297 15.05,-5.925 21.965,-7.189c5.974,-1.092 11.751,-0.859 17.164,-0.403c5.999,0.505 10.735,1.945 16.056,3.774c4.857,1.669 11.275,3.318 16.671,3.45" style="fill:#2d3941;fill-rule:nonzero;"/><path d="M105.062,16.062c-5.434,-0.02 -12.15,-0.047 -16.926,-1.158c-5.424,-1.494 -9.848,-2.3 -15.914,-2.641c-5.718,-0.319 -11.092,-0.405 -17.469,0.799c-6.827,1.29 -13.178,3.283 -21.514,5.309c-8.301,2.017 -20.8,-0.705 -28.91,3.095l0.128,-0.231c8.241,-4.531 20.048,-1.677 28.653,-3.917c8.668,-2.256 15.05,-5.82 21.965,-7.062c5.974,-1.073 11.751,-0.844 17.164,-0.396c5.999,0.497 10.735,1.911 16.056,3.707c5.576,1.959 11.371,2.365 16.767,2.495" style="fill:#006db7;"/><path d="M104.966,15.901c-5.434,-0.02 -11.879,-0.687 -16.83,-2.052c-5.424,-1.494 -9.848,-3.228 -15.914,-3.568c-5.718,-0.319 -11.444,-0.533 -17.82,0.671c-6.828,1.289 -12.827,4.337 -21.163,6.363c-8.281,2.013 -20.682,0.169 -28.794,3.941l0.103,-0.186c8.24,-4.54 19.959,-2.568 28.562,-4.807c8.668,-2.256 15.05,-5.821 21.965,-7.062c5.974,-1.073 11.751,-0.844 17.164,-0.396c5.999,0.496 10.735,1.911 16.056,3.707c4.857,1.639 11.275,3.26 16.671,3.389" style="fill:#fff;"/><path d="M105.744,16.243c-5.474,-0.015 -11.501,0.187 -16.784,-0.699c-11.011,-1.846 -23.562,-2.693 -34.629,-1.069c-6.859,1.006 -11.832,2.449 -20.164,4.208c-8.332,1.759 -21.822,0.063 -30.066,3.196l0,0l0.233,-0.421c8.145,-3.676 20.913,-1.798 29.077,-3.451c9.16,-1.854 14.545,-4.324 21.494,-5.293c6.004,-0.838 12.219,-0.946 17.677,-0.596c6.05,0.387 10.887,1.334 16.269,2.737c4.915,1.28 11.456,1.287 16.893,1.388" style="fill:#d22229;"/><path d="M14.791,35.765c-0.006,0.032 -0.016,0.057 -0.031,0.075c-0.014,0.018 -0.04,0.026 -0.078,0.026l-1.24,0c-0.154,0 -0.277,-0.022 -0.368,-0.065c-0.091,-0.044 -0.16,-0.102 -0.207,-0.174c-0.046,-0.073 -0.073,-0.155 -0.08,-0.248c-0.007,-0.093 -0.002,-0.19 0.016,-0.292l0.259,-1.488c0.017,-0.102 0.048,-0.2 0.092,-0.294c0.044,-0.094 0.104,-0.178 0.179,-0.25c0.075,-0.073 0.165,-0.131 0.272,-0.174c0.106,-0.044 0.229,-0.065 0.368,-0.065l1.214,0c0.038,0 0.06,0.008 0.068,0.024c0.007,0.015 0.008,0.041 0.002,0.076l-0.048,0.274c-0.007,0.038 -0.016,0.063 -0.029,0.076c-0.012,0.013 -0.037,0.02 -0.075,0.02l-1.157,0c-0.111,0 -0.193,0.024 -0.246,0.074c-0.054,0.049 -0.088,0.12 -0.105,0.213l-0.079,0.457l1.314,0c0.038,0 0.06,0.007 0.068,0.022c0.008,0.014 0.008,0.042 0.001,0.082l-0.042,0.24c-0.006,0.034 -0.016,0.06 -0.028,0.076c-0.013,0.016 -0.039,0.024 -0.076,0.024l-1.315,0l-0.11,0.632c-0.016,0.092 -0.004,0.163 0.035,0.21c0.04,0.048 0.112,0.072 0.216,0.072l1.184,0c0.041,0 0.065,0.007 0.072,0.021c0.008,0.015 0.008,0.043 0.001,0.084l-0.047,0.272Zm1.204,-1.548c-0.086,-0.055 -0.15,-0.128 -0.192,-0.22c-0.042,-0.091 -0.067,-0.198 -0.075,-0.32l-0.056,-0.779c-0.003,-0.014 -0.001,-0.032 0.008,-0.054c0.008,-0.022 0.031,-0.033 0.068,-0.033l0.357,0c0.015,0 0.031,0.003 0.049,0.009c0.018,0.006 0.027,0.023 0.028,0.052l0.059,0.736c0.01,0.092 0.029,0.166 0.059,0.222c0.029,0.055 0.064,0.097 0.104,0.126c0.04,0.029 0.084,0.047 0.132,0.054c0.048,0.007 0.094,0.011 0.137,0.011l0.401,0l0.197,-1.131c0,-0.032 0.006,-0.052 0.019,-0.059c0.013,-0.007 0.034,-0.011 0.063,-0.011l0.374,0c0.026,0 0.045,0.004 0.057,0.011c0.011,0.007 0.015,0.027 0.009,0.059l-0.197,1.131l0.396,0c0.044,0 0.091,-0.004 0.141,-0.011c0.051,-0.007 0.101,-0.025 0.151,-0.054c0.05,-0.029 0.1,-0.071 0.148,-0.126c0.049,-0.056 0.095,-0.13 0.137,-0.222l0.32,-0.736c0.01,-0.029 0.026,-0.046 0.046,-0.052c0.019,-0.006 0.037,-0.009 0.051,-0.009l0.357,0c0.038,0 0.057,0.011 0.057,0.033c0.001,0.022 -0.003,0.04 -0.011,0.054l-0.327,0.779c-0.051,0.122 -0.113,0.229 -0.189,0.32c-0.075,0.092 -0.164,0.165 -0.267,0.22l-0.003,0.022c0.07,0.026 0.128,0.055 0.171,0.089c0.044,0.033 0.077,0.072 0.102,0.117c0.024,0.045 0.04,0.095 0.05,0.148c0.01,0.054 0.017,0.113 0.024,0.177l0.094,1.009c0.003,0.015 0,0.033 -0.008,0.055c-0.008,0.021 -0.031,0.032 -0.069,0.032l-0.387,0c-0.014,0 -0.03,-0.003 -0.046,-0.008c-0.017,-0.006 -0.027,-0.024 -0.03,-0.053l-0.091,-0.953c-0.01,-0.078 -0.025,-0.143 -0.045,-0.193c-0.02,-0.051 -0.049,-0.09 -0.088,-0.118c-0.039,-0.027 -0.086,-0.047 -0.142,-0.059c-0.056,-0.011 -0.122,-0.017 -0.197,-0.017l-0.422,0l-0.232,1.332c-0.006,0.032 -0.016,0.051 -0.03,0.058c-0.015,0.008 -0.035,0.011 -0.061,0.011l-0.37,0c-0.029,0 -0.048,-0.003 -0.059,-0.011c-0.01,-0.007 -0.012,-0.026 -0.007,-0.058l0.236,-1.332l-0.422,0c-0.075,0 -0.143,0.006 -0.203,0.017c-0.06,0.012 -0.114,0.032 -0.162,0.059c-0.049,0.028 -0.093,0.067 -0.134,0.118c-0.041,0.05 -0.078,0.115 -0.112,0.193l-0.419,0.953c-0.013,0.029 -0.029,0.047 -0.048,0.053c-0.018,0.005 -0.035,0.008 -0.049,0.008l-0.388,0c-0.037,0 -0.056,-0.011 -0.057,-0.032c0,-0.022 0.003,-0.04 0.012,-0.055l0.445,-1.009c0.028,-0.061 0.057,-0.119 0.085,-0.172c0.028,-0.054 0.062,-0.103 0.102,-0.148c0.039,-0.045 0.087,-0.085 0.142,-0.12c0.056,-0.035 0.123,-0.065 0.203,-0.091l0.004,-0.022Zm5.539,1.548c-0.005,0.032 -0.015,0.057 -0.03,0.075c-0.015,0.018 -0.041,0.026 -0.079,0.026l-1.24,0c-0.154,0 -0.276,-0.022 -0.367,-0.065c-0.091,-0.044 -0.16,-0.102 -0.207,-0.174c-0.047,-0.073 -0.074,-0.155 -0.081,-0.248c-0.007,-0.093 -0.001,-0.19 0.016,-0.292l0.26,-1.488c0.017,-0.102 0.048,-0.2 0.092,-0.294c0.044,-0.094 0.103,-0.178 0.179,-0.25c0.074,-0.073 0.165,-0.131 0.271,-0.174c0.107,-0.044 0.229,-0.065 0.369,-0.065l1.214,0c0.037,0 0.06,0.008 0.067,0.024c0.008,0.015 0.008,0.041 0.002,0.076l-0.047,0.274c-0.007,0.038 -0.016,0.063 -0.029,0.076c-0.012,0.013 -0.037,0.02 -0.075,0.02l-1.158,0c-0.11,0 -0.192,0.024 -0.245,0.074c-0.054,0.049 -0.089,0.12 -0.105,0.213l-0.08,0.457l1.315,0c0.037,0 0.06,0.007 0.068,0.022c0.007,0.014 0.008,0.042 0.001,0.082l-0.042,0.24c-0.006,0.034 -0.016,0.06 -0.029,0.076c-0.013,0.016 -0.038,0.024 -0.076,0.024l-1.314,0l-0.11,0.632c-0.016,0.092 -0.005,0.163 0.035,0.21c0.04,0.048 0.112,0.072 0.216,0.072l1.184,0c0.04,0 0.064,0.007 0.072,0.021c0.008,0.015 0.008,0.043 0.001,0.084l-0.048,0.272Zm0.951,0.01c-0.007,0.04 -0.018,0.066 -0.033,0.076c-0.015,0.01 -0.043,0.015 -0.083,0.015l-0.331,0c-0.032,0 -0.055,-0.006 -0.071,-0.017c-0.015,-0.012 -0.02,-0.036 -0.013,-0.074l0.379,-2.176c0.018,-0.102 0.047,-0.2 0.088,-0.294c0.041,-0.094 0.099,-0.178 0.172,-0.25c0.074,-0.073 0.163,-0.131 0.27,-0.174c0.106,-0.044 0.233,-0.065 0.381,-0.065l1.197,0c0.041,0 0.064,0.008 0.072,0.024c0.007,0.015 0.008,0.041 0.002,0.076l-0.047,0.27c-0.007,0.037 -0.017,0.063 -0.031,0.078c-0.014,0.014 -0.04,0.022 -0.078,0.022l-1.14,0c-0.11,0 -0.192,0.023 -0.245,0.071c-0.054,0.048 -0.089,0.119 -0.105,0.211l-0.384,2.207Zm4.381,-1.445c-0.088,0.505 -0.267,0.895 -0.537,1.171c-0.27,0.275 -0.63,0.413 -1.08,0.413c-0.438,0 -0.743,-0.133 -0.914,-0.398c-0.171,-0.266 -0.212,-0.655 -0.123,-1.169c0.044,-0.249 0.115,-0.471 0.214,-0.665c0.099,-0.195 0.219,-0.359 0.36,-0.494c0.141,-0.135 0.299,-0.238 0.472,-0.309c0.173,-0.071 0.357,-0.107 0.552,-0.107c0.217,0 0.403,0.036 0.558,0.107c0.154,0.071 0.275,0.174 0.362,0.309c0.086,0.135 0.141,0.299 0.164,0.491c0.023,0.193 0.014,0.41 -0.028,0.651Zm-0.552,0.017c0.025,-0.145 0.039,-0.283 0.04,-0.415c0.001,-0.132 -0.018,-0.249 -0.057,-0.351c-0.038,-0.101 -0.103,-0.182 -0.192,-0.241c-0.09,-0.06 -0.213,-0.089 -0.37,-0.089c-0.134,0 -0.254,0.028 -0.363,0.085c-0.109,0.056 -0.204,0.134 -0.286,0.232c-0.083,0.099 -0.151,0.213 -0.206,0.342c-0.054,0.129 -0.094,0.268 -0.12,0.416c-0.029,0.168 -0.044,0.32 -0.043,0.457c0.001,0.136 0.024,0.253 0.068,0.35c0.044,0.097 0.111,0.172 0.202,0.224c0.091,0.052 0.211,0.078 0.359,0.078c0.148,0 0.277,-0.03 0.388,-0.091c0.11,-0.061 0.205,-0.141 0.283,-0.242c0.079,-0.1 0.142,-0.215 0.189,-0.346c0.047,-0.13 0.083,-0.266 0.108,-0.409Zm0.949,1.519l-0.164,0.64c-0.008,0.032 -0.019,0.053 -0.033,0.063c-0.013,0.01 -0.031,0.015 -0.055,0.015l-0.287,0c-0.02,0 -0.035,-0.005 -0.045,-0.015c-0.01,-0.01 -0.013,-0.031 -0.011,-0.063l0.095,-0.892c0.008,-0.05 0.026,-0.095 0.052,-0.137c0.026,-0.042 0.073,-0.066 0.141,-0.072l0.159,-0.013c0.062,-0.058 0.116,-0.118 0.16,-0.181c0.044,-0.062 0.083,-0.13 0.118,-0.202c0.034,-0.073 0.066,-0.153 0.096,-0.242c0.03,-0.088 0.062,-0.187 0.095,-0.298l0.42,-1.384c0.03,-0.089 0.074,-0.156 0.131,-0.2c0.057,-0.043 0.136,-0.065 0.237,-0.065l1.345,0c0.107,0 0.178,0.024 0.212,0.072c0.033,0.048 0.042,0.121 0.024,0.22l-0.398,2.289l0.177,0.008c0.068,0.006 0.108,0.026 0.118,0.059c0.01,0.033 0.01,0.069 0.001,0.107l-0.219,0.931c-0.008,0.032 -0.019,0.053 -0.031,0.063c-0.012,0.01 -0.029,0.015 -0.052,0.015l-0.292,0c-0.023,0 -0.038,-0.005 -0.045,-0.015c-0.007,-0.01 -0.009,-0.031 -0.006,-0.063l0.085,-0.64l-2.028,0Zm2.134,-2.58l-0.949,0l-0.255,0.861c-0.065,0.227 -0.12,0.409 -0.165,0.548c-0.044,0.14 -0.084,0.253 -0.12,0.34c-0.035,0.087 -0.068,0.156 -0.099,0.207c-0.031,0.051 -0.066,0.102 -0.107,0.154l1.327,0l0.368,-2.11Zm3.216,2.489c-0.007,0.04 -0.018,0.066 -0.033,0.076c-0.014,0.01 -0.042,0.015 -0.083,0.015l-0.331,0c-0.034,0 -0.059,-0.006 -0.073,-0.017c-0.014,-0.012 -0.017,-0.036 -0.011,-0.074l0.223,-1.28l-1.353,0l-0.223,1.28c-0.007,0.04 -0.019,0.066 -0.035,0.076c-0.016,0.01 -0.045,0.015 -0.085,0.015l-0.331,0c-0.032,0 -0.056,-0.006 -0.071,-0.017c-0.016,-0.012 -0.02,-0.036 -0.013,-0.074l0.499,-2.864c0.006,-0.037 0.019,-0.062 0.038,-0.074c0.02,-0.011 0.046,-0.017 0.077,-0.017l0.331,0c0.041,0 0.068,0.005 0.08,0.015c0.013,0.01 0.016,0.036 0.009,0.076l-0.197,1.127l1.354,0l0.196,-1.127c0.007,-0.037 0.019,-0.062 0.037,-0.074c0.018,-0.011 0.044,-0.017 0.079,-0.017l0.331,0c0.04,0 0.067,0.005 0.078,0.015c0.011,0.01 0.013,0.036 0.006,0.076l-0.499,2.864Zm2.293,-0.575l-1.106,0l-0.294,0.592c-0.013,0.026 -0.029,0.045 -0.047,0.057c-0.018,0.011 -0.044,0.017 -0.079,0.017l-0.401,0c-0.032,0 -0.05,-0.009 -0.056,-0.028c-0.005,-0.019 -0.001,-0.04 0.011,-0.063l1.42,-2.755c0.023,-0.043 0.043,-0.078 0.062,-0.104c0.019,-0.026 0.041,-0.047 0.065,-0.061c0.024,-0.015 0.052,-0.026 0.082,-0.033c0.03,-0.007 0.066,-0.011 0.106,-0.011l0.187,0c0.09,0 0.152,0.014 0.185,0.042c0.033,0.027 0.056,0.083 0.071,0.167l0.464,2.755c0.005,0.023 0.002,0.044 -0.009,0.063c-0.01,0.019 -0.032,0.028 -0.064,0.028l-0.4,0c-0.032,0 -0.057,-0.003 -0.074,-0.011c-0.018,-0.007 -0.03,-0.026 -0.036,-0.058l-0.087,-0.597Zm-0.896,-0.452l0.836,0l-0.1,-0.731l-0.075,-0.618l-0.021,0l-0.284,0.605l-0.356,0.744Zm3.741,-0.148l-0.509,0c-0.139,0 -0.259,0.027 -0.36,0.083c-0.101,0.055 -0.185,0.159 -0.253,0.313l-0.353,0.801c-0.015,0.034 -0.034,0.055 -0.058,0.061c-0.024,0.005 -0.048,0.008 -0.071,0.008l-0.383,0c-0.038,0 -0.057,-0.009 -0.059,-0.028c0,-0.019 0.004,-0.04 0.014,-0.063l0.38,-0.862c0.048,-0.107 0.107,-0.198 0.177,-0.274c0.069,-0.075 0.169,-0.134 0.298,-0.174l0,-0.004c-0.153,-0.067 -0.259,-0.167 -0.315,-0.299c-0.057,-0.132 -0.07,-0.285 -0.04,-0.459c0.023,-0.13 0.066,-0.25 0.13,-0.359c0.064,-0.108 0.145,-0.202 0.243,-0.28c0.097,-0.079 0.209,-0.14 0.334,-0.183c0.125,-0.044 0.261,-0.065 0.409,-0.065l1.023,0c0.093,0 0.153,0.02 0.181,0.061c0.028,0.04 0.034,0.103 0.019,0.187l-0.476,2.733c-0.005,0.032 -0.015,0.051 -0.029,0.058c-0.015,0.008 -0.036,0.011 -0.065,0.011l-0.37,0c-0.032,0 -0.054,-0.003 -0.066,-0.011c-0.012,-0.007 -0.015,-0.026 -0.009,-0.058l0.208,-1.197Zm-0.996,-0.875c-0.021,0.122 0,0.224 0.064,0.307c0.064,0.083 0.184,0.124 0.361,0.124l0.644,0l0.15,-0.862l-0.67,0c-0.099,0 -0.181,0.015 -0.247,0.044c-0.066,0.029 -0.12,0.064 -0.162,0.106c-0.042,0.043 -0.074,0.089 -0.096,0.14c-0.022,0.05 -0.037,0.098 -0.044,0.141Zm5.552,2.05c-0.007,0.04 -0.018,0.066 -0.033,0.076c-0.015,0.01 -0.043,0.015 -0.083,0.015l-0.331,0c-0.035,0 -0.059,-0.006 -0.073,-0.017c-0.014,-0.012 -0.018,-0.036 -0.011,-0.074l0.223,-1.28l-1.354,0l-0.223,1.28c-0.007,0.04 -0.018,0.066 -0.035,0.076c-0.016,0.01 -0.045,0.015 -0.085,0.015l-0.331,0c-0.032,0 -0.055,-0.006 -0.071,-0.017c-0.015,-0.012 -0.02,-0.036 -0.013,-0.074l0.499,-2.864c0.006,-0.037 0.019,-0.062 0.039,-0.074c0.019,-0.011 0.045,-0.017 0.077,-0.017l0.331,0c0.04,0 0.067,0.005 0.08,0.015c0.012,0.01 0.015,0.036 0.008,0.076l-0.196,1.127l1.353,0l0.197,-1.127c0.006,-0.037 0.018,-0.062 0.036,-0.074c0.019,-0.011 0.045,-0.017 0.08,-0.017l0.33,0c0.041,0 0.067,0.005 0.078,0.015c0.011,0.01 0.014,0.036 0.007,0.076l-0.499,2.864Zm2.292,-0.575l-1.105,0l-0.295,0.592c-0.013,0.026 -0.029,0.045 -0.047,0.057c-0.017,0.011 -0.044,0.017 -0.079,0.017l-0.4,0c-0.032,0 -0.051,-0.009 -0.056,-0.028c-0.006,-0.019 -0.002,-0.04 0.011,-0.063l1.42,-2.755c0.022,-0.043 0.042,-0.078 0.062,-0.104c0.019,-0.026 0.04,-0.047 0.065,-0.061c0.024,-0.015 0.051,-0.026 0.081,-0.033c0.031,-0.007 0.066,-0.011 0.107,-0.011l0.187,0c0.09,0 0.151,0.014 0.184,0.042c0.033,0.027 0.057,0.083 0.071,0.167l0.464,2.755c0.005,0.023 0.002,0.044 -0.008,0.063c-0.011,0.019 -0.032,0.028 -0.064,0.028l-0.4,0c-0.032,0 -0.057,-0.003 -0.075,-0.011c-0.017,-0.007 -0.029,-0.026 -0.035,-0.058l-0.088,-0.597Zm-0.896,-0.452l0.836,0l-0.099,-0.731l-0.075,-0.618l-0.022,0l-0.284,0.605l-0.356,0.744Zm4.37,0.64l0.167,0.017c0.04,0.006 0.069,0.014 0.089,0.026c0.02,0.012 0.033,0.026 0.04,0.044c0.007,0.017 0.009,0.035 0.006,0.054c-0.003,0.019 -0.007,0.038 -0.01,0.059l-0.213,0.922c-0.008,0.032 -0.019,0.053 -0.033,0.063c-0.013,0.011 -0.03,0.016 -0.05,0.016l-0.287,0c-0.044,0 -0.063,-0.026 -0.056,-0.079l0.081,-0.644l-1.954,0c-0.087,0 -0.151,-0.024 -0.192,-0.072c-0.041,-0.047 -0.052,-0.122 -0.035,-0.224l0.467,-2.68c0.006,-0.032 0.016,-0.053 0.031,-0.061c0.014,-0.009 0.036,-0.013 0.065,-0.013l0.365,0c0.032,0 0.054,0.004 0.066,0.013c0.011,0.008 0.014,0.029 0.009,0.061l-0.438,2.511l1.349,0l0.438,-2.511c0.005,-0.032 0.015,-0.053 0.03,-0.061c0.014,-0.009 0.036,-0.013 0.065,-0.013l0.361,0c0.032,0 0.054,0.004 0.066,0.013c0.011,0.008 0.014,0.029 0.009,0.061l-0.436,2.498Zm2.938,-1.807l-0.498,0.662l-1.107,1.436c-0.057,0.073 -0.104,0.122 -0.144,0.148c-0.039,0.026 -0.098,0.039 -0.176,0.039l-0.153,0c-0.098,0 -0.161,-0.022 -0.188,-0.067c-0.027,-0.045 -0.033,-0.11 -0.018,-0.194l0.473,-2.715c0.005,-0.032 0.015,-0.053 0.03,-0.061c0.014,-0.009 0.036,-0.013 0.065,-0.013l0.361,0c0.032,0 0.053,0.004 0.063,0.013c0.01,0.008 0.013,0.029 0.007,0.061l-0.383,2.202l0.017,0l0.467,-0.61l1.136,-1.475c0.057,-0.075 0.105,-0.126 0.144,-0.152c0.04,-0.026 0.097,-0.039 0.173,-0.039l0.156,0c0.096,0 0.158,0.021 0.187,0.063c0.029,0.042 0.036,0.109 0.02,0.202l-0.473,2.711c-0.005,0.032 -0.016,0.052 -0.03,0.061c-0.015,0.009 -0.036,0.013 -0.065,0.013l-0.362,0c-0.032,0 -0.053,-0.004 -0.063,-0.013c-0.01,-0.009 -0.012,-0.029 -0.006,-0.061l0.385,-2.211l-0.018,0Zm3.555,0.749c-0.088,0.505 -0.267,0.895 -0.537,1.171c-0.27,0.275 -0.63,0.413 -1.079,0.413c-0.438,0 -0.743,-0.133 -0.914,-0.398c-0.172,-0.266 -0.213,-0.655 -0.123,-1.169c0.043,-0.249 0.114,-0.471 0.214,-0.665c0.099,-0.195 0.219,-0.359 0.36,-0.494c0.141,-0.135 0.298,-0.238 0.472,-0.309c0.173,-0.071 0.357,-0.107 0.551,-0.107c0.218,0 0.404,0.036 0.558,0.107c0.155,0.071 0.275,0.174 0.362,0.309c0.087,0.135 0.141,0.299 0.164,0.491c0.023,0.193 0.014,0.41 -0.028,0.651Zm-0.551,0.017c0.025,-0.145 0.038,-0.283 0.039,-0.415c0.002,-0.132 -0.017,-0.249 -0.056,-0.351c-0.039,-0.101 -0.103,-0.182 -0.193,-0.241c-0.09,-0.06 -0.213,-0.089 -0.37,-0.089c-0.133,0 -0.254,0.028 -0.362,0.085c-0.109,0.056 -0.204,0.134 -0.287,0.232c-0.082,0.099 -0.151,0.213 -0.205,0.342c-0.055,0.129 -0.095,0.268 -0.121,0.416c-0.029,0.168 -0.043,0.32 -0.042,0.457c0.001,0.136 0.023,0.253 0.067,0.35c0.044,0.097 0.112,0.172 0.203,0.224c0.091,0.052 0.21,0.078 0.358,0.078c0.148,0 0.277,-0.03 0.388,-0.091c0.111,-0.061 0.205,-0.141 0.284,-0.242c0.078,-0.1 0.141,-0.215 0.188,-0.346c0.048,-0.13 0.084,-0.266 0.109,-0.409Zm3.21,1.428c-0.007,0.04 -0.018,0.066 -0.033,0.076c-0.015,0.01 -0.043,0.015 -0.083,0.015l-0.331,0c-0.035,0 -0.059,-0.006 -0.073,-0.017c-0.014,-0.012 -0.018,-0.036 -0.011,-0.074l0.223,-1.28l-1.354,0l-0.222,1.28c-0.008,0.04 -0.019,0.066 -0.036,0.076c-0.016,0.01 -0.044,0.015 -0.085,0.015l-0.331,0c-0.032,0 -0.055,-0.006 -0.071,-0.017c-0.015,-0.012 -0.019,-0.036 -0.013,-0.074l0.499,-2.864c0.007,-0.037 0.02,-0.062 0.039,-0.074c0.02,-0.011 0.045,-0.017 0.077,-0.017l0.331,0c0.04,0 0.067,0.005 0.08,0.015c0.012,0.01 0.015,0.036 0.008,0.076l-0.196,1.127l1.353,0l0.197,-1.127c0.006,-0.037 0.019,-0.062 0.037,-0.074c0.018,-0.011 0.044,-0.017 0.079,-0.017l0.33,0c0.041,0 0.067,0.005 0.078,0.015c0.012,0.01 0.014,0.036 0.007,0.076l-0.499,2.864Zm2.292,-0.575l-1.105,0l-0.294,0.592c-0.014,0.026 -0.029,0.045 -0.047,0.057c-0.018,0.011 -0.045,0.017 -0.08,0.017l-0.4,0c-0.032,0 -0.05,-0.009 -0.056,-0.028c-0.005,-0.019 -0.002,-0.04 0.011,-0.063l1.42,-2.755c0.022,-0.043 0.042,-0.078 0.062,-0.104c0.019,-0.026 0.04,-0.047 0.065,-0.061c0.024,-0.015 0.051,-0.026 0.081,-0.033c0.031,-0.007 0.066,-0.011 0.107,-0.011l0.187,0c0.09,0 0.151,0.014 0.184,0.042c0.033,0.027 0.057,0.083 0.071,0.167l0.465,2.755c0.004,0.023 0.001,0.044 -0.009,0.063c-0.011,0.019 -0.032,0.028 -0.064,0.028l-0.4,0c-0.032,0 -0.057,-0.003 -0.075,-0.011c-0.017,-0.007 -0.029,-0.026 -0.035,-0.058l-0.088,-0.597Zm-0.896,-0.452l0.836,0l-0.099,-0.731l-0.075,-0.618l-0.022,0l-0.284,0.605l-0.356,0.744Zm2.752,-1.636c0.024,-0.105 0.063,-0.18 0.115,-0.225c0.053,-0.045 0.124,-0.067 0.214,-0.067l1.428,0c0.185,0 0.261,0.097 0.228,0.292l-0.467,2.68c-0.006,0.032 -0.015,0.052 -0.028,0.061c-0.014,0.009 -0.036,0.013 -0.068,0.013l-0.37,0c-0.029,0 -0.049,-0.004 -0.061,-0.013c-0.011,-0.009 -0.014,-0.029 -0.009,-0.061l0.437,-2.506l-0.962,0l-0.092,0.378c-0.08,0.325 -0.153,0.615 -0.223,0.871c-0.069,0.255 -0.149,0.477 -0.243,0.665c-0.093,0.189 -0.208,0.344 -0.345,0.466c-0.136,0.122 -0.312,0.213 -0.525,0.274c-0.031,0.006 -0.054,0.005 -0.072,-0.002c-0.017,-0.007 -0.029,-0.027 -0.035,-0.059l-0.047,-0.256c-0.001,-0.027 0.002,-0.048 0.009,-0.066c0.008,-0.017 0.029,-0.033 0.063,-0.048c0.131,-0.052 0.238,-0.119 0.32,-0.2c0.082,-0.081 0.154,-0.19 0.216,-0.326c0.061,-0.137 0.119,-0.307 0.174,-0.512c0.054,-0.204 0.119,-0.457 0.195,-0.759l0.148,-0.6Zm2.331,2.754c-0.093,0 -0.154,-0.019 -0.182,-0.058c-0.028,-0.04 -0.034,-0.103 -0.019,-0.19l0.476,-2.728c0.005,-0.032 0.015,-0.053 0.03,-0.061c0.014,-0.009 0.036,-0.013 0.065,-0.013l0.37,0c0.032,0 0.053,0.004 0.063,0.013c0.01,0.008 0.012,0.029 0.007,0.061l-0.185,1.061l0.714,0c0.165,0 0.303,0.017 0.413,0.051c0.11,0.033 0.2,0.077 0.271,0.132c0.07,0.055 0.123,0.117 0.159,0.185c0.036,0.068 0.06,0.139 0.072,0.211c0.012,0.073 0.016,0.142 0.011,0.209c-0.004,0.067 -0.011,0.126 -0.02,0.178c-0.024,0.137 -0.072,0.263 -0.146,0.379c-0.074,0.116 -0.165,0.216 -0.273,0.3c-0.107,0.084 -0.227,0.151 -0.358,0.198c-0.132,0.048 -0.269,0.072 -0.411,0.072l-1.057,0Zm1.701,-0.975c0.025,-0.139 0.001,-0.256 -0.071,-0.35c-0.073,-0.094 -0.194,-0.141 -0.365,-0.141l-0.718,0l-0.172,0.988l0.709,0c0.104,0 0.194,-0.017 0.267,-0.051c0.075,-0.033 0.136,-0.074 0.185,-0.124c0.05,-0.049 0.087,-0.103 0.113,-0.161c0.026,-0.058 0.044,-0.111 0.052,-0.161Zm3.223,0.884c-0.008,0.04 -0.018,0.066 -0.033,0.076c-0.015,0.01 -0.043,0.015 -0.084,0.015l-0.33,0c-0.035,0 -0.059,-0.006 -0.073,-0.017c-0.014,-0.012 -0.018,-0.036 -0.011,-0.074l0.223,-1.28l-1.354,0l-0.223,1.28c-0.007,0.04 -0.019,0.066 -0.035,0.076c-0.016,0.01 -0.045,0.015 -0.085,0.015l-0.331,0c-0.032,0 -0.055,-0.006 -0.071,-0.017c-0.015,-0.012 -0.02,-0.036 -0.013,-0.074l0.499,-2.864c0.006,-0.037 0.019,-0.062 0.039,-0.074c0.019,-0.011 0.045,-0.017 0.077,-0.017l0.331,0c0.04,0 0.067,0.005 0.08,0.015c0.012,0.01 0.015,0.036 0.008,0.076l-0.196,1.127l1.353,0l0.197,-1.127c0.006,-0.037 0.018,-0.062 0.036,-0.074c0.018,-0.011 0.045,-0.017 0.079,-0.017l0.331,0c0.041,0 0.067,0.005 0.078,0.015c0.011,0.01 0.013,0.036 0.007,0.076l-0.499,2.864Zm2.292,-0.575l-1.105,0l-0.295,0.592c-0.013,0.026 -0.029,0.045 -0.047,0.057c-0.018,0.011 -0.044,0.017 -0.079,0.017l-0.4,0c-0.032,0 -0.051,-0.009 -0.056,-0.028c-0.006,-0.019 -0.002,-0.04 0.011,-0.063l1.42,-2.755c0.022,-0.043 0.042,-0.078 0.061,-0.104c0.02,-0.026 0.041,-0.047 0.065,-0.061c0.025,-0.015 0.052,-0.026 0.082,-0.033c0.03,-0.007 0.066,-0.011 0.107,-0.011l0.187,0c0.09,0 0.151,0.014 0.184,0.042c0.033,0.027 0.057,0.083 0.071,0.167l0.464,2.755c0.005,0.023 0.002,0.044 -0.008,0.063c-0.011,0.019 -0.032,0.028 -0.064,0.028l-0.401,0c-0.032,0 -0.056,-0.003 -0.074,-0.011c-0.017,-0.007 -0.029,-0.026 -0.035,-0.058l-0.088,-0.597Zm-0.896,-0.452l0.836,0l-0.099,-0.731l-0.075,-0.618l-0.022,0l-0.284,0.605l-0.356,0.744Zm3.742,-0.148l-0.509,0c-0.14,0 -0.26,0.027 -0.361,0.083c-0.101,0.055 -0.185,0.159 -0.252,0.313l-0.353,0.801c-0.015,0.034 -0.035,0.055 -0.059,0.061c-0.024,0.005 -0.048,0.008 -0.071,0.008l-0.383,0c-0.038,0 -0.057,-0.009 -0.058,-0.028c-0.001,-0.019 0.003,-0.04 0.013,-0.063l0.381,-0.862c0.048,-0.107 0.106,-0.198 0.176,-0.274c0.07,-0.075 0.169,-0.134 0.298,-0.174l0.001,-0.004c-0.154,-0.067 -0.259,-0.167 -0.316,-0.299c-0.057,-0.132 -0.07,-0.285 -0.04,-0.459c0.023,-0.13 0.066,-0.25 0.13,-0.359c0.064,-0.108 0.145,-0.202 0.243,-0.28c0.098,-0.079 0.209,-0.14 0.334,-0.183c0.125,-0.044 0.262,-0.065 0.41,-0.065l1.022,0c0.093,0 0.153,0.02 0.181,0.061c0.028,0.04 0.035,0.103 0.02,0.187l-0.476,2.733c-0.006,0.032 -0.016,0.051 -0.03,0.058c-0.014,0.008 -0.036,0.011 -0.065,0.011l-0.37,0c-0.032,0 -0.054,-0.003 -0.065,-0.011c-0.012,-0.007 -0.015,-0.026 -0.01,-0.058l0.209,-1.197Zm-0.997,-0.875c-0.021,0.122 0,0.224 0.064,0.307c0.064,0.083 0.184,0.124 0.361,0.124l0.644,0l0.151,-0.862l-0.67,0c-0.099,0 -0.181,0.015 -0.247,0.044c-0.066,0.029 -0.121,0.064 -0.163,0.106c-0.042,0.043 -0.074,0.089 -0.096,0.14c-0.021,0.05 -0.036,0.098 -0.044,0.141Zm5.545,2.067c-0.006,0.032 -0.016,0.052 -0.03,0.061c-0.015,0.009 -0.038,0.013 -0.07,0.013l-0.361,0c-0.03,0 -0.05,-0.004 -0.061,-0.013c-0.012,-0.009 -0.015,-0.029 -0.009,-0.061l0.436,-2.506l-1.349,0l-0.436,2.506c-0.006,0.032 -0.016,0.052 -0.03,0.061c-0.015,0.009 -0.038,0.013 -0.07,0.013l-0.366,0c-0.029,0 -0.049,-0.004 -0.061,-0.013c-0.011,-0.009 -0.014,-0.029 -0.009,-0.061l0.467,-2.68c0.018,-0.102 0.056,-0.177 0.113,-0.225c0.058,-0.047 0.13,-0.071 0.217,-0.071l1.859,0c0.185,0 0.261,0.098 0.227,0.296l-0.467,2.68Zm1.107,-0.017c-0.007,0.04 -0.018,0.066 -0.033,0.076c-0.014,0.01 -0.042,0.015 -0.083,0.015l-0.326,0c-0.032,0 -0.056,-0.006 -0.071,-0.017c-0.016,-0.012 -0.02,-0.036 -0.013,-0.074l0.473,-2.716c0.014,-0.081 0.042,-0.143 0.084,-0.185c0.042,-0.042 0.11,-0.063 0.203,-0.063l1.035,0c0.145,0 0.274,0.023 0.387,0.068c0.112,0.045 0.204,0.108 0.275,0.191c0.072,0.083 0.121,0.182 0.149,0.296c0.028,0.115 0.03,0.24 0.006,0.376c-0.013,0.079 -0.042,0.172 -0.086,0.281c-0.043,0.109 -0.111,0.214 -0.203,0.316c-0.091,0.101 -0.21,0.188 -0.356,0.259c-0.146,0.071 -0.327,0.106 -0.545,0.106l-0.709,0l-0.187,1.071Zm1.532,-1.998c0.009,-0.049 0.01,-0.103 0.004,-0.161c-0.006,-0.058 -0.024,-0.111 -0.055,-0.158c-0.031,-0.048 -0.078,-0.088 -0.142,-0.12c-0.064,-0.032 -0.15,-0.048 -0.257,-0.048l-0.645,0l-0.168,0.966l0.653,0c0.183,0 0.324,-0.045 0.424,-0.135c0.1,-0.09 0.162,-0.204 0.186,-0.344" style="fill:#1c2023;fill-rule:nonzero;"/><path d="M83.648,35.765c-0.006,0.032 -0.016,0.057 -0.031,0.075c-0.014,0.018 -0.041,0.026 -0.078,0.026l-1.241,0c-0.153,0 -0.276,-0.022 -0.367,-0.065c-0.091,-0.044 -0.16,-0.102 -0.207,-0.174c-0.046,-0.073 -0.073,-0.155 -0.08,-0.248c-0.008,-0.093 -0.002,-0.19 0.015,-0.292l0.26,-1.488c0.017,-0.102 0.048,-0.2 0.092,-0.294c0.044,-0.094 0.104,-0.178 0.179,-0.25c0.075,-0.073 0.165,-0.131 0.272,-0.174c0.106,-0.044 0.229,-0.065 0.368,-0.065l1.214,0c0.038,0 0.06,0.008 0.068,0.024c0.007,0.015 0.008,0.041 0.002,0.076l-0.048,0.274c-0.007,0.038 -0.016,0.063 -0.029,0.076c-0.012,0.013 -0.037,0.02 -0.075,0.02l-1.157,0c-0.111,0 -0.193,0.024 -0.246,0.074c-0.054,0.049 -0.089,0.12 -0.105,0.213l-0.079,0.457l1.314,0c0.038,0 0.06,0.007 0.068,0.022c0.007,0.014 0.008,0.042 0.001,0.082l-0.042,0.24c-0.006,0.034 -0.016,0.06 -0.029,0.076c-0.013,0.016 -0.038,0.024 -0.076,0.024l-1.314,0l-0.11,0.632c-0.016,0.092 -0.004,0.163 0.035,0.21c0.04,0.048 0.112,0.072 0.216,0.072l1.184,0c0.041,0 0.065,0.007 0.072,0.021c0.008,0.015 0.008,0.043 0.001,0.084l-0.047,0.272Zm3.259,-2.001l-0.027,0l-0.333,0.592l-0.555,0.962c-0.045,0.075 -0.085,0.126 -0.12,0.152c-0.035,0.026 -0.089,0.039 -0.161,0.039l-0.196,0c-0.073,0 -0.122,-0.013 -0.148,-0.039c-0.026,-0.026 -0.047,-0.077 -0.063,-0.152l-0.223,-0.918l-0.133,-0.583l-0.026,0l-0.341,1.958c-0.007,0.04 -0.019,0.066 -0.035,0.076c-0.017,0.01 -0.044,0.015 -0.081,0.015l-0.314,0c-0.032,0 -0.055,-0.005 -0.071,-0.015c-0.016,-0.01 -0.02,-0.036 -0.013,-0.076l0.469,-2.694c0.016,-0.09 0.045,-0.157 0.088,-0.2c0.042,-0.044 0.112,-0.065 0.211,-0.065l0.179,0c0.075,0 0.129,0.013 0.162,0.039c0.034,0.026 0.059,0.078 0.078,0.156l0.295,1.276l0.153,0.674l0.017,0l0.388,-0.679l0.735,-1.271c0.046,-0.078 0.091,-0.13 0.136,-0.156c0.045,-0.026 0.106,-0.039 0.181,-0.039l0.165,0c0.093,0 0.155,0.02 0.186,0.061c0.03,0.04 0.038,0.105 0.022,0.195l-0.471,2.703c-0.007,0.04 -0.018,0.066 -0.035,0.076c-0.016,0.01 -0.043,0.015 -0.081,0.015l-0.309,0c-0.032,0 -0.055,-0.005 -0.069,-0.015c-0.014,-0.01 -0.018,-0.036 -0.011,-0.076l0.351,-2.011Zm3.047,-0.183l-0.499,0.662l-1.107,1.436c-0.056,0.073 -0.104,0.122 -0.144,0.148c-0.039,0.026 -0.098,0.039 -0.176,0.039l-0.152,0c-0.099,0 -0.162,-0.022 -0.189,-0.067c-0.027,-0.045 -0.033,-0.11 -0.018,-0.194l0.473,-2.715c0.005,-0.032 0.015,-0.053 0.03,-0.061c0.014,-0.009 0.036,-0.013 0.065,-0.013l0.362,0c0.031,0 0.052,0.004 0.063,0.013c0.01,0.008 0.012,0.029 0.006,0.061l-0.383,2.202l0.017,0l0.468,-0.61l1.135,-1.475c0.057,-0.075 0.105,-0.126 0.145,-0.152c0.039,-0.026 0.096,-0.039 0.172,-0.039l0.156,0c0.096,0 0.159,0.021 0.188,0.063c0.028,0.042 0.035,0.109 0.019,0.202l-0.473,2.711c-0.005,0.032 -0.015,0.052 -0.03,0.061c-0.015,0.009 -0.036,0.013 -0.065,0.013l-0.362,0c-0.032,0 -0.052,-0.004 -0.062,-0.013c-0.011,-0.009 -0.013,-0.029 -0.007,-0.061l0.385,-2.211l-0.017,0Zm2.593,1.019l-0.509,0c-0.139,0 -0.259,0.027 -0.36,0.083c-0.101,0.055 -0.185,0.159 -0.253,0.313l-0.353,0.801c-0.014,0.034 -0.034,0.055 -0.058,0.061c-0.024,0.005 -0.048,0.008 -0.071,0.008l-0.383,0c-0.038,0 -0.057,-0.009 -0.058,-0.028c-0.001,-0.019 0.003,-0.04 0.013,-0.063l0.38,-0.862c0.048,-0.107 0.107,-0.198 0.177,-0.274c0.069,-0.075 0.169,-0.134 0.298,-0.174l0.001,-0.004c-0.154,-0.067 -0.26,-0.167 -0.316,-0.299c-0.057,-0.132 -0.07,-0.285 -0.04,-0.459c0.023,-0.13 0.066,-0.25 0.13,-0.359c0.064,-0.108 0.145,-0.202 0.243,-0.28c0.097,-0.079 0.209,-0.14 0.334,-0.183c0.125,-0.044 0.261,-0.065 0.409,-0.065l1.023,0c0.093,0 0.153,0.02 0.181,0.061c0.028,0.04 0.034,0.103 0.019,0.187l-0.476,2.733c-0.005,0.032 -0.015,0.051 -0.029,0.058c-0.015,0.008 -0.036,0.011 -0.065,0.011l-0.37,0c-0.032,0 -0.054,-0.003 -0.066,-0.011c-0.012,-0.007 -0.015,-0.026 -0.009,-0.058l0.208,-1.197Zm-0.996,-0.875c-0.021,0.122 0,0.224 0.064,0.307c0.064,0.083 0.184,0.124 0.361,0.124l0.644,0l0.15,-0.862l-0.67,0c-0.099,0 -0.181,0.015 -0.247,0.044c-0.066,0.029 -0.12,0.064 -0.162,0.106c-0.042,0.043 -0.074,0.089 -0.096,0.14c-0.022,0.05 -0.037,0.098 -0.044,0.141" style="fill:#1c2023;fill-rule:nonzero;"/><path d="M105.577,3.649c-0.164,0.899 -0.685,1.676 -1.566,2.332c-0.269,0.201 -0.559,0.402 -0.871,0.603l-3.857,2.458l5.314,0l-0.403,2.221l-8.567,0l0.548,-3.014l6.46,-4.124l0.144,-0.794c0.115,-0.634 -0.145,-0.951 -0.779,-0.951l-4.442,0l0.403,-2.221l5.077,0c1.11,0 1.871,0.251 2.282,0.753c0.411,0.503 0.516,1.309 0.314,2.419l-0.057,0.318Zm7.312,-0.476c0.115,-0.635 -0.144,-0.952 -0.779,-0.952l-1.745,0c-0.634,0 -1.01,0.317 -1.125,0.952l-0.922,5.076c-0.115,0.635 0.145,0.952 0.779,0.952l1.746,0c0.634,0 1.009,-0.317 1.124,-0.952l0.922,-5.076Zm1.934,5.076c-0.202,1.111 -0.6,1.917 -1.193,2.419c-0.594,0.503 -1.446,0.754 -2.556,0.754l-3.014,0c-1.111,0 -1.872,-0.251 -2.283,-0.754c-0.411,-0.502 -0.516,-1.308 -0.314,-2.419l0.922,-5.076c0.201,-1.111 0.599,-1.917 1.193,-2.42c0.593,-0.502 1.445,-0.753 2.556,-0.753l3.014,0c1.11,0 1.871,0.251 2.282,0.753c0.411,0.503 0.516,1.309 0.314,2.42l-0.921,5.076Zm2.316,3.014l1.57,-8.645l-1.94,0.634l-0.462,-1.824l3.165,-1.269l2.539,0l-2.017,11.104l-2.855,0Zm8.508,-4.442c-0.635,0 -1.009,0.318 -1.125,0.952l-0.115,0.635c-0.044,0.243 -0.008,0.436 0.109,0.579c0.117,0.143 0.297,0.214 0.54,0.214l2.38,0c0.243,0 0.449,-0.071 0.618,-0.214c0.168,-0.143 0.275,-0.336 0.319,-0.579l0.115,-0.635c0.115,-0.634 -0.144,-0.952 -0.779,-0.952l-2.062,0Zm1.153,-4.6c-0.635,0 -1.01,0.317 -1.125,0.952l-0.087,0.476c-0.115,0.634 0.145,0.951 0.78,0.951l1.427,0c0.635,0 1.01,-0.317 1.125,-0.951l0.086,-0.476c0.116,-0.635 -0.144,-0.952 -0.779,-0.952l-1.427,0Zm4.428,6.187c-0.188,1.036 -0.569,1.798 -1.144,2.284c-0.575,0.487 -1.38,0.73 -2.417,0.73l-3.649,0c-1.036,0 -1.753,-0.243 -2.152,-0.73c-0.398,-0.486 -0.503,-1.248 -0.315,-2.284l0.029,-0.159c0.146,-0.803 0.468,-1.47 0.966,-1.999c0.394,-0.423 0.88,-0.708 1.456,-0.856c-0.447,-0.159 -0.78,-0.437 -0.998,-0.833c-0.219,-0.397 -0.271,-0.912 -0.156,-1.547l0.029,-0.158c0.175,-0.963 0.548,-1.679 1.12,-2.15c0.572,-0.471 1.376,-0.706 2.413,-0.706l3.014,0c1.036,0 1.755,0.235 2.156,0.706c0.401,0.471 0.514,1.187 0.339,2.15l-0.028,0.158c-0.116,0.635 -0.355,1.15 -0.717,1.547c-0.363,0.396 -0.797,0.674 -1.302,0.833c0.815,0.232 1.293,0.803 1.434,1.713c0.046,0.328 0.03,0.709 -0.049,1.142l-0.029,0.159Z" style="fill:#1c2023;fill-rule:nonzero;"/><g><clipPath id="_clip1"><path d="M105.577,3.649c-0.164,0.899 -0.685,1.676 -1.566,2.332c-0.269,0.201 -0.559,0.402 -0.871,0.603l-3.857,2.458l5.314,0l-0.403,2.221l-8.567,0l0.548,-3.014l6.46,-4.124l0.144,-0.794c0.115,-0.634 -0.145,-0.951 -0.779,-0.951l-4.442,0l0.403,-2.221l5.077,0c1.11,0 1.871,0.251 2.282,0.753c0.411,0.503 0.516,1.309 0.314,2.419l-0.057,0.318Zm7.312,-0.476c0.115,-0.635 -0.144,-0.952 -0.779,-0.952l-1.745,0c-0.634,0 -1.01,0.317 -1.125,0.952l-0.922,5.076c-0.115,0.635 0.145,0.952 0.779,0.952l1.746,0c0.634,0 1.009,-0.317 1.124,-0.952l0.922,-5.076Zm1.934,5.076c-0.202,1.111 -0.6,1.917 -1.193,2.419c-0.594,0.503 -1.446,0.754 -2.556,0.754l-3.014,0c-1.111,0 -1.872,-0.251 -2.283,-0.754c-0.411,-0.502 -0.516,-1.308 -0.314,-2.419l0.922,-5.076c0.201,-1.111 0.599,-1.917 1.193,-2.42c0.593,-0.502 1.445,-0.753 2.556,-0.753l3.014,0c1.11,0 1.871,0.251 2.282,0.753c0.411,0.503 0.516,1.309 0.314,2.42l-0.921,5.076Zm2.316,3.014l1.57,-8.645l-1.94,0.634l-0.462,-1.824l3.165,-1.269l2.539,0l-2.017,11.104l-2.855,0Zm8.508,-4.442c-0.635,0 -1.009,0.318 -1.125,0.952l-0.115,0.635c-0.044,0.243 -0.008,0.436 0.109,0.579c0.117,0.143 0.297,0.214 0.54,0.214l2.38,0c0.243,0 0.449,-0.071 0.618,-0.214c0.168,-0.143 0.275,-0.336 0.319,-0.579l0.115,-0.635c0.115,-0.634 -0.144,-0.952 -0.779,-0.952l-2.062,0Zm1.153,-4.6c-0.635,0 -1.01,0.317 -1.125,0.952l-0.087,0.476c-0.115,0.634 0.145,0.951 0.78,0.951l1.427,0c0.635,0 1.01,-0.317 1.125,-0.951l0.086,-0.476c0.116,-0.635 -0.144,-0.952 -0.779,-0.952l-1.427,0Zm4.428,6.187c-0.188,1.036 -0.569,1.798 -1.144,2.284c-0.575,0.487 -1.38,0.73 -2.417,0.73l-3.649,0c-1.036,0 -1.753,-0.243 -2.152,-0.73c-0.398,-0.486 -0.503,-1.248 -0.315,-2.284l0.029,-0.159c0.146,-0.803 0.468,-1.47 0.966,-1.999c0.394,-0.423 0.88,-0.708 1.456,-0.856c-0.447,-0.159 -0.78,-0.437 -0.998,-0.833c-0.219,-0.397 -0.271,-0.912 -0.156,-1.547l0.029,-0.158c0.175,-0.963 0.548,-1.679 1.12,-2.15c0.572,-0.471 1.376,-0.706 2.413,-0.706l3.014,0c1.036,0 1.755,0.235 2.156,0.706c0.401,0.471 0.514,1.187 0.339,2.15l-0.028,0.158c-0.116,0.635 -0.355,1.15 -0.717,1.547c-0.363,0.396 -0.797,0.674 -1.302,0.833c0.815,0.232 1.293,0.803 1.434,1.713c0.046,0.328 0.03,0.709 -0.049,1.142l-0.029,0.159Z" clip-rule="nonzero"/></clipPath><g clip-path="url(#_clip1)"><path d="M106.673,12.822c3.158,-0.011 7.063,-0.027 9.839,-0.673c3.153,-0.869 5.725,-1.337 9.251,-1.535c3.324,-0.186 6.448,-0.236 10.155,0.464c3.969,0.75 7.66,1.908 12.506,3.086c4.847,1.178 12.051,-0.443 16.764,1.81l-0.092,-0.074c-4.795,-2.716 -11.558,-1.036 -16.597,-2.348c-5.039,-1.311 -8.749,-3.383 -12.768,-4.105c-3.473,-0.624 -6.832,-0.491 -9.978,-0.23c-3.487,0.288 -6.24,1.111 -9.334,2.155c-3.241,1.139 -6.61,1.375 -9.746,1.45" style="fill:#006db7;"/><path d="M106.728,12.728c3.159,-0.011 6.906,-0.399 9.784,-1.193c3.153,-0.868 5.725,-1.876 9.251,-2.074c3.324,-0.185 6.652,-0.31 10.359,0.391c3.969,0.749 7.456,2.521 12.302,3.699c4.847,1.178 12.165,0.062 16.878,2.315l-0.092,-0.074c-4.795,-2.716 -11.672,-1.542 -16.711,-2.853c-5.039,-1.312 -8.749,-3.384 -12.768,-4.106c-3.473,-0.623 -6.832,-0.49 -9.978,-0.23c-3.487,0.289 -6.24,1.111 -9.334,2.155c-2.823,0.953 -6.554,1.895 -9.691,1.97" style="fill:#fff;"/><path d="M106.276,12.927c3.182,-0.008 6.686,0.109 9.757,-0.406c6.401,-1.073 13.697,-1.566 20.13,-0.622c3.987,0.585 6.878,1.424 11.722,2.447c4.843,1.022 12.753,0.062 17.545,1.883l-0.146,-0.245c-4.732,-2.171 -12.195,-1.066 -16.96,-2.031c-5.325,-1.078 -8.455,-2.514 -12.495,-3.077c-3.49,-0.487 -7.103,-0.55 -10.275,-0.347c-3.517,0.225 -6.329,0.776 -9.458,1.591c-2.857,0.744 -6.659,0.748 -9.82,0.807" style="fill:#d22229;"/></g></g></g></svg>