<?xml version="1.0" encoding="UTF-8" standalone="no"?><!DOCTYPE svg PUBLIC "-//W3C//DTD SVG 1.1//EN" "http://www.w3.org/Graphics/SVG/1.1/DTD/svg11.dtd"><svg width="100%" height="100%" viewBox="0 0 896 730" version="1.1" xmlns="http://www.w3.org/2000/svg" xmlns:xlink="http://www.w3.org/1999/xlink" xml:space="preserve" xmlns:serif="http://www.serif.com/" style="fill-rule:evenodd;clip-rule:evenodd;stroke-linejoin:round;stroke-miterlimit:1.41421;"><path d="M122.861,0l-122.861,0l0,729.838l895.455,0l0,-729.838l-109.753,0" style="fill:#00467f;"/><clipPath id="_clip1"><path d="M122.861,0l-122.861,0l0,729.838l895.455,0l0,-729.838l-109.753,0"/></clipPath><g clip-path="url(#_clip1)"><path d="M895.076,483.088c0.998,-1.746 -0.053,-3.025 -2.261,-3.025c-11.516,0 -26.615,0.027 -38.619,0.027c-2.861,0 -4.331,0.345 -5.679,2.998c-4.426,8.492 -58.41,89.377 -68.457,105.086c-1.687,2.394 -3.762,2.065 -4.001,-0.663c-1.014,-9.33 -9.07,-20.05 -21.764,-25.182c-9.67,-3.928 -19.138,-4.639 -28.961,-3.333c-17.758,2.383 -33.573,11.755 -47.478,22.311c-20.958,15.937 -39.034,36.587 -62.374,51.845c-12.753,8.3 -30.198,15.544 -41.868,4.734c-10.572,-9.797 -9.383,-31.556 6.788,-48.385c1.698,-1.762 3.741,-0.292 3.423,1.295c-1.523,7.616 0.35,15.178 6.124,20.485c7.059,6.321 17.142,7.043 25.788,2.824c10.189,-5.053 16.181,-14.807 17.932,-25.878c2.707,-17.179 -10.518,-32.325 -27.061,-33.541c-13.437,-0.939 -26.318,3.737 -38.885,14.101c-6.289,5.217 -9.866,9.081 -15.306,16.824c-1.326,1.9 -3.37,2.096 -3.306,-0.717c0.632,-21.992 -8.47,-34.363 -26.652,-34.766c-14.106,-0.329 -29.179,7.318 -40.934,16.69c-12.87,10.344 -24.142,24.052 -36.205,36.933c-1.507,1.581 -2.818,1.512 -3.237,-1.566c-0.361,-14.568 -4.028,-28.685 -10.768,-38.699c-2.389,-3.493 -7.404,-5.217 -11.623,-2.856c-1.948,1.067 -8.735,4.182 -13.66,8.157c-2.452,2.017 -3.402,4.931 -2.33,8.672c6.517,21.765 5.079,46.512 -3.747,67.416c-8.104,19.138 -23.866,36.407 -42.383,42.25c-12.201,3.864 -24.89,1.974 -32.739,-8.847c-10.779,-14.929 -6.427,-40.891 9.638,-62.448c14.185,-18.979 34.692,-31.042 55.156,-38.806c2.41,-0.923 2.903,-2.468 2.224,-4.516c-1.114,-3.37 -2.882,-7.945 -3.614,-10.041c-1.874,-4.989 -7.133,-5.806 -13.544,-5.106c-14.86,1.73 -28.276,6.825 -41.523,13.915c-34.682,18.575 -52.073,54.531 -59.699,73.764c-3.668,9.234 -6.809,15.003 -10.864,20.114c-5.466,6.872 -12.328,13.124 -24.885,24.152c-1.136,1.009 -1.98,3.121 -1.03,5.079c1.285,2.654 7.813,11.867 9.654,12.69c2.049,1.008 4.416,-0.398 5.365,-1.083c8.784,-5.955 19.292,-15.385 24.44,-21.786c1.799,-2.192 3.651,-1.273 4.606,2.054c4.803,17.126 17.37,31.105 34.746,36.948c31.805,10.731 64.8,-4.797 89.695,-31.826c15.831,-17.174 21.542,-28.224 27.603,-35.733c10.279,-12.743 30.553,-41.236 54.705,-59.53c8.863,-6.74 19.345,-11.888 24.62,-8.476c4.23,2.739 5.599,9.113 -1.194,21.457c-24.625,44.967 -60.857,97.799 -67.501,110.611c-1.21,2.224 -0.154,3.97 2.17,3.97c12.881,-0.064 25.666,-0.032 37.357,-0.032c1.948,-0.091 2.818,-0.977 3.795,-2.351c18.893,-29.582 36.682,-57.742 55.745,-86.846c1.067,-1.719 2.049,-0.393 2.091,0.361c0.393,6.756 2.054,15.996 6.067,22.056c7.201,11.22 17.412,16.038 28.743,16.107c9.006,0.107 13.565,-1.263 23.277,-4.887c7.913,-2.935 14.265,-6.788 19.137,-10.27c2.839,-1.974 3.338,1.332 3.264,1.842c-4.362,23.484 1.024,51.309 24.37,62.841c27.937,13.772 58.617,-5.577 76.279,-23.054c1.72,-1.687 3.577,-1.507 3.752,2.118c0.372,6.671 3.392,14.589 8.916,20.13c14.791,14.849 44.654,8.969 74.608,-14.229c19.238,-14.844 39.368,-35.823 57.561,-58.044c0.674,-0.854 1.172,-2.244 -0.122,-3.64c-2.771,-2.893 -6.783,-6.209 -9.527,-8.768c-1.258,-1.061 -3.088,-0.753 -4.15,0.043c-18.633,17.726 -35.409,37.935 -59.662,54.658c-8.179,5.705 -21.208,10.306 -27.061,2.388c-2.282,-3.073 -2.022,-7.334 0.228,-12.917c7.069,-17.631 119.001,-188.042 124.807,-198.099Zm-147.957,142.915c0.228,1.306 1.927,2.564 3.598,3.169c0.579,0.217 0.913,0.642 0.25,2.006c-4.761,10.2 -9.134,16.086 -15.104,24.948c-5.482,8.189 -11.66,14.579 -19.143,20.719c-11.288,9.346 -26.971,19.515 -39.93,12.679c-5.764,-2.993 -8.248,-11.044 -8.136,-17.572c0.302,-18.341 8.438,-37.171 23.5,-55.677c18.367,-22.613 38.672,-34.342 52.004,-27.931c13.782,6.576 9.378,22.539 3.211,35.075c-0.457,0.966 -0.489,1.788 -0.25,2.584Z" style="fill:#fff;fill-opacity:0.08;fill-rule:nonzero;"/><path d="M83.168,723.012c-41.735,0.302 -78.502,-25.495 -82.721,-70.149c-2.346,-24.742 4.649,-46.793 18.649,-64.959c12.424,-16.187 33.445,-29.635 51.24,-32.92c5.79,-1.062 13.57,-0.383 16.786,3.444c5.047,5.875 3.593,12.323 -1.449,14.897c-13.575,6.936 -29.91,18.798 -37.993,35c-6.56,13.226 -7.881,29.168 2.133,44.346c16.76,25.31 63.479,26.005 106.917,-14.355c10.752,-9.871 20.385,-19.361 30.171,-30.601c19.132,-21.876 25.495,-29.847 50.927,-65.129c0.303,-0.403 0.388,-0.945 0.255,-1.199c-0.212,-0.451 -0.568,-0.579 -1.306,-0.626c-16.977,0.467 -31.779,5.53 -46.166,16.287c-4.14,3.014 -10.105,2.59 -12.716,-1.385c-2.903,-4.495 -0.823,-10.354 3.959,-13.655c23.144,-16.097 48.427,-19.016 74.247,-23.378c-0.022,0 1.793,0.09 3.269,-1.874c10.598,-13.602 18.606,-25.872 29.9,-39.628c11.378,-13.957 26.095,-26.769 37.33,-36.396c15.683,-13.49 25.74,-18.023 35.956,-23.59c2.69,-1.401 -0.345,-3.089 -1.157,-3.089c-57.073,-10.725 -116.39,-24.603 -173.07,-3.619c-39.246,14.653 -56.447,45.779 -48.168,66.578c5.875,14.748 25.289,17.147 43.45,8.257c15.088,-7.392 29.046,-19.302 38.943,-34.644c5.546,-8.513 17.211,-2.373 10.912,12.418c-16.585,38.986 -48.274,69.905 -86.867,71.206c-32.846,1.066 -54.037,-23.097 -53.968,-52.907c0.122,-58.797 65.591,-97.529 134.381,-103.319c82.844,-6.846 161.31,15.221 243.57,25.199c63.022,7.631 123.443,7.796 186.783,-6.762c7.484,-1.624 12.738,3.153 12.255,10.715c-0.621,10.938 -9.081,21.462 -29.948,32.841c-23.728,13.018 -48.55,16.961 -74.475,17.173c-62.693,0.521 -121.082,-23.913 -181.508,-37.043c0.085,2.643 0.764,5.801 -1.454,7.467c-33.467,24.689 -63.723,49.759 -83.991,84.972c-0.684,0.812 -0.313,1.592 0.871,1.507c17.593,-0.934 33.418,-1.39 49.844,-2.701c2.866,-0.239 2.972,-0.95 2.717,-3.052c-1.443,-12.137 2.096,-25.978 12.774,-35.494c10.922,-9.802 24.609,-10.916 33.674,-3.858c10.322,8.04 9.409,22.486 3.763,33.324c-5.743,11.001 -15.221,16.876 -24.328,19.731c0,0 -1.9,0.42 -1.624,2.15c0.361,2.781 12.758,9.653 13.82,11.479c1.024,1.746 0.499,4.442 -1.386,6.512c-1.321,1.502 -3.37,2.919 -6.002,2.866c-2.133,-0.043 -3.428,-0.775 -6.14,-2.251c-5.567,-3.014 -12.52,-7.971 -17.153,-13.809c-1.587,-1.974 -2.383,-2.016 -6.331,-1.804c-17.774,1.024 -45.493,3.704 -64.274,6.05c-4.543,0.568 -5.217,1.417 -6.151,2.993c-29.938,49.372 -61.902,102.608 -96.998,138.25c-37.644,38.217 -68.934,48.274 -102.152,48.534Zm285.289,-219.364c0.467,2.537 1.46,3.025 2.606,2.813c5.7,-1.141 11.946,-5.838 15.629,-11.273c3.376,-4.925 4.952,-12.041 1.614,-14.891c-2.993,-2.564 -7.844,-1.837 -11.432,1.342c-7.164,6.326 -9.345,15.311 -8.417,22.009Z" style="fill:#fff;fill-opacity:0.08;fill-rule:nonzero;"/></g></svg>