<?xml version="1.0" encoding="UTF-8" standalone="no"?><!DOCTYPE svg PUBLIC "-//W3C//DTD SVG 1.1//EN" "http://www.w3.org/Graphics/SVG/1.1/DTD/svg11.dtd"><svg width="100%" height="100%" viewBox="0 0 162 31" version="1.1" xmlns="http://www.w3.org/2000/svg" xmlns:xlink="http://www.w3.org/1999/xlink" xml:space="preserve" xmlns:serif="http://www.serif.com/" style="fill-rule:evenodd;clip-rule:evenodd;stroke-linejoin:round;stroke-miterlimit:1.41421;"><path d="M40.086,0c-22.25,0 -40.086,6.669 -40.086,15.031c0,8.311 17.983,15.031 40.086,15.031c22.104,0 40.086,-6.743 40.086,-15.031c0,-8.288 -17.982,-15.031 -40.086,-15.031Z" style="fill:#00467f;fill-rule:nonzero;"/><path d="M63.636,10.719c0.052,-0.091 -0.003,-0.158 -0.119,-0.158c-0.604,0 -1.396,0.001 -2.026,0.001c-0.15,0 -0.227,0.018 -0.297,0.157c-0.233,0.446 -3.064,4.688 -3.591,5.512c-0.089,0.126 -0.197,0.108 -0.21,-0.035c-0.053,-0.489 -0.476,-1.051 -1.142,-1.321c-0.507,-0.206 -1.003,-0.243 -1.519,-0.174c-0.931,0.125 -1.76,0.616 -2.49,1.17c-1.099,0.836 -2.047,1.919 -3.271,2.719c-0.669,0.436 -1.584,0.815 -2.196,0.248c-0.555,-0.513 -0.493,-1.655 0.356,-2.537c0.089,-0.093 0.196,-0.016 0.179,0.068c-0.08,0.399 0.019,0.796 0.321,1.074c0.371,0.332 0.9,0.369 1.353,0.148c0.534,-0.265 0.849,-0.777 0.941,-1.357c0.142,-0.901 -0.552,-1.696 -1.42,-1.759c-0.705,-0.05 -1.38,0.196 -2.039,0.739c-0.33,0.274 -0.518,0.476 -0.803,0.883c-0.07,0.099 -0.177,0.11 -0.174,-0.038c0.034,-1.154 -0.444,-1.802 -1.398,-1.824c-0.739,-0.017 -1.53,0.384 -2.147,0.876c-0.675,0.542 -1.266,1.261 -1.899,1.937c-0.079,0.083 -0.147,0.079 -0.169,-0.082c-0.019,-0.764 -0.212,-1.505 -0.565,-2.03c-0.125,-0.183 -0.388,-0.274 -0.61,-0.15c-0.102,0.056 -0.458,0.22 -0.716,0.428c-0.129,0.106 -0.179,0.259 -0.122,0.455c0.341,1.142 0.266,2.44 -0.197,3.536c-0.425,1.004 -1.252,1.91 -2.223,2.216c-0.64,0.203 -1.305,0.104 -1.717,-0.464c-0.566,-0.783 -0.337,-2.145 0.505,-3.275c0.744,-0.996 1.82,-1.629 2.893,-2.036c0.127,-0.048 0.153,-0.129 0.117,-0.237c-0.058,-0.176 -0.151,-0.416 -0.19,-0.526c-0.098,-0.262 -0.374,-0.305 -0.71,-0.268c-0.779,0.091 -1.483,0.358 -2.178,0.73c-1.819,0.974 -2.731,2.86 -3.131,3.869c-0.193,0.484 -0.357,0.787 -0.57,1.055c-0.287,0.36 -0.647,0.688 -1.305,1.267c-0.06,0.052 -0.104,0.163 -0.054,0.266c0.067,0.139 0.41,0.622 0.506,0.665c0.108,0.053 0.232,-0.02 0.282,-0.056c0.46,-0.313 1.011,-0.807 1.281,-1.143c0.095,-0.115 0.192,-0.067 0.242,0.108c0.252,0.898 0.911,1.631 1.822,1.938c1.669,0.563 3.399,-0.252 4.705,-1.67c0.83,-0.9 1.13,-1.48 1.448,-1.874c0.539,-0.668 1.602,-2.163 2.869,-3.122c0.465,-0.354 1.015,-0.624 1.292,-0.445c0.221,0.144 0.293,0.478 -0.063,1.126c-1.292,2.358 -3.192,5.129 -3.541,5.801c-0.063,0.117 -0.008,0.208 0.114,0.208c0.676,-0.003 1.346,-0.001 1.96,-0.001c0.102,-0.005 0.147,-0.051 0.199,-0.124c0.991,-1.551 1.924,-3.028 2.924,-4.555c0.056,-0.09 0.107,-0.02 0.109,0.019c0.021,0.355 0.108,0.839 0.318,1.157c0.378,0.589 0.914,0.841 1.508,0.845c0.472,0.006 0.712,-0.066 1.221,-0.256c0.415,-0.154 0.748,-0.356 1.004,-0.539c0.149,-0.104 0.175,0.07 0.171,0.097c-0.229,1.231 0.054,2.691 1.278,3.296c1.465,0.722 3.075,-0.293 4.001,-1.21c0.09,-0.088 0.188,-0.079 0.197,0.112c0.019,0.349 0.178,0.765 0.468,1.055c0.775,0.779 2.342,0.471 3.913,-0.746c1.009,-0.779 2.065,-1.879 3.019,-3.044c0.035,-0.045 0.061,-0.118 -0.007,-0.191c-0.145,-0.152 -0.355,-0.326 -0.499,-0.46c-0.066,-0.056 -0.162,-0.04 -0.218,0.002c-0.977,0.93 -1.857,1.99 -3.129,2.867c-0.429,0.299 -1.113,0.54 -1.42,0.125c-0.119,-0.161 -0.106,-0.385 0.012,-0.677c0.371,-0.925 6.242,-9.863 6.547,-10.391Zm-7.761,7.496c0.012,0.069 0.101,0.135 0.189,0.166c0.03,0.012 0.048,0.034 0.013,0.106c-0.25,0.535 -0.479,0.843 -0.792,1.308c-0.288,0.43 -0.612,0.765 -1.004,1.087c-0.592,0.49 -1.415,1.023 -2.095,0.665c-0.302,-0.157 -0.432,-0.579 -0.426,-0.922c0.015,-0.962 0.442,-1.949 1.232,-2.92c0.964,-1.186 2.029,-1.801 2.728,-1.465c0.723,0.345 0.492,1.182 0.168,1.84c-0.024,0.05 -0.025,0.093 -0.013,0.135Z" style="fill:#fff;fill-rule:nonzero;"/><path d="M21.05,23.303c-2.189,0.016 -4.117,-1.337 -4.339,-3.679c-0.123,-1.298 0.244,-2.454 0.979,-3.407c0.651,-0.849 1.754,-1.555 2.687,-1.727c0.304,-0.056 0.712,-0.02 0.881,0.181c0.264,0.308 0.188,0.646 -0.076,0.781c-0.712,0.364 -1.569,0.986 -1.993,1.836c-0.344,0.694 -0.413,1.53 0.112,2.326c0.879,1.327 3.329,1.364 5.608,-0.753c0.564,-0.518 1.069,-1.015 1.582,-1.605c1.004,-1.147 1.337,-1.566 2.671,-3.416c0.016,-0.021 0.021,-0.05 0.014,-0.063c-0.011,-0.024 -0.03,-0.03 -0.069,-0.033c-0.89,0.025 -1.667,0.29 -2.421,0.854c-0.217,0.159 -0.53,0.136 -0.667,-0.072c-0.152,-0.236 -0.043,-0.543 0.207,-0.716c1.214,-0.845 2.541,-0.998 3.895,-1.227c-0.001,0 0.094,0.005 0.171,-0.098c0.556,-0.713 0.976,-1.357 1.569,-2.078c0.596,-0.733 1.368,-1.404 1.958,-1.909c0.822,-0.708 1.35,-0.946 1.885,-1.238c0.142,-0.073 -0.018,-0.162 -0.06,-0.162c-2.994,-0.562 -6.105,-1.29 -9.078,-0.19c-2.058,0.769 -2.961,2.402 -2.526,3.492c0.308,0.774 1.326,0.9 2.279,0.434c0.791,-0.388 1.523,-1.013 2.042,-1.818c0.291,-0.446 0.903,-0.124 0.573,0.652c-0.87,2.045 -2.532,3.666 -4.557,3.735c-1.722,0.056 -2.834,-1.212 -2.83,-2.775c0.006,-3.084 3.44,-5.116 7.048,-5.42c4.345,-0.359 8.461,0.799 12.776,1.322c3.305,0.4 6.474,0.409 9.796,-0.355c0.393,-0.085 0.669,0.166 0.643,0.562c-0.032,0.574 -0.476,1.126 -1.571,1.723c-1.244,0.683 -2.546,0.89 -3.906,0.901c-3.288,0.027 -6.351,-1.255 -9.52,-1.943c0.004,0.138 0.04,0.304 -0.076,0.391c-1.756,1.295 -3.343,2.61 -4.406,4.457c-0.036,0.043 -0.016,0.084 0.046,0.079c0.923,-0.049 1.753,-0.073 2.614,-0.141c0.151,-0.013 0.156,-0.05 0.143,-0.16c-0.076,-0.637 0.11,-1.363 0.67,-1.862c0.573,-0.514 1.291,-0.573 1.766,-0.202c0.541,0.421 0.494,1.179 0.197,1.747c-0.301,0.577 -0.798,0.886 -1.276,1.035c0,0 -0.099,0.022 -0.085,0.113c0.019,0.146 0.669,0.506 0.725,0.602c0.054,0.092 0.026,0.233 -0.073,0.342c-0.069,0.079 -0.176,0.153 -0.314,0.15c-0.112,-0.002 -0.18,-0.041 -0.323,-0.118c-0.292,-0.158 -0.656,-0.418 -0.899,-0.724c-0.083,-0.104 -0.125,-0.106 -0.332,-0.095c-0.932,0.054 -2.386,0.194 -3.372,0.317c-0.238,0.03 -0.273,0.075 -0.322,0.157c-1.57,2.59 -3.247,5.382 -5.088,7.252c-1.974,2.004 -3.615,2.532 -5.358,2.545Zm14.964,-11.505c0.024,0.133 0.077,0.158 0.137,0.147c0.299,-0.06 0.626,-0.306 0.819,-0.591c0.177,-0.258 0.26,-0.632 0.085,-0.781c-0.157,-0.135 -0.411,-0.097 -0.6,0.07c-0.375,0.332 -0.49,0.803 -0.441,1.155Z" style="fill:#fff;fill-rule:nonzero;"/><path d="M40.085,28.755c-21.215,0 -38.412,-6.142 -38.412,-13.719c0,-7.578 17.197,-13.719 38.412,-13.719c21.213,0 38.409,6.141 38.409,13.719c0,7.577 -17.196,13.719 -38.409,13.719Zm0,-26.297c-20.469,0 -37.061,5.656 -37.061,12.578c0,6.922 16.592,12.579 37.061,12.579c20.469,0 37.06,-5.657 37.06,-12.579c0,-6.922 -16.591,-12.578 -37.06,-12.578Z" style="fill:#fff;fill-rule:nonzero;"/><path d="M90.54,15.02c0,-3.617 1.889,-5.156 5.264,-5.156c2.025,0 3.253,0.594 4.05,1.417l-1.513,1.526c-0.512,-0.486 -1.174,-0.918 -2.551,-0.918c-2.186,0 -3.037,1.08 -3.037,3.158c0,2.187 0.594,3.267 3.011,3.267c1.943,0 2.51,-0.648 2.51,-2.052l0,-0.216l-2.794,0l0,-1.836l4.981,0l0,1.634c0,2.848 -1.134,4.333 -4.805,4.333c-3.996,0 -5.116,-1.836 -5.116,-5.157Z" style="fill:#00467f;fill-rule:nonzero;"/><path d="M101.295,16.195c0,-2.565 1.121,-3.982 3.996,-3.982c2.875,0 3.982,1.417 3.982,3.982c0,2.564 -1.107,3.982 -3.982,3.982c-2.875,0 -3.996,-1.418 -3.996,-3.982Zm5.859,0.054c0,-1.296 -0.405,-2.106 -1.863,-2.106c-1.471,0 -1.863,0.81 -1.863,2.106c0,1.296 0.392,2.119 1.863,2.119c1.458,0 1.863,-0.823 1.863,-2.119Z" style="fill:#00467f;fill-rule:nonzero;"/><path d="M113.068,10.026l7.275,0l0,1.998l-5.062,0l0,2.146l4.927,0l0,1.971l-4.927,0l0,3.887l-2.213,0l0,-10.002Z" style="fill:#00467f;fill-rule:nonzero;"/><path d="M121.438,16.465l0,-4.077l2.119,0l0,4.117c0,1.067 0.027,1.809 1.539,1.809c1.498,0 1.525,-0.756 1.525,-1.822l0,-4.104l2.079,0l0,4.063c0,2.619 -0.702,3.699 -3.617,3.699c-2.916,0 -3.645,-1.067 -3.645,-3.685Z" style="fill:#00467f;fill-rule:nonzero;"/><path d="M129.66,12.51l1.647,-0.122l0.216,0.837c0.324,-0.486 1.255,-0.877 2.443,-0.918l0,2.025c-1.796,0.014 -2.187,0.715 -2.187,1.917l0,3.779l-2.119,0l0,-7.518Z" style="fill:#00467f;fill-rule:nonzero;"/><path d="M134.479,12.388l1.35,0l0.364,-1.863l1.648,-0.337l0,2.2l1.808,0l0,1.809l-1.808,0l0,3.145c0,0.594 0.08,0.918 0.985,0.918l0.823,0l0,1.768c-0.31,0.027 -0.877,0.027 -1.255,0.027c-2.065,0 -2.659,-0.702 -2.659,-2.403l0,-3.455l-1.256,0l0,-1.809Z" style="fill:#00467f;fill-rule:nonzero;"/><path d="M140.622,9.554l2.106,0l0,3.347c0.31,-0.337 1.039,-0.688 2.483,-0.688c2.308,0 2.74,1.282 2.74,3.185l0,4.63l-2.105,0l0,-4.211c0,-0.932 -0.108,-1.607 -1.39,-1.607c-1.472,0 -1.715,0.689 -1.715,1.701l0,4.117l-2.119,0l0,-10.474Z" style="fill:#00467f;fill-rule:nonzero;"/><path d="M148.857,16.195c0,-2.133 0.702,-3.982 3.969,-3.982c3.361,0 3.469,2.24 3.401,4.792l-5.318,0c0.121,0.918 0.567,1.458 1.93,1.458c1.174,0 1.836,-0.284 2.403,-0.702l1.066,1.376c-0.985,0.743 -1.957,1.04 -3.469,1.04c-3.307,0 -3.982,-1.809 -3.982,-3.982Zm2.052,-0.702l3.388,0c-0.054,-0.878 -0.229,-1.512 -1.539,-1.512c-1.309,0 -1.741,0.58 -1.849,1.512Z" style="fill:#00467f;fill-rule:nonzero;"/><path d="M157.227,12.51l1.647,-0.122l0.216,0.837c0.324,-0.486 1.256,-0.877 2.443,-0.918l0,2.025c-1.795,0.014 -2.186,0.715 -2.186,1.917l0,3.779l-2.12,0l0,-7.518Z" style="fill:#00467f;fill-rule:nonzero;"/></svg>