<?xml version="1.0" encoding="UTF-8" standalone="no"?><!DOCTYPE svg PUBLIC "-//W3C//DTD SVG 1.1//EN" "http://www.w3.org/Graphics/SVG/1.1/DTD/svg11.dtd"><svg width="100%" height="100%" viewBox="0 0 25 27" version="1.1" xmlns="http://www.w3.org/2000/svg" xmlns:xlink="http://www.w3.org/1999/xlink" xml:space="preserve" xmlns:serif="http://www.serif.com/" style="fill-rule:evenodd;clip-rule:evenodd;stroke-linejoin:round;stroke-miterlimit:1.41421;"><path d="M23.504,6.304l0.022,-0.022l-5.552,-5.537l-1.579,1.58l3.144,3.145c-1.401,0.536 -2.399,1.885 -2.399,3.473c0,2.056 1.669,3.726 3.726,3.726c0.529,0 1.036,-0.112 1.49,-0.313l0,10.745c0,0.82 -0.67,1.491 -1.49,1.491c-0.82,0 -1.49,-0.671 -1.49,-1.49l0,-6.707c0,-1.647 -1.334,-2.981 -2.981,-2.981l-1.491,0l0,-10.433c0,-1.647 -1.334,-2.981 -2.981,-2.981l-8.942,0c-1.647,0 -2.981,1.334 -2.981,2.981l0,23.847l14.904,0l0,-11.179l2.236,0l0,7.453c0,2.056 1.669,3.726 3.726,3.726c2.057,0 3.726,-1.67 3.726,-3.726l0,-14.159c0,-1.029 -0.417,-1.96 -1.088,-2.639Zm-11.581,4.129l-8.942,0l0,-7.452l8.942,0l0,7.452Zm8.943,0c-0.82,0 -1.49,-0.671 -1.49,-1.49c0,-0.82 0.67,-1.491 1.49,-1.491c0.82,0 1.49,0.671 1.49,1.491c0,0.819 -0.67,1.49 -1.49,1.49Z" style="fill:#445968;fill-rule:nonzero;"/></svg>