<?xml version="1.0" encoding="UTF-8" standalone="no"?><!DOCTYPE svg PUBLIC "-//W3C//DTD SVG 1.1//EN" "http://www.w3.org/Graphics/SVG/1.1/DTD/svg11.dtd"><svg width="100%" height="100%" viewBox="0 0 28 20" version="1.1" xmlns="http://www.w3.org/2000/svg" xmlns:xlink="http://www.w3.org/1999/xlink" xml:space="preserve" xmlns:serif="http://www.serif.com/" style="fill-rule:evenodd;clip-rule:evenodd;stroke-linejoin:round;stroke-miterlimit:1.41421;"><path d="M27.136,5.977c-0.134,-0.163 -0.333,-0.258 -0.542,-0.258l-2.656,0c-0.655,-1.729 -1.509,-3.423 -2.48,-4.062c-3.358,-2.209 -12.264,-2.209 -15.622,0c-0.971,0.64 -1.822,2.336 -2.481,4.062l-2.656,0c-0.211,0 -0.41,0.095 -0.542,0.258c-0.132,0.162 -0.186,0.376 -0.142,0.583l0.393,1.906c0.067,0.325 0.354,0.557 0.684,0.557l0.787,0c-0.759,0.876 -1.128,1.98 -1.133,3.084c-0.004,1.364 0.513,2.597 1.46,3.469c0.011,0.009 0.021,0.015 0.031,0.024l0,2.668c0,0.577 0.47,1.048 1.048,1.048l2.45,0c0.579,0 1.049,-0.471 1.049,-1.048l0,-1.072l13.725,0l0,1.072c0,0.577 0.47,1.048 1.048,1.048l2.45,0c0.577,0 1.048,-0.471 1.048,-1.048l0,-2.615c1.005,-0.921 1.485,-2.187 1.492,-3.451c0.004,-1.142 -0.381,-2.286 -1.185,-3.18l0.839,0c0.332,0 0.618,-0.232 0.684,-0.558l0.394,-1.906c0.041,-0.205 -0.01,-0.418 -0.143,-0.581Zm-20.149,-2.57c2.676,-1.761 10.642,-1.761 13.317,0c0.52,0.341 1.189,1.72 1.802,3.408l-16.919,0c0.611,-1.687 1.28,-3.065 1.8,-3.408Zm-3.135,8.963c0,-1.14 0.924,-2.062 2.062,-2.062c1.14,0 2.062,0.922 2.062,2.062c0,1.139 -0.922,2.062 -2.062,2.062c-1.138,0 -2.062,-0.923 -2.062,-2.062Zm17.554,2.062c-1.139,0 -2.063,-0.923 -2.063,-2.062c0,-1.14 0.924,-2.062 2.063,-2.062c1.139,0 2.062,0.922 2.062,2.062c0,1.139 -0.924,2.062 -2.062,2.062Z" style="fill:#445968;fill-rule:nonzero;"/></svg>