<?xml version="1.0" encoding="utf-8"?><!-- Generator: Adobe Illustrator 17.0.0, SVG Export Plug-In . SVG Version: 6.00 Build 0)  --><!DOCTYPE svg PUBLIC "-//W3C//DTD SVG 1.1//EN" "http://www.w3.org/Graphics/SVG/1.1/DTD/svg11.dtd"><svg version="1.1" id="Слой_1" xmlns="http://www.w3.org/2000/svg" xmlns:xlink="http://www.w3.org/1999/xlink" x="0px" y="0px"     width="524px" height="137px" viewBox="0 0 524 137" enable-background="new 0 0 524 137" xml:space="preserve"><circle fill="#50acfb" cx="8" cy="8.354" r="4"/>    <circle fill="#50acfb" cx="27" cy="8.354" r="4"/>    <circle fill="#50acfb" cx="46" cy="8.354" r="4"/>    <circle fill="#50acfb" cx="65" cy="8.354" r="4"/>    <circle fill="#50acfb" cx="84" cy="8.354" r="4"/>    <circle fill="#50acfb" cx="103" cy="8.354" r="4"/>    <circle fill="#50acfb" cx="122" cy="8.354" r="4"/>    <circle fill="#50acfb" cx="141" cy="8.354" r="4"/>    <circle fill="#50acfb" cx="8" cy="25.354" r="4"/>    <circle fill="#50acfb" cx="27" cy="25.354" r="4"/>    <circle fill="#50acfb" cx="46" cy="25.354" r="4"/>    <circle fill="#50acfb" cx="65" cy="25.354" r="4"/>    <circle fill="#50acfb" cx="84" cy="25.354" r="4"/>    <circle fill="#50acfb" cx="103" cy="25.354" r="4"/>    <circle fill="#50acfb" cx="122" cy="25.354" r="4"/>    <circle fill="#50acfb" cx="141" cy="25.354" r="4"/>    <circle fill="#50acfb" cx="8" cy="42.354" r="4"/>    <circle fill="#50acfb" cx="27" cy="42.354" r="4"/>    <circle fill="#50acfb" cx="46" cy="42.354" r="4"/>    <circle fill="#50acfb" cx="65" cy="42.354" r="4"/>    <circle fill="#50acfb" cx="84" cy="42.354" r="4"/>    <circle fill="#50acfb" cx="103" cy="42.354" r="4"/>    <circle fill="#50acfb" cx="8" cy="59.354" r="4"/>    <circle fill="#50acfb" cx="27" cy="59.354" r="4"/>    <circle fill="#50acfb" cx="46" cy="59.354" r="4"/>    <circle fill="#50acfb" cx="65" cy="59.354" r="4"/>    <circle fill="#50acfb" cx="84" cy="59.354" r="4"/>    <circle fill="#50acfb" cx="103" cy="59.354" r="4"/>    <circle fill="#50acfb" cx="8" cy="76.354" r="4"/>    <circle fill="#50acfb" cx="27" cy="76.354" r="4"/>    <circle fill="#50acfb" cx="46" cy="76.354" r="4"/>    <circle fill="#50acfb" cx="65" cy="76.354" r="4"/>    <circle fill="#50acfb" cx="84" cy="76.354" r="4"/>    <circle fill="#50acfb" cx="103" cy="76.354" r="4"/></svg>