<?xml version="1.0" encoding="utf-8"?>
<!-- Generator: Adobe Illustrator 24.0.2, SVG Export Plug-In . SVG Version: 6.00 Build 0)  -->
<svg version="1.1" id="Capa_1" xmlns="http://www.w3.org/2000/svg" xmlns:xlink="http://www.w3.org/1999/xlink" x="0px" y="0px"
	 width="321.7px" height="321.7px" viewBox="0 0 321.7 321.7" style="enable-background:new 0 0 321.7 321.7;" xml:space="preserve"
	>
<style type="text/css">
	.st0{fill:#50acfb;}
</style>
<path id="XMLID_440_" class="st0" d="M160.9,0C72.2,0,0,72.2,0,160.9s72.2,160.9,160.9,160.9c22.6,0,44.5-4.6,65-13.7
	c5.6-2.5,8.1-9,5.6-14.5c-2.5-5.6-9-8.1-14.5-5.6c-17.7,7.8-36.6,11.8-56.1,11.8C84.3,299.7,22,237.4,22,160.9S84.3,22,160.9,22
	c76.6,0,138.9,62.3,138.9,138.9c0,14.5-2.2,28.8-6.6,42.5c-9.5,29.5-25,38.5-32.6,37.4c-7.3-1.1-7.8-12-7.8-15.3V94.8
	c0-6.1-4.9-11-11-11s-11,4.9-11,11v6.5C213.9,81.5,188.8,69,160.9,69C110.2,69,69,110.2,69,160.9s41.2,91.9,91.9,91.9
	c27.9,0,53-12.5,69.9-32.3v5c0,20,10.4,34.5,26.4,37c19,3,44-12.1,56.9-52.4c5.1-15.9,7.7-32.4,7.7-49.2C321.7,72.2,249.5,0,160.9,0
	z M160.9,230.7c-38.5,0-69.9-31.3-69.9-69.9S122.3,91,160.9,91c38.5,0,69.9,31.3,69.9,69.9S199.4,230.7,160.9,230.7z"/>
</svg>
