<?xml version="1.0" encoding="utf-8"?>
<!-- Generator: Adobe Illustrator 24.0.2, SVG Export Plug-In . SVG Version: 6.00 Build 0)  -->
<svg version="1.1" xmlns="http://www.w3.org/2000/svg" xmlns:xlink="http://www.w3.org/1999/xlink" x="0px" y="0px" width="800px"
	 height="800px" viewBox="0 0 800 800" style="enable-background:new 0 0 800 800;" xml:space="preserve">
<style type="text/css">
	.st0{display:none;}
	.st1{fill:none;stroke:#4EB980;stroke-width:30;stroke-miterlimit:10;}
	.st2{fill:#4EB980;}
	.st3{fill:none;}
</style>
<g id="Слой_2" class="st0">
	
		<image style="overflow:visible;opacity:0.1;" width="639" height="643" xlink:href="6ABE0550.jpg"  transform="matrix(1.252 0 0 1.2442 0 0)">
	</image>
	
		<image style="display:inline;overflow:visible;" width="437" height="432" xlink:href="6ABE0557.jpg"  transform="matrix(1.9977 0 0 1.9977 305 -99)">
	</image>
</g>
<g id="Слой_1">
	<circle class="st1" cx="400" cy="401" r="382"/>
	<g>
		<path class="st2" d="M130.9,397.8c0-26.5,8.8-48.9,26.5-67.1c17.7-18.2,39.6-27.3,65.8-27.3c25.8,0,47.5,7.1,65,21.3l-9.9,13.8
			c-6.4-5.4-14.6-9.8-24.7-13.1c-10.1-3.4-19.9-5.1-29.6-5.1c-21.8,0-39.7,7.4-53.6,22.1c-13.9,14.7-20.8,33.1-20.8,55.1
			c0,22.5,6.9,41.2,20.7,55.9c13.8,14.7,31.2,22.1,52.1,22.1c10.7,0,21.2-2.4,31.3-7.2c10.1-4.8,18.9-11.2,26.1-19.4v-30.9h-31.2
			V402h48.1v87.4h-16.4v-13.8l0.3-7.8h-0.5c-6.8,7.5-15.4,13.4-26,17.9c-10.6,4.5-21.8,6.8-33.5,6.8c-25.3,0-46.6-9-63.8-27
			C139.5,447.4,130.9,424.8,130.9,397.8z"/>
		<path class="st2" d="M340,489.3V306.5h58.8c27.9,0,50.2,8.1,66.8,24.3c16.6,16.2,25,38.5,25,67c0,28.6-8.3,51-25,67.2
			c-16.6,16.2-38.9,24.3-66.8,24.3H340z M357.9,473.2h39c22.9,0,41.1-6.5,54.6-19.6c13.5-13.1,20.3-31.7,20.3-55.8
			c0-23.9-6.8-42.4-20.3-55.5c-13.5-13.1-31.7-19.6-54.6-19.6h-39V473.2z"/>
		<path class="st2" d="M531.8,489.3V306.5h55.4c14.6,0,25.7,1.7,33.5,5.2c18,8.7,27,23.9,27,45.8c0,12.3-3.2,23.1-9.6,32.2
			c-6.4,9.2-14.8,15.3-25.2,18.2v0.5c1.4,1.6,3,4,4.9,7.3l39.8,73.6h-20.8l-41.1-77h-46v77H531.8z M549.8,396.2h43.4
			c10.9,0,19.7-3.5,26.3-10.5c6.6-7,9.9-16.3,9.9-27.7c0-7.3-1.7-13.7-5.1-19.4c-3.4-5.6-8.1-9.8-14.2-12.6c-5-2.3-13-3.4-23.9-3.4
			h-36.4V396.2z"/>
	</g>
	<polygon class="st3" points="511.1,257.7 513.2,257.7 513.2,257.7 511.1,257.7 	"/>
</g>
</svg>
