<?xml version="1.0" encoding="utf-8"?>
<!-- Generator: Adobe Illustrator 24.0.2, SVG Export Plug-In . SVG Version: 6.00 Build 0)  -->
<svg version="1.1" id="Capa_1" xmlns="http://www.w3.org/2000/svg" xmlns:xlink="http://www.w3.org/1999/xlink" x="0px" y="0px"
	 width="368.6px" height="368.6px" viewBox="0 0 368.6 368.6" style="enable-background:new 0 0 368.6 368.6;" xml:space="preserve"
	>
<style type="text/css">
	.st0{fill:#50acfb;}
</style>
<g>
	<g>
		<path class="st0" d="M184.3,0c-71.7,0-130,58.3-130,130c0,87.3,119.2,229.9,124.3,235.9c1.4,1.7,3.5,2.7,5.7,2.7c0,0,0,0,0,0
			c2.2,0,4.3-1,5.7-2.6C195,360,314.3,219.8,314.3,130C314.3,58.3,256,0,184.3,0z M184.3,349.3c-23.9-29.8-115-147.8-115-219.3
			c0-63.4,51.6-115,115-115s115,51.6,115,115C299.3,203.5,208.3,319.8,184.3,349.3z"/>
		<path class="st0" d="M184.3,72.3c-30.5,0-55.3,24.8-55.3,55.3s24.8,55.3,55.3,55.3s55.3-24.8,55.3-55.3S214.8,72.3,184.3,72.3z
			 M184.3,167.8c-22.2,0-40.3-18.1-40.3-40.3s18.1-40.3,40.3-40.3s40.3,18.1,40.3,40.3S206.5,167.8,184.3,167.8z"/>
	</g>
</g>
</svg>
