<?xml version="1.0" encoding="UTF-8" standalone="no"?><!DOCTYPE svg PUBLIC "-//W3C//DTD SVG 1.1//EN" "http://www.w3.org/Graphics/SVG/1.1/DTD/svg11.dtd"><svg width="100%" height="100%" viewBox="0 0 173 48" version="1.1" xmlns="http://www.w3.org/2000/svg" xmlns:xlink="http://www.w3.org/1999/xlink" xml:space="preserve" xmlns:serif="http://www.serif.com/" style="fill-rule:evenodd;clip-rule:evenodd;stroke-linejoin:round;stroke-miterlimit:1.41421;"><g><path d="M2.7,38.298l-2.7,0l5.361,-9.693l2.77,0l1.977,9.693l-2.7,0l-0.321,-1.731l-3.462,0l-0.925,1.731Zm1.863,-3.531l2.215,0l-0.539,-3.254l-1.676,3.254Zm7.517,-6.162l5.539,0c0.905,0 1.533,0.206 1.886,0.616c0.353,0.411 0.456,1.037 0.309,1.877c-0.096,0.553 -0.295,1.003 -0.595,1.35c-0.301,0.346 -0.638,0.588 -1.013,0.726c0.712,0.204 1.132,0.702 1.262,1.496c0.042,0.286 0.03,0.618 -0.036,0.997c-0.158,0.904 -0.486,1.569 -0.985,1.994c-0.499,0.424 -1.2,0.637 -2.105,0.637l-5.954,0l1.692,-9.693Zm4.932,6.647c0.097,-0.554 -0.132,-0.831 -0.685,-0.831l-2.77,0l-0.338,1.938l2.769,0c0.554,0 0.879,-0.277 0.976,-0.831l0.048,-0.276Zm0.262,-3.878c0.096,-0.553 -0.132,-0.83 -0.686,-0.83l-2.354,0l-0.338,1.938l2.353,0c0.554,0 0.88,-0.277 0.976,-0.831l0.049,-0.277Zm6.964,6.924l-2.493,0l1.354,-7.754l-2.908,0l0.339,-1.939l8.307,0l-0.338,1.939l-2.908,0l-1.353,7.754Zm10.928,-7.062c0.097,-0.554 -0.132,-0.831 -0.686,-0.831l-2.354,0c-0.554,0 -0.879,0.277 -0.976,0.831l-0.773,4.431c-0.097,0.554 0.132,0.831 0.686,0.831l2.354,0c0.553,0 0.879,-0.277 0.975,-0.831l0.774,-4.431Zm1.718,4.431c-0.169,0.969 -0.511,1.673 -1.026,2.111c-0.515,0.439 -1.257,0.658 -2.226,0.658l-3.462,0c-0.969,0 -1.634,-0.219 -1.996,-0.658c-0.362,-0.438 -0.459,-1.142 -0.29,-2.111l0.774,-4.431c0.17,-0.969 0.511,-1.673 1.027,-2.112c0.515,-0.438 1.257,-0.657 2.226,-0.657l3.461,0c0.97,0 1.635,0.219 1.997,0.657c0.362,0.439 0.458,1.143 0.289,2.112l-0.774,4.431Zm9.764,-2.769l-2.543,3.461l-1.938,0l-1.334,-3.461l-0.943,5.4l-2.492,0l1.692,-9.693l2.631,0l1.875,5.123l3.663,-5.123l2.631,0l-1.692,9.693l-2.492,0l0.942,-5.4Zm10.263,-1.662c0.097,-0.554 -0.132,-0.831 -0.686,-0.831l-2.353,0c-0.554,0 -0.88,0.277 -0.977,0.831l-0.773,4.431c-0.097,0.554 0.132,0.831 0.686,0.831l2.354,0c0.553,0 0.879,-0.277 0.975,-0.831l0.774,-4.431Zm1.718,4.431c-0.169,0.969 -0.511,1.673 -1.026,2.111c-0.515,0.439 -1.257,0.658 -2.226,0.658l-3.462,0c-0.969,0 -1.634,-0.219 -1.997,-0.658c-0.361,-0.438 -0.458,-1.142 -0.289,-2.111l0.774,-4.431c0.17,-0.969 0.511,-1.673 1.026,-2.112c0.516,-0.438 1.258,-0.657 2.227,-0.657l3.461,0c0.97,0 1.635,0.219 1.997,0.657c0.362,0.439 0.459,1.143 0.289,2.112l-0.774,4.431Zm4.045,-3.323l3.324,0c0.969,0 1.635,0.219 1.997,0.657c0.361,0.439 0.458,1.143 0.289,2.112l-0.073,0.415c-0.169,0.97 -0.511,1.673 -1.027,2.112c-0.514,0.438 -1.256,0.658 -2.226,0.658l-5.815,0l1.692,-9.693l7.685,0l-0.339,1.939l-5.192,0l-0.315,1.8Zm3.117,2.769c0.097,-0.554 -0.132,-0.831 -0.686,-0.831l-2.769,0l-0.362,2.077l2.769,0c0.554,0 0.879,-0.277 0.976,-0.831l0.072,-0.415Zm11.217,3.185l-2.492,0l1.039,-5.954l-4.362,5.954l-2.631,0l1.692,-9.693l2.492,0l-1.04,5.954l4.363,-5.954l2.631,0l-1.692,9.693Zm4.507,-2.008c-0.162,0.664 -0.465,1.188 -0.911,1.572c-0.445,0.383 -0.945,0.574 -1.499,0.574c-0.553,0 -1.067,-0.046 -1.54,-0.138l0.326,-1.869l0.623,0c0.175,0 0.332,-0.06 0.468,-0.181c0.136,-0.12 0.224,-0.267 0.264,-0.443l1.673,-7.2l7.684,0l-1.692,9.693l-2.492,0l1.353,-7.754l-2.907,0l-1.35,5.746Zm10.25,-4.362l3.323,0c0.969,0 1.635,0.22 1.996,0.658c0.362,0.438 0.459,1.142 0.29,2.112l-0.145,0.83c-0.17,0.97 -0.512,1.673 -1.027,2.112c-0.515,0.438 -1.257,0.658 -2.226,0.658l-5.816,0l1.692,-9.693l2.493,0l-0.58,3.323Zm3.116,2.77c0.097,-0.554 -0.132,-0.831 -0.685,-0.831l-2.77,0l-0.435,2.492l2.769,0c0.554,0 0.88,-0.277 0.976,-0.831l0.145,-0.83Zm9.345,3.6l-2.493,0l1.692,-9.693l7.546,0l-0.338,1.939l-5.054,0l-1.353,7.754Zm13.074,-7.062c0.097,-0.554 -0.132,-0.831 -0.685,-0.831l-2.354,0c-0.554,0 -0.88,0.277 -0.977,0.831l-0.773,4.431c-0.097,0.554 0.132,0.831 0.686,0.831l2.354,0c0.553,0 0.879,-0.277 0.975,-0.831l0.774,-4.431Zm1.719,4.431c-0.17,0.969 -0.512,1.673 -1.027,2.111c-0.515,0.439 -1.257,0.658 -2.226,0.658l-3.461,0c-0.97,0 -1.635,-0.219 -1.997,-0.658c-0.362,-0.438 -0.458,-1.142 -0.29,-2.111l0.774,-4.431c0.17,-0.969 0.511,-1.673 1.027,-2.112c0.515,-0.438 1.257,-0.657 2.226,-0.657l3.461,0c0.97,0 1.635,0.219 1.997,0.657c0.362,0.439 0.458,1.143 0.289,2.112l-0.773,4.431Zm3.313,-7.062l7.269,0l-1.354,7.754l1.039,0l-0.653,3.739l-2.354,0l0.176,-1.8l-5.4,0l-0.453,1.8l-2.354,0l0.653,-3.739l0.9,0c0.321,-0.305 0.582,-0.648 0.782,-1.031c0.201,-0.384 0.338,-0.732 0.411,-1.046l1.338,-5.677Zm3.423,7.754l1.015,-5.815l-2.561,0l-0.812,3.461c-0.126,0.564 -0.364,1.131 -0.713,1.703c-0.144,0.24 -0.297,0.457 -0.46,0.651l3.531,0Zm5.619,1.939l-2.7,0l5.361,-9.693l2.626,-0.045l0.339,1.005l1.781,8.733l-2.699,0l-0.321,-1.731l-3.462,0l-0.925,1.731Zm1.862,-3.531l2.216,0l-0.54,-3.254l-1.676,3.254Z" style="fill:#2d3941;fill-rule:nonzero;"/><path d="M137.235,20.662c-7.104,-0.026 -15.531,-0.914 -22.004,-2.731c-7.092,-1.989 -12.876,-4.296 -20.806,-4.749c-7.476,-0.425 -14.962,-0.71 -23.299,0.893c-8.926,1.716 -16.769,5.774 -27.669,8.469c-10.825,2.679 -27.013,0.18 -37.618,5.198l0.112,-0.203c10.773,-6.039 26.092,-3.416 37.338,-6.395c11.333,-3.003 19.677,-7.747 28.717,-9.4c7.811,-1.427 15.365,-1.123 22.441,-0.527c7.843,0.661 14.035,2.544 20.992,4.934c6.35,2.183 14.742,4.339 21.796,4.511" style="fill:#2d3941;fill-rule:nonzero;"/><path d="M137.361,21c-7.104,-0.026 -15.885,-0.062 -22.13,-1.514c-7.092,-1.953 -12.876,-3.007 -20.806,-3.453c-7.476,-0.417 -14.503,-0.529 -22.839,1.045c-8.927,1.686 -17.229,4.292 -28.129,6.94c-10.852,2.638 -27.193,-0.921 -37.797,4.048l0.167,-0.302c10.774,-5.925 26.212,-2.193 37.462,-5.122c11.333,-2.949 19.677,-7.61 28.717,-9.233c7.811,-1.402 15.365,-1.103 22.441,-0.518c7.843,0.649 14.035,2.499 20.992,4.847c7.29,2.562 14.867,3.092 21.922,3.262" style="fill:#006db7;"/><path d="M137.235,20.789c-7.104,-0.025 -15.531,-0.897 -22.004,-2.683c-7.092,-1.953 -12.876,-4.22 -20.806,-4.665c-7.476,-0.417 -14.962,-0.697 -23.299,0.878c-8.926,1.685 -16.769,5.671 -27.669,8.319c-10.826,2.632 -27.04,0.221 -37.645,5.152l0.135,-0.243c10.773,-5.935 26.094,-3.358 37.342,-6.285c11.333,-2.949 19.677,-7.61 28.717,-9.233c7.811,-1.403 15.365,-1.103 22.441,-0.518c7.843,0.649 14.035,2.499 20.992,4.847c6.35,2.144 14.742,4.262 21.796,4.431" style="fill:#fff;"/><path d="M138.252,21.237c-7.156,-0.02 -15.036,0.244 -21.943,-0.914c-14.396,-2.415 -30.806,-3.521 -45.275,-1.398c-8.968,1.316 -15.469,3.202 -26.363,5.502c-10.894,2.299 -28.53,0.082 -39.31,4.178l0.001,0l0.304,-0.55c10.65,-4.806 27.342,-2.351 38.016,-4.512c11.976,-2.424 19.016,-5.653 28.103,-6.92c7.849,-1.095 15.975,-1.238 23.11,-0.78c7.911,0.506 14.234,1.744 21.271,3.579c6.426,1.673 14.978,1.682 22.086,1.815" style="fill:#d22229;"/><path d="M19.338,46.761c-0.007,0.041 -0.021,0.073 -0.04,0.097c-0.019,0.023 -0.053,0.034 -0.103,0.034l-1.621,0c-0.201,0 -0.361,-0.028 -0.48,-0.085c-0.12,-0.057 -0.209,-0.133 -0.271,-0.228c-0.061,-0.094 -0.096,-0.203 -0.105,-0.324c-0.01,-0.121 -0.003,-0.248 0.02,-0.381l0.34,-1.946c0.022,-0.133 0.063,-0.261 0.12,-0.384c0.058,-0.123 0.136,-0.232 0.234,-0.327c0.098,-0.095 0.216,-0.171 0.355,-0.228c0.139,-0.057 0.299,-0.085 0.482,-0.085l1.587,0c0.049,0 0.079,0.01 0.089,0.031c0.009,0.021 0.01,0.054 0.002,0.1l-0.062,0.358c-0.009,0.049 -0.021,0.083 -0.038,0.1c-0.016,0.017 -0.049,0.025 -0.098,0.025l-1.513,0c-0.145,0 -0.252,0.033 -0.322,0.097c-0.07,0.064 -0.115,0.158 -0.137,0.279l-0.104,0.597l1.719,0c0.049,0 0.079,0.01 0.089,0.029c0.009,0.019 0.01,0.055 0.001,0.108l-0.055,0.313c-0.008,0.045 -0.02,0.079 -0.037,0.099c-0.017,0.021 -0.05,0.032 -0.1,0.032l-1.718,0l-0.144,0.827c-0.021,0.12 -0.005,0.212 0.046,0.274c0.052,0.062 0.146,0.094 0.283,0.094l1.547,0c0.053,0 0.085,0.009 0.095,0.028c0.01,0.019 0.01,0.056 0.001,0.109l-0.062,0.357Zm1.574,-2.025c-0.112,-0.072 -0.196,-0.168 -0.251,-0.287c-0.055,-0.12 -0.088,-0.259 -0.098,-0.419l-0.073,-1.018c-0.004,-0.019 -0.001,-0.043 0.01,-0.071c0.011,-0.029 0.041,-0.043 0.09,-0.043l0.466,0c0.019,0 0.041,0.004 0.064,0.012c0.023,0.007 0.035,0.03 0.036,0.068l0.077,0.961c0.013,0.122 0.039,0.219 0.078,0.291c0.039,0.072 0.084,0.127 0.136,0.165c0.052,0.037 0.11,0.061 0.173,0.071c0.062,0.009 0.122,0.014 0.179,0.014l0.524,0l0.257,-1.479c0,-0.042 0.008,-0.068 0.025,-0.077c0.017,-0.01 0.044,-0.014 0.082,-0.014l0.49,0c0.034,0 0.058,0.004 0.074,0.014c0.015,0.009 0.02,0.035 0.012,0.077l-0.257,1.479l0.517,0c0.057,0 0.119,-0.005 0.185,-0.014c0.066,-0.01 0.132,-0.034 0.197,-0.071c0.066,-0.038 0.13,-0.093 0.194,-0.165c0.064,-0.072 0.123,-0.169 0.178,-0.291l0.418,-0.961c0.015,-0.038 0.035,-0.061 0.061,-0.068c0.026,-0.008 0.048,-0.012 0.067,-0.012l0.467,0c0.049,0 0.074,0.014 0.075,0.043c0,0.028 -0.005,0.052 -0.016,0.071l-0.427,1.018c-0.066,0.16 -0.148,0.299 -0.247,0.419c-0.098,0.119 -0.215,0.215 -0.349,0.287l-0.005,0.029c0.093,0.034 0.168,0.072 0.225,0.116c0.057,0.044 0.101,0.095 0.132,0.154c0.032,0.058 0.054,0.123 0.066,0.193c0.013,0.07 0.023,0.147 0.031,0.231l0.123,1.32c0.004,0.019 0.001,0.042 -0.01,0.071c-0.01,0.028 -0.04,0.042 -0.09,0.042l-0.506,0c-0.019,0 -0.039,-0.003 -0.061,-0.011c-0.021,-0.008 -0.034,-0.03 -0.039,-0.068l-0.118,-1.246c-0.013,-0.103 -0.032,-0.187 -0.059,-0.253c-0.026,-0.067 -0.065,-0.118 -0.115,-0.154c-0.051,-0.036 -0.113,-0.062 -0.186,-0.077c-0.073,-0.015 -0.159,-0.023 -0.258,-0.023l-0.552,0l-0.303,1.741c-0.007,0.042 -0.02,0.068 -0.039,0.077c-0.019,0.01 -0.045,0.014 -0.079,0.014l-0.484,0c-0.038,0 -0.064,-0.004 -0.077,-0.014c-0.014,-0.009 -0.017,-0.035 -0.009,-0.077l0.309,-1.741l-0.552,0c-0.099,0 -0.187,0.008 -0.266,0.023c-0.079,0.015 -0.149,0.041 -0.212,0.077c-0.064,0.036 -0.122,0.087 -0.175,0.154c-0.053,0.066 -0.102,0.15 -0.147,0.253l-0.547,1.246c-0.018,0.038 -0.039,0.06 -0.063,0.068c-0.024,0.008 -0.046,0.011 -0.065,0.011l-0.506,0c-0.049,0 -0.074,-0.014 -0.075,-0.042c-0.001,-0.029 0.004,-0.052 0.015,-0.071l0.583,-1.32c0.037,-0.08 0.073,-0.155 0.11,-0.225c0.037,-0.07 0.082,-0.135 0.134,-0.194c0.051,-0.058 0.114,-0.111 0.186,-0.156c0.073,-0.046 0.161,-0.085 0.265,-0.119l0.005,-0.029Zm7.243,2.025c-0.008,0.041 -0.021,0.073 -0.04,0.097c-0.019,0.023 -0.054,0.034 -0.103,0.034l-1.621,0c-0.202,0 -0.362,-0.028 -0.481,-0.085c-0.119,-0.057 -0.209,-0.133 -0.27,-0.228c-0.061,-0.094 -0.096,-0.203 -0.106,-0.324c-0.009,-0.121 -0.002,-0.248 0.021,-0.381l0.339,-1.946c0.023,-0.133 0.064,-0.261 0.121,-0.384c0.058,-0.123 0.135,-0.232 0.234,-0.327c0.098,-0.095 0.216,-0.171 0.355,-0.228c0.139,-0.057 0.299,-0.085 0.481,-0.085l1.588,0c0.049,0 0.079,0.01 0.088,0.031c0.01,0.021 0.011,0.054 0.003,0.1l-0.063,0.358c-0.008,0.049 -0.021,0.083 -0.037,0.1c-0.016,0.017 -0.049,0.025 -0.098,0.025l-1.514,0c-0.144,0 -0.251,0.033 -0.321,0.097c-0.07,0.064 -0.116,0.158 -0.137,0.279l-0.104,0.597l1.718,0c0.05,0 0.079,0.01 0.089,0.029c0.01,0.019 0.011,0.055 0.002,0.108l-0.055,0.313c-0.008,0.045 -0.021,0.079 -0.037,0.099c-0.017,0.021 -0.05,0.032 -0.1,0.032l-1.718,0l-0.144,0.827c-0.021,0.12 -0.006,0.212 0.046,0.274c0.052,0.062 0.146,0.094 0.282,0.094l1.548,0c0.053,0 0.085,0.009 0.095,0.028c0.01,0.019 0.01,0.056 0.001,0.109l-0.062,0.357Zm1.242,0.012c-0.009,0.053 -0.023,0.086 -0.043,0.1c-0.019,0.013 -0.055,0.019 -0.108,0.019l-0.433,0c-0.042,0 -0.072,-0.007 -0.093,-0.022c-0.02,-0.015 -0.026,-0.048 -0.017,-0.097l0.496,-2.845c0.023,-0.133 0.061,-0.261 0.115,-0.384c0.054,-0.123 0.129,-0.232 0.225,-0.327c0.096,-0.095 0.213,-0.171 0.352,-0.228c0.139,-0.057 0.305,-0.085 0.499,-0.085l1.565,0c0.053,0 0.084,0.01 0.094,0.031c0.009,0.021 0.01,0.054 0.002,0.1l-0.061,0.353c-0.009,0.049 -0.022,0.083 -0.041,0.102c-0.018,0.019 -0.052,0.028 -0.101,0.028l-1.491,0c-0.144,0 -0.251,0.032 -0.321,0.094c-0.07,0.063 -0.115,0.155 -0.136,0.276l-0.503,2.885Zm5.728,-1.889c-0.115,0.66 -0.349,1.17 -0.702,1.531c-0.353,0.36 -0.824,0.54 -1.412,0.54c-0.572,0 -0.971,-0.173 -1.195,-0.521c-0.224,-0.347 -0.277,-0.856 -0.16,-1.527c0.057,-0.327 0.15,-0.617 0.279,-0.871c0.13,-0.254 0.287,-0.469 0.471,-0.646c0.185,-0.176 0.39,-0.311 0.617,-0.404c0.227,-0.093 0.467,-0.139 0.721,-0.139c0.285,0 0.528,0.046 0.73,0.139c0.202,0.093 0.359,0.228 0.473,0.404c0.113,0.177 0.185,0.391 0.215,0.643c0.03,0.253 0.018,0.536 -0.037,0.851Zm-0.721,0.023c0.033,-0.19 0.05,-0.371 0.052,-0.544c0.001,-0.172 -0.023,-0.325 -0.074,-0.458c-0.051,-0.132 -0.135,-0.238 -0.252,-0.315c-0.118,-0.078 -0.279,-0.117 -0.483,-0.117c-0.175,0 -0.333,0.037 -0.475,0.111c-0.142,0.074 -0.267,0.175 -0.374,0.304c-0.108,0.129 -0.198,0.278 -0.269,0.447c-0.071,0.169 -0.123,0.35 -0.157,0.543c-0.038,0.22 -0.057,0.419 -0.056,0.598c0.001,0.178 0.031,0.331 0.088,0.458c0.058,0.127 0.146,0.224 0.265,0.293c0.119,0.068 0.275,0.102 0.469,0.102c0.193,0 0.362,-0.04 0.507,-0.119c0.145,-0.08 0.268,-0.185 0.371,-0.316c0.102,-0.131 0.184,-0.282 0.246,-0.453c0.062,-0.17 0.109,-0.348 0.142,-0.534Zm1.24,1.985l-0.214,0.837c-0.011,0.042 -0.025,0.069 -0.043,0.082c-0.017,0.014 -0.041,0.02 -0.072,0.02l-0.375,0c-0.027,0 -0.046,-0.006 -0.059,-0.02c-0.013,-0.013 -0.018,-0.04 -0.014,-0.082l0.123,-1.167c0.012,-0.064 0.034,-0.124 0.069,-0.179c0.034,-0.055 0.095,-0.086 0.184,-0.094l0.207,-0.017c0.082,-0.076 0.152,-0.154 0.21,-0.236c0.057,-0.082 0.109,-0.17 0.154,-0.264c0.045,-0.095 0.087,-0.201 0.126,-0.316c0.039,-0.116 0.081,-0.246 0.125,-0.39l0.548,-1.809c0.04,-0.118 0.097,-0.205 0.171,-0.262c0.074,-0.057 0.178,-0.085 0.311,-0.085l1.758,0c0.14,0 0.232,0.031 0.276,0.093c0.045,0.063 0.055,0.159 0.033,0.288l-0.521,2.993l0.231,0.011c0.09,0.008 0.141,0.033 0.154,0.077c0.014,0.043 0.014,0.09 0.002,0.139l-0.286,1.218c-0.011,0.042 -0.025,0.069 -0.04,0.082c-0.016,0.014 -0.039,0.02 -0.07,0.02l-0.381,0c-0.03,0 -0.05,-0.006 -0.059,-0.02c-0.009,-0.013 -0.011,-0.04 -0.008,-0.082l0.112,-0.837l-2.652,0Zm2.79,-3.374l-1.24,0l-0.333,1.127c-0.086,0.296 -0.158,0.535 -0.216,0.717c-0.058,0.182 -0.111,0.33 -0.157,0.444c-0.047,0.114 -0.09,0.203 -0.13,0.27c-0.04,0.066 -0.087,0.134 -0.14,0.202l1.735,0l0.481,-2.76Zm4.205,3.255c-0.009,0.053 -0.023,0.086 -0.043,0.1c-0.019,0.013 -0.055,0.019 -0.108,0.019l-0.433,0c-0.045,0 -0.077,-0.007 -0.095,-0.022c-0.019,-0.015 -0.023,-0.048 -0.015,-0.097l0.292,-1.673l-1.77,0l-0.291,1.673c-0.01,0.053 -0.025,0.086 -0.046,0.1c-0.021,0.013 -0.059,0.019 -0.112,0.019l-0.432,0c-0.042,0 -0.073,-0.007 -0.093,-0.022c-0.02,-0.015 -0.026,-0.048 -0.017,-0.097l0.652,-3.744c0.009,-0.049 0.026,-0.081 0.051,-0.097c0.026,-0.015 0.059,-0.022 0.101,-0.022l0.432,0c0.053,0 0.088,0.006 0.105,0.019c0.016,0.014 0.02,0.047 0.011,0.1l-0.257,1.474l1.77,0l0.257,-1.474c0.008,-0.049 0.024,-0.081 0.048,-0.097c0.023,-0.015 0.057,-0.022 0.103,-0.022l0.432,0c0.054,0 0.088,0.006 0.102,0.019c0.015,0.014 0.018,0.047 0.009,0.1l-0.653,3.744Zm2.998,-0.751l-1.445,0l-0.385,0.774c-0.018,0.034 -0.038,0.059 -0.062,0.074c-0.023,0.015 -0.058,0.022 -0.104,0.022l-0.523,0c-0.042,0 -0.066,-0.012 -0.073,-0.037c-0.007,-0.024 -0.002,-0.052 0.014,-0.082l1.857,-3.602c0.029,-0.057 0.055,-0.102 0.08,-0.136c0.026,-0.034 0.054,-0.061 0.085,-0.08c0.032,-0.019 0.068,-0.033 0.107,-0.043c0.04,-0.009 0.086,-0.014 0.139,-0.014l0.245,0c0.118,0 0.198,0.018 0.241,0.054c0.043,0.036 0.074,0.109 0.093,0.219l0.607,3.602c0.006,0.03 0.002,0.058 -0.012,0.082c-0.013,0.025 -0.041,0.037 -0.083,0.037l-0.523,0c-0.042,0 -0.074,-0.004 -0.097,-0.014c-0.023,-0.009 -0.039,-0.035 -0.047,-0.077l-0.114,-0.779Zm-1.172,-0.592l1.093,0l-0.13,-0.956l-0.098,-0.808l-0.028,0l-0.371,0.791l-0.466,0.973Zm4.892,-0.193l-0.666,0c-0.182,0 -0.339,0.036 -0.471,0.108c-0.132,0.072 -0.242,0.208 -0.33,0.409l-0.461,1.047c-0.02,0.046 -0.045,0.072 -0.077,0.08c-0.032,0.008 -0.063,0.011 -0.093,0.011l-0.501,0c-0.049,0 -0.074,-0.012 -0.076,-0.037c-0.001,-0.024 0.005,-0.052 0.018,-0.082l0.497,-1.127c0.063,-0.14 0.14,-0.259 0.231,-0.358c0.091,-0.099 0.221,-0.175 0.389,-0.228l0.001,-0.005c-0.201,-0.088 -0.338,-0.218 -0.413,-0.39c-0.074,-0.173 -0.091,-0.373 -0.051,-0.6c0.029,-0.171 0.086,-0.328 0.17,-0.47c0.083,-0.142 0.189,-0.264 0.317,-0.367c0.127,-0.102 0.273,-0.182 0.437,-0.239c0.163,-0.057 0.342,-0.085 0.535,-0.085l1.337,0c0.122,0 0.2,0.026 0.237,0.08c0.036,0.053 0.045,0.134 0.025,0.244l-0.622,3.573c-0.007,0.042 -0.02,0.068 -0.039,0.077c-0.019,0.01 -0.047,0.014 -0.085,0.014l-0.484,0c-0.042,0 -0.07,-0.004 -0.085,-0.014c-0.016,-0.009 -0.02,-0.035 -0.013,-0.077l0.273,-1.564Zm-1.303,-1.144c-0.028,0.159 0,0.293 0.084,0.401c0.083,0.108 0.241,0.162 0.472,0.162l0.842,0l0.197,-1.126l-0.877,0c-0.129,0 -0.236,0.019 -0.322,0.057c-0.087,0.038 -0.158,0.084 -0.213,0.139c-0.055,0.055 -0.097,0.116 -0.125,0.182c-0.029,0.066 -0.048,0.128 -0.058,0.185Zm7.259,2.68c-0.009,0.053 -0.024,0.086 -0.043,0.1c-0.019,0.013 -0.056,0.019 -0.109,0.019l-0.432,0c-0.046,0 -0.078,-0.007 -0.096,-0.022c-0.018,-0.015 -0.023,-0.048 -0.014,-0.097l0.291,-1.673l-1.769,0l-0.292,1.673c-0.009,0.053 -0.024,0.086 -0.046,0.1c-0.021,0.013 -0.058,0.019 -0.111,0.019l-0.433,0c-0.041,0 -0.072,-0.007 -0.092,-0.022c-0.021,-0.015 -0.026,-0.048 -0.018,-0.097l0.653,-3.744c0.008,-0.049 0.025,-0.081 0.051,-0.097c0.025,-0.015 0.058,-0.022 0.1,-0.022l0.433,0c0.053,0 0.088,0.006 0.104,0.019c0.017,0.014 0.021,0.047 0.011,0.1l-0.256,1.474l1.769,0l0.257,-1.474c0.009,-0.049 0.024,-0.081 0.048,-0.097c0.024,-0.015 0.058,-0.022 0.103,-0.022l0.433,0c0.053,0 0.087,0.006 0.102,0.019c0.014,0.014 0.017,0.047 0.008,0.1l-0.652,3.744Zm2.997,-0.751l-1.445,0l-0.385,0.774c-0.017,0.034 -0.038,0.059 -0.061,0.074c-0.024,0.015 -0.058,0.022 -0.104,0.022l-0.523,0c-0.042,0 -0.066,-0.012 -0.074,-0.037c-0.007,-0.024 -0.002,-0.052 0.015,-0.082l1.856,-3.602c0.029,-0.057 0.056,-0.102 0.081,-0.136c0.025,-0.034 0.053,-0.061 0.085,-0.08c0.032,-0.019 0.067,-0.033 0.107,-0.043c0.039,-0.009 0.086,-0.014 0.139,-0.014l0.245,0c0.117,0 0.198,0.018 0.241,0.054c0.042,0.036 0.073,0.109 0.092,0.219l0.607,3.602c0.006,0.03 0.003,0.058 -0.011,0.082c-0.014,0.025 -0.042,0.037 -0.084,0.037l-0.523,0c-0.042,0 -0.074,-0.004 -0.097,-0.014c-0.023,-0.009 -0.038,-0.035 -0.046,-0.077l-0.115,-0.779Zm-1.171,-0.592l1.092,0l-0.129,-0.956l-0.098,-0.808l-0.029,0l-0.371,0.791l-0.465,0.973Zm5.713,0.837l0.218,0.022c0.052,0.008 0.091,0.019 0.117,0.035c0.026,0.015 0.043,0.034 0.052,0.056c0.01,0.023 0.012,0.047 0.008,0.071c-0.004,0.025 -0.009,0.051 -0.014,0.077l-0.278,1.207c-0.011,0.041 -0.025,0.069 -0.043,0.082c-0.017,0.013 -0.039,0.02 -0.066,0.02l-0.375,0c-0.057,0 -0.082,-0.034 -0.073,-0.102l0.106,-0.843l-2.554,0c-0.114,0 -0.198,-0.031 -0.252,-0.094c-0.053,-0.062 -0.068,-0.16 -0.045,-0.292l0.611,-3.505c0.007,-0.042 0.02,-0.069 0.039,-0.08c0.019,-0.011 0.048,-0.017 0.085,-0.017l0.478,0c0.042,0 0.071,0.006 0.086,0.017c0.015,0.011 0.019,0.038 0.011,0.08l-0.572,3.283l1.764,0l0.572,-3.283c0.007,-0.042 0.021,-0.069 0.04,-0.08c0.019,-0.011 0.047,-0.017 0.085,-0.017l0.472,0c0.042,0 0.07,0.006 0.086,0.017c0.015,0.011 0.019,0.038 0.011,0.08l-0.569,3.266Zm3.842,-2.362l-0.652,0.865l-1.448,1.878c-0.073,0.095 -0.136,0.159 -0.187,0.193c-0.052,0.034 -0.129,0.051 -0.231,0.051l-0.199,0c-0.129,0 -0.211,-0.029 -0.247,-0.088c-0.035,-0.059 -0.043,-0.143 -0.024,-0.253l0.619,-3.55c0.007,-0.042 0.02,-0.069 0.039,-0.08c0.019,-0.011 0.048,-0.017 0.086,-0.017l0.472,0c0.042,0 0.069,0.006 0.082,0.017c0.013,0.011 0.017,0.038 0.009,0.08l-0.501,2.879l0.022,0l0.612,-0.797l1.485,-1.929c0.074,-0.098 0.137,-0.165 0.188,-0.199c0.052,-0.034 0.126,-0.051 0.225,-0.051l0.205,0c0.125,0 0.207,0.027 0.245,0.082c0.037,0.055 0.046,0.144 0.025,0.265l-0.618,3.545c-0.007,0.041 -0.02,0.068 -0.039,0.079c-0.019,0.012 -0.048,0.017 -0.086,0.017l-0.472,0c-0.042,0 -0.069,-0.005 -0.082,-0.017c-0.014,-0.011 -0.017,-0.038 -0.009,-0.079l0.503,-2.891l-0.022,0Zm4.647,0.979c-0.115,0.66 -0.349,1.17 -0.702,1.531c-0.353,0.36 -0.823,0.54 -1.412,0.54c-0.572,0 -0.971,-0.173 -1.194,-0.521c-0.225,-0.347 -0.278,-0.856 -0.161,-1.527c0.057,-0.327 0.15,-0.617 0.28,-0.871c0.129,-0.254 0.286,-0.469 0.471,-0.646c0.184,-0.176 0.389,-0.311 0.616,-0.404c0.227,-0.093 0.467,-0.139 0.721,-0.139c0.285,0 0.528,0.046 0.73,0.139c0.202,0.093 0.36,0.228 0.473,0.404c0.114,0.177 0.185,0.391 0.215,0.643c0.03,0.253 0.018,0.536 -0.037,0.851Zm-0.721,0.023c0.033,-0.19 0.05,-0.371 0.052,-0.544c0.002,-0.172 -0.023,-0.325 -0.074,-0.458c-0.05,-0.132 -0.135,-0.238 -0.252,-0.315c-0.117,-0.078 -0.278,-0.117 -0.483,-0.117c-0.175,0 -0.333,0.037 -0.475,0.111c-0.142,0.074 -0.266,0.175 -0.374,0.304c-0.108,0.129 -0.198,0.278 -0.269,0.447c-0.071,0.169 -0.123,0.35 -0.157,0.543c-0.038,0.22 -0.057,0.419 -0.056,0.598c0.001,0.178 0.031,0.331 0.088,0.458c0.058,0.127 0.146,0.224 0.265,0.293c0.119,0.068 0.275,0.102 0.469,0.102c0.193,0 0.362,-0.04 0.507,-0.119c0.145,-0.08 0.268,-0.185 0.371,-0.316c0.102,-0.131 0.185,-0.282 0.246,-0.453c0.063,-0.17 0.11,-0.348 0.142,-0.534Zm4.197,1.866c-0.009,0.053 -0.023,0.086 -0.043,0.1c-0.019,0.013 -0.056,0.019 -0.109,0.019l-0.432,0c-0.046,0 -0.077,-0.007 -0.096,-0.022c-0.018,-0.015 -0.023,-0.048 -0.014,-0.097l0.292,-1.673l-1.77,0l-0.291,1.673c-0.01,0.053 -0.025,0.086 -0.046,0.1c-0.022,0.013 -0.059,0.019 -0.112,0.019l-0.432,0c-0.042,0 -0.073,-0.007 -0.093,-0.022c-0.02,-0.015 -0.026,-0.048 -0.017,-0.097l0.652,-3.744c0.008,-0.049 0.025,-0.081 0.051,-0.097c0.025,-0.015 0.059,-0.022 0.1,-0.022l0.433,0c0.053,0 0.088,0.006 0.105,0.019c0.016,0.014 0.02,0.047 0.011,0.1l-0.257,1.474l1.77,0l0.256,-1.474c0.009,-0.049 0.025,-0.081 0.048,-0.097c0.024,-0.015 0.058,-0.022 0.104,-0.022l0.432,0c0.053,0 0.087,0.006 0.102,0.019c0.015,0.014 0.018,0.047 0.008,0.1l-0.652,3.744Zm2.997,-0.751l-1.445,0l-0.385,0.774c-0.017,0.034 -0.038,0.059 -0.061,0.074c-0.024,0.015 -0.058,0.022 -0.104,0.022l-0.523,0c-0.042,0 -0.066,-0.012 -0.073,-0.037c-0.007,-0.024 -0.003,-0.052 0.014,-0.082l1.857,-3.602c0.029,-0.057 0.055,-0.102 0.08,-0.136c0.025,-0.034 0.053,-0.061 0.085,-0.08c0.032,-0.019 0.068,-0.033 0.107,-0.043c0.04,-0.009 0.086,-0.014 0.139,-0.014l0.245,0c0.117,0 0.198,0.018 0.241,0.054c0.043,0.036 0.074,0.109 0.093,0.219l0.607,3.602c0.006,0.03 0.002,0.058 -0.012,0.082c-0.014,0.025 -0.041,0.037 -0.083,0.037l-0.524,0c-0.041,0 -0.074,-0.004 -0.097,-0.014c-0.023,-0.009 -0.038,-0.035 -0.046,-0.077l-0.115,-0.779Zm-1.171,-0.592l1.093,0l-0.13,-0.956l-0.098,-0.808l-0.028,0l-0.372,0.791l-0.465,0.973Zm3.598,-2.139c0.031,-0.137 0.081,-0.234 0.15,-0.293c0.07,-0.059 0.163,-0.088 0.28,-0.088l1.866,0c0.243,0 0.342,0.127 0.298,0.381l-0.61,3.505c-0.008,0.041 -0.02,0.068 -0.037,0.079c-0.017,0.012 -0.047,0.017 -0.088,0.017l-0.484,0c-0.038,0 -0.064,-0.005 -0.079,-0.017c-0.016,-0.011 -0.02,-0.038 -0.012,-0.079l0.571,-3.278l-1.258,0l-0.12,0.495c-0.104,0.425 -0.201,0.805 -0.291,1.138c-0.091,0.334 -0.196,0.624 -0.319,0.871c-0.121,0.246 -0.272,0.449 -0.45,0.609c-0.179,0.159 -0.408,0.279 -0.687,0.358c-0.04,0.008 -0.071,0.007 -0.094,-0.003c-0.023,-0.009 -0.038,-0.035 -0.046,-0.076l-0.061,-0.336c-0.002,-0.034 0.002,-0.063 0.012,-0.086c0.01,-0.022 0.037,-0.043 0.082,-0.062c0.171,-0.068 0.31,-0.156 0.418,-0.262c0.108,-0.106 0.202,-0.248 0.282,-0.427c0.08,-0.178 0.156,-0.401 0.227,-0.668c0.072,-0.268 0.157,-0.599 0.256,-0.993l0.194,-0.785Zm3.047,3.601c-0.122,0 -0.201,-0.025 -0.237,-0.076c-0.037,-0.052 -0.045,-0.134 -0.026,-0.248l0.622,-3.567c0.007,-0.042 0.02,-0.069 0.04,-0.08c0.019,-0.011 0.047,-0.017 0.085,-0.017l0.484,0c0.041,0 0.069,0.006 0.082,0.017c0.013,0.011 0.016,0.038 0.009,0.08l-0.242,1.388l0.933,0c0.217,0 0.397,0.022 0.541,0.065c0.144,0.044 0.262,0.102 0.353,0.174c0.092,0.072 0.162,0.152 0.209,0.242c0.047,0.089 0.078,0.181 0.094,0.276c0.015,0.095 0.021,0.186 0.015,0.273c-0.006,0.087 -0.015,0.165 -0.027,0.233c-0.031,0.178 -0.094,0.343 -0.191,0.495c-0.097,0.152 -0.215,0.283 -0.356,0.393c-0.14,0.11 -0.297,0.196 -0.469,0.258c-0.172,0.063 -0.351,0.094 -0.537,0.094l-1.382,0Zm2.224,-1.274c0.032,-0.182 0.001,-0.335 -0.093,-0.458c-0.095,-0.123 -0.253,-0.185 -0.477,-0.185l-0.939,0l-0.225,1.292l0.927,0c0.137,0 0.254,-0.022 0.35,-0.066c0.097,-0.044 0.178,-0.098 0.242,-0.162c0.064,-0.064 0.113,-0.135 0.147,-0.211c0.035,-0.075 0.057,-0.146 0.068,-0.21Zm4.213,1.155c-0.009,0.053 -0.023,0.086 -0.043,0.1c-0.019,0.013 -0.055,0.019 -0.108,0.019l-0.433,0c-0.045,0 -0.077,-0.007 -0.095,-0.022c-0.019,-0.015 -0.023,-0.048 -0.015,-0.097l0.292,-1.673l-1.77,0l-0.291,1.673c-0.009,0.053 -0.025,0.086 -0.046,0.1c-0.021,0.013 -0.059,0.019 -0.112,0.019l-0.432,0c-0.042,0 -0.073,-0.007 -0.093,-0.022c-0.02,-0.015 -0.026,-0.048 -0.017,-0.097l0.652,-3.744c0.009,-0.049 0.026,-0.081 0.051,-0.097c0.026,-0.015 0.059,-0.022 0.101,-0.022l0.432,0c0.053,0 0.088,0.006 0.105,0.019c0.016,0.014 0.02,0.047 0.011,0.1l-0.257,1.474l1.77,0l0.257,-1.474c0.008,-0.049 0.024,-0.081 0.048,-0.097c0.023,-0.015 0.058,-0.022 0.103,-0.022l0.432,0c0.054,0 0.088,0.006 0.102,0.019c0.015,0.014 0.018,0.047 0.009,0.1l-0.653,3.744Zm2.998,-0.751l-1.445,0l-0.385,0.774c-0.018,0.034 -0.038,0.059 -0.062,0.074c-0.023,0.015 -0.058,0.022 -0.104,0.022l-0.523,0c-0.042,0 -0.066,-0.012 -0.073,-0.037c-0.007,-0.024 -0.002,-0.052 0.014,-0.082l1.857,-3.602c0.029,-0.057 0.055,-0.102 0.08,-0.136c0.026,-0.034 0.054,-0.061 0.085,-0.08c0.032,-0.019 0.068,-0.033 0.107,-0.043c0.04,-0.009 0.086,-0.014 0.139,-0.014l0.245,0c0.118,0 0.198,0.018 0.241,0.054c0.043,0.036 0.074,0.109 0.093,0.219l0.607,3.602c0.006,0.03 0.002,0.058 -0.012,0.082c-0.013,0.025 -0.041,0.037 -0.083,0.037l-0.523,0c-0.042,0 -0.074,-0.004 -0.097,-0.014c-0.023,-0.009 -0.039,-0.035 -0.047,-0.077l-0.114,-0.779Zm-1.172,-0.592l1.093,0l-0.13,-0.956l-0.098,-0.808l-0.028,0l-0.371,0.791l-0.466,0.973Zm4.892,-0.193l-0.666,0c-0.182,0 -0.339,0.036 -0.471,0.108c-0.132,0.072 -0.242,0.208 -0.33,0.409l-0.461,1.047c-0.02,0.046 -0.045,0.072 -0.077,0.08c-0.032,0.008 -0.063,0.011 -0.093,0.011l-0.501,0c-0.049,0 -0.074,-0.012 -0.076,-0.037c-0.001,-0.024 0.005,-0.052 0.018,-0.082l0.497,-1.127c0.063,-0.14 0.14,-0.259 0.231,-0.358c0.091,-0.099 0.221,-0.175 0.389,-0.228l0.001,-0.005c-0.201,-0.088 -0.338,-0.218 -0.413,-0.39c-0.074,-0.173 -0.091,-0.373 -0.051,-0.6c0.029,-0.171 0.086,-0.328 0.17,-0.47c0.083,-0.142 0.189,-0.264 0.317,-0.367c0.127,-0.102 0.273,-0.182 0.437,-0.239c0.163,-0.057 0.342,-0.085 0.535,-0.085l1.337,0c0.122,0 0.2,0.026 0.237,0.08c0.036,0.053 0.045,0.134 0.025,0.244l-0.622,3.573c-0.007,0.042 -0.02,0.068 -0.039,0.077c-0.019,0.01 -0.047,0.014 -0.085,0.014l-0.484,0c-0.041,0 -0.07,-0.004 -0.085,-0.014c-0.016,-0.009 -0.02,-0.035 -0.013,-0.077l0.273,-1.564Zm-1.303,-1.144c-0.028,0.159 0,0.293 0.084,0.401c0.083,0.108 0.241,0.162 0.472,0.162l0.842,0l0.197,-1.126l-0.877,0c-0.129,0 -0.236,0.019 -0.322,0.057c-0.087,0.038 -0.158,0.084 -0.213,0.139c-0.055,0.055 -0.097,0.116 -0.125,0.182c-0.029,0.066 -0.048,0.128 -0.058,0.185Zm7.249,2.703c-0.007,0.041 -0.02,0.068 -0.039,0.079c-0.019,0.012 -0.05,0.017 -0.092,0.017l-0.472,0c-0.038,0 -0.064,-0.005 -0.079,-0.017c-0.015,-0.011 -0.019,-0.038 -0.012,-0.079l0.571,-3.278l-1.764,0l-0.571,3.278c-0.007,0.041 -0.02,0.068 -0.039,0.079c-0.019,0.012 -0.05,0.017 -0.091,0.017l-0.478,0c-0.038,0 -0.065,-0.005 -0.08,-0.017c-0.015,-0.011 -0.019,-0.038 -0.011,-0.079l0.61,-3.505c0.023,-0.133 0.072,-0.231 0.148,-0.293c0.075,-0.063 0.17,-0.094 0.283,-0.094l2.43,0c0.243,0 0.342,0.129 0.297,0.387l-0.611,3.505Zm1.448,-0.023c-0.009,0.053 -0.023,0.086 -0.043,0.1c-0.019,0.013 -0.055,0.019 -0.109,0.019l-0.426,0c-0.042,0 -0.073,-0.007 -0.093,-0.022c-0.02,-0.015 -0.026,-0.048 -0.017,-0.097l0.618,-3.551c0.019,-0.106 0.056,-0.186 0.111,-0.241c0.055,-0.055 0.143,-0.083 0.264,-0.083l1.355,0c0.189,0 0.358,0.03 0.505,0.088c0.147,0.059 0.267,0.143 0.36,0.251c0.093,0.108 0.158,0.237 0.195,0.387c0.036,0.149 0.039,0.313 0.008,0.492c-0.018,0.102 -0.056,0.224 -0.113,0.367c-0.057,0.142 -0.145,0.279 -0.265,0.412c-0.12,0.133 -0.275,0.246 -0.466,0.339c-0.191,0.093 -0.428,0.139 -0.712,0.139l-0.928,0l-0.244,1.4Zm2.003,-2.612c0.011,-0.064 0.013,-0.134 0.005,-0.21c-0.008,-0.076 -0.031,-0.145 -0.072,-0.208c-0.04,-0.062 -0.102,-0.115 -0.186,-0.156c-0.084,-0.042 -0.196,-0.063 -0.336,-0.063l-0.842,0l-0.22,1.263l0.853,0c0.239,0 0.424,-0.059 0.554,-0.176c0.131,-0.118 0.212,-0.268 0.244,-0.45" style="fill:#263c4b;fill-rule:nonzero;"/><path d="M109.363,46.761c-0.007,0.041 -0.021,0.073 -0.04,0.097c-0.019,0.023 -0.053,0.034 -0.103,0.034l-1.621,0c-0.201,0 -0.361,-0.028 -0.48,-0.085c-0.119,-0.057 -0.209,-0.133 -0.271,-0.228c-0.061,-0.094 -0.096,-0.203 -0.105,-0.324c-0.01,-0.121 -0.003,-0.248 0.021,-0.381l0.339,-1.946c0.023,-0.133 0.063,-0.261 0.121,-0.384c0.057,-0.123 0.135,-0.232 0.233,-0.327c0.098,-0.095 0.216,-0.171 0.355,-0.228c0.139,-0.057 0.3,-0.085 0.482,-0.085l1.587,0c0.049,0 0.079,0.01 0.089,0.031c0.009,0.021 0.01,0.054 0.002,0.1l-0.062,0.358c-0.009,0.049 -0.021,0.083 -0.038,0.1c-0.016,0.017 -0.049,0.025 -0.098,0.025l-1.513,0c-0.144,0 -0.252,0.033 -0.322,0.097c-0.07,0.064 -0.115,0.158 -0.136,0.279l-0.105,0.597l1.719,0c0.049,0 0.079,0.01 0.089,0.029c0.01,0.019 0.01,0.055 0.001,0.108l-0.054,0.313c-0.009,0.045 -0.021,0.079 -0.038,0.099c-0.017,0.021 -0.05,0.032 -0.099,0.032l-1.719,0l-0.144,0.827c-0.021,0.12 -0.005,0.212 0.046,0.274c0.052,0.062 0.146,0.094 0.283,0.094l1.547,0c0.054,0 0.085,0.009 0.095,0.028c0.01,0.019 0.01,0.056 0.001,0.109l-0.062,0.357Zm4.261,-2.617l-0.034,0l-0.437,0.774l-0.725,1.257c-0.059,0.099 -0.111,0.165 -0.157,0.2c-0.046,0.034 -0.116,0.051 -0.211,0.051l-0.256,0c-0.095,0 -0.159,-0.017 -0.193,-0.051c-0.034,-0.035 -0.061,-0.101 -0.082,-0.2l-0.291,-1.2l-0.175,-0.762l-0.034,0l-0.446,2.56c-0.009,0.053 -0.025,0.086 -0.046,0.1c-0.021,0.013 -0.057,0.019 -0.106,0.019l-0.41,0c-0.041,0 -0.072,-0.006 -0.093,-0.019c-0.02,-0.014 -0.026,-0.047 -0.016,-0.1l0.613,-3.522c0.021,-0.118 0.058,-0.205 0.114,-0.262c0.055,-0.057 0.148,-0.085 0.276,-0.085l0.234,0c0.098,0 0.169,0.017 0.213,0.051c0.043,0.034 0.077,0.102 0.101,0.205l0.386,1.667l0.2,0.882l0.022,0l0.507,-0.888l0.961,-1.661c0.06,-0.103 0.119,-0.171 0.178,-0.205c0.06,-0.034 0.138,-0.051 0.237,-0.051l0.216,0c0.121,0 0.202,0.026 0.242,0.08c0.04,0.053 0.05,0.138 0.03,0.255l-0.616,3.534c-0.009,0.053 -0.024,0.086 -0.046,0.1c-0.021,0.013 -0.056,0.019 -0.106,0.019l-0.404,0c-0.041,0 -0.071,-0.006 -0.09,-0.019c-0.019,-0.014 -0.023,-0.047 -0.014,-0.1l0.458,-2.629Zm3.983,-0.239l-0.651,0.865l-1.448,1.878c-0.073,0.095 -0.136,0.159 -0.187,0.193c-0.052,0.034 -0.129,0.051 -0.231,0.051l-0.199,0c-0.129,0 -0.211,-0.029 -0.247,-0.088c-0.035,-0.059 -0.043,-0.143 -0.024,-0.253l0.619,-3.55c0.007,-0.042 0.02,-0.069 0.039,-0.08c0.019,-0.011 0.048,-0.017 0.086,-0.017l0.472,0c0.042,0 0.069,0.006 0.082,0.017c0.013,0.011 0.017,0.038 0.009,0.08l-0.501,2.879l0.022,0l0.612,-0.797l1.485,-1.929c0.074,-0.098 0.137,-0.165 0.188,-0.199c0.052,-0.034 0.126,-0.051 0.225,-0.051l0.205,0c0.125,0 0.207,0.027 0.245,0.082c0.037,0.055 0.046,0.144 0.025,0.265l-0.618,3.545c-0.007,0.041 -0.02,0.068 -0.039,0.079c-0.02,0.012 -0.048,0.017 -0.086,0.017l-0.472,0c-0.042,0 -0.069,-0.005 -0.082,-0.017c-0.014,-0.011 -0.017,-0.038 -0.009,-0.079l0.503,-2.891l-0.023,0Zm3.392,1.332l-0.666,0c-0.182,0 -0.339,0.036 -0.471,0.108c-0.132,0.072 -0.242,0.208 -0.33,0.409l-0.462,1.047c-0.019,0.046 -0.045,0.072 -0.076,0.08c-0.032,0.008 -0.063,0.011 -0.093,0.011l-0.501,0c-0.049,0 -0.074,-0.012 -0.076,-0.037c-0.001,-0.024 0.004,-0.052 0.017,-0.082l0.498,-1.127c0.062,-0.14 0.139,-0.259 0.23,-0.358c0.091,-0.099 0.221,-0.175 0.39,-0.228l0.001,-0.005c-0.201,-0.088 -0.339,-0.218 -0.413,-0.39c-0.074,-0.173 -0.092,-0.373 -0.052,-0.6c0.03,-0.171 0.086,-0.328 0.17,-0.47c0.084,-0.142 0.19,-0.264 0.317,-0.367c0.128,-0.102 0.274,-0.182 0.437,-0.239c0.164,-0.057 0.342,-0.085 0.536,-0.085l1.337,0c0.121,0 0.2,0.026 0.236,0.08c0.037,0.053 0.045,0.134 0.026,0.244l-0.622,3.573c-0.008,0.042 -0.021,0.068 -0.039,0.077c-0.019,0.01 -0.048,0.014 -0.085,0.014l-0.484,0c-0.042,0 -0.07,-0.004 -0.086,-0.014c-0.015,-0.009 -0.019,-0.035 -0.012,-0.077l0.273,-1.564Zm-1.303,-1.144c-0.028,0.159 0,0.293 0.083,0.401c0.084,0.108 0.241,0.162 0.473,0.162l0.842,0l0.196,-1.126l-0.876,0c-0.129,0 -0.237,0.019 -0.323,0.057c-0.086,0.038 -0.157,0.084 -0.212,0.139c-0.055,0.055 -0.097,0.116 -0.125,0.182c-0.029,0.066 -0.048,0.128 -0.058,0.185" style="fill:#263c4b;fill-rule:nonzero;"/><path d="M138.034,4.77c-0.214,1.176 -0.896,2.192 -2.047,3.049c-0.352,0.263 -0.732,0.526 -1.139,0.788l-5.043,3.215l6.948,0l-0.527,2.904l-11.2,0l0.715,-3.941l8.446,-5.392l0.189,-1.037c0.15,-0.83 -0.189,-1.245 -1.019,-1.245l-5.807,0l0.527,-2.904l6.637,0c1.452,0 2.447,0.329 2.984,0.986c0.538,0.656 0.675,1.711 0.411,3.163l-0.075,0.414Zm9.56,-0.622c0.15,-0.83 -0.189,-1.244 -1.019,-1.244l-2.281,0c-0.83,0 -1.32,0.414 -1.471,1.244l-1.205,6.637c-0.151,0.83 0.189,1.245 1.019,1.245l2.281,0c0.83,0 1.32,-0.415 1.47,-1.245l1.206,-6.637Zm2.528,6.637c-0.264,1.452 -0.784,2.506 -1.56,3.163c-0.776,0.657 -1.89,0.985 -3.342,0.985l-3.94,0c-1.452,0 -2.447,-0.328 -2.984,-0.985c-0.538,-0.657 -0.675,-1.711 -0.411,-3.163l1.205,-6.637c0.264,-1.452 0.784,-2.506 1.56,-3.163c0.776,-0.657 1.89,-0.985 3.342,-0.985l3.94,0c1.452,0 2.447,0.328 2.984,0.985c0.538,0.657 0.675,1.711 0.411,3.163l-1.205,6.637Zm3.028,3.941l2.053,-11.304l-2.536,0.83l-0.604,-2.385l4.138,-1.66l3.319,0l-2.637,14.519l-3.733,0Zm11.124,-5.807c-0.83,0 -1.32,0.414 -1.471,1.244l-0.15,0.83c-0.058,0.318 -0.011,0.57 0.142,0.757c0.153,0.186 0.389,0.28 0.707,0.28l3.111,0c0.318,0 0.587,-0.094 0.807,-0.28c0.221,-0.187 0.36,-0.439 0.418,-0.757l0.151,-0.83c0.15,-0.83 -0.189,-1.244 -1.019,-1.244l-2.696,0Zm1.507,-6.015c-0.83,0 -1.32,0.414 -1.471,1.244l-0.113,0.622c-0.15,0.83 0.189,1.245 1.019,1.245l1.867,0c0.829,0 1.319,-0.415 1.47,-1.245l0.113,-0.622c0.151,-0.83 -0.189,-1.244 -1.018,-1.244l-1.867,0Zm5.79,8.089c-0.246,1.355 -0.744,2.35 -1.496,2.986c-0.752,0.636 -1.805,0.954 -3.16,0.954l-4.771,0c-1.355,0 -2.292,-0.318 -2.813,-0.954c-0.52,-0.636 -0.658,-1.631 -0.412,-2.986l0.038,-0.208c0.191,-1.051 0.612,-1.922 1.263,-2.613c0.515,-0.553 1.15,-0.927 1.904,-1.12c-0.585,-0.208 -1.02,-0.571 -1.306,-1.089c-0.286,-0.519 -0.354,-1.193 -0.203,-2.022l0.037,-0.208c0.229,-1.258 0.717,-2.195 1.465,-2.81c0.748,-0.615 1.799,-0.923 3.154,-0.923l3.941,0c1.355,0 2.295,0.308 2.819,0.923c0.524,0.615 0.672,1.552 0.444,2.81l-0.038,0.208c-0.15,0.829 -0.463,1.503 -0.937,2.022c-0.475,0.518 -1.042,0.881 -1.702,1.089c1.065,0.304 1.69,1.051 1.875,2.24c0.06,0.429 0.039,0.926 -0.064,1.493l-0.038,0.208Z" style="fill:#2d3941;fill-rule:nonzero;"/><g><clipPath id="_clip1"><path d="M138.034,4.77c-0.214,1.176 -0.896,2.192 -2.047,3.049c-0.352,0.263 -0.732,0.526 -1.139,0.788l-5.043,3.215l6.948,0l-0.527,2.904l-11.2,0l0.715,-3.941l8.446,-5.392l0.189,-1.037c0.15,-0.83 -0.189,-1.245 -1.019,-1.245l-5.807,0l0.527,-2.904l6.637,0c1.452,0 2.447,0.329 2.984,0.986c0.538,0.656 0.675,1.711 0.411,3.163l-0.075,0.414Zm9.56,-0.622c0.15,-0.83 -0.189,-1.244 -1.019,-1.244l-2.281,0c-0.83,0 -1.32,0.414 -1.471,1.244l-1.205,6.637c-0.151,0.83 0.189,1.245 1.019,1.245l2.281,0c0.83,0 1.32,-0.415 1.47,-1.245l1.206,-6.637Zm2.528,6.637c-0.264,1.452 -0.784,2.506 -1.56,3.163c-0.776,0.657 -1.89,0.985 -3.342,0.985l-3.94,0c-1.452,0 -2.447,-0.328 -2.984,-0.985c-0.538,-0.657 -0.675,-1.711 -0.411,-3.163l1.205,-6.637c0.264,-1.452 0.784,-2.506 1.56,-3.163c0.776,-0.657 1.89,-0.985 3.342,-0.985l3.94,0c1.452,0 2.447,0.328 2.984,0.985c0.538,0.657 0.675,1.711 0.411,3.163l-1.205,6.637Zm3.028,3.941l2.053,-11.304l-2.536,0.83l-0.604,-2.385l4.138,-1.66l3.319,0l-2.637,14.519l-3.733,0Zm11.124,-5.807c-0.83,0 -1.32,0.414 -1.471,1.244l-0.15,0.83c-0.058,0.318 -0.011,0.57 0.142,0.757c0.153,0.186 0.389,0.28 0.707,0.28l3.111,0c0.318,0 0.587,-0.094 0.807,-0.28c0.221,-0.187 0.36,-0.439 0.418,-0.757l0.151,-0.83c0.15,-0.83 -0.189,-1.244 -1.019,-1.244l-2.696,0Zm1.507,-6.015c-0.83,0 -1.32,0.414 -1.471,1.244l-0.113,0.622c-0.15,0.83 0.189,1.245 1.019,1.245l1.867,0c0.829,0 1.319,-0.415 1.47,-1.245l0.113,-0.622c0.151,-0.83 -0.189,-1.244 -1.018,-1.244l-1.867,0Zm5.79,8.089c-0.246,1.355 -0.744,2.35 -1.496,2.986c-0.752,0.636 -1.805,0.954 -3.16,0.954l-4.771,0c-1.355,0 -2.292,-0.318 -2.813,-0.954c-0.52,-0.636 -0.658,-1.631 -0.412,-2.986l0.038,-0.208c0.191,-1.051 0.612,-1.922 1.263,-2.613c0.515,-0.553 1.15,-0.927 1.904,-1.12c-0.585,-0.208 -1.02,-0.571 -1.306,-1.089c-0.286,-0.519 -0.354,-1.193 -0.203,-2.022l0.037,-0.208c0.229,-1.258 0.717,-2.195 1.465,-2.81c0.748,-0.615 1.799,-0.923 3.154,-0.923l3.941,0c1.355,0 2.295,0.308 2.819,0.923c0.524,0.615 0.672,1.552 0.444,2.81l-0.038,0.208c-0.15,0.829 -0.463,1.503 -0.937,2.022c-0.475,0.518 -1.042,0.881 -1.702,1.089c1.065,0.304 1.69,1.051 1.875,2.24c0.06,0.429 0.039,0.926 -0.064,1.493l-0.038,0.208Z" clip-rule="nonzero"/></clipPath><g clip-path="url(#_clip1)"><path d="M139.466,16.764c4.13,-0.015 9.235,-0.036 12.865,-0.88c4.122,-1.136 7.485,-1.749 12.094,-2.007c4.347,-0.243 8.431,-0.308 13.277,0.607c5.189,0.98 10.015,2.495 16.352,4.034c6.336,1.541 15.755,-0.579 21.917,2.367l-0.121,-0.097c-6.269,-3.551 -15.111,-1.355 -21.699,-3.069c-6.588,-1.715 -11.438,-4.424 -16.693,-5.368c-4.541,-0.815 -8.932,-0.641 -13.045,-0.301c-4.56,0.377 -8.159,1.453 -12.203,2.818c-4.238,1.489 -8.643,1.797 -12.744,1.896" style="fill:#006db7;"/><path d="M139.539,16.641c4.13,-0.014 9.029,-0.522 12.792,-1.559c4.122,-1.136 7.485,-2.453 12.094,-2.712c4.347,-0.243 8.698,-0.405 13.545,0.51c5.188,0.98 9.747,3.297 16.084,4.836c6.336,1.54 15.904,0.082 22.066,3.028l-0.121,-0.097c-6.269,-3.551 -15.26,-2.016 -21.848,-3.731c-6.588,-1.714 -11.438,-4.424 -16.693,-5.367c-4.541,-0.815 -8.932,-0.642 -13.045,-0.301c-4.56,0.377 -8.159,1.453 -12.203,2.817c-3.691,1.247 -8.57,2.478 -12.671,2.576" style="fill:#fff;"/><path d="M138.948,16.901c4.161,-0.011 8.741,0.142 12.756,-0.531c8.369,-1.403 17.908,-2.047 26.319,-0.813c5.213,0.765 8.992,1.862 15.325,3.199c6.333,1.337 16.674,0.081 22.94,2.462l-0.191,-0.32c-6.188,-2.839 -15.945,-1.394 -22.174,-2.656c-6.962,-1.409 -11.055,-3.286 -16.336,-4.023c-4.563,-0.636 -9.287,-0.719 -13.435,-0.453c-4.598,0.294 -8.274,1.014 -12.365,2.08c-3.735,0.973 -8.707,0.979 -12.839,1.055" style="fill:#d22229;"/></g></g></g></svg>