<?xml version="1.0" encoding="UTF-8" standalone="no"?><!DOCTYPE svg PUBLIC "-//W3C//DTD SVG 1.1//EN" "http://www.w3.org/Graphics/SVG/1.1/DTD/svg11.dtd"><svg width="100%" height="100%" viewBox="0 0 120 34" version="1.1" xmlns="http://www.w3.org/2000/svg" xmlns:xlink="http://www.w3.org/1999/xlink" xml:space="preserve" xmlns:serif="http://www.serif.com/" style="fill-rule:evenodd;clip-rule:evenodd;stroke-linejoin:round;stroke-miterlimit:1.41421;"><g><path d="M1.868,26.499l-1.868,0l3.71,-6.707l1.916,0l1.368,6.707l-1.868,0l-0.222,-1.198l-2.396,0l-0.64,1.198Zm1.289,-2.443l1.533,0l-0.373,-2.252l-1.16,2.252Zm5.201,-4.264l3.833,0c0.626,0 1.06,0.142 1.305,0.427c0.244,0.284 0.315,0.717 0.214,1.298c-0.067,0.383 -0.205,0.694 -0.412,0.934c-0.208,0.239 -0.442,0.407 -0.701,0.503c0.493,0.14 0.783,0.485 0.873,1.035c0.029,0.198 0.021,0.427 -0.025,0.689c-0.109,0.626 -0.336,1.086 -0.681,1.38c-0.345,0.294 -0.831,0.441 -1.457,0.441l-4.119,0l1.17,-6.707Zm3.413,4.599c0.067,-0.383 -0.091,-0.575 -0.474,-0.575l-1.917,0l-0.234,1.341l1.916,0c0.384,0 0.609,-0.191 0.676,-0.574l0.033,-0.192Zm0.181,-2.683c0.067,-0.383 -0.091,-0.574 -0.475,-0.574l-1.628,0l-0.234,1.341l1.628,0c0.384,0 0.609,-0.192 0.675,-0.575l0.034,-0.192Zm4.818,4.791l-1.724,0l0.936,-5.365l-2.011,0l0.234,-1.342l5.748,0l-0.234,1.342l-2.012,0l-0.937,5.365Zm7.562,-4.886c0.067,-0.384 -0.092,-0.575 -0.475,-0.575l-1.628,0c-0.384,0 -0.609,0.191 -0.676,0.575l-0.535,3.065c-0.067,0.383 0.091,0.575 0.475,0.575l1.628,0c0.383,0 0.609,-0.192 0.675,-0.575l0.536,-3.065Zm1.189,3.065c-0.117,0.671 -0.354,1.158 -0.71,1.461c-0.357,0.304 -0.87,0.455 -1.541,0.455l-2.395,0c-0.67,0 -1.131,-0.151 -1.381,-0.455c-0.251,-0.303 -0.317,-0.79 -0.2,-1.461l0.535,-3.065c0.117,-0.671 0.354,-1.158 0.71,-1.462c0.357,-0.303 0.87,-0.455 1.541,-0.455l2.394,0c0.671,0 1.132,0.152 1.382,0.455c0.251,0.304 0.317,0.791 0.2,1.462l-0.535,3.065Zm6.756,-1.916l-1.76,2.395l-1.341,0l-0.923,-2.395l-0.652,3.737l-1.725,0l1.171,-6.707l1.82,0l1.297,3.545l2.535,-3.545l1.82,0l-1.17,6.707l-1.725,0l0.653,-3.737Zm7.1,-1.149c0.067,-0.384 -0.091,-0.575 -0.474,-0.575l-1.629,0c-0.383,0 -0.608,0.191 -0.675,0.575l-0.535,3.065c-0.067,0.383 0.091,0.575 0.474,0.575l1.629,0c0.383,0 0.608,-0.192 0.675,-0.575l0.535,-3.065Zm1.189,3.065c-0.117,0.671 -0.353,1.158 -0.71,1.461c-0.356,0.304 -0.869,0.455 -1.54,0.455l-2.395,0c-0.671,0 -1.131,-0.151 -1.382,-0.455c-0.25,-0.303 -0.317,-0.79 -0.2,-1.461l0.535,-3.065c0.118,-0.671 0.354,-1.158 0.711,-1.462c0.356,-0.303 0.87,-0.455 1.54,-0.455l2.395,0c0.671,0 1.131,0.152 1.382,0.455c0.25,0.304 0.317,0.791 0.2,1.462l-0.536,3.065Zm2.799,-2.299l2.3,0c0.67,0 1.131,0.152 1.381,0.455c0.251,0.303 0.317,0.791 0.2,1.461l-0.05,0.288c-0.117,0.67 -0.354,1.157 -0.71,1.461c-0.356,0.303 -0.87,0.455 -1.54,0.455l-4.024,0l1.17,-6.707l5.318,0l-0.235,1.342l-3.592,0l-0.218,1.245Zm2.157,1.916c0.066,-0.383 -0.092,-0.575 -0.475,-0.575l-1.916,0l-0.251,1.437l1.916,0c0.384,0 0.609,-0.191 0.676,-0.574l0.05,-0.288Zm7.761,2.204l-1.725,0l0.719,-4.12l-3.018,4.12l-1.82,0l1.17,-6.707l1.725,0l-0.719,4.12l3.018,-4.12l1.82,0l-1.17,6.707Zm3.118,-1.39c-0.112,0.46 -0.322,0.823 -0.63,1.088c-0.308,0.265 -0.654,0.397 -1.037,0.397c-0.383,0 -0.739,-0.032 -1.066,-0.095l0.226,-1.294l0.431,0c0.121,0 0.229,-0.041 0.323,-0.124c0.095,-0.083 0.156,-0.185 0.183,-0.307l1.158,-4.982l5.317,0l-1.171,6.707l-1.725,0l0.937,-5.365l-2.012,0l-0.934,3.975Zm7.092,-3.017l2.3,0c0.67,0 1.131,0.151 1.381,0.455c0.25,0.303 0.317,0.79 0.2,1.461l-0.1,0.575c-0.117,0.67 -0.354,1.157 -0.711,1.461c-0.356,0.303 -0.869,0.455 -1.54,0.455l-4.024,0l1.171,-6.707l1.725,0l-0.402,2.3Zm2.156,1.916c0.067,-0.383 -0.091,-0.575 -0.474,-0.575l-1.916,0l-0.301,1.724l1.916,0c0.383,0 0.608,-0.191 0.675,-0.574l0.1,-0.575Zm6.466,2.491l-1.725,0l1.171,-6.707l5.221,0l-0.234,1.342l-3.497,0l-0.936,5.365Zm9.046,-4.886c0.067,-0.384 -0.091,-0.575 -0.474,-0.575l-1.629,0c-0.383,0 -0.608,0.191 -0.675,0.575l-0.535,3.065c-0.067,0.383 0.091,0.575 0.474,0.575l1.629,0c0.383,0 0.608,-0.192 0.675,-0.575l0.535,-3.065Zm1.189,3.065c-0.117,0.671 -0.353,1.158 -0.71,1.461c-0.356,0.304 -0.869,0.455 -1.54,0.455l-2.395,0c-0.671,0 -1.131,-0.151 -1.382,-0.455c-0.25,-0.303 -0.317,-0.79 -0.2,-1.461l0.536,-3.065c0.117,-0.671 0.353,-1.158 0.71,-1.462c0.356,-0.303 0.87,-0.455 1.54,-0.455l2.395,0c0.671,0 1.131,0.152 1.382,0.455c0.25,0.304 0.317,0.791 0.2,1.462l-0.536,3.065Zm2.293,-4.886l5.03,0l-0.937,5.365l0.718,0l-0.451,2.587l-1.629,0l0.122,-1.245l-3.737,0l-0.313,1.245l-1.628,0l0.451,-2.587l0.623,0c0.222,-0.21 0.402,-0.448 0.541,-0.713c0.139,-0.266 0.234,-0.507 0.285,-0.724l0.925,-3.928Zm2.368,5.365l0.703,-4.023l-1.772,0l-0.562,2.395c-0.087,0.389 -0.252,0.782 -0.493,1.178c-0.1,0.166 -0.206,0.316 -0.318,0.45l2.442,0Zm3.888,1.342l-1.868,0l3.71,-6.707l1.817,-0.031l0.234,0.695l1.233,6.043l-1.868,0l-0.222,-1.198l-2.396,0l-0.64,1.198Zm1.289,-2.443l1.533,0l-0.373,-2.252l-1.16,2.252Z" style="fill:#fff;fill-rule:nonzero;"/><path d="M94.955,14.296c-4.916,-0.017 -10.747,-0.632 -15.225,-1.889c-4.907,-1.377 -8.909,-2.972 -14.396,-3.286c-5.173,-0.294 -10.353,-0.491 -16.121,0.618c-6.176,1.187 -11.603,3.994 -19.144,5.86c-7.491,1.853 -18.691,0.124 -26.029,3.596l0.078,-0.14c7.453,-4.179 18.053,-2.364 25.834,-4.425c7.842,-2.078 13.615,-5.361 19.87,-6.504c5.404,-0.988 10.631,-0.777 15.527,-0.365c5.427,0.457 9.711,1.76 14.525,3.414c4.393,1.51 10.2,3.002 15.081,3.121" style="fill:#2d3941;fill-rule:nonzero;"/><path d="M95.042,14.53c-4.916,-0.018 -10.992,-0.043 -15.312,-1.047c-4.907,-1.352 -8.909,-2.081 -14.396,-2.389c-5.173,-0.289 -10.035,-0.367 -15.803,0.723c-6.176,1.166 -11.921,2.969 -19.462,4.802c-7.509,1.825 -18.816,-0.638 -26.153,2.8l0.116,-0.209c7.455,-4.099 18.136,-1.517 25.92,-3.543c7.842,-2.041 13.615,-5.266 19.87,-6.389c5.404,-0.97 10.631,-0.763 15.527,-0.358c5.427,0.449 9.711,1.729 14.525,3.353c5.044,1.773 10.286,2.14 15.168,2.257" style="fill:#006db7;"/><path d="M94.955,14.384c-4.916,-0.017 -10.747,-0.621 -15.225,-1.856c-4.907,-1.352 -8.909,-2.92 -14.396,-3.228c-5.173,-0.288 -10.353,-0.482 -16.121,0.607c-6.176,1.167 -11.603,3.924 -19.144,5.757c-7.491,1.821 -18.71,0.153 -26.048,3.565l0.094,-0.169c7.454,-4.107 18.055,-2.323 25.837,-4.348c7.842,-2.041 13.615,-5.266 19.87,-6.389c5.404,-0.97 10.631,-0.763 15.527,-0.358c5.427,0.449 9.711,1.729 14.525,3.353c4.393,1.484 10.2,2.949 15.081,3.066" style="fill:#fff;"/><path d="M95.659,14.694c-4.952,-0.014 -10.404,0.169 -15.184,-0.632c-9.96,-1.671 -21.314,-2.437 -31.325,-0.968c-6.206,0.911 -10.704,2.216 -18.242,3.807c-7.537,1.591 -19.74,0.057 -27.198,2.891l0,0l0.21,-0.381c7.369,-3.325 18.919,-1.626 26.304,-3.121c8.287,-1.678 13.158,-3.912 19.445,-4.788c5.431,-0.758 11.053,-0.857 15.99,-0.54c5.474,0.35 9.849,1.207 14.718,2.476c4.446,1.158 10.363,1.164 15.282,1.256" style="fill:#d22229;"/><path d="M13.38,32.354c-0.005,0.029 -0.014,0.051 -0.027,0.068c-0.014,0.016 -0.037,0.023 -0.072,0.023l-1.121,0c-0.14,0 -0.25,-0.019 -0.333,-0.059c-0.082,-0.039 -0.144,-0.091 -0.187,-0.157c-0.042,-0.066 -0.066,-0.141 -0.073,-0.224c-0.006,-0.084 -0.001,-0.172 0.015,-0.264l0.234,-1.347c0.016,-0.091 0.044,-0.18 0.084,-0.265c0.04,-0.086 0.093,-0.161 0.161,-0.227c0.068,-0.065 0.15,-0.118 0.246,-0.157c0.096,-0.04 0.207,-0.059 0.333,-0.059l1.099,0c0.034,0 0.054,0.007 0.061,0.021c0.006,0.015 0.007,0.038 0.002,0.069l-0.044,0.248c-0.006,0.034 -0.014,0.057 -0.025,0.069c-0.012,0.012 -0.034,0.018 -0.068,0.018l-1.048,0c-0.099,0 -0.173,0.022 -0.222,0.067c-0.048,0.044 -0.08,0.109 -0.095,0.193l-0.072,0.413l1.189,0c0.034,0 0.055,0.007 0.062,0.02c0.007,0.013 0.007,0.038 0.001,0.075l-0.038,0.216c-0.006,0.032 -0.014,0.055 -0.026,0.069c-0.012,0.014 -0.035,0.022 -0.069,0.022l-1.189,0l-0.099,0.572c-0.015,0.083 -0.004,0.147 0.032,0.189c0.036,0.044 0.101,0.065 0.195,0.065l1.071,0c0.037,0 0.058,0.007 0.065,0.02c0.007,0.013 0.007,0.039 0.001,0.075l-0.043,0.247Zm1.09,-1.401c-0.078,-0.049 -0.136,-0.116 -0.174,-0.198c-0.038,-0.083 -0.061,-0.18 -0.068,-0.29l-0.051,-0.704c-0.002,-0.014 0,-0.03 0.007,-0.05c0.008,-0.019 0.028,-0.029 0.062,-0.029l0.323,0c0.013,0 0.028,0.003 0.044,0.008c0.016,0.005 0.025,0.021 0.025,0.047l0.054,0.665c0.009,0.084 0.027,0.151 0.053,0.201c0.027,0.05 0.059,0.088 0.095,0.114c0.036,0.026 0.075,0.043 0.119,0.049c0.043,0.007 0.085,0.01 0.124,0.01l0.362,0l0.179,-1.023c0,-0.029 0.005,-0.047 0.017,-0.053c0.011,-0.007 0.03,-0.01 0.057,-0.01l0.338,0c0.024,0 0.041,0.003 0.052,0.01c0.01,0.006 0.013,0.024 0.008,0.053l-0.178,1.023l0.358,0c0.039,0 0.082,-0.003 0.128,-0.01c0.045,-0.006 0.091,-0.023 0.136,-0.049c0.046,-0.026 0.09,-0.064 0.134,-0.114c0.044,-0.05 0.086,-0.117 0.124,-0.201l0.289,-0.665c0.01,-0.026 0.024,-0.042 0.042,-0.047c0.018,-0.005 0.033,-0.008 0.046,-0.008l0.323,0c0.034,0 0.052,0.01 0.052,0.029c0.001,0.02 -0.003,0.036 -0.01,0.05l-0.296,0.704c-0.046,0.11 -0.103,0.207 -0.171,0.29c-0.068,0.082 -0.149,0.149 -0.241,0.198l-0.004,0.02c0.064,0.024 0.116,0.051 0.155,0.081c0.04,0.03 0.07,0.065 0.092,0.106c0.022,0.041 0.037,0.085 0.046,0.134c0.009,0.048 0.016,0.102 0.021,0.159l0.085,0.914c0.003,0.013 0.001,0.029 -0.006,0.049c-0.008,0.02 -0.029,0.029 -0.063,0.029l-0.35,0c-0.013,0 -0.027,-0.002 -0.042,-0.007c-0.015,-0.006 -0.024,-0.021 -0.027,-0.048l-0.082,-0.862c-0.009,-0.071 -0.022,-0.129 -0.041,-0.175c-0.018,-0.046 -0.044,-0.081 -0.08,-0.106c-0.034,-0.025 -0.077,-0.043 -0.128,-0.053c-0.051,-0.011 -0.11,-0.016 -0.178,-0.016l-0.382,0l-0.21,1.204c-0.005,0.029 -0.014,0.047 -0.027,0.054c-0.013,0.006 -0.031,0.009 -0.055,0.009l-0.334,0c-0.027,0 -0.045,-0.003 -0.054,-0.009c-0.009,-0.007 -0.011,-0.025 -0.006,-0.054l0.213,-1.204l-0.382,0c-0.068,0 -0.129,0.005 -0.183,0.016c-0.055,0.01 -0.103,0.028 -0.147,0.053c-0.044,0.025 -0.084,0.06 -0.121,0.106c-0.037,0.046 -0.071,0.104 -0.102,0.175l-0.378,0.862c-0.013,0.027 -0.027,0.042 -0.044,0.048c-0.016,0.005 -0.031,0.007 -0.045,0.007l-0.35,0c-0.034,0 -0.051,-0.009 -0.052,-0.029c0,-0.02 0.003,-0.036 0.011,-0.049l0.403,-0.914c0.025,-0.055 0.051,-0.107 0.076,-0.155c0.026,-0.049 0.056,-0.093 0.092,-0.134c0.036,-0.041 0.079,-0.077 0.13,-0.108c0.05,-0.032 0.111,-0.059 0.183,-0.083l0.004,-0.02Zm5.011,1.401c-0.006,0.029 -0.015,0.051 -0.028,0.068c-0.013,0.016 -0.037,0.023 -0.071,0.023l-1.122,0c-0.139,0 -0.25,-0.019 -0.332,-0.059c-0.083,-0.039 -0.145,-0.091 -0.187,-0.157c-0.043,-0.066 -0.067,-0.141 -0.073,-0.224c-0.007,-0.084 -0.002,-0.172 0.014,-0.264l0.235,-1.347c0.015,-0.091 0.043,-0.18 0.083,-0.265c0.04,-0.086 0.094,-0.161 0.162,-0.227c0.067,-0.065 0.149,-0.118 0.246,-0.157c0.096,-0.04 0.207,-0.059 0.333,-0.059l1.098,0c0.034,0 0.055,0.007 0.061,0.021c0.007,0.015 0.007,0.038 0.002,0.069l-0.043,0.248c-0.006,0.034 -0.015,0.057 -0.026,0.069c-0.011,0.012 -0.034,0.018 -0.068,0.018l-1.047,0c-0.1,0 -0.174,0.022 -0.222,0.067c-0.049,0.044 -0.08,0.109 -0.095,0.193l-0.072,0.413l1.189,0c0.034,0 0.054,0.007 0.061,0.02c0.007,0.013 0.008,0.038 0.001,0.075l-0.038,0.216c-0.005,0.032 -0.014,0.055 -0.025,0.069c-0.012,0.014 -0.035,0.022 -0.069,0.022l-1.189,0l-0.1,0.572c-0.014,0.083 -0.004,0.147 0.032,0.189c0.036,0.044 0.101,0.065 0.195,0.065l1.071,0c0.037,0 0.059,0.007 0.066,0.02c0.007,0.013 0.007,0.039 0,0.075l-0.042,0.247Zm0.859,0.009c-0.006,0.036 -0.016,0.06 -0.029,0.069c-0.014,0.009 -0.039,0.013 -0.076,0.013l-0.299,0c-0.029,0 -0.05,-0.005 -0.064,-0.015c-0.014,-0.011 -0.018,-0.033 -0.012,-0.067l0.343,-1.969c0.016,-0.091 0.043,-0.18 0.08,-0.265c0.037,-0.086 0.089,-0.161 0.155,-0.227c0.067,-0.065 0.148,-0.118 0.244,-0.157c0.096,-0.04 0.211,-0.059 0.345,-0.059l1.083,0c0.037,0 0.058,0.007 0.065,0.021c0.007,0.015 0.007,0.038 0.002,0.069l-0.043,0.244c-0.006,0.034 -0.015,0.058 -0.028,0.071c-0.013,0.013 -0.036,0.02 -0.07,0.02l-1.032,0c-0.099,0 -0.173,0.022 -0.222,0.065c-0.048,0.043 -0.079,0.107 -0.094,0.191l-0.348,1.996Zm3.963,-1.307c-0.079,0.456 -0.241,0.809 -0.485,1.059c-0.245,0.249 -0.57,0.374 -0.977,0.374c-0.396,0 -0.672,-0.12 -0.827,-0.36c-0.155,-0.241 -0.192,-0.593 -0.111,-1.058c0.039,-0.225 0.104,-0.426 0.194,-0.602c0.089,-0.176 0.198,-0.325 0.325,-0.447c0.128,-0.122 0.27,-0.215 0.427,-0.279c0.157,-0.065 0.323,-0.097 0.499,-0.097c0.197,0 0.365,0.032 0.505,0.097c0.14,0.064 0.249,0.157 0.327,0.279c0.079,0.122 0.128,0.271 0.149,0.445c0.021,0.175 0.012,0.371 -0.026,0.589Zm-0.499,0.015c0.023,-0.131 0.035,-0.256 0.036,-0.376c0.001,-0.119 -0.015,-0.225 -0.051,-0.316c-0.035,-0.092 -0.093,-0.165 -0.174,-0.219c-0.081,-0.054 -0.193,-0.081 -0.335,-0.081c-0.12,0 -0.23,0.026 -0.328,0.077c-0.098,0.051 -0.184,0.121 -0.259,0.211c-0.075,0.089 -0.137,0.192 -0.186,0.309c-0.049,0.117 -0.085,0.242 -0.109,0.376c-0.026,0.152 -0.039,0.29 -0.038,0.413c0.001,0.123 0.021,0.229 0.061,0.317c0.04,0.088 0.101,0.156 0.183,0.203c0.082,0.047 0.191,0.071 0.324,0.071c0.134,0 0.251,-0.028 0.351,-0.083c0.1,-0.055 0.186,-0.128 0.257,-0.218c0.071,-0.091 0.128,-0.195 0.17,-0.314c0.043,-0.118 0.076,-0.241 0.098,-0.37Zm0.859,1.374l-0.148,0.579c-0.008,0.029 -0.018,0.048 -0.03,0.057c-0.012,0.009 -0.029,0.014 -0.05,0.014l-0.26,0c-0.018,0 -0.032,-0.005 -0.04,-0.014c-0.009,-0.009 -0.013,-0.028 -0.01,-0.057l0.085,-0.807c0.008,-0.045 0.024,-0.086 0.048,-0.124c0.023,-0.038 0.066,-0.06 0.127,-0.065l0.144,-0.012c0.056,-0.052 0.104,-0.107 0.144,-0.163c0.04,-0.057 0.076,-0.118 0.107,-0.183c0.031,-0.066 0.06,-0.139 0.087,-0.219c0.027,-0.08 0.056,-0.17 0.087,-0.269l0.379,-1.252c0.027,-0.081 0.067,-0.142 0.118,-0.181c0.052,-0.04 0.123,-0.059 0.215,-0.059l1.217,0c0.097,0 0.161,0.021 0.191,0.065c0.031,0.043 0.038,0.109 0.023,0.198l-0.361,2.071l0.16,0.008c0.062,0.005 0.098,0.023 0.107,0.053c0.009,0.03 0.009,0.063 0.001,0.097l-0.198,0.842c-0.008,0.029 -0.017,0.048 -0.028,0.057c-0.011,0.009 -0.027,0.014 -0.048,0.014l-0.263,0c-0.021,0 -0.035,-0.005 -0.041,-0.014c-0.007,-0.009 -0.008,-0.028 -0.006,-0.057l0.077,-0.579l-1.834,0Zm1.93,-2.334l-0.858,0l-0.231,0.779c-0.059,0.205 -0.109,0.37 -0.149,0.496c-0.04,0.126 -0.077,0.229 -0.109,0.308c-0.032,0.078 -0.062,0.141 -0.089,0.186c-0.028,0.046 -0.06,0.093 -0.097,0.14l1.2,0l0.333,-1.909Zm2.91,2.252c-0.007,0.036 -0.017,0.06 -0.03,0.069c-0.013,0.009 -0.039,0.013 -0.075,0.013l-0.299,0c-0.032,0 -0.054,-0.005 -0.067,-0.015c-0.012,-0.011 -0.016,-0.033 -0.01,-0.067l0.202,-1.158l-1.224,0l-0.202,1.158c-0.006,0.036 -0.017,0.06 -0.032,0.069c-0.014,0.009 -0.04,0.013 -0.077,0.013l-0.299,0c-0.029,0 -0.05,-0.005 -0.064,-0.015c-0.014,-0.011 -0.018,-0.033 -0.012,-0.067l0.451,-2.591c0.006,-0.034 0.018,-0.056 0.035,-0.067c0.018,-0.01 0.041,-0.015 0.07,-0.015l0.299,0c0.037,0 0.061,0.004 0.073,0.013c0.011,0.01 0.014,0.033 0.007,0.069l-0.177,1.02l1.224,0l0.178,-1.02c0.006,-0.034 0.017,-0.056 0.033,-0.067c0.016,-0.01 0.04,-0.015 0.072,-0.015l0.299,0c0.037,0 0.06,0.004 0.07,0.013c0.01,0.01 0.012,0.033 0.006,0.069l-0.451,2.591Zm2.074,-0.52l-1,0l-0.267,0.535c-0.012,0.024 -0.026,0.041 -0.042,0.052c-0.016,0.01 -0.04,0.015 -0.072,0.015l-0.362,0c-0.029,0 -0.046,-0.008 -0.051,-0.025c-0.005,-0.017 -0.001,-0.036 0.01,-0.057l1.285,-2.492c0.02,-0.04 0.038,-0.071 0.056,-0.095c0.017,-0.023 0.036,-0.042 0.058,-0.055c0.022,-0.013 0.047,-0.023 0.074,-0.029c0.028,-0.007 0.06,-0.01 0.097,-0.01l0.169,0c0.081,0 0.137,0.012 0.167,0.037c0.029,0.025 0.051,0.076 0.064,0.152l0.42,2.492c0.004,0.021 0.002,0.04 -0.008,0.057c-0.01,0.017 -0.029,0.025 -0.058,0.025l-0.362,0c-0.029,0 -0.051,-0.003 -0.067,-0.009c-0.016,-0.007 -0.027,-0.025 -0.032,-0.054l-0.079,-0.539Zm-0.811,-0.409l0.756,0l-0.09,-0.662l-0.068,-0.559l-0.019,0l-0.257,0.547l-0.322,0.674Zm3.385,-0.134l-0.461,0c-0.126,0 -0.235,0.025 -0.326,0.075c-0.091,0.049 -0.167,0.144 -0.228,0.283l-0.32,0.724c-0.013,0.032 -0.031,0.05 -0.052,0.056c-0.022,0.005 -0.044,0.007 -0.065,0.007l-0.346,0c-0.034,0 -0.052,-0.008 -0.053,-0.025c-0.001,-0.017 0.003,-0.036 0.012,-0.057l0.344,-0.78c0.044,-0.097 0.097,-0.179 0.16,-0.248c0.063,-0.068 0.153,-0.121 0.269,-0.157l0.001,-0.004c-0.139,-0.061 -0.234,-0.15 -0.286,-0.27c-0.051,-0.119 -0.063,-0.258 -0.035,-0.415c0.02,-0.118 0.059,-0.227 0.117,-0.325c0.058,-0.098 0.131,-0.183 0.22,-0.254c0.088,-0.071 0.189,-0.126 0.302,-0.165c0.113,-0.04 0.237,-0.059 0.37,-0.059l0.926,0c0.084,0 0.138,0.018 0.163,0.055c0.025,0.037 0.031,0.093 0.018,0.169l-0.431,2.472c-0.005,0.029 -0.014,0.047 -0.027,0.054c-0.013,0.006 -0.032,0.009 -0.059,0.009l-0.334,0c-0.029,0 -0.049,-0.003 -0.059,-0.009c-0.011,-0.007 -0.014,-0.025 -0.009,-0.054l0.189,-1.082Zm-0.902,-0.791c-0.019,0.11 0,0.202 0.058,0.277c0.058,0.075 0.167,0.112 0.327,0.112l0.583,0l0.135,-0.779l-0.606,0c-0.089,0 -0.163,0.013 -0.223,0.039c-0.06,0.026 -0.109,0.059 -0.147,0.097c-0.038,0.038 -0.067,0.08 -0.087,0.126c-0.02,0.045 -0.033,0.088 -0.04,0.128Zm5.023,1.854c-0.007,0.036 -0.017,0.06 -0.03,0.069c-0.013,0.009 -0.039,0.013 -0.075,0.013l-0.3,0c-0.031,0 -0.053,-0.005 -0.066,-0.015c-0.012,-0.011 -0.016,-0.033 -0.01,-0.067l0.202,-1.158l-1.224,0l-0.202,1.158c-0.006,0.036 -0.017,0.06 -0.032,0.069c-0.014,0.009 -0.04,0.013 -0.077,0.013l-0.299,0c-0.029,0 -0.05,-0.005 -0.064,-0.015c-0.014,-0.011 -0.018,-0.033 -0.012,-0.067l0.451,-2.591c0.006,-0.034 0.018,-0.056 0.035,-0.067c0.018,-0.01 0.041,-0.015 0.07,-0.015l0.299,0c0.037,0 0.061,0.004 0.073,0.013c0.011,0.01 0.014,0.033 0.007,0.069l-0.177,1.02l1.224,0l0.178,-1.02c0.006,-0.034 0.017,-0.056 0.033,-0.067c0.016,-0.01 0.04,-0.015 0.072,-0.015l0.299,0c0.036,0 0.06,0.004 0.07,0.013c0.01,0.01 0.012,0.033 0.006,0.069l-0.451,2.591Zm2.074,-0.52l-1,0l-0.267,0.535c-0.012,0.024 -0.026,0.041 -0.042,0.052c-0.016,0.01 -0.04,0.015 -0.072,0.015l-0.362,0c-0.029,0 -0.046,-0.008 -0.051,-0.025c-0.005,-0.017 -0.001,-0.036 0.01,-0.057l1.285,-2.492c0.02,-0.04 0.038,-0.071 0.056,-0.095c0.017,-0.023 0.036,-0.042 0.058,-0.055c0.022,-0.013 0.047,-0.023 0.074,-0.029c0.028,-0.007 0.06,-0.01 0.097,-0.01l0.169,0c0.081,0 0.137,0.012 0.167,0.037c0.029,0.025 0.051,0.076 0.064,0.152l0.42,2.492c0.004,0.021 0.001,0.04 -0.008,0.057c-0.01,0.017 -0.029,0.025 -0.058,0.025l-0.362,0c-0.029,0 -0.051,-0.003 -0.067,-0.009c-0.016,-0.007 -0.027,-0.025 -0.032,-0.054l-0.079,-0.539Zm-0.811,-0.409l0.756,0l-0.09,-0.662l-0.068,-0.559l-0.019,0l-0.257,0.547l-0.322,0.674Zm3.953,0.578l0.151,0.016c0.036,0.005 0.063,0.013 0.081,0.024c0.018,0.01 0.03,0.023 0.036,0.039c0.006,0.016 0.008,0.032 0.005,0.049c-0.003,0.017 -0.006,0.035 -0.009,0.054l-0.193,0.834c-0.007,0.029 -0.017,0.048 -0.029,0.057c-0.012,0.009 -0.027,0.014 -0.046,0.014l-0.26,0c-0.039,0 -0.056,-0.024 -0.05,-0.071l0.073,-0.583l-1.767,0c-0.079,0 -0.137,-0.021 -0.174,-0.065c-0.037,-0.043 -0.047,-0.11 -0.031,-0.202l0.422,-2.425c0.005,-0.029 0.014,-0.048 0.028,-0.056c0.013,-0.007 0.032,-0.011 0.058,-0.011l0.331,0c0.029,0 0.049,0.004 0.059,0.011c0.011,0.008 0.013,0.027 0.008,0.056l-0.395,2.271l1.22,0l0.396,-2.271c0.005,-0.029 0.014,-0.048 0.027,-0.056c0.013,-0.007 0.033,-0.011 0.059,-0.011l0.327,0c0.029,0 0.048,0.004 0.059,0.011c0.01,0.008 0.013,0.027 0.008,0.056l-0.394,2.259Zm2.658,-1.633l-0.451,0.598l-1.002,1.299c-0.05,0.066 -0.094,0.11 -0.129,0.134c-0.036,0.024 -0.089,0.035 -0.16,0.035l-0.138,0c-0.089,0 -0.146,-0.02 -0.17,-0.061c-0.025,-0.04 -0.03,-0.099 -0.017,-0.175l0.428,-2.456c0.005,-0.029 0.014,-0.048 0.028,-0.056c0.013,-0.007 0.032,-0.011 0.058,-0.011l0.327,0c0.029,0 0.048,0.004 0.057,0.011c0.009,0.008 0.012,0.027 0.007,0.056l-0.348,1.992l0.016,0l0.423,-0.551l1.028,-1.335c0.051,-0.068 0.094,-0.114 0.13,-0.138c0.036,-0.024 0.087,-0.035 0.156,-0.035l0.141,0c0.087,0 0.144,0.019 0.17,0.057c0.026,0.038 0.032,0.099 0.017,0.183l-0.427,2.452c-0.005,0.029 -0.015,0.048 -0.028,0.056c-0.013,0.007 -0.033,0.011 -0.059,0.011l-0.327,0c-0.028,0 -0.047,-0.004 -0.056,-0.011c-0.01,-0.008 -0.012,-0.027 -0.007,-0.056l0.349,-1.999l-0.016,0Zm3.216,0.677c-0.08,0.456 -0.242,0.809 -0.486,1.059c-0.244,0.249 -0.57,0.374 -0.977,0.374c-0.396,0 -0.671,-0.12 -0.826,-0.36c-0.156,-0.241 -0.192,-0.593 -0.112,-1.058c0.04,-0.225 0.104,-0.426 0.194,-0.602c0.09,-0.176 0.198,-0.325 0.326,-0.447c0.127,-0.122 0.27,-0.215 0.427,-0.279c0.156,-0.065 0.323,-0.097 0.498,-0.097c0.197,0 0.366,0.032 0.505,0.097c0.14,0.064 0.249,0.157 0.328,0.279c0.078,0.122 0.128,0.271 0.148,0.445c0.021,0.175 0.013,0.371 -0.025,0.589Zm-0.499,0.015c0.023,-0.131 0.035,-0.256 0.036,-0.376c0.001,-0.119 -0.016,-0.225 -0.051,-0.316c-0.035,-0.092 -0.094,-0.165 -0.175,-0.219c-0.081,-0.054 -0.192,-0.081 -0.334,-0.081c-0.121,0 -0.23,0.026 -0.328,0.077c-0.099,0.051 -0.185,0.121 -0.259,0.211c-0.075,0.089 -0.137,0.192 -0.186,0.309c-0.049,0.117 -0.086,0.242 -0.109,0.376c-0.027,0.152 -0.039,0.29 -0.039,0.413c0.001,0.123 0.022,0.229 0.061,0.317c0.04,0.088 0.101,0.156 0.183,0.203c0.083,0.047 0.191,0.071 0.325,0.071c0.134,0 0.251,-0.028 0.351,-0.083c0.1,-0.055 0.185,-0.128 0.256,-0.218c0.071,-0.091 0.128,-0.195 0.171,-0.314c0.043,-0.118 0.075,-0.241 0.098,-0.37Zm2.904,1.292c-0.007,0.036 -0.016,0.06 -0.03,0.069c-0.013,0.009 -0.038,0.013 -0.075,0.013l-0.299,0c-0.032,0 -0.054,-0.005 -0.066,-0.015c-0.013,-0.011 -0.016,-0.033 -0.01,-0.067l0.201,-1.158l-1.224,0l-0.202,1.158c-0.006,0.036 -0.017,0.06 -0.031,0.069c-0.015,0.009 -0.041,0.013 -0.078,0.013l-0.299,0c-0.029,0 -0.05,-0.005 -0.064,-0.015c-0.014,-0.011 -0.018,-0.033 -0.012,-0.067l0.451,-2.591c0.006,-0.034 0.018,-0.056 0.036,-0.067c0.017,-0.01 0.04,-0.015 0.069,-0.015l0.299,0c0.037,0 0.061,0.004 0.073,0.013c0.011,0.01 0.014,0.033 0.008,0.069l-0.178,1.02l1.224,0l0.178,-1.02c0.006,-0.034 0.017,-0.056 0.033,-0.067c0.017,-0.01 0.04,-0.015 0.072,-0.015l0.299,0c0.037,0 0.06,0.004 0.071,0.013c0.01,0.01 0.012,0.033 0.005,0.069l-0.451,2.591Zm2.074,-0.52l-1,0l-0.266,0.535c-0.013,0.024 -0.027,0.041 -0.043,0.052c-0.016,0.01 -0.04,0.015 -0.072,0.015l-0.362,0c-0.029,0 -0.046,-0.008 -0.051,-0.025c-0.004,-0.017 -0.001,-0.036 0.01,-0.057l1.285,-2.492c0.02,-0.04 0.038,-0.071 0.056,-0.095c0.017,-0.023 0.037,-0.042 0.059,-0.055c0.022,-0.013 0.046,-0.023 0.074,-0.029c0.027,-0.007 0.059,-0.01 0.096,-0.01l0.169,0c0.081,0 0.137,0.012 0.167,0.037c0.03,0.025 0.051,0.076 0.064,0.152l0.42,2.492c0.004,0.021 0.002,0.04 -0.008,0.057c-0.009,0.017 -0.029,0.025 -0.058,0.025l-0.362,0c-0.029,0 -0.051,-0.003 -0.067,-0.009c-0.016,-0.007 -0.026,-0.025 -0.032,-0.054l-0.079,-0.539Zm-0.811,-0.409l0.756,0l-0.089,-0.662l-0.068,-0.559l-0.02,0l-0.257,0.547l-0.322,0.674Zm2.489,-1.481c0.022,-0.094 0.057,-0.162 0.105,-0.202c0.048,-0.041 0.112,-0.061 0.193,-0.061l1.292,0c0.168,0 0.236,0.088 0.206,0.263l-0.423,2.425c-0.005,0.029 -0.013,0.048 -0.025,0.056c-0.012,0.007 -0.032,0.011 -0.061,0.011l-0.335,0c-0.026,0 -0.044,-0.004 -0.055,-0.011c-0.01,-0.008 -0.013,-0.027 -0.008,-0.056l0.395,-2.267l-0.87,0l-0.083,0.342c-0.072,0.294 -0.139,0.557 -0.202,0.788c-0.062,0.231 -0.135,0.432 -0.22,0.602c-0.084,0.171 -0.188,0.311 -0.312,0.421c-0.123,0.111 -0.282,0.193 -0.475,0.248c-0.028,0.006 -0.049,0.005 -0.065,-0.002c-0.016,-0.006 -0.027,-0.024 -0.032,-0.053l-0.042,-0.232c-0.001,-0.024 0.001,-0.043 0.008,-0.059c0.007,-0.016 0.026,-0.03 0.057,-0.043c0.118,-0.048 0.215,-0.108 0.289,-0.182c0.075,-0.073 0.14,-0.171 0.195,-0.295c0.056,-0.123 0.109,-0.277 0.158,-0.462c0.049,-0.185 0.108,-0.414 0.177,-0.687l0.133,-0.544Zm2.109,2.492c-0.084,0 -0.139,-0.017 -0.164,-0.053c-0.026,-0.035 -0.031,-0.092 -0.018,-0.171l0.43,-2.468c0.006,-0.029 0.015,-0.048 0.028,-0.056c0.013,-0.007 0.033,-0.011 0.059,-0.011l0.334,0c0.029,0 0.048,0.004 0.058,0.011c0.009,0.008 0.011,0.027 0.006,0.056l-0.168,0.96l0.646,0c0.15,0 0.274,0.015 0.374,0.046c0.1,0.03 0.181,0.07 0.245,0.12c0.063,0.049 0.111,0.105 0.144,0.167c0.033,0.062 0.054,0.125 0.065,0.191c0.011,0.065 0.014,0.128 0.01,0.189c-0.004,0.06 -0.01,0.114 -0.018,0.161c-0.021,0.124 -0.066,0.238 -0.132,0.343c-0.067,0.105 -0.149,0.195 -0.247,0.271c-0.097,0.076 -0.205,0.136 -0.324,0.179c-0.119,0.044 -0.243,0.065 -0.372,0.065l-0.956,0Zm1.539,-0.881c0.022,-0.126 0,-0.232 -0.065,-0.317c-0.065,-0.086 -0.175,-0.128 -0.33,-0.128l-0.649,0l-0.156,0.893l0.642,0c0.094,0 0.175,-0.015 0.242,-0.045c0.067,-0.03 0.122,-0.067 0.167,-0.112c0.045,-0.045 0.078,-0.093 0.102,-0.146c0.024,-0.052 0.039,-0.101 0.047,-0.145Zm2.915,0.799c-0.006,0.036 -0.016,0.06 -0.03,0.069c-0.013,0.009 -0.038,0.013 -0.075,0.013l-0.299,0c-0.032,0 -0.053,-0.005 -0.066,-0.015c-0.013,-0.011 -0.016,-0.033 -0.01,-0.067l0.202,-1.158l-1.225,0l-0.201,1.158c-0.007,0.036 -0.018,0.06 -0.032,0.069c-0.015,0.009 -0.041,0.013 -0.077,0.013l-0.3,0c-0.028,0 -0.05,-0.005 -0.064,-0.015c-0.014,-0.011 -0.018,-0.033 -0.012,-0.067l0.452,-2.591c0.005,-0.034 0.017,-0.056 0.035,-0.067c0.017,-0.01 0.041,-0.015 0.069,-0.015l0.3,0c0.036,0 0.061,0.004 0.072,0.013c0.012,0.01 0.014,0.033 0.008,0.069l-0.178,1.02l1.225,0l0.177,-1.02c0.006,-0.034 0.017,-0.056 0.033,-0.067c0.017,-0.01 0.041,-0.015 0.072,-0.015l0.299,0c0.037,0 0.061,0.004 0.071,0.013c0.01,0.01 0.012,0.033 0.005,0.069l-0.451,2.591Zm2.074,-0.52l-1,0l-0.266,0.535c-0.012,0.024 -0.027,0.041 -0.043,0.052c-0.016,0.01 -0.04,0.015 -0.072,0.015l-0.362,0c-0.029,0 -0.045,-0.008 -0.05,-0.025c-0.005,-0.017 -0.002,-0.036 0.01,-0.057l1.284,-2.492c0.02,-0.04 0.039,-0.071 0.056,-0.095c0.017,-0.023 0.037,-0.042 0.059,-0.055c0.022,-0.013 0.047,-0.023 0.074,-0.029c0.027,-0.007 0.059,-0.01 0.096,-0.01l0.169,0c0.082,0 0.137,0.012 0.167,0.037c0.03,0.025 0.051,0.076 0.064,0.152l0.42,2.492c0.005,0.021 0.002,0.04 -0.008,0.057c-0.009,0.017 -0.028,0.025 -0.057,0.025l-0.362,0c-0.029,0 -0.052,-0.003 -0.068,-0.009c-0.015,-0.007 -0.026,-0.025 -0.032,-0.054l-0.079,-0.539Zm-0.81,-0.409l0.755,0l-0.089,-0.662l-0.068,-0.559l-0.02,0l-0.256,0.547l-0.322,0.674Zm3.384,-0.134l-0.46,0c-0.126,0 -0.235,0.025 -0.327,0.075c-0.091,0.049 -0.167,0.144 -0.228,0.283l-0.319,0.724c-0.014,0.032 -0.031,0.05 -0.053,0.056c-0.022,0.005 -0.043,0.007 -0.064,0.007l-0.347,0c-0.034,0 -0.051,-0.008 -0.053,-0.025c0,-0.017 0.003,-0.036 0.012,-0.057l0.345,-0.78c0.043,-0.097 0.096,-0.179 0.159,-0.248c0.063,-0.068 0.153,-0.121 0.27,-0.157l0.001,-0.004c-0.14,-0.061 -0.235,-0.15 -0.286,-0.27c-0.052,-0.119 -0.064,-0.258 -0.036,-0.415c0.02,-0.118 0.06,-0.227 0.118,-0.325c0.057,-0.098 0.131,-0.183 0.219,-0.254c0.088,-0.071 0.189,-0.126 0.302,-0.165c0.114,-0.04 0.237,-0.059 0.371,-0.059l0.925,0c0.084,0 0.138,0.018 0.164,0.055c0.025,0.037 0.031,0.093 0.017,0.169l-0.43,2.472c-0.005,0.029 -0.014,0.047 -0.027,0.054c-0.013,0.006 -0.033,0.009 -0.059,0.009l-0.335,0c-0.029,0 -0.048,-0.003 -0.059,-0.009c-0.011,-0.007 -0.013,-0.025 -0.008,-0.054l0.188,-1.082Zm-0.901,-0.791c-0.019,0.11 0,0.202 0.058,0.277c0.057,0.075 0.166,0.112 0.326,0.112l0.583,0l0.136,-0.779l-0.606,0c-0.09,0 -0.164,0.013 -0.224,0.039c-0.059,0.026 -0.108,0.059 -0.146,0.097c-0.039,0.038 -0.068,0.08 -0.087,0.126c-0.02,0.045 -0.033,0.088 -0.04,0.128Zm5.015,1.869c-0.005,0.029 -0.014,0.048 -0.027,0.056c-0.013,0.007 -0.034,0.011 -0.063,0.011l-0.327,0c-0.026,0 -0.044,-0.004 -0.055,-0.011c-0.01,-0.008 -0.013,-0.027 -0.008,-0.056l0.395,-2.267l-1.22,0l-0.395,2.267c-0.005,0.029 -0.014,0.048 -0.028,0.056c-0.013,0.007 -0.034,0.011 -0.063,0.011l-0.331,0c-0.026,0 -0.044,-0.004 -0.054,-0.011c-0.011,-0.008 -0.014,-0.027 -0.008,-0.056l0.422,-2.425c0.016,-0.091 0.05,-0.159 0.102,-0.202c0.052,-0.044 0.118,-0.065 0.196,-0.065l1.681,0c0.169,0 0.237,0.089 0.206,0.267l-0.423,2.425Zm1.002,-0.015c-0.006,0.036 -0.016,0.06 -0.029,0.069c-0.014,0.009 -0.039,0.013 -0.076,0.013l-0.295,0c-0.029,0 -0.05,-0.005 -0.064,-0.015c-0.014,-0.011 -0.018,-0.033 -0.012,-0.067l0.428,-2.457c0.013,-0.073 0.038,-0.129 0.076,-0.167c0.038,-0.038 0.099,-0.057 0.183,-0.057l0.937,0c0.132,0 0.248,0.02 0.35,0.061c0.102,0.041 0.185,0.098 0.249,0.173c0.065,0.075 0.109,0.164 0.135,0.268c0.025,0.103 0.027,0.217 0.005,0.34c-0.012,0.071 -0.038,0.156 -0.077,0.254c-0.04,0.099 -0.101,0.194 -0.184,0.286c-0.083,0.091 -0.19,0.17 -0.322,0.234c-0.132,0.064 -0.296,0.096 -0.493,0.096l-0.642,0l-0.169,0.969Zm1.386,-1.807c0.008,-0.045 0.009,-0.093 0.004,-0.146c-0.006,-0.052 -0.022,-0.1 -0.05,-0.144c-0.028,-0.043 -0.071,-0.079 -0.129,-0.108c-0.058,-0.029 -0.135,-0.043 -0.233,-0.043l-0.582,0l-0.153,0.874l0.591,0c0.165,0 0.293,-0.041 0.384,-0.122c0.09,-0.082 0.146,-0.185 0.168,-0.311" style="fill:#fff;fill-rule:nonzero;"/><path d="M75.67,32.354c-0.005,0.029 -0.015,0.051 -0.028,0.068c-0.013,0.016 -0.037,0.023 -0.071,0.023l-1.122,0c-0.139,0 -0.25,-0.019 -0.332,-0.059c-0.083,-0.039 -0.145,-0.091 -0.187,-0.157c-0.043,-0.066 -0.067,-0.141 -0.073,-0.224c-0.007,-0.084 -0.002,-0.172 0.014,-0.264l0.235,-1.347c0.016,-0.091 0.044,-0.18 0.083,-0.265c0.04,-0.086 0.094,-0.161 0.162,-0.227c0.068,-0.065 0.15,-0.118 0.246,-0.157c0.096,-0.04 0.207,-0.059 0.333,-0.059l1.098,0c0.034,0 0.055,0.007 0.061,0.021c0.007,0.015 0.008,0.038 0.002,0.069l-0.043,0.248c-0.006,0.034 -0.015,0.057 -0.026,0.069c-0.011,0.012 -0.034,0.018 -0.068,0.018l-1.047,0c-0.1,0 -0.174,0.022 -0.222,0.067c-0.049,0.044 -0.08,0.109 -0.095,0.193l-0.072,0.413l1.189,0c0.034,0 0.054,0.007 0.061,0.02c0.007,0.013 0.008,0.038 0.001,0.075l-0.037,0.216c-0.006,0.032 -0.015,0.055 -0.026,0.069c-0.012,0.014 -0.035,0.022 -0.069,0.022l-1.189,0l-0.1,0.572c-0.014,0.083 -0.004,0.147 0.032,0.189c0.036,0.044 0.101,0.065 0.196,0.065l1.07,0c0.037,0 0.059,0.007 0.066,0.02c0.007,0.013 0.007,0.039 0.001,0.075l-0.043,0.247Zm2.948,-1.81l-0.024,0l-0.302,0.535l-0.502,0.87c-0.04,0.069 -0.077,0.115 -0.108,0.138c-0.032,0.024 -0.081,0.036 -0.146,0.036l-0.177,0c-0.066,0 -0.111,-0.012 -0.134,-0.036c-0.023,-0.023 -0.042,-0.069 -0.057,-0.138l-0.201,-0.83l-0.121,-0.528l-0.024,0l-0.308,1.772c-0.007,0.036 -0.017,0.06 -0.032,0.069c-0.015,0.009 -0.039,0.013 -0.073,0.013l-0.284,0c-0.029,0 -0.05,-0.004 -0.064,-0.013c-0.014,-0.009 -0.018,-0.033 -0.012,-0.069l0.425,-2.437c0.014,-0.081 0.04,-0.142 0.078,-0.181c0.039,-0.04 0.103,-0.059 0.192,-0.059l0.161,0c0.068,0 0.118,0.011 0.148,0.035c0.03,0.024 0.053,0.071 0.069,0.142l0.268,1.153l0.138,0.611l0.016,0l0.35,-0.615l0.665,-1.149c0.042,-0.071 0.082,-0.118 0.123,-0.142c0.041,-0.024 0.096,-0.035 0.164,-0.035l0.15,0c0.084,0 0.14,0.018 0.167,0.055c0.028,0.037 0.035,0.096 0.021,0.177l-0.426,2.445c-0.007,0.036 -0.017,0.06 -0.032,0.069c-0.015,0.009 -0.039,0.013 -0.073,0.013l-0.28,0c-0.029,0 -0.05,-0.004 -0.062,-0.013c-0.013,-0.009 -0.016,-0.033 -0.01,-0.069l0.317,-1.819Zm2.756,-0.165l-0.451,0.598l-1.002,1.299c-0.05,0.066 -0.094,0.11 -0.129,0.134c-0.036,0.024 -0.089,0.035 -0.16,0.035l-0.138,0c-0.089,0 -0.146,-0.02 -0.17,-0.061c-0.025,-0.04 -0.03,-0.099 -0.017,-0.175l0.428,-2.456c0.005,-0.029 0.014,-0.048 0.028,-0.056c0.013,-0.007 0.032,-0.011 0.059,-0.011l0.326,0c0.029,0 0.048,0.004 0.057,0.011c0.009,0.008 0.012,0.027 0.007,0.056l-0.348,1.992l0.016,0l0.423,-0.551l1.028,-1.335c0.051,-0.068 0.094,-0.114 0.13,-0.138c0.036,-0.024 0.087,-0.035 0.156,-0.035l0.141,0c0.087,0 0.144,0.019 0.17,0.057c0.026,0.038 0.032,0.099 0.017,0.183l-0.427,2.452c-0.005,0.029 -0.014,0.048 -0.028,0.056c-0.013,0.007 -0.033,0.011 -0.059,0.011l-0.327,0c-0.028,0 -0.047,-0.004 -0.056,-0.011c-0.01,-0.008 -0.012,-0.027 -0.007,-0.056l0.349,-1.999l-0.016,0Zm2.347,0.921l-0.461,0c-0.126,0 -0.235,0.025 -0.326,0.075c-0.091,0.049 -0.168,0.144 -0.229,0.283l-0.319,0.724c-0.013,0.032 -0.031,0.05 -0.053,0.056c-0.022,0.005 -0.043,0.007 -0.064,0.007l-0.347,0c-0.034,0 -0.051,-0.008 -0.052,-0.025c-0.001,-0.017 0.003,-0.036 0.012,-0.057l0.344,-0.78c0.043,-0.097 0.097,-0.179 0.16,-0.248c0.063,-0.068 0.153,-0.121 0.269,-0.157l0.001,-0.004c-0.139,-0.061 -0.234,-0.15 -0.286,-0.27c-0.051,-0.119 -0.063,-0.258 -0.036,-0.415c0.021,-0.118 0.06,-0.227 0.118,-0.325c0.058,-0.098 0.131,-0.183 0.219,-0.254c0.089,-0.071 0.189,-0.126 0.303,-0.165c0.113,-0.04 0.236,-0.059 0.37,-0.059l0.925,0c0.084,0 0.139,0.018 0.164,0.055c0.025,0.037 0.031,0.093 0.018,0.169l-0.431,2.472c-0.005,0.029 -0.014,0.047 -0.027,0.054c-0.013,0.006 -0.033,0.009 -0.059,0.009l-0.334,0c-0.029,0 -0.049,-0.003 -0.06,-0.009c-0.01,-0.007 -0.013,-0.025 -0.008,-0.054l0.189,-1.082Zm-0.902,-0.791c-0.019,0.11 0,0.202 0.058,0.277c0.058,0.075 0.167,0.112 0.327,0.112l0.582,0l0.136,-0.779l-0.606,0c-0.089,0 -0.164,0.013 -0.223,0.039c-0.06,0.026 -0.109,0.059 -0.147,0.097c-0.038,0.038 -0.067,0.08 -0.087,0.126c-0.02,0.045 -0.033,0.088 -0.04,0.128" style="fill:#fff;fill-rule:nonzero;"/><path d="M95.507,3.301c-0.148,0.813 -0.62,1.516 -1.416,2.109c-0.244,0.182 -0.506,0.364 -0.788,0.546l-3.489,2.224l4.807,0l-0.365,2.009l-7.749,0l0.495,-2.727l5.844,-3.731l0.13,-0.717c0.104,-0.574 -0.13,-0.861 -0.704,-0.861l-4.019,0l0.365,-2.01l4.592,0c1.005,0 1.693,0.228 2.065,0.682c0.372,0.455 0.467,1.184 0.284,2.189l-0.052,0.287Zm6.615,-0.431c0.104,-0.574 -0.131,-0.861 -0.705,-0.861l-1.578,0c-0.574,0 -0.913,0.287 -1.018,0.861l-0.834,4.592c-0.104,0.574 0.131,0.861 0.705,0.861l1.579,0c0.574,0 0.913,-0.287 1.017,-0.861l0.834,-4.592Zm1.749,4.592c-0.182,1.005 -0.542,1.734 -1.079,2.189c-0.537,0.454 -1.308,0.682 -2.312,0.682l-2.727,0c-1.004,0 -1.693,-0.228 -2.064,-0.682c-0.372,-0.455 -0.467,-1.184 -0.285,-2.189l0.834,-4.592c0.183,-1.004 0.542,-1.734 1.079,-2.188c0.537,-0.455 1.308,-0.682 2.313,-0.682l2.726,0c1.005,0 1.693,0.227 2.065,0.682c0.372,0.454 0.467,1.184 0.284,2.188l-0.834,4.592Zm2.095,2.727l1.421,-7.821l-1.755,0.574l-0.418,-1.65l2.864,-1.149l2.296,0l-1.825,10.046l-2.583,0Zm7.697,-4.018c-0.574,0 -0.913,0.287 -1.017,0.861l-0.105,0.574c-0.039,0.22 -0.007,0.395 0.099,0.524c0.106,0.129 0.269,0.193 0.489,0.193l2.152,0c0.22,0 0.407,-0.064 0.559,-0.193c0.153,-0.129 0.249,-0.304 0.289,-0.524l0.104,-0.574c0.105,-0.574 -0.13,-0.861 -0.704,-0.861l-1.866,0Zm1.043,-4.162c-0.574,0 -0.913,0.287 -1.018,0.861l-0.078,0.431c-0.104,0.574 0.131,0.861 0.705,0.861l1.292,0c0.574,0 0.913,-0.287 1.017,-0.861l0.078,-0.431c0.105,-0.574 -0.13,-0.861 -0.704,-0.861l-1.292,0Zm4.006,5.597c-0.17,0.937 -0.515,1.626 -1.035,2.067c-0.52,0.44 -1.249,0.66 -2.186,0.66l-3.301,0c-0.938,0 -1.587,-0.22 -1.947,-0.66c-0.36,-0.441 -0.455,-1.13 -0.285,-2.067l0.026,-0.144c0.132,-0.727 0.424,-1.329 0.874,-1.808c0.357,-0.382 0.796,-0.641 1.318,-0.775c-0.405,-0.143 -0.706,-0.394 -0.904,-0.753c-0.198,-0.359 -0.245,-0.825 -0.141,-1.399l0.026,-0.144c0.159,-0.871 0.496,-1.519 1.014,-1.944c0.517,-0.426 1.245,-0.639 2.182,-0.639l2.727,0c0.938,0 1.588,0.213 1.951,0.639c0.362,0.425 0.465,1.073 0.306,1.944l-0.026,0.144c-0.104,0.574 -0.32,1.04 -0.648,1.399c-0.329,0.359 -0.721,0.61 -1.178,0.753c0.737,0.211 1.17,0.727 1.297,1.55c0.042,0.297 0.028,0.641 -0.044,1.033l-0.026,0.144Z" style="fill:#fff;fill-rule:nonzero;"/><g><clipPath id="_clip1"><path d="M95.507,3.301c-0.148,0.813 -0.62,1.516 -1.416,2.109c-0.244,0.182 -0.506,0.364 -0.788,0.546l-3.489,2.224l4.807,0l-0.365,2.009l-7.749,0l0.495,-2.727l5.844,-3.731l0.13,-0.717c0.104,-0.574 -0.13,-0.861 -0.704,-0.861l-4.019,0l0.365,-2.01l4.592,0c1.005,0 1.693,0.228 2.065,0.682c0.372,0.455 0.467,1.184 0.284,2.189l-0.052,0.287Zm6.615,-0.431c0.104,-0.574 -0.131,-0.861 -0.705,-0.861l-1.578,0c-0.574,0 -0.913,0.287 -1.018,0.861l-0.834,4.592c-0.104,0.574 0.131,0.861 0.705,0.861l1.579,0c0.574,0 0.913,-0.287 1.017,-0.861l0.834,-4.592Zm1.749,4.592c-0.182,1.005 -0.542,1.734 -1.079,2.189c-0.537,0.454 -1.308,0.682 -2.312,0.682l-2.727,0c-1.004,0 -1.693,-0.228 -2.064,-0.682c-0.372,-0.455 -0.467,-1.184 -0.285,-2.189l0.834,-4.592c0.183,-1.004 0.542,-1.734 1.079,-2.188c0.537,-0.455 1.308,-0.682 2.313,-0.682l2.726,0c1.005,0 1.693,0.227 2.065,0.682c0.372,0.454 0.467,1.184 0.284,2.188l-0.834,4.592Zm2.095,2.727l1.421,-7.821l-1.755,0.574l-0.418,-1.65l2.864,-1.149l2.296,0l-1.825,10.046l-2.583,0Zm7.697,-4.018c-0.574,0 -0.913,0.287 -1.017,0.861l-0.105,0.574c-0.039,0.22 -0.007,0.395 0.099,0.524c0.106,0.129 0.269,0.193 0.489,0.193l2.152,0c0.22,0 0.407,-0.064 0.559,-0.193c0.153,-0.129 0.249,-0.304 0.289,-0.524l0.104,-0.574c0.105,-0.574 -0.13,-0.861 -0.704,-0.861l-1.866,0Zm1.043,-4.162c-0.574,0 -0.913,0.287 -1.018,0.861l-0.078,0.431c-0.104,0.574 0.131,0.861 0.705,0.861l1.292,0c0.574,0 0.913,-0.287 1.017,-0.861l0.078,-0.431c0.105,-0.574 -0.13,-0.861 -0.704,-0.861l-1.292,0Zm4.006,5.597c-0.17,0.937 -0.515,1.626 -1.035,2.067c-0.52,0.44 -1.249,0.66 -2.186,0.66l-3.301,0c-0.938,0 -1.587,-0.22 -1.947,-0.66c-0.36,-0.441 -0.455,-1.13 -0.285,-2.067l0.026,-0.144c0.132,-0.727 0.424,-1.329 0.874,-1.808c0.357,-0.382 0.796,-0.641 1.318,-0.775c-0.405,-0.143 -0.706,-0.394 -0.904,-0.753c-0.198,-0.359 -0.245,-0.825 -0.141,-1.399l0.026,-0.144c0.159,-0.871 0.496,-1.519 1.014,-1.944c0.517,-0.426 1.245,-0.639 2.182,-0.639l2.727,0c0.938,0 1.588,0.213 1.951,0.639c0.362,0.425 0.465,1.073 0.306,1.944l-0.026,0.144c-0.104,0.574 -0.32,1.04 -0.648,1.399c-0.329,0.359 -0.721,0.61 -1.178,0.753c0.737,0.211 1.17,0.727 1.297,1.55c0.042,0.297 0.028,0.641 -0.044,1.033l-0.026,0.144Z" clip-rule="nonzero"/></clipPath><g clip-path="url(#_clip1)"><path d="M96.499,11.599c2.857,-0.01 6.389,-0.025 8.901,-0.609c2.852,-0.785 5.178,-1.21 8.368,-1.389c3.007,-0.167 5.833,-0.213 9.186,0.421c3.591,0.678 6.93,1.726 11.314,2.791c4.384,1.066 10.901,-0.401 15.165,1.637l-0.084,-0.067c-4.337,-2.457 -10.455,-0.937 -15.013,-2.123c-4.559,-1.187 -7.915,-3.061 -11.551,-3.714c-3.141,-0.564 -6.18,-0.444 -9.026,-0.208c-3.154,0.261 -5.645,1.005 -8.443,1.949c-2.932,1.03 -5.98,1.244 -8.817,1.312" style="fill:#006db7;"/><path d="M96.549,11.514c2.857,-0.01 6.247,-0.361 8.851,-1.079c2.852,-0.786 5.178,-1.697 8.368,-1.876c3.007,-0.168 6.018,-0.28 9.371,0.353c3.591,0.678 6.745,2.281 11.129,3.346c4.384,1.066 11.005,0.057 15.268,2.095l-0.083,-0.067c-4.338,-2.457 -10.559,-1.395 -15.117,-2.581c-4.559,-1.187 -7.915,-3.061 -11.551,-3.714c-3.141,-0.564 -6.18,-0.444 -9.026,-0.208c-3.154,0.261 -5.645,1.005 -8.443,1.949c-2.554,0.862 -5.93,1.714 -8.767,1.782" style="fill:#fff;"/><path d="M96.14,11.694c2.879,-0.008 6.048,0.099 8.826,-0.367c5.79,-0.971 12.391,-1.416 18.21,-0.563c3.607,0.53 6.222,1.288 10.604,2.214c4.382,0.924 11.537,0.055 15.872,1.703l-0.132,-0.221c-4.281,-1.965 -11.032,-0.965 -15.342,-1.838c-4.817,-0.975 -7.649,-2.274 -11.304,-2.784c-3.157,-0.44 -6.425,-0.497 -9.295,-0.313c-3.182,0.203 -5.725,0.701 -8.556,1.439c-2.584,0.673 -6.024,0.677 -8.883,0.73" style="fill:#d22229;"/></g></g></g></svg>