<?xml version="1.0" encoding="UTF-8" standalone="no"?>
<!DOCTYPE svg PUBLIC "-//W3C//DTD SVG 1.1//EN" "http://www.w3.org/Graphics/SVG/1.1/DTD/svg11.dtd">
<svg width="100%" height="100%" viewBox="0 0 158 132" version="1.1" xmlns="http://www.w3.org/2000/svg" xmlns:xlink="http://www.w3.org/1999/xlink" xml:space="preserve" xmlns:serif="http://www.serif.com/" style="fill-rule:evenodd;clip-rule:evenodd;stroke-linejoin:round;stroke-miterlimit:1.41421;">
    <g transform="matrix(1.04115,0,0,5.31955,-66,-53.4899)">
        <g transform="matrix(3.04045,0,0,0.595078,-170.689,-26.7629)">
            <text x="120.292px" y="102.807px" style="font-family:'ArialMT', 'Arial', sans-serif;font-size:6.537px;fill:white;">*</text>
        </g>
        <g transform="matrix(1.18397,0,0,1.18397,9.75471,-7.94668)">
            <g transform="matrix(0.649356,0,0,0.127092,23.7357,4.58373)">
                <path d="M73.385,179.195L73.385,195.877L69.626,195.877L69.626,184.152L64.598,192.54L59.546,184.152L59.546,195.877L55.811,195.877L55.811,179.195L60.65,179.195L64.598,185.985L68.45,179.195L73.385,179.195Z" style="fill:white;fill-rule:nonzero;"/>
            </g>
            <g transform="matrix(0.649356,0,0,0.127092,23.7357,4.58373)">
                <rect x="76.558" y="179.195" width="3.736" height="16.682" style="fill:white;fill-rule:nonzero;"/>
            </g>
            <g transform="matrix(0.649356,0,0,0.127092,23.7357,4.58373)">
                <path d="M86.427,182.672L81.916,182.672L81.916,179.195L94.697,179.195L94.697,182.672L90.186,182.672L90.186,195.877L86.427,195.877L86.427,182.672Z" style="fill:white;fill-rule:nonzero;"/>
            </g>
            <g transform="matrix(0.649356,0,0,0.127092,23.7357,4.58373)">
                <path d="M96.084,195.665L96.084,192.188C96.859,192.329 98.74,192.658 101.042,192.658C102.969,192.658 103.932,192.399 103.932,191.342C103.932,190.12 103.109,189.955 100.408,188.71C97.776,187.512 95.825,186.455 95.825,183.635C95.825,180.158 97.94,178.96 102.123,178.96C104.261,178.96 105.812,179.148 106.775,179.265L106.775,182.742C105.835,182.649 104.12,182.414 102.217,182.414C99.961,182.414 99.514,182.649 99.514,183.565C99.514,184.505 100.737,184.975 102.569,185.797C105.319,187.043 107.574,188.076 107.574,191.248C107.574,194.561 105.506,196.111 101.042,196.111C99.28,196.111 97.635,195.923 96.084,195.665Z" style="fill:white;fill-rule:nonzero;"/>
            </g>
            <g transform="matrix(0.649356,0,0,0.127092,23.7357,4.58373)">
                <path d="M109.807,190.238L109.807,179.195L113.543,179.195L113.543,190.096C113.543,191.999 114.671,192.658 116.456,192.658C118.242,192.658 119.393,191.999 119.393,190.096L119.393,179.195L123.129,179.195L123.129,190.238C123.129,194.279 120.474,196.111 116.456,196.111C112.438,196.111 109.807,194.279 109.807,190.238Z" style="fill:white;fill-rule:nonzero;"/>
            </g>
            <g transform="matrix(0.649356,0,0,0.127092,23.7357,4.58373)">
                <path d="M133.327,192.728C134.831,192.728 135.441,192.188 135.441,190.731C135.441,189.439 134.877,188.899 133.49,188.899L130.061,188.899L130.061,192.728L133.327,192.728ZM133.069,185.938C134.572,185.938 135.113,185.14 135.113,184.035C135.113,182.695 134.454,182.343 133.069,182.343L130.061,182.343L130.061,185.938L133.069,185.938ZM126.325,179.195L133.608,179.195C137.015,179.195 138.896,180.44 138.896,183.494C138.896,185.914 137.509,186.666 136.24,187.16C137.744,187.606 139.318,188.429 139.318,191.225C139.318,194.138 137.556,195.877 133.868,195.877L126.325,195.877L126.325,179.195Z" style="fill:white;fill-rule:nonzero;"/>
            </g>
            <g transform="matrix(0.649356,0,0,0.127092,23.7357,4.58373)">
                <rect x="141.575" y="179.195" width="3.736" height="16.682" style="fill:white;fill-rule:nonzero;"/>
            </g>
            <g transform="matrix(0.649356,0,0,0.127092,23.7357,4.58373)">
                <path d="M148.036,195.665L148.036,192.188C148.812,192.329 150.692,192.658 152.994,192.658C154.92,192.658 155.883,192.399 155.883,191.342C155.883,190.12 155.061,189.955 152.36,188.71C149.728,187.512 147.777,186.455 147.777,183.635C147.777,180.158 149.893,178.96 154.074,178.96C156.213,178.96 157.764,179.148 158.727,179.265L158.727,182.742C157.787,182.649 156.072,182.414 154.169,182.414C151.913,182.414 151.466,182.649 151.466,183.565C151.466,184.505 152.689,184.975 154.522,185.797C157.271,187.043 159.526,188.076 159.526,191.248C159.526,194.561 157.458,196.111 152.994,196.111C151.232,196.111 149.586,195.923 148.036,195.665Z" style="fill:white;fill-rule:nonzero;"/>
            </g>
            <g transform="matrix(0.649356,0,0,0.127092,23.7357,4.58373)">
                <path d="M174.916,179.195L174.916,195.877L171.181,195.877L171.181,189.251L165.259,189.251L165.259,195.877L161.524,195.877L161.524,179.195L165.259,179.195L165.259,185.773L171.181,185.773L171.181,179.195L174.916,179.195Z" style="fill:white;fill-rule:nonzero;"/>
            </g>
            <g transform="matrix(0.649356,0,0,0.127092,23.7357,4.58373)">
                <rect x="177.972" y="179.195" width="3.736" height="16.682" style="fill:white;fill-rule:nonzero;"/>
            </g>
            <g transform="matrix(0.649356,0,0,0.127092,23.7357,4.58373)">
                <path d="M90.902,201.646L90.902,218.328L87.142,218.328L87.142,206.603L82.114,214.991L77.062,206.603L77.062,218.328L73.327,218.328L73.327,201.646L78.166,201.646L82.114,208.435L85.968,201.646L90.902,201.646Z" style="fill:white;fill-rule:nonzero;"/>
            </g>
            <g transform="matrix(0.649356,0,0,0.127092,23.7357,4.58373)">
                <path d="M103.967,209.987C103.967,206.579 103.379,204.865 100.654,204.865C97.928,204.865 97.341,206.579 97.341,209.987C97.341,213.417 97.928,215.155 100.654,215.155C103.379,215.155 103.967,213.417 103.967,209.987ZM93.463,209.987C93.463,204.018 95.743,201.411 100.654,201.411C105.565,201.411 107.844,204.018 107.844,209.987C107.844,215.954 105.565,218.562 100.654,218.562C95.743,218.562 93.463,215.954 93.463,209.987Z" style="fill:white;fill-rule:nonzero;"/>
            </g>
            <g transform="matrix(0.649356,0,0,0.127092,23.7357,4.58373)">
                <path d="M112.967,205.123L108.456,205.123L108.456,201.646L121.237,201.646L121.237,205.123L116.726,205.123L116.726,218.328L112.967,218.328L112.967,205.123Z" style="fill:white;fill-rule:nonzero;"/>
            </g>
            <g transform="matrix(0.649356,0,0,0.127092,23.7357,4.58373)">
                <path d="M132.352,209.987C132.352,206.579 131.765,204.865 129.037,204.865C126.312,204.865 125.726,206.579 125.726,209.987C125.726,213.417 126.312,215.155 129.037,215.155C131.765,215.155 132.352,213.417 132.352,209.987ZM121.849,209.987C121.849,204.018 124.128,201.411 129.037,201.411C133.949,201.411 136.228,204.018 136.228,209.987C136.228,215.954 133.949,218.562 129.037,218.562C124.128,218.562 121.849,215.954 121.849,209.987Z" style="fill:white;fill-rule:nonzero;"/>
            </g>
            <g transform="matrix(0.649356,0,0,0.127092,23.7357,4.58373)">
                <path d="M145.346,209.117C147.037,209.117 147.554,208.272 147.554,207.002C147.554,205.71 147.037,204.865 145.346,204.865L142.55,204.865L142.55,209.117L145.346,209.117ZM138.814,201.646L145.581,201.646C149.153,201.646 151.432,202.985 151.432,207.002C151.432,209.587 150.139,211.256 148.002,211.772L152.112,218.328L147.742,218.328L144.218,212.359L142.55,212.359L142.55,218.328L138.814,218.328L138.814,201.646Z" style="fill:white;fill-rule:nonzero;"/>
            </g>
            <g transform="matrix(0.649356,0,0,0.127092,23.7357,4.58373)">
                <path d="M153.665,218.116L153.665,214.638C154.44,214.78 156.319,215.109 158.622,215.109C160.549,215.109 161.512,214.85 161.512,213.793C161.512,212.571 160.69,212.407 157.988,211.161C155.356,209.963 153.405,208.905 153.405,206.086C153.405,202.609 155.52,201.411 159.703,201.411C161.841,201.411 163.392,201.599 164.355,201.715L164.355,205.193C163.415,205.099 161.7,204.865 159.797,204.865C157.541,204.865 157.095,205.099 157.095,206.015C157.095,206.955 158.316,207.426 160.149,208.249C162.898,209.493 165.153,210.527 165.153,213.699C165.153,217.011 163.086,218.562 158.622,218.562C156.86,218.562 155.215,218.374 153.665,218.116Z" style="fill:white;fill-rule:nonzero;"/>
            </g>
            <g transform="matrix(0.649356,0,0,0.127092,23.7357,4.58373)">
                <path d="M102.526,111.247L118.506,138.924L134.486,111.247L118.506,83.57L102.526,111.247Z" style="fill:rgb(237,52,42);fill-rule:nonzero;"/>
            </g>
            <g transform="matrix(0.649356,0,0,0.127092,23.7357,4.58373)">
                <path d="M150.465,138.924L118.505,138.925L134.486,166.603L166.445,166.603L150.465,138.924Z" style="fill:rgb(237,52,42);fill-rule:nonzero;"/>
            </g>
            <g transform="matrix(0.649356,0,0,0.127092,23.7357,4.58373)">
                <path d="M86.545,138.924L118.505,138.925L102.526,166.603L70.565,166.603L86.545,138.924Z" style="fill:rgb(237,52,42);fill-rule:nonzero;"/>
            </g>
            <g transform="matrix(0.649356,0,0,0.127092,23.7357,4.58373)">
                <path d="M33.213,243.788L38.38,243.788C41.927,243.788 44.147,241.75 44.147,237.33C44.147,232.763 41.945,230.871 38.452,230.871L33.213,230.871L33.213,243.788ZM35.505,241.641L35.505,233.017L38.489,233.017C40.672,233.017 41.763,234.31 41.763,237.275C41.763,240.258 40.635,241.641 38.416,241.641L35.505,241.641ZM46.148,243.788L48.422,243.788L48.422,237.111C49.186,236.893 50.114,236.674 51.897,236.674L51.897,234.692C50.095,234.692 49.04,235.165 48.258,235.492L48.258,234.873L46.148,234.873L46.148,243.788ZM54.735,233.582L56.336,231.962L54.735,230.325L53.152,231.962L54.735,233.582ZM53.607,243.788L55.881,243.788L55.881,234.873L53.607,234.873L53.607,243.788ZM61.157,243.788L63.34,243.788C64.377,242.187 66.597,239.932 66.76,234.873L64.486,234.873C64.304,238.566 63.031,240.568 62.248,241.695C61.466,240.568 60.193,238.566 60.011,234.873L57.736,234.873C57.9,239.932 60.12,242.187 61.157,243.788ZM72.964,243.969C74.674,243.969 75.62,243.805 76.166,243.661L76.166,241.786C75.565,241.933 74.511,242.132 73.109,242.132C71.472,242.132 70.399,241.641 70.308,240.059L76.675,240.059C76.693,239.84 76.693,239.439 76.693,239.13C76.693,236.275 75.765,234.692 72.564,234.692C69.471,234.692 68.034,236.237 68.034,239.294C68.034,242.423 69.798,243.969 72.964,243.969ZM70.308,238.584C70.399,237.202 70.908,236.438 72.491,236.438C74.347,236.438 74.474,237.312 74.492,238.584L70.308,238.584ZM84.662,248.337L88.446,243.097C88.882,242.496 91.429,239.313 91.429,234.873L89.155,234.873C89.155,238.385 87.409,240.968 86.863,241.75C86.227,240.84 84.444,238.33 84.444,234.873L82.169,234.873C82.315,239.567 84.444,241.914 85.535,243.515L83.024,247.063L84.662,248.337ZM97.342,243.969C100.417,243.969 102.054,242.35 102.054,239.331C102.054,236.256 100.417,234.692 97.342,234.692C94.285,234.692 92.629,236.256 92.629,239.331C92.629,242.35 94.285,243.969 97.342,243.969ZM97.342,241.987C95.577,241.987 94.977,241.058 94.977,239.313C94.977,237.511 95.577,236.638 97.342,236.638C99.106,236.638 99.725,237.511 99.725,239.313C99.725,241.058 99.106,241.987 97.342,241.987ZM112.552,234.873L110.277,234.873L110.277,241.55C109.514,241.769 108.586,241.987 107.676,241.987C106.912,241.987 106.166,241.659 106.166,240.513L106.166,234.873L103.892,234.873L103.892,240.622C103.892,242.988 105.274,243.969 106.802,243.969C108.603,243.969 109.659,243.497 110.441,243.169L110.441,243.788L112.552,243.788L112.552,234.873ZM115.026,243.788L117.3,243.788L117.3,237.111C118.064,236.893 118.992,236.674 120.775,236.674L120.775,234.692C118.974,234.692 117.919,235.165 117.137,235.492L117.137,234.873L115.026,234.873L115.026,243.788ZM132.927,231.18L132.746,230.871L129.416,230.871L129.271,231.162C127.943,233.836 125.687,236.984 125.687,242.242L125.687,243.77L128.016,243.77L128.016,242.478C128.016,241.75 128.052,241.096 128.125,240.476L134.22,240.476C134.292,241.096 134.329,241.769 134.329,242.496L134.329,243.788L136.656,243.788L136.656,242.368C136.656,237.111 134.402,233.727 132.927,231.18ZM128.451,238.476C129.07,235.91 130.218,234.31 131.109,232.472C132.018,234.345 133.2,235.965 133.855,238.476L128.451,238.476ZM138.859,243.788L141.133,243.788L141.133,237.129C141.661,236.874 142.897,236.692 143.643,236.692C144.481,236.692 145.062,237.093 145.062,238.221L145.062,243.788L147.336,243.788L147.336,237.893C147.336,237.62 147.318,237.366 147.263,237.129C147.755,236.856 149.029,236.674 149.792,236.692C150.612,236.712 151.23,237.093 151.23,238.221L151.23,243.788L153.487,243.788L153.487,237.911C153.487,235.601 152.139,234.692 150.448,234.692C149.229,234.692 147.445,235.055 146.591,235.619C146.082,234.982 145.208,234.692 144.299,234.692C143.026,234.692 141.442,235.201 140.97,235.492L140.97,234.873L138.859,234.873L138.859,243.788ZM161.271,234.692C159.889,234.692 158.871,235.11 158.27,235.328L158.27,230.507L155.996,230.507L155.996,235.346L156.014,243.788L158.27,243.788L158.27,243.187C158.834,243.442 159.652,243.969 161.271,243.969C163.748,243.969 165.221,242.096 165.221,239.331C165.221,236.565 163.748,234.692 161.271,234.692ZM160.763,241.968C159.652,241.968 158.907,241.714 158.289,241.568L158.289,237.056C158.926,236.893 159.652,236.657 160.763,236.657C162.345,236.657 162.946,237.693 162.946,239.331C162.946,240.968 162.309,241.968 160.763,241.968ZM168.403,233.582L170.005,231.962L168.403,230.325L166.822,231.962L168.403,233.582ZM167.276,243.788L169.55,243.788L169.55,234.873L167.276,234.873L167.276,243.788ZM176.374,243.969C177.082,243.969 177.847,243.898 178.265,243.825L178.265,241.769C177.901,241.823 177.337,241.859 176.827,241.859C175.663,241.859 175.117,241.678 175.117,240.585L175.117,236.747L177.992,236.747L177.992,234.873L175.117,234.873L175.117,232.417L172.861,232.417L172.861,234.873L171.224,234.873L171.224,236.747L172.861,236.747L172.861,241.113C172.861,243.224 174.079,243.969 176.374,243.969ZM181.267,233.582L182.866,231.962L181.267,230.325L179.684,231.962L181.267,233.582ZM180.139,243.788L182.413,243.788L182.413,234.873L180.139,234.873L180.139,243.788ZM189.161,243.969C192.237,243.969 193.874,242.35 193.874,239.331C193.874,236.256 192.237,234.692 189.161,234.692C186.106,234.692 184.449,236.256 184.449,239.331C184.449,242.35 186.106,243.969 189.161,243.969ZM189.161,241.987C187.397,241.987 186.797,241.058 186.797,239.313C186.797,237.511 187.397,236.638 189.161,236.638C190.927,236.638 191.545,237.511 191.545,239.313C191.545,241.058 190.927,241.987 189.161,241.987ZM195.803,243.788L198.077,243.788L198.077,237.111C198.841,236.893 199.768,236.674 200.679,236.674C201.443,236.674 202.188,237.002 202.188,238.148L202.188,243.788L204.462,243.788L204.462,238.039C204.462,235.674 203.08,234.692 201.552,234.692C199.749,234.692 198.695,235.165 197.912,235.492L197.912,234.873L195.803,234.873L195.803,243.788Z" style="fill:white;fill-rule:nonzero;"/>
            </g>
        </g>
    </g>
</svg>
